<?xml version="1.0" encoding="utf-8"?>
<svg version="1.1" class="breaks-alert" xmlns="http://www.w3.org/2000/svg" xmlns:xlink="http://www.w3.org/1999/xlink" x="0px" y="0px"
	 viewBox="181.512 366 1200 61" style="enable-background:new 181.512 366 1200 61;" xml:space="preserve">
<g class="breaks-alert--2">
	<g>
		<g class="breaks-alert-st0">
			<path class="breaks-alert-st1" d="M288.384,401.67h-8.016v-1.371l3.076-3.349c0.439-0.475,0.832-0.908,1.178-1.301
				c0.346-0.393,0.64-0.776,0.883-1.151c0.243-0.375,0.429-0.752,0.558-1.129c0.129-0.379,0.193-0.79,0.193-1.235
				c0-0.346-0.05-0.65-0.149-0.914s-0.242-0.487-0.426-0.673c-0.185-0.184-0.403-0.323-0.655-0.417
				c-0.252-0.094-0.533-0.141-0.844-0.141c-0.557,0-1.059,0.113-1.507,0.339s-0.875,0.514-1.279,0.865l-0.896-1.046
				c0.234-0.211,0.486-0.409,0.756-0.593c0.27-0.186,0.56-0.345,0.87-0.479c0.31-0.134,0.639-0.241,0.984-0.321
				c0.346-0.078,0.709-0.118,1.09-0.118c0.562,0,1.071,0.079,1.525,0.237c0.454,0.158,0.839,0.386,1.156,0.682
				c0.317,0.296,0.561,0.656,0.734,1.08c0.173,0.426,0.259,0.904,0.259,1.438c0,0.498-0.078,0.973-0.233,1.424
				c-0.155,0.451-0.369,0.895-0.641,1.331s-0.598,0.874-0.976,1.313c-0.378,0.439-0.787,0.896-1.226,1.371l-2.47,2.628v0.07h6.056
				C288.384,400.21,288.384,401.67,288.384,401.67z"/>
		</g>
	</g>
</g>
</svg>
