<?xml version="1.0" encoding="utf-8"?>
<svg version="1.1" class="breaks-alert" xmlns="http://www.w3.org/2000/svg" xmlns:xlink="http://www.w3.org/1999/xlink" x="0px" y="0px"
	 viewBox="181.512 366 1200 61" style="enable-background:new 181.512 366 1200 61;" xml:space="preserve">
<g class="breaks-alert--3">
	<g class="breaks-alert-st0">
		<path class="breaks-alert-st1" d="M287.971,391.826c0,0.428-0.067,0.817-0.202,1.169c-0.135,0.352-0.324,0.656-0.567,0.914
			s-0.535,0.47-0.875,0.638c-0.34,0.166-0.718,0.285-1.134,0.355v0.053c1.037,0.129,1.825,0.459,2.364,0.988
			c0.539,0.531,0.809,1.221,0.809,2.07c0,0.562-0.095,1.078-0.286,1.547c-0.191,0.469-0.479,0.873-0.866,1.213
			c-0.387,0.34-0.876,0.604-1.468,0.791c-0.592,0.187-1.292,0.281-2.101,0.281c-0.639,0-1.241-0.05-1.806-0.149
			s-1.097-0.281-1.595-0.545v-1.494c0.51,0.27,1.062,0.478,1.657,0.624s1.165,0.22,1.709,0.22c0.539,0,1.005-0.059,1.397-0.176
			s0.716-0.284,0.971-0.501s0.442-0.483,0.562-0.8c0.12-0.317,0.18-0.671,0.18-1.063c0-0.398-0.078-0.739-0.233-1.023
			s-0.376-0.52-0.664-0.703c-0.287-0.186-0.637-0.321-1.05-0.409c-0.413-0.088-0.88-0.132-1.402-0.132h-1.169v-1.327h1.169
			c0.475,0,0.896-0.059,1.266-0.176s0.678-0.284,0.927-0.501c0.249-0.217,0.438-0.475,0.567-0.773
			c0.129-0.298,0.193-0.627,0.193-0.984c0-0.305-0.053-0.577-0.158-0.817c-0.105-0.24-0.255-0.444-0.448-0.61
			c-0.193-0.168-0.425-0.295-0.694-0.383c-0.269-0.088-0.568-0.132-0.896-0.132c-0.627,0-1.179,0.099-1.657,0.294
			c-0.478,0.197-0.933,0.453-1.367,0.77l-0.809-1.099c0.223-0.182,0.47-0.352,0.743-0.51c0.273-0.158,0.57-0.297,0.892-0.417
			s0.667-0.216,1.033-0.286s0.754-0.105,1.165-0.105c0.633,0,1.188,0.079,1.666,0.237c0.478,0.158,0.877,0.38,1.2,0.664
			s0.565,0.621,0.729,1.01C287.889,390.937,287.971,391.363,287.971,391.826z"/>
	</g>
</g>
</svg>
