<?xml version="1.0" encoding="utf-8"?>
<svg version="1.1" id="breaks-alert--mobile" xmlns="http://www.w3.org/2000/svg" xmlns:xlink="http://www.w3.org/1999/xlink" x="0px" y="0px"
	 viewBox="-145 336.5 320.5 121.5" style="enable-background:new -145 336.5 320.5 121.5;" xml:space="preserve">
<style type="text/css">
	.breaks-mobile-st0{fill:#7AC442;stroke:#FFFFFF;stroke-width:0.5;stroke-miterlimit:10;}
	.breaks-mobile-st1{opacity:0.97;}
	.breaks-mobile-st2{fill:#F6F4F4;}
</style>
<g>
	<g class="breaks-alert">
		<rect x="-144.8" y="336.6" class="breaks-mobile-st0" width="320" height="28.9"/>
		<g class="breaks-mobile-st1">
			<path class="breaks-mobile-st2" d="M-120,352.6c0,0.6-0.2,1.1-0.7,1.5c-0.4,0.4-1.1,0.5-1.9,0.5s-1.5-0.1-2-0.3v-0.9c0.3,0.1,0.6,0.2,1,0.3
				s0.7,0.1,1,0.1c0.5,0,0.9-0.1,1.2-0.3c0.3-0.2,0.4-0.5,0.4-0.8c0-0.2,0-0.4-0.1-0.6s-0.3-0.3-0.5-0.4c-0.2-0.1-0.6-0.3-1-0.5
				c-0.7-0.2-1.1-0.5-1.4-0.9c-0.3-0.3-0.4-0.8-0.4-1.3c0-0.6,0.2-1,0.6-1.3s1-0.5,1.7-0.5s1.4,0.1,2,0.4l-0.3,0.8
				c-0.6-0.3-1.2-0.4-1.7-0.4c-0.4,0-0.8,0.1-1,0.3s-0.4,0.4-0.4,0.8c0,0.2,0,0.4,0.1,0.6s0.2,0.3,0.4,0.4c0.2,0.1,0.5,0.3,1,0.4
				c0.5,0.2,0.9,0.4,1.2,0.6s0.5,0.4,0.6,0.6C-120,352-120,352.3-120,352.6z"/>
			<path class="breaks-mobile-st2" d="M-117,353.9c0.1,0,0.2,0,0.4,0s0.3,0,0.3-0.1v0.7c-0.1,0-0.2,0.1-0.4,0.1c-0.2,0-0.3,0.1-0.5,0.1
				c-1,0-1.6-0.6-1.6-1.7v-3.2h-0.8v-0.4l0.8-0.4l0.4-1.1h0.5v1.2h1.5v0.7h-1.5v3.1c0,0.3,0.1,0.5,0.2,0.7
				C-117.5,353.8-117.3,353.9-117,353.9z"/>
			<path class="breaks-mobile-st2" d="M-112,354.5l-0.2-0.8l0,0c-0.3,0.3-0.5,0.6-0.8,0.7c-0.3,0.1-0.6,0.2-1,0.2c-0.5,0-0.9-0.1-1.2-0.4
				s-0.4-0.7-0.4-1.2c0-1.1,0.9-1.7,2.6-1.7h0.9V351c0-0.4-0.1-0.7-0.3-0.9c-0.2-0.2-0.5-0.3-0.8-0.3s-0.6,0-0.8,0.1
				c-0.3,0.1-0.5,0.2-0.7,0.3l-0.3-0.7c0.3-0.1,0.6-0.3,0.9-0.3c0.3-0.1,0.6-0.1,0.9-0.1c0.6,0,1.1,0.1,1.4,0.4s0.5,0.7,0.5,1.4v3.7
				L-112,354.5L-112,354.5z M-113.8,353.9c0.5,0,0.9-0.1,1.2-0.4c0.3-0.3,0.4-0.6,0.4-1.1v-0.5h-0.8c-0.6,0-1.1,0.1-1.3,0.3
				c-0.3,0.2-0.4,0.4-0.4,0.8c0,0.3,0.1,0.5,0.3,0.6C-114.4,353.8-114.1,353.9-113.8,353.9z"/>
			<path class="breaks-mobile-st2" d="M-107.3,349.1c0.2,0,0.4,0,0.6,0.1l-0.1,0.8c-0.2,0-0.4-0.1-0.6-0.1c-0.3,0-0.5,0.1-0.8,0.2
				c-0.2,0.2-0.4,0.4-0.6,0.6c-0.1,0.3-0.2,0.6-0.2,0.9v2.9h-0.9v-5.4h0.7l0.1,1l0,0c0.2-0.4,0.4-0.6,0.7-0.8
				C-108,349.1-107.8,349.1-107.3,349.1z"/>
			<path class="breaks-mobile-st2" d="M-104,353.9c0.1,0,0.2,0,0.4,0s0.3,0,0.3-0.1v0.7c-0.1,0-0.2,0.1-0.4,0.1c-0.2,0-0.3,0.1-0.5,0.1
				c-1,0-1.6-0.6-1.6-1.7v-3.2h-0.8v-0.4l0.8-0.4l0.4-1.1h0.5v1.2h1.5v0.7h-1.5v3.1c0,0.3,0.1,0.5,0.2,0.7
				C-104.5,353.8-104.3,353.9-104,353.9z"/>
			<path class="breaks-mobile-st2" d="M-102.4,347.7c0-0.2,0-0.3,0.1-0.4c0.1-0.1,0.2-0.1,0.4-0.1c0.1,0,0.3,0,0.4,0.1c0.1,0.1,0.2,0.2,0.2,0.4
				s-0.1,0.3-0.2,0.4c-0.1,0.1-0.2,0.1-0.4,0.1c-0.1,0-0.3,0-0.4-0.1C-102.4,348-102.4,347.9-102.4,347.7z M-101.5,354.5h-0.9v-5.4
				h0.9V354.5z"/>
			<path class="breaks-mobile-st2" d="M-96.3,354.5v-3.4c0-0.4-0.1-0.8-0.3-1c-0.2-0.2-0.5-0.3-0.9-0.3c-0.6,0-0.9,0.2-1.2,0.5
				c-0.2,0.3-0.4,0.8-0.4,1.5v2.8h-0.9v-5.4h0.7l0.1,0.7l0,0c0.2-0.3,0.4-0.5,0.7-0.6c0.3-0.1,0.6-0.2,1-0.2c0.7,0,1.1,0.2,1.5,0.5
				c0.3,0.3,0.5,0.8,0.5,1.5v3.5L-96.3,354.5L-96.3,354.5z"/>
			<path class="breaks-mobile-st2" d="M-90.3,354.5v-0.7l0,0c-0.4,0.5-0.9,0.8-1.7,0.8c-0.7,0-1.2-0.2-1.6-0.7s-0.6-1.2-0.6-2c0-0.9,0.2-1.5,0.6-2
				s0.9-0.7,1.6-0.7s1.3,0.3,1.7,0.8h0.1l0.1-0.7h0.7v5.4c0,0.8-0.2,1.3-0.6,1.7c-0.4,0.4-1,0.6-1.8,0.6s-1.4-0.1-1.9-0.3v-0.9
				c0.5,0.3,1.2,0.4,2,0.4c0.5,0,0.8-0.1,1.1-0.4c0.3-0.3,0.4-0.6,0.4-1.1C-90.3,354.7-90.3,354.5-90.3,354.5z M-91.8,353.9
				c0.5,0,0.9-0.1,1.2-0.4c0.2-0.3,0.4-0.8,0.4-1.4v-0.3c0-0.7-0.1-1.2-0.4-1.6c-0.3-0.4-0.6-0.5-1.2-0.5c-0.4,0-0.8,0.2-1,0.5
				c-0.2,0.4-0.4,0.9-0.4,1.5c0,0.7,0.1,1.2,0.4,1.5C-92.6,353.7-92.3,353.9-91.8,353.9z"/>
			<path class="breaks-mobile-st2" d="M-86.2,349.2h0.9l1.2,3.1c0.2,0.7,0.4,1.1,0.4,1.5l0,0c0-0.1,0.1-0.3,0.2-0.7c0.1-0.3,0.2-0.6,0.3-0.8l1.1-3
				h0.9l-2.3,6.1c-0.2,0.6-0.5,1-0.8,1.3s-0.7,0.4-1.1,0.4c-0.2,0-0.5,0-0.7-0.1v-0.7c0.2,0,0.4,0.1,0.6,0.1c0.3,0,0.5-0.1,0.7-0.2
				c0.2-0.2,0.4-0.4,0.5-0.7l0.3-0.7L-86.2,349.2z"/>
			<path class="breaks-mobile-st2" d="M-75.8,351.8c0,0.9-0.2,1.6-0.7,2.1s-1.1,0.7-1.8,0.7c-0.5,0-0.9-0.1-1.3-0.3c-0.4-0.2-0.7-0.6-0.9-1
				c-0.2-0.4-0.3-0.9-0.3-1.5c0-0.9,0.2-1.6,0.7-2c0.4-0.5,1-0.7,1.8-0.7s1.4,0.2,1.8,0.7C-76,350.3-75.8,351-75.8,351.8z
				 M-79.8,351.8c0,0.7,0.1,1.2,0.4,1.5s0.7,0.5,1.2,0.5s0.9-0.2,1.2-0.5c0.3-0.4,0.4-0.9,0.4-1.5c0-0.6-0.1-1.2-0.4-1.5
				s-0.7-0.5-1.2-0.5C-79.3,349.8-79.8,350.5-79.8,351.8z"/>
			<path class="breaks-mobile-st2" d="M-73.6,349.2v3.5c0,0.4,0.1,0.8,0.3,1c0.2,0.2,0.5,0.3,0.9,0.3c0.6,0,0.9-0.2,1.2-0.5s0.4-0.8,0.4-1.5v-2.8
				h0.9v5.4h-0.7l-0.1-0.7l0,0c-0.2,0.3-0.4,0.5-0.7,0.6c-0.3,0.1-0.6,0.2-1,0.2c-0.6,0-1.1-0.2-1.5-0.5c-0.3-0.3-0.5-0.8-0.5-1.5
				v-3.5H-73.6z"/>
			<path class="breaks-mobile-st2" d="M-65.9,349.1c0.2,0,0.4,0,0.6,0.1l-0.1,0.8c-0.2,0-0.4-0.1-0.6-0.1c-0.3,0-0.5,0.1-0.8,0.2
				c-0.2,0.2-0.4,0.4-0.6,0.6c-0.1,0.3-0.2,0.6-0.2,0.9v2.9h-0.9v-5.4h0.7l0.1,1l0,0c0.2-0.4,0.4-0.6,0.7-0.8
				C-66.6,349.1-66.3,349.1-65.9,349.1z"/>
			<path class="breaks-mobile-st2" d="M-59.4,349.1c0.7,0,1.3,0.2,1.6,0.7c0.4,0.5,0.6,1.2,0.6,2c0,0.9-0.2,1.6-0.6,2.1c-0.4,0.5-0.9,0.7-1.6,0.7
				c-0.4,0-0.7-0.1-1-0.2c-0.3-0.1-0.5-0.3-0.7-0.6h-0.1c-0.1,0.4-0.2,0.6-0.2,0.7H-62v-7.6h0.9v1.8c0,0.4,0,0.7,0,1.1l0,0
				C-60.7,349.3-60.2,349.1-59.4,349.1z M-59.6,349.8c-0.5,0-0.9,0.2-1.2,0.5s-0.4,0.8-0.4,1.6l0,0c0,0.7,0.1,1.3,0.4,1.6
				c0.2,0.3,0.6,0.5,1.2,0.5c0.5,0,0.8-0.2,1.1-0.5c0.2-0.4,0.4-0.9,0.4-1.5c0-0.7-0.1-1.2-0.4-1.5S-59.1,349.8-59.6,349.8z"/>
			<path class="breaks-mobile-st2" d="M-53.4,349.1c0.2,0,0.4,0,0.6,0.1l-0.1,0.8c-0.2,0-0.4-0.1-0.6-0.1c-0.3,0-0.5,0.1-0.8,0.2
				c-0.2,0.2-0.4,0.4-0.6,0.6c-0.1,0.3-0.2,0.6-0.2,0.9v2.9h-0.8v-5.4h0.7l0.1,1l0,0c0.2-0.4,0.4-0.6,0.7-0.8
				S-53.8,349.1-53.4,349.1z"/>
			<path class="breaks-mobile-st2" d="M-49.7,354.6c-0.8,0-1.4-0.2-1.9-0.7s-0.7-1.2-0.7-2c0-0.9,0.2-1.5,0.6-2.1c0.4-0.5,1-0.8,1.7-0.8
				s1.2,0.2,1.6,0.7c0.4,0.4,0.6,1,0.6,1.8v0.5h-3.7c0,0.6,0.2,1.1,0.5,1.4s0.7,0.5,1.2,0.5c0.3,0,0.6,0,0.8-0.1
				c0.3-0.1,0.6-0.1,0.9-0.3v0.8c-0.3,0.1-0.6,0.2-0.8,0.3S-49.3,354.6-49.7,354.6z M-49.9,349.8c-0.4,0-0.8,0.1-1,0.4
				s-0.4,0.6-0.4,1.1h2.7c0-0.5-0.1-0.9-0.3-1.1C-49.1,349.9-49.5,349.8-49.9,349.8z"/>
			<path class="breaks-mobile-st2" d="M-43.1,354.5l-0.2-0.8l0,0c-0.3,0.3-0.5,0.6-0.8,0.7c-0.3,0.1-0.6,0.2-1,0.2c-0.5,0-0.9-0.1-1.2-0.4
				s-0.4-0.7-0.4-1.2c0-1.1,0.9-1.7,2.6-1.7h0.9V351c0-0.4-0.1-0.7-0.3-0.9s-0.5-0.3-0.8-0.3s-0.6,0-0.8,0.1
				c-0.3,0.1-0.5,0.2-0.7,0.3l-0.3-0.7c0.3-0.1,0.6-0.3,0.9-0.3c0.3-0.1,0.6-0.1,0.9-0.1c0.6,0,1.1,0.1,1.4,0.4s0.5,0.7,0.5,1.4v3.7
				L-43.1,354.5L-43.1,354.5z M-44.9,353.9c0.5,0,0.9-0.1,1.2-0.4s0.4-0.6,0.4-1.1v-0.5h-0.8c-0.6,0-1.1,0.1-1.3,0.3
				c-0.2,0.2-0.4,0.4-0.4,0.8c0,0.3,0.1,0.5,0.3,0.6C-45.5,353.8-45.2,353.9-44.9,353.9z"/>
			<path class="breaks-mobile-st2" d="M-40.1,351.8l0.3-0.4l0.3-0.4l1.7-1.8h1l-2.2,2.3l2.3,3.1h-1.1l-1.9-2.5l-0.6,0.5v2h-0.6V347h0.9v4v0.8
				H-40.1L-40.1,351.8z"/>
			<path class="breaks-mobile-st2" d="M-33.3,347.7c0-0.2,0.1-0.3,0.1-0.4c0.1-0.1,0.2-0.1,0.4-0.1c0.1,0,0.3,0,0.4,0.1c0.1,0.1,0.2,0.2,0.2,0.4
				s-0.1,0.3-0.2,0.4c-0.1,0.1-0.2,0.1-0.4,0.1c-0.1,0-0.3,0-0.4-0.1C-33.3,348-33.3,347.9-33.3,347.7z M-32.4,354.5h-0.9v-5.4h0.9
				V354.5z"/>
			<path class="breaks-mobile-st2" d="M-27.2,354.5v-3.4c0-0.4-0.1-0.8-0.3-1c-0.2-0.2-0.5-0.3-0.9-0.3c-0.6,0-0.9,0.2-1.2,0.5
				c-0.2,0.3-0.4,0.8-0.4,1.5v2.8h-0.9v-5.4h0.7l0.1,0.7l0,0c0.2-0.3,0.4-0.5,0.7-0.6c0.3-0.1,0.6-0.2,1-0.2c0.7,0,1.1,0.2,1.5,0.5
				c0.3,0.3,0.5,0.8,0.5,1.5v3.5L-27.2,354.5L-27.2,354.5z"/>
			<path class="breaks-mobile-st2" d="M-24.9,354c0-0.1,0-0.2,0-0.3s0.1-0.2,0.1-0.2c0.1-0.1,0.1-0.1,0.2-0.1s0.2,0,0.2,0c0.1,0,0.2,0,0.2,0
				c0.1,0,0.1,0.1,0.2,0.1c0.1,0.1,0.1,0.1,0.1,0.2c0,0.1,0,0.2,0,0.3c0,0.1,0,0.2,0,0.3c0,0.1-0.1,0.2-0.1,0.2s-0.1,0.1-0.2,0.1
				s-0.2,0-0.2,0c-0.1,0-0.2,0-0.2,0s-0.1-0.1-0.2-0.1s-0.1-0.1-0.1-0.2C-24.9,354.2-24.9,354.1-24.9,354z"/>
			<path class="breaks-mobile-st2" d="M-22.3,354c0-0.1,0-0.2,0-0.3s0.1-0.2,0.1-0.2c0.1-0.1,0.1-0.1,0.2-0.1s0.2,0,0.2,0c0.1,0,0.2,0,0.2,0
				c0.1,0,0.1,0.1,0.2,0.1c0.1,0.1,0.1,0.1,0.1,0.2c0,0.1,0,0.2,0,0.3c0,0.1,0,0.2,0,0.3c0,0.1-0.1,0.2-0.1,0.2s-0.1,0.1-0.2,0.1
				s-0.2,0-0.2,0c-0.1,0-0.2,0-0.2,0s-0.1-0.1-0.2-0.1s-0.1-0.1-0.1-0.2C-22.3,354.2-22.3,354.1-22.3,354z"/>
			<path class="breaks-mobile-st2" d="M-19.8,354c0-0.1,0-0.2,0-0.3s0.1-0.2,0.1-0.2c0.1-0.1,0.1-0.1,0.2-0.1s0.2,0,0.2,0c0.1,0,0.2,0,0.2,0
				c0.1,0,0.1,0.1,0.2,0.1c0.1,0.1,0.1,0.1,0.1,0.2c0,0.1,0,0.2,0,0.3c0,0.1,0,0.2,0,0.3c0,0.1-0.1,0.2-0.1,0.2s-0.1,0.1-0.2,0.1
				s-0.2,0-0.2,0c-0.1,0-0.2,0-0.2,0s-0.1-0.1-0.2-0.1s-0.1-0.1-0.1-0.2C-19.8,354.2-19.8,354.1-19.8,354z"/>
		</g>
	</g>
	<g class="breaks-alert--3">
		<rect x="-144.8" y="367.4" class="breaks-mobile-st0" width="320" height="28.9"/>
		<g class="breaks-mobile-st1">
			<path class="breaks-mobile-st2" d="M-120.3,378.7c0,0.2,0,0.5-0.1,0.6c-0.1,0.2-0.2,0.4-0.3,0.5c-0.1,0.1-0.3,0.3-0.5,0.4
				c-0.2,0.1-0.4,0.2-0.6,0.2l0,0c0.6,0.1,1,0.3,1.3,0.5c0.3,0.3,0.4,0.7,0.4,1.2c0,0.3-0.1,0.6-0.2,0.9s-0.3,0.5-0.5,0.7
				s-0.5,0.3-0.8,0.4c-0.3,0.1-0.7,0.2-1.2,0.2c-0.4,0-0.7,0-1-0.1c-0.3-0.1-0.6-0.2-0.9-0.3v-0.8c0.3,0.1,0.6,0.3,0.9,0.3
				c0.3,0.1,0.6,0.1,0.9,0.1s0.6,0,0.8-0.1c0.2-0.1,0.4-0.2,0.5-0.3s0.2-0.3,0.3-0.4c0.1-0.2,0.1-0.4,0.1-0.6s0-0.4-0.1-0.6
				s-0.2-0.3-0.4-0.4c-0.2-0.1-0.4-0.2-0.6-0.2s-0.5-0.1-0.8-0.1h-0.6v-0.7h0.6c0.3,0,0.5,0,0.7-0.1c0.2-0.1,0.4-0.2,0.5-0.3
				s0.2-0.3,0.3-0.4c0.1-0.2,0.1-0.3,0.1-0.5s0-0.3-0.1-0.5c-0.1-0.1-0.1-0.2-0.2-0.3c-0.1-0.1-0.2-0.2-0.4-0.2
				c-0.2,0-0.3-0.1-0.5-0.1c-0.3,0-0.7,0.1-0.9,0.2c-0.3,0.1-0.5,0.3-0.8,0.4l-0.4-0.6c0.1-0.1,0.3-0.2,0.4-0.3
				c0.2-0.1,0.3-0.2,0.5-0.2c0.2-0.1,0.4-0.1,0.6-0.2c0.2,0,0.4-0.1,0.6-0.1c0.4,0,0.7,0,0.9,0.1c0.3,0.1,0.5,0.2,0.7,0.4
				s0.3,0.3,0.4,0.6C-120.4,378.2-120.3,378.4-120.3,378.7z"/>
		</g>
	</g>
	<g class="breaks-alert--2">
		<rect x="-144.8" y="398.2" class="breaks-mobile-st0" width="320" height="28.9"/>
		<g class="breaks-mobile-st1">
			<path class="breaks-mobile-st2" d="M-120.1,414.9h-4.5v-0.8l1.7-1.9c0.2-0.3,0.5-0.5,0.7-0.7s0.4-0.4,0.5-0.6s0.2-0.4,0.3-0.6
				c0.1-0.2,0.1-0.4,0.1-0.7c0-0.2,0-0.4-0.1-0.5c-0.1-0.1-0.1-0.3-0.2-0.4c-0.1-0.1-0.2-0.2-0.4-0.2c-0.1-0.1-0.3-0.1-0.5-0.1
				c-0.3,0-0.6,0.1-0.8,0.2c-0.2,0.1-0.5,0.3-0.7,0.5l-0.5-0.6c0.1-0.1,0.3-0.2,0.4-0.3c0.1-0.1,0.3-0.2,0.5-0.3
				c0.2-0.1,0.4-0.1,0.5-0.2c0.2,0,0.4-0.1,0.6-0.1c0.3,0,0.6,0,0.8,0.1c0.3,0.1,0.5,0.2,0.6,0.4c0.2,0.2,0.3,0.4,0.4,0.6
				s0.1,0.5,0.1,0.8s0,0.5-0.1,0.8c-0.1,0.2-0.2,0.5-0.4,0.7c-0.2,0.2-0.3,0.5-0.5,0.7s-0.4,0.5-0.7,0.8l-1.4,1.5l0,0h3.4
				C-120.1,414.1-120.1,414.9-120.1,414.9z"/>
		</g>
	</g>
	<g class="breaks-alert--1">
		<rect x="-144.8" y="429" class="breaks-mobile-st0" width="320" height="28.9"/>
		<g class="breaks-mobile-st1">
			<path class="breaks-mobile-st2" d="M-121.5,445.7h-0.9v-4.5c0-0.1,0-0.3,0-0.4c0-0.2,0-0.3,0-0.5s0-0.3,0-0.5c0-0.1,0-0.3,0-0.4
				c-0.1,0.1-0.1,0.1-0.1,0.2l-0.1,0.1l-0.1,0.1c0,0-0.1,0.1-0.2,0.2l-0.7,0.6l-0.5-0.6l1.9-1.5h0.7
				C-121.5,438.6-121.5,445.7-121.5,445.7z"/>
		</g>
	</g>
</svg>
