<?xml version="1.0" encoding="utf-8"?>
<svg version="1.1" class="breaks-alert" xmlns="http://www.w3.org/2000/svg" xmlns:xlink="http://www.w3.org/1999/xlink" x="0px" y="0px"
	 viewBox="181.512 366 1200 61" style="enable-background:new 181.512 366 1200 61;" xml:space="preserve">
<g class="breaks-alert--1">
	<g class="breaks-alert-st0">
		<path class="breaks-alert-st1" d="M285.774,401.67h-1.547v-8.024c0-0.252,0.001-0.521,0.004-0.809c0.003-0.288,0.009-0.572,0.018-0.856
			s0.018-0.557,0.026-0.818c0.009-0.26,0.016-0.49,0.022-0.689c-0.1,0.105-0.188,0.196-0.264,0.272
			c-0.076,0.076-0.154,0.149-0.233,0.22c-0.079,0.071-0.163,0.145-0.25,0.225c-0.088,0.078-0.193,0.171-0.316,0.276l-1.301,1.063
			l-0.844-1.081l3.366-2.628h1.318L285.774,401.67L285.774,401.67z"/>
	</g>
</g>
</svg>
