<?xml version="1.0" encoding="utf-8"?>
<svg version="1.1" id="breaks-alert" xmlns="http://www.w3.org/2000/svg" xmlns:xlink="http://www.w3.org/1999/xlink" x="0px" y="0px"
	 viewBox="0 0 1087 61" style="enable-background:new 0 0 1087 61;" xml:space="preserve">
<style type="text/css">
	.st0{fill:none;stroke:#FFFFFF;stroke-miterlimit:10;}
	.st1{fill:none;stroke:#504D50;stroke-width:0.9903;stroke-miterlimit:10;}
	.st2{fill:#FFFFFF;}
	.st3{fill:#F272AA;stroke:#FFFFFF;stroke-miterlimit:10;}
	.st4{opacity:0.97;}
	.st5{fill:#F2F0F0;}
	.st6{fill:none;stroke:#F2F0F0;stroke-miterlimit:10;}
	.st7{fill:#7AC442;stroke:#FFFFFF;stroke-miterlimit:10;}
	.st8{fill:#F6F4F4;}
	.st9{fill:#E8212D;stroke:#FFFFFF;stroke-miterlimit:10;}
	.st10{opacity:0.85;fill:#F9F7F7;stroke:#FFFFFF;stroke-miterlimit:10;}
	.st11{fill:#504D50;}
	.st12{fill:#4F4C4F;stroke:#FFFFFF;stroke-miterlimit:10;}
	.st13{fill:#7AC743;}
	.st14{fill:#EA4130;}
	.st15{fill:none;stroke:#4F4C4F;stroke-linecap:square;stroke-linejoin:bevel;stroke-miterlimit:10;}
	.st16{fill-rule:evenodd;clip-rule:evenodd;fill:none;stroke:#14ABE1;stroke-width:3;stroke-linecap:round;stroke-miterlimit:10;}
	.st17{opacity:0;}
	.st18{fill:#FF1D25;stroke:#FFFFFF;stroke-miterlimit:10;}
	.st19{clip-path:url(#SVGID_4_);}
	.st20{fill:#7AC743;stroke:#FFFFFF;stroke-miterlimit:10;}
	.st21{fill:url(#);}
	.st22{fill:#7AC743;stroke:#FFFFFF;stroke-linecap:round;stroke-linejoin:round;stroke-miterlimit:10;}
	.st23{fill:#7AC743;stroke:#FFFFFF;stroke-width:0.9071;stroke-miterlimit:10;}
	.st24{fill:none;stroke:#FFFFFF;stroke-linecap:round;stroke-linejoin:round;}
	.st25{fill:#7AC743;stroke:#FFFFFF;stroke-linecap:round;stroke-linejoin:round;}
</style>
<rect x="0.5" y="0.5" class="st7" width="1086" height="60"/>
<g>
	<g>
		<g class="st4">
			<path class="st8" d="M50.6,32.2c0,1.1-0.4,2-1.2,2.6s-1.9,1-3.4,1c-1.5,0-2.7-0.2-3.5-0.6v-1.5c0.5,0.2,1.1,0.4,1.8,0.6
				s1.3,0.2,1.8,0.2c1,0,1.7-0.2,2.2-0.6s0.7-0.9,0.7-1.5c0-0.4-0.1-0.8-0.3-1.1s-0.5-0.5-0.9-0.8s-1-0.5-1.9-0.8
				c-1.2-0.4-2-0.9-2.5-1.5c-0.5-0.6-0.8-1.3-0.8-2.3c0-1,0.4-1.8,1.1-2.4s1.7-0.9,3-0.9c1.3,0,2.5,0.2,3.5,0.7l-0.5,1.4
				c-1.1-0.5-2.1-0.7-3.1-0.7c-0.8,0-1.4,0.2-1.8,0.5s-0.6,0.8-0.6,1.4c0,0.4,0.1,0.8,0.3,1.1s0.4,0.5,0.8,0.8s1,0.5,1.8,0.8
				c1,0.4,1.7,0.7,2.1,1s0.8,0.7,1,1.1C50.4,31.1,50.6,31.6,50.6,32.2z"/>
			<path class="st8" d="M55.9,34.6c0.2,0,0.4,0,0.7-0.1s0.5-0.1,0.6-0.1v1.2c-0.1,0.1-0.4,0.1-0.7,0.2c-0.3,0.1-0.6,0.1-0.9,0.1
				c-1.9,0-2.8-1-2.8-3v-5.6h-1.4v-0.8l1.4-0.6l0.6-2.1h0.9V26h2.8v1.2h-2.8v5.6c0,0.6,0.1,1,0.4,1.3S55.4,34.6,55.9,34.6z"/>
			<path class="st8" d="M64.9,35.7l-0.3-1.4h-0.1c-0.5,0.6-1,1-1.4,1.2c-0.5,0.2-1.1,0.3-1.8,0.3c-0.9,0-1.7-0.2-2.2-0.7
				s-0.8-1.2-0.8-2.1c0-2,1.5-3,4.6-3.1l1.6-0.1v-0.6c0-0.7-0.2-1.3-0.5-1.6c-0.3-0.3-0.8-0.5-1.5-0.5c-0.5,0-1,0.1-1.4,0.2
				s-0.9,0.3-1.3,0.5l-0.5-1.2c0.5-0.3,1-0.5,1.6-0.6s1.1-0.2,1.7-0.2c1.2,0,2,0.3,2.6,0.8s0.9,1.3,0.9,2.5v6.6H64.9z M61.7,34.6
				c0.9,0,1.6-0.2,2.1-0.7c0.5-0.5,0.8-1.2,0.8-2V31L63.1,31c-1.1,0-1.9,0.2-2.4,0.5s-0.8,0.8-0.8,1.5c0,0.5,0.2,0.9,0.5,1.2
				S61.1,34.6,61.7,34.6z"/>
			<path class="st8" d="M73.3,25.8c0.4,0,0.8,0,1.1,0.1l-0.2,1.5c-0.4-0.1-0.7-0.1-1-0.1c-0.5,0-1,0.1-1.4,0.4s-0.8,0.7-1,1.2
				c-0.2,0.5-0.4,1-0.4,1.6v5.2h-1.6V26h1.3l0.2,1.8h0.1c0.4-0.6,0.8-1.1,1.3-1.5S72.7,25.8,73.3,25.8z"/>
			<path class="st8" d="M79.3,34.6c0.2,0,0.4,0,0.7-0.1s0.5-0.1,0.6-0.1v1.2c-0.1,0.1-0.4,0.1-0.7,0.2c-0.3,0.1-0.6,0.1-0.9,0.1
				c-1.9,0-2.8-1-2.8-3v-5.6h-1.4v-0.8l1.4-0.6l0.6-2.1h0.9V26h2.8v1.2h-2.8v5.6c0,0.6,0.1,1,0.4,1.3S78.8,34.6,79.3,34.6z"/>
			<path class="st8" d="M82.2,23.4c0-0.4,0.1-0.6,0.3-0.8s0.4-0.2,0.7-0.2c0.2,0,0.5,0.1,0.6,0.2s0.3,0.4,0.3,0.8
				c0,0.3-0.1,0.6-0.3,0.8s-0.4,0.2-0.6,0.2c-0.3,0-0.5-0.1-0.7-0.2S82.2,23.8,82.2,23.4z M83.9,35.7h-1.6V26h1.6V35.7z"/>
			<path class="st8" d="M93.3,35.7v-6.2c0-0.8-0.2-1.4-0.5-1.8c-0.3-0.4-0.9-0.6-1.6-0.6c-1,0-1.7,0.3-2.2,0.8
				c-0.4,0.5-0.7,1.4-0.7,2.7v5h-1.6V26H88l0.2,1.3h0.1c0.3-0.5,0.7-0.8,1.3-1.1c0.5-0.3,1.1-0.4,1.8-0.4c1.2,0,2.1,0.3,2.6,0.9
				s0.9,1.5,0.9,2.7v6.3H93.3z"/>
			<path class="st8" d="M104,35.6l0.1-1.2H104c-0.7,1-1.6,1.5-3,1.5c-1.2,0-2.2-0.4-2.9-1.3c-0.7-0.9-1.1-2.1-1.1-3.7
				c0-1.6,0.4-2.8,1.1-3.7s1.7-1.3,2.9-1.3c1.3,0,2.3,0.5,3,1.5h0.1l0.2-1.3h1.3v9.8c0,1.4-0.4,2.4-1.1,3.1s-1.8,1-3.3,1
				c-1.4,0-2.6-0.2-3.5-0.6v-1.5c0.9,0.5,2.1,0.8,3.6,0.8c0.8,0,1.5-0.2,1.9-0.7s0.7-1.1,0.7-2V35.6z M101.3,34.6
				c1,0,1.7-0.3,2.1-0.8s0.7-1.4,0.7-2.5v-0.4c0-1.3-0.2-2.2-0.7-2.8s-1.2-0.9-2.2-0.9c-0.8,0-1.4,0.3-1.9,1
				c-0.4,0.6-0.7,1.6-0.7,2.7c0,1.2,0.2,2.1,0.6,2.7S100.4,34.6,101.3,34.6z"/>
			<path class="st8" d="M111.4,26h1.7l2.1,5.5c0.4,1.2,0.7,2.1,0.8,2.6h0.1c0.1-0.2,0.2-0.6,0.4-1.2s0.3-1.1,0.5-1.4l2-5.5h1.7
				l-4.2,11c-0.4,1.1-0.9,1.8-1.4,2.3s-1.2,0.7-2.1,0.7c-0.4,0-0.9,0-1.3-0.1v-1.3c0.3,0.1,0.6,0.1,1.1,0.1c0.5,0,0.9-0.1,1.3-0.4
				s0.6-0.7,0.9-1.3l0.5-1.3L111.4,26z"/>
			<path class="st8" d="M130.2,30.8c0,1.6-0.4,2.8-1.2,3.7s-1.9,1.3-3.3,1.3c-0.9,0-1.6-0.2-2.3-0.6c-0.7-0.4-1.2-1-1.6-1.8
				s-0.5-1.6-0.5-2.7c0-1.6,0.4-2.8,1.2-3.7s1.9-1.3,3.3-1.3c1.4,0,2.4,0.4,3.2,1.3C129.8,28.1,130.2,29.3,130.2,30.8z M122.9,30.8
				c0,1.2,0.2,2.1,0.7,2.8s1.2,0.9,2.1,0.9c0.9,0,1.6-0.3,2.1-0.9c0.5-0.6,0.7-1.6,0.7-2.8s-0.2-2.1-0.7-2.7
				c-0.5-0.6-1.2-0.9-2.1-0.9C123.8,27.2,122.9,28.4,122.9,30.8z"/>
			<path class="st8" d="M134,26v6.2c0,0.8,0.2,1.4,0.5,1.7c0.3,0.4,0.9,0.6,1.6,0.6c1,0,1.7-0.3,2.2-0.8s0.7-1.4,0.7-2.7v-5h1.6v9.7
				h-1.3l-0.2-1.3h-0.1c-0.3,0.5-0.7,0.8-1.2,1.1s-1.1,0.4-1.8,0.4c-1.2,0-2-0.3-2.6-0.8s-0.9-1.4-0.9-2.7V26H134z"/>
			<path class="st8" d="M147.9,25.8c0.4,0,0.8,0,1.1,0.1l-0.2,1.5c-0.4-0.1-0.7-0.1-1-0.1c-0.5,0-1,0.1-1.4,0.4s-0.8,0.7-1,1.2
				c-0.2,0.5-0.4,1-0.4,1.6v5.2h-1.6V26h1.3l0.2,1.8h0.1c0.4-0.6,0.8-1.1,1.3-1.5S147.3,25.8,147.9,25.8z"/>
			<path class="st8" d="M159.6,25.9c1.3,0,2.3,0.4,2.9,1.3s1,2.1,1,3.7c0,1.6-0.4,2.8-1.1,3.7c-0.7,0.9-1.7,1.3-2.9,1.3
				c-0.7,0-1.2-0.1-1.7-0.4s-0.9-0.6-1.2-1h-0.1c-0.2,0.7-0.3,1.1-0.3,1.2H155V22h1.6v3.3c0,0.7,0,1.3-0.1,2h0.1
				C157.2,26.3,158.2,25.9,159.6,25.9z M159.3,27.2c-1,0-1.7,0.3-2.1,0.8s-0.6,1.5-0.6,2.8v0.1c0,1.3,0.2,2.3,0.6,2.8
				c0.4,0.6,1.1,0.8,2.1,0.8c0.9,0,1.5-0.3,1.9-1c0.4-0.6,0.6-1.6,0.6-2.8c0-1.2-0.2-2.1-0.6-2.7S160.2,27.2,159.3,27.2z"/>
			<path class="st8" d="M170.3,25.8c0.4,0,0.8,0,1.1,0.1l-0.2,1.5c-0.4-0.1-0.7-0.1-1-0.1c-0.5,0-1,0.1-1.4,0.4s-0.8,0.7-1,1.2
				c-0.2,0.5-0.4,1-0.4,1.6v5.2h-1.6V26h1.3l0.2,1.8h0.1c0.4-0.6,0.8-1.1,1.3-1.5S169.8,25.8,170.3,25.8z"/>
			<path class="st8" d="M177.1,35.8c-1.4,0-2.6-0.4-3.4-1.3c-0.8-0.9-1.2-2.1-1.2-3.6c0-1.5,0.4-2.8,1.2-3.7
				c0.8-0.9,1.8-1.4,3.1-1.4c1.2,0,2.2,0.4,2.9,1.2c0.7,0.8,1.1,1.8,1.1,3.2v1h-6.6c0,1.1,0.3,1.9,0.8,2.5s1.3,0.9,2.2,0.9
				c0.5,0,1,0,1.5-0.1s1-0.3,1.6-0.5v1.4c-0.5,0.2-1,0.4-1.5,0.5S177.8,35.8,177.1,35.8z M176.8,27.1c-0.8,0-1.4,0.2-1.8,0.7
				s-0.7,1.2-0.8,2h4.9c0-0.9-0.2-1.6-0.6-2.1S177.5,27.1,176.8,27.1z"/>
			<path class="st8" d="M188.9,35.7l-0.3-1.4h-0.1c-0.5,0.6-1,1-1.4,1.2c-0.5,0.2-1.1,0.3-1.8,0.3c-0.9,0-1.7-0.2-2.2-0.7
				s-0.8-1.2-0.8-2.1c0-2,1.5-3,4.6-3.1l1.6-0.1v-0.6c0-0.7-0.2-1.3-0.5-1.6c-0.3-0.3-0.8-0.5-1.5-0.5c-0.5,0-1,0.1-1.4,0.2
				s-0.9,0.3-1.3,0.5l-0.5-1.2c0.5-0.3,1-0.5,1.6-0.6s1.1-0.2,1.7-0.2c1.2,0,2,0.3,2.6,0.8s0.9,1.3,0.9,2.5v6.6H188.9z M185.7,34.6
				c0.9,0,1.6-0.2,2.1-0.7s0.8-1.2,0.8-2V31l-1.4,0.1c-1.1,0-1.9,0.2-2.4,0.5s-0.8,0.8-0.8,1.5c0,0.5,0.2,0.9,0.5,1.2
				S185.1,34.6,185.7,34.6z"/>
			<path class="st8" d="M194.4,30.7l0.5-0.7l0.6-0.7l3.1-3.3h1.8l-3.9,4.1l4.2,5.5h-1.9l-3.3-4.5l-1.1,1v3.5h-1.6V22h1.6v7.1V30.7
				L194.4,30.7z"/>
			<path class="st8" d="M206.5,23.4c0-0.4,0.1-0.6,0.3-0.8s0.4-0.2,0.7-0.2c0.2,0,0.5,0.1,0.6,0.2s0.3,0.4,0.3,0.8
				c0,0.3-0.1,0.6-0.3,0.8s-0.4,0.2-0.6,0.2c-0.3,0-0.5-0.1-0.7-0.2S206.5,23.8,206.5,23.4z M208.2,35.7h-1.6V26h1.6V35.7z"/>
			<path class="st8" d="M217.6,35.7v-6.2c0-0.8-0.2-1.4-0.5-1.8c-0.3-0.4-0.9-0.6-1.6-0.6c-1,0-1.7,0.3-2.2,0.8
				c-0.4,0.5-0.7,1.4-0.7,2.7v5h-1.6V26h1.3l0.2,1.3h0.1c0.3-0.5,0.7-0.8,1.3-1.1c0.5-0.3,1.1-0.4,1.8-0.4c1.2,0,2.1,0.3,2.6,0.9
				s0.9,1.5,0.9,2.7v6.3H217.6z"/>
			<path class="st8" d="M221.7,34.7c0-0.2,0-0.4,0.1-0.6c0.1-0.2,0.1-0.3,0.2-0.4c0.1-0.1,0.2-0.2,0.4-0.2c0.1,0,0.3-0.1,0.4-0.1
				c0.2,0,0.3,0,0.4,0.1c0.1,0,0.3,0.1,0.4,0.2c0.1,0.1,0.2,0.2,0.2,0.4c0.1,0.2,0.1,0.3,0.1,0.6c0,0.2,0,0.4-0.1,0.6
				c-0.1,0.2-0.1,0.3-0.2,0.4s-0.2,0.2-0.4,0.2s-0.3,0.1-0.4,0.1c-0.2,0-0.3,0-0.4-0.1s-0.3-0.1-0.4-0.2s-0.2-0.2-0.2-0.4
				C221.7,35.1,221.7,34.9,221.7,34.7z"/>
			<path class="st8" d="M226.3,34.7c0-0.2,0-0.4,0.1-0.6c0.1-0.2,0.1-0.3,0.2-0.4c0.1-0.1,0.2-0.2,0.4-0.2c0.1,0,0.3-0.1,0.4-0.1
				c0.2,0,0.3,0,0.4,0.1c0.1,0,0.3,0.1,0.4,0.2c0.1,0.1,0.2,0.2,0.2,0.4c0.1,0.2,0.1,0.3,0.1,0.6c0,0.2,0,0.4-0.1,0.6
				c-0.1,0.2-0.1,0.3-0.2,0.4s-0.2,0.2-0.4,0.2s-0.3,0.1-0.4,0.1c-0.2,0-0.3,0-0.4-0.1s-0.3-0.1-0.4-0.2s-0.2-0.2-0.2-0.4
				C226.3,35.1,226.3,34.9,226.3,34.7z"/>
			<path class="st8" d="M230.9,34.7c0-0.2,0-0.4,0.1-0.6c0.1-0.2,0.1-0.3,0.2-0.4c0.1-0.1,0.2-0.2,0.4-0.2c0.1,0,0.3-0.1,0.4-0.1
				c0.2,0,0.3,0,0.4,0.1c0.1,0,0.3,0.1,0.4,0.2c0.1,0.1,0.2,0.2,0.2,0.4c0.1,0.2,0.1,0.3,0.1,0.6c0,0.2,0,0.4-0.1,0.6
				c-0.1,0.2-0.1,0.3-0.2,0.4s-0.2,0.2-0.4,0.2s-0.3,0.1-0.4,0.1c-0.2,0-0.3,0-0.4-0.1s-0.3-0.1-0.4-0.2s-0.2-0.2-0.2-0.4
				C230.9,35.1,230.9,34.9,230.9,34.7z"/>
		</g>
	</g>
</g>
</svg>
