<?xml version="1.0" encoding="utf-8"?>
<svg version="1.1" id="Layer_1" xmlns="http://www.w3.org/2000/svg" xmlns:xlink="http://www.w3.org/1999/xlink" x="0px" y="0px"
	 viewBox="0 0 1087.024 252.5" style="enable-background:new 0 0 1087.024 252.5;" xml:space="preserve">
<style type="text/css">
	.breaks-alert-st0{fill:none;stroke:#FFFFFF;stroke-miterlimit:10;}
	.breaks-alert-st1{fill:none;stroke:#504D50;stroke-width:0.9903;stroke-miterlimit:10;}
	.breaks-alert-st2{fill:#FFFFFF;}
	.breaks-alert-st3{fill:#F272AA;stroke:#FFFFFF;stroke-miterlimit:10;}
	.breaks-alert-st4{opacity:0.97;}
	.breaks-alert-st5{fill:#F2F0F0;}
	.breaks-alert-st6{fill:none;stroke:#F2F0F0;stroke-miterlimit:10;}
	.breaks-alert-st7{fill:#7AC442;stroke:#FFFFFF;stroke-miterlimit:10;}
	.breaks-alert-st8{fill:#F6F4F4;}
	.breaks-alert-st9{fill:#E8212D;stroke:#FFFFFF;stroke-miterlimit:10;}
	.breaks-alert-st10{opacity:0.85;fill:#F9F7F7;stroke:#FFFFFF;stroke-miterlimit:10;}
	.breaks-alert-st11{fill:#504D50;}
	.breaks-alert-st12{fill:#4F4C4F;stroke:#FFFFFF;stroke-miterlimit:10;}
	.breaks-alert-st13{fill:#7AC743;}
	.breaks-alert-st14{fill:#EA4130;}
	.breaks-alert-st15{fill:none;stroke:#4F4C4F;stroke-linecap:square;stroke-linejoin:bevel;stroke-miterlimit:10;}
	.breaks-alert-st16{fill-rule:evenodd;clip-rule:evenodd;fill:none;stroke:#14ABE1;stroke-width:3;stroke-linecap:round;stroke-miterlimit:10;}
	.breaks-alert-st17{opacity:0;}
	.breaks-alert-st18{fill:#FF1D25;stroke:#FFFFFF;stroke-miterlimit:10;}
	.breaks-alert-st19{clip-path:url(#SVGID_4_);}
	.breaks-alert-st20{fill:#7AC743;stroke:#FFFFFF;stroke-miterlimit:10;}
	.breaks-alert-st21{fill:url(#);}
	.breaks-alert-st22{fill:#7AC743;stroke:#FFFFFF;stroke-linecap:round;stroke-linejoin:round;stroke-miterlimit:10;}
	.breaks-alert-st23{fill:#7AC743;stroke:#FFFFFF;stroke-width:0.9071;stroke-miterlimit:10;}
	.breaks-alert-st24{fill:none;stroke:#FFFFFF;stroke-linecap:round;stroke-linejoin:round;}
	.breaks-alert-st25{fill:#7AC743;stroke:#FFFFFF;stroke-linecap:round;stroke-linejoin:round;}
</style>
<rect x="0.5" y="64.5" class="breaks-alert-st7" width="1086.024" height="60"/>
<g>
	<g class="breaks-alert-st4">
		<path class="breaks-alert-st8" d="M49.971,89.826c0,0.428-0.067,0.817-0.202,1.169s-0.324,0.656-0.567,0.914s-0.535,0.47-0.875,0.638
			c-0.34,0.166-0.718,0.285-1.134,0.355v0.053c1.037,0.129,1.825,0.459,2.364,0.988c0.539,0.531,0.809,1.221,0.809,2.07
			c0,0.562-0.095,1.078-0.286,1.547s-0.479,0.873-0.866,1.213s-0.876,0.604-1.468,0.791s-1.292,0.281-2.101,0.281
			c-0.639,0-1.241-0.05-1.806-0.149s-1.097-0.281-1.595-0.545v-1.494c0.51,0.27,1.062,0.478,1.657,0.624s1.165,0.22,1.709,0.22
			c0.539,0,1.005-0.059,1.397-0.176s0.716-0.284,0.971-0.501s0.442-0.483,0.562-0.8s0.18-0.671,0.18-1.063
			c0-0.398-0.078-0.739-0.233-1.023s-0.376-0.52-0.664-0.703c-0.287-0.186-0.637-0.321-1.05-0.409s-0.88-0.132-1.402-0.132h-1.169
			v-1.327h1.169c0.475,0,0.896-0.059,1.266-0.176s0.678-0.284,0.927-0.501s0.438-0.475,0.567-0.773s0.193-0.627,0.193-0.984
			c0-0.305-0.053-0.577-0.158-0.817s-0.255-0.444-0.448-0.61c-0.193-0.168-0.425-0.295-0.694-0.383s-0.568-0.132-0.896-0.132
			c-0.627,0-1.179,0.099-1.657,0.294c-0.478,0.197-0.933,0.453-1.367,0.77l-0.809-1.099c0.223-0.182,0.47-0.352,0.743-0.51
			s0.57-0.297,0.892-0.417s0.667-0.216,1.033-0.286s0.754-0.105,1.165-0.105c0.633,0,1.188,0.079,1.666,0.237s0.877,0.38,1.2,0.664
			s0.565,0.621,0.729,1.01C49.889,88.937,49.971,89.363,49.971,89.826z"/>
	</g>
</g>
<rect x="0.5" y="192.5" class="breaks-alert-st7" width="1086.024" height="60"/>
<g>
	<g class="breaks-alert-st4">
		<path class="breaks-alert-st8" d="M47.774,227.67h-1.547v-8.024c0-0.252,0.001-0.521,0.004-0.809s0.009-0.572,0.018-0.856
			s0.018-0.557,0.026-0.818c0.009-0.26,0.016-0.49,0.022-0.689c-0.1,0.105-0.188,0.196-0.264,0.272s-0.154,0.149-0.233,0.22
			s-0.163,0.145-0.25,0.225c-0.088,0.078-0.193,0.171-0.316,0.276l-1.301,1.063l-0.844-1.081l3.366-2.628h1.318V227.67z"/>
	</g>
</g>
<rect x="0.5" y="128.5" class="breaks-alert-st7" width="1086.024" height="60"/>
<g>
	<g>
		<g class="breaks-alert-st4">
			<path class="breaks-alert-st8" d="M50.384,163.67h-8.016v-1.371l3.076-3.349c0.439-0.475,0.832-0.908,1.178-1.301s0.64-0.776,0.883-1.151
				s0.429-0.752,0.558-1.129c0.129-0.379,0.193-0.79,0.193-1.235c0-0.346-0.05-0.65-0.149-0.914s-0.242-0.487-0.426-0.673
				c-0.185-0.184-0.403-0.323-0.655-0.417s-0.533-0.141-0.844-0.141c-0.557,0-1.059,0.113-1.507,0.339s-0.875,0.514-1.279,0.865
				l-0.896-1.046c0.234-0.211,0.486-0.409,0.756-0.593c0.27-0.186,0.56-0.345,0.87-0.479s0.639-0.241,0.984-0.321
				c0.346-0.078,0.709-0.118,1.09-0.118c0.562,0,1.071,0.079,1.525,0.237s0.839,0.386,1.156,0.682s0.561,0.656,0.734,1.08
				c0.173,0.426,0.259,0.904,0.259,1.438c0,0.498-0.078,0.973-0.233,1.424s-0.369,0.896-0.642,1.332s-0.598,0.874-0.976,1.313
				s-0.787,0.896-1.226,1.371l-2.47,2.628v0.07h6.056V163.67z"/>
		</g>
	</g>
</g>
<rect x="0.5" y="0.5" class="breaks-alert-st7" width="1086.024" height="60"/>
<g>
	<g>
		<g class="breaks-alert-st4">
			<path class="breaks-alert-st8" d="M50.56,32.233c0,1.119-0.404,2.001-1.213,2.646s-1.934,0.967-3.375,0.967c-1.523,0-2.701-0.202-3.533-0.606
				v-1.547c0.545,0.234,1.141,0.419,1.789,0.554s1.252,0.202,1.815,0.202c0.961,0,1.685-0.185,2.171-0.554s0.729-0.876,0.729-1.521
				c0-0.428-0.088-0.779-0.264-1.055s-0.47-0.533-0.883-0.773s-1.039-0.513-1.876-0.817c-1.189-0.434-2.039-0.945-2.549-1.533
				c-0.51-0.59-0.765-1.35-0.765-2.281c0-1.002,0.376-1.799,1.129-2.391s1.745-0.888,2.975-0.888c1.283,0,2.464,0.24,3.542,0.721
				l-0.501,1.389c-1.102-0.457-2.127-0.686-3.076-0.686c-0.762,0-1.358,0.164-1.789,0.492s-0.646,0.788-0.646,1.38
				c0,0.422,0.083,0.772,0.25,1.051s0.437,0.531,0.809,0.76s0.957,0.489,1.753,0.782c0.955,0.352,1.667,0.693,2.136,1.024
				s0.814,0.711,1.037,1.143C50.448,31.121,50.56,31.636,50.56,32.233z"/>
			<path class="breaks-alert-st8" d="M55.924,34.554c0.205,0,0.445-0.021,0.721-0.062s0.483-0.088,0.624-0.141v1.213
				c-0.146,0.064-0.374,0.127-0.681,0.189c-0.308,0.061-0.62,0.092-0.936,0.092c-1.887,0-2.83-0.993-2.83-2.979V27.25H51.46v-0.756
				l1.38-0.633l0.633-2.057h0.94v2.215h2.786v1.23h-2.786v5.572c0,0.557,0.133,0.984,0.4,1.283S55.45,34.554,55.924,34.554z"/>
			<path class="breaks-alert-st8" d="M64.919,35.67l-0.308-1.371h-0.07c-0.48,0.604-0.959,1.013-1.437,1.227c-0.478,0.213-1.08,0.32-1.806,0.32
				c-0.949,0-1.693-0.249-2.232-0.747s-0.809-1.201-0.809-2.109c0-1.957,1.544-2.982,4.632-3.076l1.635-0.062V29.28
				c0-0.732-0.158-1.272-0.475-1.622c-0.316-0.348-0.823-0.522-1.521-0.522c-0.51,0-0.992,0.076-1.446,0.229s-0.88,0.322-1.279,0.51
				l-0.483-1.187c0.486-0.258,1.017-0.46,1.591-0.606s1.143-0.22,1.705-0.22c1.166,0,2.033,0.258,2.602,0.773
				s0.853,1.336,0.853,2.461v6.574H64.919z M61.658,34.571c0.885,0,1.581-0.238,2.087-0.716c0.507-0.478,0.76-1.156,0.76-2.035
				v-0.87l-1.424,0.062c-1.107,0.041-1.915,0.217-2.421,0.527s-0.76,0.8-0.76,1.468c0,0.504,0.154,0.891,0.461,1.16
				S61.102,34.571,61.658,34.571z"/>
			<path class="breaks-alert-st8" d="M73.324,25.844c0.428,0,0.806,0.035,1.134,0.105l-0.193,1.459c-0.357-0.082-0.706-0.123-1.046-0.123
				c-0.51,0-0.983,0.141-1.419,0.422s-0.778,0.67-1.024,1.164c-0.246,0.496-0.369,1.045-0.369,1.648v5.15h-1.582v-9.65h1.301
				l0.176,1.767h0.07c0.369-0.639,0.806-1.122,1.31-1.45S72.733,25.844,73.324,25.844z"/>
			<path class="breaks-alert-st8" d="M79.252,34.554c0.205,0,0.445-0.021,0.721-0.062s0.483-0.088,0.624-0.141v1.213
				c-0.146,0.064-0.374,0.127-0.681,0.189c-0.308,0.061-0.62,0.092-0.936,0.092c-1.887,0-2.83-0.993-2.83-2.979V27.25h-1.362v-0.756
				l1.38-0.633l0.633-2.057h0.94v2.215h2.786v1.23H77.74v5.572c0,0.557,0.133,0.984,0.4,1.283S78.777,34.554,79.252,34.554z"/>
			<path class="breaks-alert-st8" d="M82.164,23.409c0-0.352,0.089-0.606,0.268-0.765s0.4-0.237,0.664-0.237c0.246,0,0.461,0.079,0.646,0.237
				s0.277,0.413,0.277,0.765c0,0.346-0.092,0.601-0.277,0.765s-0.4,0.246-0.646,0.246c-0.264,0-0.485-0.082-0.664-0.246
				S82.164,23.755,82.164,23.409z M83.869,35.67h-1.582v-9.65h1.582V35.67z"/>
			<path class="breaks-alert-st8" d="M93.268,35.67V29.5c0-0.785-0.174-1.369-0.523-1.754c-0.349-0.383-0.895-0.575-1.639-0.575
				c-0.99,0-1.709,0.274-2.158,0.821c-0.448,0.549-0.672,1.44-0.672,2.677v5.001h-1.582v-9.65h1.274l0.237,1.318h0.088
				c0.299-0.475,0.718-0.842,1.257-1.104c0.539-0.26,1.134-0.391,1.784-0.391c1.184,0,2.062,0.287,2.637,0.861
				s0.861,1.468,0.861,2.681v6.284H93.268z"/>
			<path class="breaks-alert-st8" d="M104.029,35.582l0.053-1.187h-0.07c-0.65,0.967-1.646,1.45-2.988,1.45c-1.248,0-2.222-0.436-2.922-1.305
				c-0.7-0.871-1.05-2.097-1.05-3.679c0-1.553,0.353-2.777,1.059-3.674s1.671-1.345,2.896-1.345c1.307,0,2.314,0.486,3.023,1.459
				h0.097l0.211-1.283h1.257v9.809c0,1.383-0.35,2.423-1.05,3.12s-1.789,1.046-3.265,1.046c-1.406,0-2.563-0.205-3.472-0.615V37.92
				c0.938,0.504,2.124,0.756,3.56,0.756c0.82,0,1.469-0.24,1.947-0.721s0.716-1.146,0.716-1.995V35.582z M101.26,34.554
				c0.973,0,1.68-0.262,2.123-0.786s0.664-1.367,0.664-2.527v-0.378c0-1.289-0.223-2.227-0.668-2.812s-1.163-0.879-2.153-0.879
				c-0.809,0-1.434,0.321-1.876,0.962c-0.442,0.643-0.664,1.558-0.664,2.747c0,1.195,0.215,2.106,0.646,2.733
				S100.405,34.554,101.26,34.554z"/>
			<path class="breaks-alert-st8" d="M111.357,26.02h1.696l2.083,5.493c0.439,1.195,0.709,2.071,0.809,2.628h0.07
				c0.053-0.217,0.173-0.622,0.36-1.217s0.346-1.071,0.475-1.429l1.96-5.476h1.705l-4.157,10.986
				c-0.404,1.066-0.885,1.831-1.441,2.294s-1.245,0.694-2.065,0.694c-0.439,0-0.876-0.05-1.31-0.149v-1.257
				c0.293,0.07,0.645,0.105,1.055,0.105c0.504,0,0.932-0.14,1.283-0.418s0.639-0.707,0.861-1.287l0.501-1.283L111.357,26.02z"/>
			<path class="breaks-alert-st8" d="M130.195,30.827c0,1.576-0.398,2.807-1.195,3.691s-1.898,1.327-3.305,1.327c-0.873,0-1.646-0.203-2.32-0.611
				c-0.674-0.406-1.192-0.991-1.556-1.753s-0.545-1.646-0.545-2.654c0-1.57,0.393-2.793,1.178-3.669s1.887-1.314,3.305-1.314
				c1.359,0,2.439,0.447,3.239,1.34C129.796,28.078,130.195,29.292,130.195,30.827z M122.909,30.827
				c0,1.213,0.239,2.135,0.716,2.765s1.182,0.944,2.114,0.944c0.92,0,1.62-0.314,2.101-0.944c0.48-0.63,0.721-1.552,0.721-2.765
				s-0.242-2.125-0.725-2.737c-0.483-0.612-1.191-0.919-2.123-0.919C123.844,27.171,122.909,28.39,122.909,30.827z"/>
			<path class="breaks-alert-st8" d="M133.96,26.02v6.214c0,0.779,0.174,1.358,0.523,1.735c0.349,0.379,0.889,0.567,1.622,0.567
				c0.99,0,1.711-0.275,2.162-0.826s0.677-1.438,0.677-2.663V26.02h1.591v9.65h-1.301l-0.229-1.274h-0.079
				c-0.287,0.463-0.694,0.82-1.222,1.072s-1.14,0.378-1.837,0.378c-1.16,0-2.035-0.278-2.624-0.835s-0.883-1.447-0.883-2.672V26.02
				H133.96z"/>
			<path class="breaks-alert-st8" d="M147.859,25.844c0.428,0,0.806,0.035,1.134,0.105l-0.193,1.459c-0.357-0.082-0.706-0.123-1.046-0.123
				c-0.51,0-0.983,0.141-1.419,0.422s-0.778,0.67-1.024,1.164c-0.246,0.496-0.369,1.045-0.369,1.648v5.15h-1.582v-9.65h1.301
				l0.176,1.767h0.07c0.369-0.639,0.806-1.122,1.31-1.45S147.267,25.844,147.859,25.844z"/>
			<path class="breaks-alert-st8" d="M159.573,25.861c1.271,0,2.253,0.438,2.944,1.314s1.037,2.099,1.037,3.669c0,1.594-0.352,2.825-1.055,3.696
				c-0.703,0.869-1.679,1.305-2.927,1.305c-0.65,0-1.23-0.117-1.74-0.352s-0.926-0.583-1.248-1.046h-0.123
				c-0.182,0.703-0.29,1.11-0.325,1.222h-1.134V21.994h1.582v3.322c0,0.662-0.029,1.324-0.088,1.986h0.088
				C157.235,26.342,158.231,25.861,159.573,25.861z M159.309,27.171c-0.973,0-1.67,0.275-2.092,0.826s-0.633,1.482-0.633,2.795v0.07
				c0,1.318,0.215,2.261,0.646,2.825c0.431,0.566,1.135,0.849,2.114,0.849c0.867,0,1.513-0.317,1.938-0.954
				c0.425-0.635,0.637-1.554,0.637-2.755c0-1.219-0.214-2.133-0.642-2.742S160.194,27.171,159.309,27.171z"/>
			<path class="breaks-alert-st8" d="M170.343,25.844c0.428,0,0.806,0.035,1.134,0.105l-0.193,1.459c-0.357-0.082-0.706-0.123-1.046-0.123
				c-0.51,0-0.983,0.141-1.419,0.422s-0.778,0.67-1.024,1.164c-0.246,0.496-0.369,1.045-0.369,1.648v5.15h-1.582v-9.65h1.301
				l0.176,1.767h0.07c0.369-0.639,0.806-1.122,1.31-1.45S169.751,25.844,170.343,25.844z"/>
			<path class="breaks-alert-st8" d="M177.149,35.846c-1.447,0-2.583-0.438-3.406-1.314c-0.823-0.875-1.235-2.081-1.235-3.616
				c0-1.547,0.384-2.778,1.151-3.696c0.768-0.916,1.805-1.375,3.111-1.375c1.213,0,2.18,0.391,2.9,1.174
				c0.721,0.781,1.081,1.841,1.081,3.177v0.958h-6.609c0.029,1.096,0.308,1.928,0.835,2.496s1.274,0.853,2.241,0.853
				c0.516,0,1.005-0.045,1.468-0.136s1.005-0.269,1.626-0.532v1.389c-0.533,0.229-1.034,0.39-1.503,0.483
				S177.787,35.846,177.149,35.846z M176.753,27.136c-0.756,0-1.354,0.243-1.793,0.729s-0.7,1.163-0.782,2.03h4.913
				c-0.012-0.902-0.22-1.588-0.624-2.057S177.491,27.136,176.753,27.136z"/>
			<path class="breaks-alert-st8" d="M188.921,35.67l-0.308-1.371h-0.07c-0.48,0.604-0.959,1.013-1.437,1.227c-0.478,0.213-1.08,0.32-1.806,0.32
				c-0.949,0-1.693-0.249-2.232-0.747s-0.809-1.201-0.809-2.109c0-1.957,1.544-2.982,4.632-3.076l1.635-0.062V29.28
				c0-0.732-0.158-1.272-0.475-1.622c-0.316-0.348-0.823-0.522-1.521-0.522c-0.51,0-0.992,0.076-1.446,0.229s-0.88,0.322-1.279,0.51
				l-0.483-1.187c0.486-0.258,1.017-0.46,1.591-0.606s1.143-0.22,1.705-0.22c1.166,0,2.033,0.258,2.602,0.773
				s0.853,1.336,0.853,2.461v6.574H188.921z M185.66,34.571c0.885,0,1.581-0.238,2.087-0.716s0.76-1.156,0.76-2.035v-0.87
				l-1.424,0.062c-1.107,0.041-1.915,0.217-2.421,0.527s-0.76,0.8-0.76,1.468c0,0.504,0.154,0.891,0.461,1.16
				S185.103,34.571,185.66,34.571z"/>
			<path class="breaks-alert-st8" d="M194.391,30.704l0.536-0.686l0.615-0.738l3.085-3.261h1.846l-3.902,4.122l4.175,5.528h-1.907l-3.349-4.5
				l-1.099,0.958v3.542h-1.564V21.994h1.564v7.146l-0.07,1.564H194.391z"/>
			<path class="breaks-alert-st8" d="M206.526,23.409c0-0.352,0.089-0.606,0.268-0.765s0.4-0.237,0.664-0.237c0.246,0,0.461,0.079,0.646,0.237
				s0.277,0.413,0.277,0.765c0,0.346-0.092,0.601-0.277,0.765s-0.4,0.246-0.646,0.246c-0.264,0-0.485-0.082-0.664-0.246
				S206.526,23.755,206.526,23.409z M208.231,35.67h-1.582v-9.65h1.582V35.67z"/>
			<path class="breaks-alert-st8" d="M217.63,35.67V29.5c0-0.785-0.174-1.369-0.523-1.754c-0.349-0.383-0.895-0.575-1.639-0.575
				c-0.99,0-1.709,0.274-2.158,0.821c-0.448,0.549-0.672,1.44-0.672,2.677v5.001h-1.582v-9.65h1.274l0.237,1.318h0.088
				c0.299-0.475,0.718-0.842,1.257-1.104c0.539-0.26,1.134-0.391,1.784-0.391c1.184,0,2.062,0.287,2.637,0.861
				s0.861,1.468,0.861,2.681v6.284H217.63z"/>
			<path class="breaks-alert-st8" d="M221.712,34.694c0-0.223,0.029-0.411,0.088-0.567c0.059-0.154,0.138-0.281,0.237-0.377
				c0.1-0.098,0.217-0.168,0.352-0.211c0.135-0.045,0.281-0.066,0.439-0.066c0.152,0,0.297,0.021,0.435,0.066
				c0.138,0.043,0.256,0.113,0.356,0.211c0.1,0.096,0.179,0.223,0.237,0.377c0.059,0.156,0.088,0.345,0.088,0.567
				c0,0.217-0.029,0.403-0.088,0.558c-0.059,0.156-0.138,0.283-0.237,0.383s-0.218,0.173-0.356,0.22s-0.283,0.07-0.435,0.07
				c-0.158,0-0.305-0.023-0.439-0.07s-0.252-0.12-0.352-0.22s-0.179-0.227-0.237-0.383
				C221.741,35.098,221.712,34.911,221.712,34.694z"/>
			<path class="breaks-alert-st8" d="M226.303,34.694c0-0.223,0.029-0.411,0.088-0.567c0.059-0.154,0.138-0.281,0.237-0.377
				c0.1-0.098,0.217-0.168,0.352-0.211c0.135-0.045,0.281-0.066,0.439-0.066c0.152,0,0.297,0.021,0.435,0.066
				c0.138,0.043,0.256,0.113,0.356,0.211c0.1,0.096,0.179,0.223,0.237,0.377c0.059,0.156,0.088,0.345,0.088,0.567
				c0,0.217-0.029,0.403-0.088,0.558c-0.059,0.156-0.138,0.283-0.237,0.383s-0.218,0.173-0.356,0.22s-0.283,0.07-0.435,0.07
				c-0.158,0-0.305-0.023-0.439-0.07s-0.252-0.12-0.352-0.22s-0.179-0.227-0.237-0.383
				C226.332,35.098,226.303,34.911,226.303,34.694z"/>
			<path class="breaks-alert-st8" d="M230.894,34.694c0-0.223,0.029-0.411,0.088-0.567c0.059-0.154,0.138-0.281,0.237-0.377
				c0.1-0.098,0.217-0.168,0.352-0.211c0.135-0.045,0.281-0.066,0.439-0.066c0.152,0,0.297,0.021,0.435,0.066
				c0.138,0.043,0.256,0.113,0.356,0.211c0.1,0.096,0.179,0.223,0.237,0.377c0.059,0.156,0.088,0.345,0.088,0.567
				c0,0.217-0.029,0.403-0.088,0.558c-0.059,0.156-0.138,0.283-0.237,0.383s-0.218,0.173-0.356,0.22s-0.283,0.07-0.435,0.07
				c-0.158,0-0.305-0.023-0.439-0.07s-0.252-0.12-0.352-0.22s-0.179-0.227-0.237-0.383
				C230.923,35.098,230.894,34.911,230.894,34.694z"/>
		</g>
	</g>
</g>
</svg>
