<?xml version="1.0" encoding="utf-8"?>
<!-- Generator: Adobe Illustrator 19.1.0, SVG Export Plug-In . SVG Version: 6.00 Build 0)  -->
<svg version="1.1" id="Layer_1" xmlns="http://www.w3.org/2000/svg" xmlns:xlink="http://www.w3.org/1999/xlink" x="0px" y="0px"
	 viewBox="0 0 1087 61" style="enable-background:new 0 0 1087 61;" xml:space="preserve">
<style type="text/css">
	.st0{fill:none;stroke:#FFFFFF;stroke-miterlimit:10;}
	.st1{fill:none;stroke:#504D50;stroke-width:0.9903;stroke-miterlimit:10;}
	.st2{fill:#FFFFFF;}
	.st3{fill:#F272AA;stroke:#FFFFFF;stroke-miterlimit:10;}
	.st4{opacity:0.97;}
	.st5{fill:#F2F0F0;}
	.st6{fill:none;stroke:#F2F0F0;stroke-miterlimit:10;}
	.st7{fill:#7AC442;stroke:#FFFFFF;stroke-miterlimit:10;}
	.st8{fill:#F6F4F4;}
	.st9{fill:#E8212D;stroke:#FFFFFF;stroke-miterlimit:10;}
	.st10{opacity:0.85;fill:#F9F7F7;stroke:#FFFFFF;stroke-miterlimit:10;}
	.st11{fill:#504D50;}
	.st12{fill:#4F4C4F;stroke:#FFFFFF;stroke-miterlimit:10;}
	.st13{fill:#7AC743;}
	.st14{fill:#EA4130;}
	.st15{fill:none;stroke:#4F4C4F;stroke-linecap:square;stroke-linejoin:bevel;stroke-miterlimit:10;}
	.st16{fill-rule:evenodd;clip-rule:evenodd;fill:none;stroke:#14ABE1;stroke-width:3;stroke-linecap:round;stroke-miterlimit:10;}
	.st17{opacity:0;}
	.st18{fill:#FF1D25;stroke:#FFFFFF;stroke-miterlimit:10;}
	.st19{clip-path:url(#SVGID_4_);}
	.st20{fill:#7AC743;stroke:#FFFFFF;stroke-miterlimit:10;}
	.st21{fill:url(#);}
	.st22{fill:#7AC743;stroke:#FFFFFF;stroke-linecap:round;stroke-linejoin:round;stroke-miterlimit:10;}
	.st23{fill:#7AC743;stroke:#FFFFFF;stroke-width:0.9071;stroke-miterlimit:10;}
	.st24{fill:none;stroke:#FFFFFF;stroke-linecap:round;stroke-linejoin:round;}
	.st25{fill:#7AC743;stroke:#FFFFFF;stroke-linecap:round;stroke-linejoin:round;}
</style>
<rect x="0.5" y="0.5" class="st7" width="1086" height="60"/>
<g>
	<g class="st4">
		<path class="st8" d="M50,25.8c0,0.4-0.1,0.8-0.2,1.2s-0.3,0.7-0.6,0.9s-0.5,0.5-0.9,0.6c-0.3,0.2-0.7,0.3-1.1,0.4V29
			c1,0.1,1.8,0.5,2.4,1c0.5,0.5,0.8,1.2,0.8,2.1c0,0.6-0.1,1.1-0.3,1.5s-0.5,0.9-0.9,1.2s-0.9,0.6-1.5,0.8s-1.3,0.3-2.1,0.3
			c-0.6,0-1.2,0-1.8-0.1s-1.1-0.3-1.6-0.5v-1.5c0.5,0.3,1.1,0.5,1.7,0.6s1.2,0.2,1.7,0.2c0.5,0,1-0.1,1.4-0.2s0.7-0.3,1-0.5
			s0.4-0.5,0.6-0.8s0.2-0.7,0.2-1.1c0-0.4-0.1-0.7-0.2-1s-0.4-0.5-0.7-0.7c-0.3-0.2-0.6-0.3-1.1-0.4s-0.9-0.1-1.4-0.1h-1.2v-1.3h1.2
			c0.5,0,0.9-0.1,1.3-0.2s0.7-0.3,0.9-0.5s0.4-0.5,0.6-0.8s0.2-0.6,0.2-1c0-0.3-0.1-0.6-0.2-0.8s-0.3-0.4-0.4-0.6
			c-0.2-0.2-0.4-0.3-0.7-0.4S46.5,24,46.1,24c-0.6,0-1.2,0.1-1.7,0.3c-0.5,0.2-0.9,0.5-1.4,0.8L42.3,24c0.2-0.2,0.5-0.4,0.7-0.5
			s0.6-0.3,0.9-0.4s0.7-0.2,1-0.3s0.8-0.1,1.2-0.1c0.6,0,1.2,0.1,1.7,0.2s0.9,0.4,1.2,0.7s0.6,0.6,0.7,1C49.9,24.9,50,25.4,50,25.8z
			"/>
	</g>
</g>
</svg>
