<?xml version="1.0" encoding="utf-8"?>
<svg version="1.1" class="breaks-alert" xmlns="http://www.w3.org/2000/svg" xmlns:xlink="http://www.w3.org/1999/xlink" x="0px" y="0px"
	 viewBox="181.512 366 1200 61" style="enable-background:new 181.512 366 1200 61;" xml:space="preserve">
<g class="breaks-alert">
	<g>
		<g class="breaks-alert-st0">
			<path class="breaks-alert-st1" d="M288.56,398.233c0,1.119-0.404,2.001-1.213,2.646c-0.809,0.645-1.934,0.967-3.375,0.967
				c-1.523,0-2.701-0.202-3.533-0.606v-1.547c0.545,0.234,1.141,0.419,1.789,0.554s1.252,0.202,1.815,0.202
				c0.961,0,1.685-0.185,2.171-0.554c0.486-0.369,0.729-0.876,0.729-1.521c0-0.428-0.088-0.779-0.264-1.055
				c-0.176-0.276-0.47-0.533-0.883-0.773c-0.413-0.24-1.039-0.513-1.876-0.817c-1.189-0.434-2.039-0.945-2.549-1.533
				c-0.51-0.59-0.765-1.35-0.765-2.281c0-1.002,0.376-1.799,1.129-2.391c0.753-0.592,1.745-0.888,2.975-0.888
				c1.283,0,2.464,0.24,3.542,0.721l-0.501,1.389c-1.102-0.457-2.127-0.686-3.076-0.686c-0.762,0-1.358,0.164-1.789,0.492
				c-0.431,0.328-0.646,0.788-0.646,1.38c0,0.422,0.083,0.772,0.25,1.051c0.167,0.279,0.437,0.531,0.809,0.76
				c0.372,0.229,0.957,0.489,1.753,0.782c0.955,0.352,1.667,0.693,2.136,1.024c0.469,0.331,0.814,0.711,1.037,1.143
				C288.448,397.121,288.56,397.636,288.56,398.233z"/>
			<path class="breaks-alert-st1" d="M293.924,400.554c0.205,0,0.445-0.021,0.721-0.062c0.276-0.041,0.483-0.088,0.624-0.141v1.213
				c-0.146,0.064-0.374,0.127-0.681,0.189c-0.308,0.061-0.62,0.092-0.936,0.092c-1.887,0-2.83-0.993-2.83-2.979v-5.616h-1.362
				v-0.756l1.38-0.633l0.633-2.057h0.94v2.215h2.786v1.23h-2.786v5.572c0,0.557,0.133,0.984,0.4,1.283
				C293.08,400.403,293.45,400.554,293.924,400.554z"/>
			<path class="breaks-alert-st1" d="M302.919,401.67l-0.308-1.371h-0.07c-0.48,0.604-0.959,1.013-1.437,1.227c-0.478,0.213-1.08,0.32-1.806,0.32
				c-0.949,0-1.693-0.249-2.232-0.747s-0.809-1.201-0.809-2.109c0-1.957,1.544-2.982,4.632-3.076l1.635-0.062v-0.572
				c0-0.732-0.158-1.272-0.475-1.622c-0.316-0.348-0.823-0.522-1.521-0.522c-0.51,0-0.992,0.076-1.446,0.229
				c-0.454,0.153-0.88,0.322-1.279,0.51l-0.483-1.187c0.486-0.258,1.017-0.46,1.591-0.606s1.143-0.22,1.705-0.22
				c1.166,0,2.033,0.258,2.602,0.773c0.569,0.515,0.853,1.336,0.853,2.461v6.574C304.071,401.67,302.919,401.67,302.919,401.67z
				 M299.658,400.571c0.885,0,1.581-0.238,2.087-0.716c0.507-0.478,0.76-1.156,0.76-2.035v-0.87l-1.424,0.062
				c-1.107,0.041-1.915,0.217-2.421,0.527s-0.76,0.8-0.76,1.468c0,0.504,0.154,0.891,0.461,1.16
				C298.668,400.436,299.102,400.571,299.658,400.571z"/>
			<path class="breaks-alert-st1" d="M311.324,391.844c0.428,0,0.806,0.035,1.134,0.105l-0.193,1.459c-0.357-0.082-0.706-0.123-1.046-0.123
				c-0.51,0-0.983,0.141-1.419,0.422c-0.436,0.281-0.778,0.67-1.024,1.164c-0.246,0.496-0.369,1.045-0.369,1.648v5.15h-1.582v-9.65
				h1.301l0.176,1.767h0.07c0.369-0.639,0.806-1.122,1.31-1.45S310.733,391.844,311.324,391.844z"/>
			<path class="breaks-alert-st1" d="M317.252,400.554c0.205,0,0.445-0.021,0.721-0.062c0.276-0.041,0.483-0.088,0.624-0.141v1.213
				c-0.146,0.064-0.374,0.127-0.681,0.189c-0.308,0.061-0.62,0.092-0.936,0.092c-1.887,0-2.83-0.993-2.83-2.979v-5.616h-1.362
				v-0.756l1.38-0.633l0.633-2.057h0.94v2.215h2.786v1.23h-2.787v5.572c0,0.557,0.133,0.984,0.4,1.283
				C316.407,400.403,316.777,400.554,317.252,400.554z"/>
			<path class="breaks-alert-st1" d="M320.164,389.409c0-0.352,0.089-0.606,0.268-0.765c0.179-0.159,0.4-0.237,0.664-0.237
				c0.246,0,0.461,0.079,0.646,0.237c0.185,0.158,0.277,0.413,0.277,0.765c0,0.346-0.092,0.601-0.277,0.765s-0.4,0.246-0.646,0.246
				c-0.264,0-0.485-0.082-0.664-0.246C320.253,390.01,320.164,389.755,320.164,389.409z M321.869,401.67h-1.582v-9.65h1.582V401.67z
				"/>
			<path class="breaks-alert-st1" d="M331.268,401.67v-6.17c0-0.785-0.174-1.369-0.523-1.754c-0.349-0.383-0.895-0.575-1.639-0.575
				c-0.99,0-1.709,0.274-2.158,0.821c-0.448,0.549-0.672,1.44-0.672,2.677v5.001h-1.582v-9.65h1.274l0.237,1.318h0.088
				c0.299-0.475,0.718-0.842,1.257-1.104c0.539-0.26,1.134-0.391,1.784-0.391c1.184,0,2.062,0.287,2.637,0.861
				c0.575,0.574,0.861,1.468,0.861,2.681v6.284L331.268,401.67L331.268,401.67z"/>
			<path class="breaks-alert-st1" d="M342.029,401.582l0.053-1.187h-0.07c-0.65,0.967-1.646,1.45-2.988,1.45c-1.248,0-2.222-0.436-2.922-1.305
				c-0.7-0.871-1.05-2.097-1.05-3.679c0-1.553,0.353-2.777,1.059-3.674c0.706-0.897,1.671-1.345,2.896-1.345
				c1.307,0,2.314,0.486,3.023,1.459h0.097l0.211-1.283h1.257v9.809c0,1.383-0.35,2.423-1.05,3.12
				c-0.7,0.697-1.789,1.046-3.265,1.046c-1.406,0-2.563-0.205-3.472-0.615v-1.458c0.938,0.504,2.124,0.756,3.56,0.756
				c0.82,0,1.469-0.24,1.947-0.721c0.478-0.481,0.716-1.146,0.716-1.995v-0.378H342.029z M339.26,400.554
				c0.973,0,1.68-0.262,2.123-0.786s0.664-1.367,0.664-2.527v-0.378c0-1.289-0.223-2.227-0.668-2.812
				c-0.445-0.585-1.163-0.879-2.153-0.879c-0.809,0-1.434,0.321-1.876,0.962c-0.442,0.643-0.664,1.558-0.664,2.747
				c0,1.195,0.215,2.106,0.646,2.733C337.763,400.241,338.405,400.554,339.26,400.554z"/>
			<path class="breaks-alert-st1" d="M349.357,392.02h1.696l2.083,5.493c0.439,1.195,0.709,2.071,0.809,2.628h0.07
				c0.053-0.217,0.173-0.622,0.36-1.217c0.187-0.595,0.346-1.071,0.475-1.429l1.96-5.476h1.705l-4.157,10.986
				c-0.404,1.066-0.885,1.831-1.441,2.294c-0.556,0.463-1.245,0.694-2.065,0.694c-0.439,0-0.876-0.05-1.31-0.149v-1.257
				c0.293,0.07,0.645,0.105,1.055,0.105c0.504,0,0.932-0.14,1.283-0.418c0.351-0.278,0.639-0.707,0.861-1.287l0.501-1.283
				L349.357,392.02z"/>
			<path class="breaks-alert-st1" d="M368.195,396.827c0,1.576-0.398,2.807-1.195,3.691s-1.898,1.327-3.305,1.327
				c-0.873,0-1.646-0.203-2.32-0.611c-0.674-0.406-1.192-0.991-1.556-1.753s-0.545-1.646-0.545-2.654
				c0-1.57,0.393-2.793,1.178-3.669s1.887-1.314,3.305-1.314c1.359,0,2.439,0.447,3.239,1.34
				C367.796,394.078,368.195,395.292,368.195,396.827z M360.909,396.827c0,1.213,0.239,2.135,0.716,2.765
				c0.477,0.63,1.182,0.944,2.114,0.944c0.92,0,1.62-0.314,2.101-0.944c0.48-0.63,0.721-1.552,0.721-2.765
				c0-1.213-0.242-2.125-0.725-2.737c-0.483-0.612-1.191-0.919-2.123-0.919C361.844,393.171,360.909,394.39,360.909,396.827z"/>
			<path class="breaks-alert-st1" d="M371.96,392.02v6.214c0,0.779,0.174,1.358,0.523,1.735c0.349,0.379,0.889,0.567,1.622,0.567
				c0.99,0,1.711-0.275,2.162-0.826s0.677-1.438,0.677-2.663v-5.027h1.591v9.65h-1.301l-0.229-1.274h-0.079
				c-0.287,0.463-0.694,0.82-1.222,1.072c-0.528,0.252-1.14,0.378-1.837,0.378c-1.16,0-2.035-0.278-2.624-0.835
				c-0.589-0.557-0.883-1.447-0.883-2.672v-6.319H371.96z"/>
			<path class="breaks-alert-st1" d="M385.859,391.844c0.428,0,0.806,0.035,1.134,0.105l-0.193,1.459c-0.357-0.082-0.706-0.123-1.046-0.123
				c-0.51,0-0.983,0.141-1.419,0.422s-0.778,0.67-1.024,1.164c-0.246,0.496-0.369,1.045-0.369,1.648v5.15h-1.582v-9.65h1.301
				l0.176,1.767h0.07c0.369-0.639,0.806-1.122,1.31-1.45S385.267,391.844,385.859,391.844z"/>
			<path class="breaks-alert-st1" d="M397.573,391.861c1.271,0,2.253,0.438,2.944,1.314c0.691,0.876,1.037,2.099,1.037,3.669
				c0,1.594-0.352,2.825-1.055,3.696c-0.703,0.869-1.679,1.305-2.927,1.305c-0.65,0-1.23-0.117-1.74-0.352
				c-0.51-0.235-0.926-0.583-1.248-1.046h-0.123c-0.182,0.703-0.29,1.11-0.325,1.222h-1.134v-13.675h1.582v3.322
				c0,0.662-0.029,1.324-0.088,1.986h0.088C395.235,392.342,396.231,391.861,397.573,391.861z M397.309,393.171
				c-0.973,0-1.67,0.275-2.092,0.826c-0.422,0.551-0.633,1.482-0.633,2.795v0.07c0,1.318,0.215,2.261,0.646,2.825
				c0.431,0.566,1.135,0.849,2.114,0.849c0.867,0,1.513-0.317,1.938-0.954c0.425-0.635,0.637-1.554,0.637-2.755
				c0-1.219-0.214-2.133-0.642-2.742C398.849,393.476,398.194,393.171,397.309,393.171z"/>
			<path class="breaks-alert-st1" d="M408.343,391.844c0.428,0,0.806,0.035,1.134,0.105l-0.193,1.459c-0.357-0.082-0.706-0.123-1.046-0.123
				c-0.51,0-0.983,0.141-1.419,0.422s-0.778,0.67-1.024,1.164c-0.246,0.496-0.369,1.045-0.369,1.648v5.15h-1.582v-9.65h1.301
				l0.176,1.767h0.07c0.369-0.639,0.806-1.122,1.31-1.45S407.751,391.844,408.343,391.844z"/>
			<path class="breaks-alert-st1" d="M415.149,401.846c-1.447,0-2.583-0.438-3.406-1.314c-0.823-0.875-1.235-2.081-1.235-3.616
				c0-1.547,0.384-2.778,1.151-3.696c0.768-0.916,1.805-1.375,3.111-1.375c1.213,0,2.18,0.391,2.9,1.174
				c0.721,0.781,1.081,1.841,1.081,3.177v0.958h-6.609c0.029,1.096,0.308,1.928,0.835,2.496c0.527,0.568,1.274,0.853,2.241,0.853
				c0.516,0,1.005-0.045,1.468-0.136c0.463-0.091,1.005-0.269,1.626-0.532v1.389c-0.533,0.229-1.034,0.39-1.503,0.483
				S415.787,401.846,415.149,401.846z M414.753,393.136c-0.756,0-1.354,0.243-1.793,0.729c-0.439,0.486-0.7,1.163-0.782,2.03h4.913
				c-0.012-0.902-0.22-1.588-0.624-2.057C416.063,393.369,415.491,393.136,414.753,393.136z"/>
			<path class="breaks-alert-st1" d="M426.921,401.67l-0.308-1.371h-0.07c-0.48,0.604-0.959,1.013-1.437,1.227c-0.478,0.213-1.08,0.32-1.806,0.32
				c-0.949,0-1.693-0.249-2.232-0.747s-0.809-1.201-0.809-2.109c0-1.957,1.544-2.982,4.632-3.076l1.635-0.062v-0.572
				c0-0.732-0.158-1.272-0.475-1.622c-0.316-0.348-0.823-0.522-1.521-0.522c-0.51,0-0.992,0.076-1.446,0.229
				c-0.454,0.153-0.88,0.322-1.279,0.51l-0.483-1.187c0.486-0.258,1.017-0.46,1.591-0.606s1.143-0.22,1.705-0.22
				c1.166,0,2.033,0.258,2.602,0.773c0.569,0.515,0.853,1.336,0.853,2.461v6.574C428.073,401.67,426.921,401.67,426.921,401.67z
				 M423.66,400.571c0.885,0,1.581-0.238,2.087-0.716s0.76-1.156,0.76-2.035v-0.87l-1.424,0.062
				c-1.107,0.041-1.915,0.217-2.421,0.527c-0.506,0.31-0.76,0.8-0.76,1.468c0,0.504,0.154,0.891,0.461,1.16
				C422.67,400.436,423.103,400.571,423.66,400.571z"/>
			<path class="breaks-alert-st1" d="M432.391,396.704l0.536-0.686l0.615-0.738l3.085-3.261h1.846l-3.902,4.122l4.175,5.528h-1.907l-3.349-4.5
				l-1.099,0.958v3.542h-1.564v-13.675h1.564v7.146l-0.07,1.564C432.321,396.704,432.391,396.704,432.391,396.704z"/>
			<path class="breaks-alert-st1" d="M444.526,389.409c0-0.352,0.089-0.606,0.268-0.765s0.4-0.237,0.664-0.237c0.246,0,0.461,0.079,0.646,0.237
				c0.185,0.158,0.277,0.413,0.277,0.765c0,0.346-0.092,0.601-0.277,0.765s-0.4,0.246-0.646,0.246c-0.264,0-0.485-0.082-0.664-0.246
				S444.526,389.755,444.526,389.409z M446.231,401.67h-1.582v-9.65h1.582V401.67z"/>
			<path class="breaks-alert-st1" d="M455.63,401.67v-6.17c0-0.785-0.174-1.369-0.523-1.754c-0.349-0.383-0.895-0.575-1.639-0.575
				c-0.99,0-1.709,0.274-2.158,0.821c-0.448,0.549-0.672,1.44-0.672,2.677v5.001h-1.582v-9.65h1.274l0.237,1.318h0.088
				c0.299-0.475,0.718-0.842,1.257-1.104c0.539-0.26,1.134-0.391,1.784-0.391c1.184,0,2.062,0.287,2.637,0.861
				c0.575,0.574,0.861,1.468,0.861,2.681v6.284L455.63,401.67L455.63,401.67z"/>
			<path class="breaks-alert-st1" d="M459.712,400.694c0-0.223,0.029-0.411,0.088-0.567c0.059-0.154,0.138-0.281,0.237-0.377
				c0.1-0.098,0.217-0.168,0.352-0.211c0.135-0.045,0.281-0.066,0.439-0.066c0.152,0,0.297,0.021,0.435,0.066
				c0.138,0.043,0.256,0.113,0.356,0.211c0.1,0.096,0.179,0.223,0.237,0.377c0.059,0.156,0.088,0.345,0.088,0.567
				c0,0.217-0.029,0.403-0.088,0.558c-0.059,0.156-0.138,0.283-0.237,0.383c-0.099,0.1-0.218,0.173-0.356,0.22
				c-0.138,0.047-0.283,0.07-0.435,0.07c-0.158,0-0.305-0.023-0.439-0.07c-0.134-0.047-0.252-0.12-0.352-0.22
				c-0.1-0.1-0.179-0.227-0.237-0.383C459.741,401.098,459.712,400.911,459.712,400.694z"/>
			<path class="breaks-alert-st1" d="M464.303,400.694c0-0.223,0.029-0.411,0.088-0.567c0.059-0.154,0.138-0.281,0.237-0.377
				c0.1-0.098,0.217-0.168,0.352-0.211c0.135-0.045,0.281-0.066,0.439-0.066c0.152,0,0.297,0.021,0.435,0.066
				c0.138,0.043,0.256,0.113,0.356,0.211c0.1,0.096,0.179,0.223,0.237,0.377c0.059,0.156,0.088,0.345,0.088,0.567
				c0,0.217-0.029,0.403-0.088,0.558c-0.059,0.156-0.138,0.283-0.237,0.383c-0.099,0.1-0.218,0.173-0.356,0.22
				c-0.138,0.047-0.283,0.07-0.435,0.07c-0.158,0-0.305-0.023-0.439-0.07c-0.134-0.047-0.252-0.12-0.352-0.22
				c-0.1-0.1-0.179-0.227-0.237-0.383C464.332,401.098,464.303,400.911,464.303,400.694z"/>
			<path class="breaks-alert-st1" d="M468.894,400.694c0-0.223,0.029-0.411,0.088-0.567c0.059-0.154,0.138-0.281,0.237-0.377
				c0.1-0.098,0.217-0.168,0.352-0.211c0.135-0.045,0.281-0.066,0.439-0.066c0.152,0,0.297,0.021,0.435,0.066
				c0.138,0.043,0.256,0.113,0.356,0.211c0.1,0.096,0.179,0.223,0.237,0.377c0.059,0.156,0.088,0.345,0.088,0.567
				c0,0.217-0.029,0.403-0.088,0.558c-0.059,0.156-0.138,0.283-0.237,0.383c-0.099,0.1-0.218,0.173-0.356,0.22
				c-0.138,0.047-0.283,0.07-0.435,0.07c-0.158,0-0.305-0.023-0.439-0.07c-0.134-0.047-0.252-0.12-0.352-0.22
				c-0.1-0.1-0.179-0.227-0.237-0.383C468.923,401.098,468.894,400.911,468.894,400.694z"/>
		</g>
	</g>
</g>
</svg>
