<?xml version="1.0" encoding="utf-8"?>
<!-- Generator: Adobe Illustrator 19.1.0, SVG Export Plug-In . SVG Version: 6.00 Build 0)  -->
<svg version="1.1" id="Layer_1" xmlns="http://www.w3.org/2000/svg" xmlns:xlink="http://www.w3.org/1999/xlink" x="0px" y="0px"
	 viewBox="0 0 1087 61" style="enable-background:new 0 0 1087 61;" xml:space="preserve">
<style type="text/css">
	.st0{fill:none;stroke:#FFFFFF;stroke-miterlimit:10;}
	.st1{fill:none;stroke:#504D50;stroke-width:0.9903;stroke-miterlimit:10;}
	.st2{fill:#FFFFFF;}
	.st3{fill:#F272AA;stroke:#FFFFFF;stroke-miterlimit:10;}
	.st4{opacity:0.97;}
	.st5{fill:#F2F0F0;}
	.st6{fill:none;stroke:#F2F0F0;stroke-miterlimit:10;}
	.st7{fill:#7AC442;stroke:#FFFFFF;stroke-miterlimit:10;}
	.st8{fill:#F6F4F4;}
	.st9{fill:#E8212D;stroke:#FFFFFF;stroke-miterlimit:10;}
	.st10{opacity:0.85;fill:#F9F7F7;stroke:#FFFFFF;stroke-miterlimit:10;}
	.st11{fill:#504D50;}
	.st12{fill:#4F4C4F;stroke:#FFFFFF;stroke-miterlimit:10;}
	.st13{fill:#7AC743;}
	.st14{fill:#EA4130;}
	.st15{fill:none;stroke:#4F4C4F;stroke-linecap:square;stroke-linejoin:bevel;stroke-miterlimit:10;}
	.st16{fill-rule:evenodd;clip-rule:evenodd;fill:none;stroke:#14ABE1;stroke-width:3;stroke-linecap:round;stroke-miterlimit:10;}
	.st17{opacity:0;}
	.st18{fill:#FF1D25;stroke:#FFFFFF;stroke-miterlimit:10;}
	.st19{clip-path:url(#SVGID_4_);}
	.st20{fill:#7AC743;stroke:#FFFFFF;stroke-miterlimit:10;}
	.st21{fill:url(#);}
	.st22{fill:#7AC743;stroke:#FFFFFF;stroke-linecap:round;stroke-linejoin:round;stroke-miterlimit:10;}
	.st23{fill:#7AC743;stroke:#FFFFFF;stroke-width:0.9071;stroke-miterlimit:10;}
	.st24{fill:none;stroke:#FFFFFF;stroke-linecap:round;stroke-linejoin:round;}
	.st25{fill:#7AC743;stroke:#FFFFFF;stroke-linecap:round;stroke-linejoin:round;}
</style>
<rect x="0.5" y="0.5" class="st9" width="1086" height="60"/>
<g>
	<g class="st4">
		<path class="st8" d="M124.1,32.2c0,1.1-0.4,2-1.2,2.6s-1.9,1-3.4,1c-1.5,0-2.7-0.2-3.5-0.6v-1.5c0.5,0.2,1.1,0.4,1.8,0.6
			s1.3,0.2,1.8,0.2c1,0,1.7-0.2,2.2-0.6s0.7-0.9,0.7-1.5c0-0.4-0.1-0.8-0.3-1.1s-0.5-0.5-0.9-0.8s-1-0.5-1.9-0.8
			c-1.2-0.4-2-0.9-2.5-1.5c-0.5-0.6-0.8-1.3-0.8-2.3c0-1,0.4-1.8,1.1-2.4s1.7-0.9,3-0.9c1.3,0,2.5,0.2,3.5,0.7l-0.5,1.4
			c-1.1-0.5-2.1-0.7-3.1-0.7c-0.8,0-1.4,0.2-1.8,0.5s-0.6,0.8-0.6,1.4c0,0.4,0.1,0.8,0.3,1.1c0.2,0.3,0.4,0.5,0.8,0.8s1,0.5,1.8,0.8
			c1,0.4,1.7,0.7,2.1,1c0.5,0.3,0.8,0.7,1,1.1C124,31.1,124.1,31.6,124.1,32.2z"/>
		<path class="st8" d="M129.5,34.6c0.2,0,0.4,0,0.7-0.1s0.5-0.1,0.6-0.1v1.2c-0.1,0.1-0.4,0.1-0.7,0.2c-0.3,0.1-0.6,0.1-0.9,0.1
			c-1.9,0-2.8-1-2.8-3v-5.6H125v-0.8l1.4-0.6l0.6-2.1h0.9V26h2.8v1.2H128v5.6c0,0.6,0.1,1,0.4,1.3S129,34.6,129.5,34.6z"/>
		<path class="st8" d="M136.6,35.8c-1.4,0-2.6-0.4-3.4-1.3c-0.8-0.9-1.2-2.1-1.2-3.6c0-1.5,0.4-2.8,1.2-3.7c0.8-0.9,1.8-1.4,3.1-1.4
			c1.2,0,2.2,0.4,2.9,1.2c0.7,0.8,1.1,1.8,1.1,3.2v1h-6.6c0,1.1,0.3,1.9,0.8,2.5s1.3,0.9,2.2,0.9c0.5,0,1,0,1.5-0.1
			c0.5-0.1,1-0.3,1.6-0.5v1.4c-0.5,0.2-1,0.4-1.5,0.5S137.3,35.8,136.6,35.8z M136.2,27.1c-0.8,0-1.4,0.2-1.8,0.7s-0.7,1.2-0.8,2
			h4.9c0-0.9-0.2-1.6-0.6-2.1S137,27.1,136.2,27.1z"/>
		<path class="st8" d="M148.4,35.7l-0.3-1.4H148c-0.5,0.6-1,1-1.4,1.2c-0.5,0.2-1.1,0.3-1.8,0.3c-0.9,0-1.7-0.2-2.2-0.7
			s-0.8-1.2-0.8-2.1c0-2,1.5-3,4.6-3.1l1.6-0.1v-0.6c0-0.7-0.2-1.3-0.5-1.6c-0.3-0.3-0.8-0.5-1.5-0.5c-0.5,0-1,0.1-1.4,0.2
			s-0.9,0.3-1.3,0.5l-0.5-1.2c0.5-0.3,1-0.5,1.6-0.6s1.1-0.2,1.7-0.2c1.2,0,2,0.3,2.6,0.8s0.9,1.3,0.9,2.5v6.6H148.4z M145.1,34.6
			c0.9,0,1.6-0.2,2.1-0.7c0.5-0.5,0.8-1.2,0.8-2v-0.9l-1.4,0.1c-1.1,0-1.9,0.2-2.4,0.5s-0.8,0.8-0.8,1.5c0,0.5,0.2,0.9,0.5,1.2
			S144.6,34.6,145.1,34.6z"/>
		<path class="st8" d="M164.6,35.7v-6.2c0-1.5-0.7-2.3-2-2.3c-0.9,0-1.6,0.3-2,0.8s-0.6,1.3-0.6,2.4v5.3h-1.6v-6.2
			c0-0.8-0.2-1.3-0.5-1.7s-0.8-0.6-1.5-0.6c-0.9,0-1.5,0.3-2,0.8s-0.6,1.4-0.6,2.7v5h-1.6V26h1.3l0.2,1.3h0.1
			c0.3-0.5,0.7-0.8,1.2-1.1s1.1-0.4,1.7-0.4c1.5,0,2.5,0.5,3,1.6h0.1c0.3-0.5,0.7-0.9,1.3-1.2s1.1-0.4,1.8-0.4
			c1.1,0,1.9,0.3,2.4,0.8s0.8,1.5,0.8,2.7v6.3H164.6z"/>
	</g>
</g>
<g>
	<g>
		<g>
			<g>
				<path class="st8" d="M989,11.5v38h-88.4v-38H989 M990,10.5h-90.4v40H990V10.5L990,10.5z"/>
			</g>
		</g>
		<g>
			<g>
				<g>
					<g>
						<g class="st4">
							<path class="st8" d="M929,34.7h-1.5l-5.4-8.3h-0.1l0,0.6c0.1,0.8,0.1,1.5,0.1,2.2v5.6H921v-10h1.5l0.3,0.5l3.3,5.1l1.7,2.7
								h0.1c0-0.1,0-0.5-0.1-1.2c0-0.7,0-1.2,0-1.5v-5.6h1.2V34.7z"/>
							<path class="st8" d="M934.7,34.9c-1.1,0-2-0.3-2.6-1c-0.6-0.7-1-1.6-1-2.8c0-1.2,0.3-2.2,0.9-2.9c0.6-0.7,1.4-1.1,2.4-1.1
								c0.9,0,1.7,0.3,2.3,0.9c0.6,0.6,0.8,1.4,0.8,2.5v0.7h-5.1c0,0.9,0.2,1.5,0.6,1.9s1,0.7,1.7,0.7c0.4,0,0.8,0,1.1-0.1
								c0.4-0.1,0.8-0.2,1.3-0.4v1.1c-0.4,0.2-0.8,0.3-1.2,0.4C935.6,34.8,935.2,34.9,934.7,34.9z M934.4,28.1
								c-0.6,0-1.1,0.2-1.4,0.6s-0.5,0.9-0.6,1.6h3.8c0-0.7-0.2-1.2-0.5-1.6S935,28.1,934.4,28.1z"/>
							<path class="st8" d="M940.6,27.2v4.8c0,0.6,0.1,1.1,0.4,1.4c0.3,0.3,0.7,0.4,1.3,0.4c0.8,0,1.3-0.2,1.7-0.6
								c0.4-0.4,0.5-1.1,0.5-2.1v-3.9h1.2v7.5h-1l-0.2-1h-0.1c-0.2,0.4-0.5,0.6-0.9,0.8s-0.9,0.3-1.4,0.3c-0.9,0-1.6-0.2-2-0.6
								s-0.7-1.1-0.7-2.1v-4.9H940.6z"/>
							<path class="st8" d="M950.6,33.9c0.2,0,0.3,0,0.6,0c0.2,0,0.4-0.1,0.5-0.1v0.9c-0.1,0-0.3,0.1-0.5,0.1
								c-0.2,0-0.5,0.1-0.7,0.1c-1.5,0-2.2-0.8-2.2-2.3v-4.4h-1.1v-0.6l1.1-0.5l0.5-1.6h0.7v1.7h2.2v1h-2.2v4.3c0,0.4,0.1,0.8,0.3,1
								S950.2,33.9,950.6,33.9z"/>
							<path class="st8" d="M956.6,27.1c0.3,0,0.6,0,0.9,0.1l-0.2,1.1c-0.3-0.1-0.5-0.1-0.8-0.1c-0.4,0-0.8,0.1-1.1,0.3
								s-0.6,0.5-0.8,0.9c-0.2,0.4-0.3,0.8-0.3,1.3v4h-1.2v-7.5h1l0.1,1.4h0.1c0.3-0.5,0.6-0.9,1-1.1
								C955.7,27.2,956.1,27.1,956.6,27.1z"/>
							<path class="st8" d="M963.5,34.7l-0.2-1.1h-0.1c-0.4,0.5-0.7,0.8-1.1,1c-0.4,0.2-0.8,0.2-1.4,0.2c-0.7,0-1.3-0.2-1.7-0.6
								c-0.4-0.4-0.6-0.9-0.6-1.6c0-1.5,1.2-2.3,3.6-2.4l1.3,0v-0.4c0-0.6-0.1-1-0.4-1.3c-0.2-0.3-0.6-0.4-1.2-0.4
								c-0.4,0-0.8,0.1-1.1,0.2s-0.7,0.3-1,0.4l-0.4-0.9c0.4-0.2,0.8-0.4,1.2-0.5c0.4-0.1,0.9-0.2,1.3-0.2c0.9,0,1.6,0.2,2,0.6
								c0.4,0.4,0.7,1,0.7,1.9v5.1H963.5z M961,33.9c0.7,0,1.2-0.2,1.6-0.6c0.4-0.4,0.6-0.9,0.6-1.6v-0.7l-1.1,0
								c-0.9,0-1.5,0.2-1.9,0.4s-0.6,0.6-0.6,1.1c0,0.4,0.1,0.7,0.4,0.9S960.5,33.9,961,33.9z"/>
							<path class="st8" d="M968,34.7h-1.2V24.1h1.2V34.7z"/>
						</g>
					</g>
				</g>
			</g>
		</g>
		<g>
			<g>
				<g>
					<g>
						<g class="st4">
							<path class="st8" d="M845.8,29.5h3.5v4.9c-0.5,0.2-1.1,0.3-1.6,0.4c-0.5,0.1-1.2,0.1-1.9,0.1c-1.5,0-2.7-0.5-3.5-1.4
								s-1.3-2.2-1.3-3.8c0-1,0.2-2,0.6-2.7s1-1.4,1.8-1.8c0.8-0.4,1.7-0.6,2.8-0.6c1.1,0,2.1,0.2,3,0.6l-0.5,1.1
								c-0.9-0.4-1.7-0.6-2.6-0.6c-1.2,0-2.1,0.4-2.8,1.1c-0.7,0.7-1,1.7-1,3c0,1.3,0.3,2.3,1,3c0.6,0.7,1.6,1,2.8,1
								c0.7,0,1.3-0.1,2-0.2v-3h-2.2V29.5z"/>
							<path class="st8" d="M858,31c0,1.2-0.3,2.2-0.9,2.9c-0.6,0.7-1.5,1-2.6,1c-0.7,0-1.3-0.2-1.8-0.5s-0.9-0.8-1.2-1.4
								c-0.3-0.6-0.4-1.3-0.4-2.1c0-1.2,0.3-2.2,0.9-2.9c0.6-0.7,1.5-1,2.6-1c1.1,0,1.9,0.3,2.5,1C857.7,28.8,858,29.8,858,31z
								 M852.4,31c0,0.9,0.2,1.7,0.6,2.1c0.4,0.5,0.9,0.7,1.6,0.7c0.7,0,1.3-0.2,1.6-0.7c0.4-0.5,0.6-1.2,0.6-2.1s-0.2-1.7-0.6-2.1
								c-0.4-0.5-0.9-0.7-1.7-0.7C853.1,28.1,852.4,29.1,852.4,31z"/>
							<path class="st8" d="M866.5,31c0,1.2-0.3,2.2-0.9,2.9c-0.6,0.7-1.5,1-2.6,1c-0.7,0-1.3-0.2-1.8-0.5s-0.9-0.8-1.2-1.4
								c-0.3-0.6-0.4-1.3-0.4-2.1c0-1.2,0.3-2.2,0.9-2.9c0.6-0.7,1.5-1,2.6-1c1.1,0,1.9,0.3,2.5,1C866.2,28.8,866.5,29.8,866.5,31z
								 M860.8,31c0,0.9,0.2,1.7,0.6,2.1c0.4,0.5,0.9,0.7,1.6,0.7c0.7,0,1.3-0.2,1.6-0.7c0.4-0.5,0.6-1.2,0.6-2.1s-0.2-1.7-0.6-2.1
								c-0.4-0.5-0.9-0.7-1.7-0.7C861.6,28.1,860.8,29.1,860.8,31z"/>
							<path class="st8" d="M871.1,34.9c-1,0-1.7-0.3-2.3-1c-0.5-0.7-0.8-1.6-0.8-2.9c0-1.2,0.3-2.2,0.8-2.9c0.5-0.7,1.3-1,2.3-1
								c1,0,1.8,0.4,2.3,1.1h0.1c0-0.1,0-0.3-0.1-0.6c0-0.3,0-0.5,0-0.6v-3h1.2v10.6h-1l-0.2-1h-0.1
								C872.9,34.5,872.1,34.9,871.1,34.9z M871.3,33.9c0.7,0,1.3-0.2,1.6-0.6c0.3-0.4,0.5-1.1,0.5-2V31c0-1-0.2-1.8-0.5-2.2
								c-0.3-0.4-0.9-0.7-1.6-0.7c-0.6,0-1.1,0.3-1.5,0.8c-0.3,0.5-0.5,1.2-0.5,2.2c0,0.9,0.2,1.6,0.5,2.1
								C870.2,33.6,870.6,33.9,871.3,33.9z"/>
						</g>
					</g>
				</g>
			</g>
		</g>
	</g>
	<g>
		<path class="st8" d="M894.6,11.5v38H825c-2.2,0-4-1.8-4-4v-30c0-2.2,1.8-4,4-4H894.6 M895.6,10.5H825c-2.8,0-5,2.2-5,5v30
			c0,2.8,2.2,5,5,5h70.6V10.5L895.6,10.5z"/>
	</g>
	<g>
		<path class="st8" d="M994.5,50V11h57.1c2.5,0,4.5,2,4.5,4.5v30c0,2.5-2,4.5-4.5,4.5H994.5z"/>
		<g>
			<path class="st8" d="M1051.6,11.5c2.2,0,4,1.8,4,4v30c0,2.2-1.8,4-4,4H995v-38H1051.6 M1051.6,10.5H994v40h57.6c2.8,0,5-2.2,5-5
				v-30C1056.6,12.7,1054.4,10.5,1051.6,10.5L1051.6,10.5z"/>
		</g>
	</g>
	<g>
		<g>
			<g>
				<g class="st4">
					<path class="st14" d="M1021,33.7h-5.6v-10h5.6v1.1h-4.3V28h4.1v1.1h-4.1v3.6h4.3V33.7z"/>
					<path class="st14" d="M1024.7,33.7l-2.8-7.5h1.3l1.6,4.4c0.3,0.9,0.5,1.6,0.6,2h0.1c0-0.1,0-0.1,0.1-0.2c0-0.1,0-0.2,0.1-0.2
						c0-0.1,0.2-0.6,0.5-1.5l1.6-4.4h1.3l-2.9,7.5H1024.7z"/>
					<path class="st14" d="M1030.1,24.2c0-0.3,0.1-0.5,0.2-0.6s0.3-0.2,0.5-0.2c0.2,0,0.4,0.1,0.5,0.2s0.2,0.3,0.2,0.6
						c0,0.3-0.1,0.5-0.2,0.6c-0.1,0.1-0.3,0.2-0.5,0.2c-0.2,0-0.4-0.1-0.5-0.2C1030.1,24.7,1030.1,24.5,1030.1,24.2z M1031.4,33.7
						h-1.2v-7.5h1.2V33.7z"/>
					<path class="st14" d="M1035,33.7h-1.2V23.1h1.2V33.7z"/>
				</g>
			</g>
		</g>
	</g>
</g>
<g>
	<circle class="st6" cx="60.8" cy="30.5" r="19.5"/>
	<g>
		<circle class="st6" cx="64.9" cy="26.4" r="5.9"/>
		<circle class="st6" cx="54.9" cy="36.3" r="4.2"/>
		<line class="st6" x1="58.9" y1="26.6" x2="55.6" y2="32.2"/>
		<line class="st6" x1="64.7" y1="32.3" x2="59.1" y2="35.6"/>
	</g>
	<line class="st6" x1="52" y1="33.4" x2="42.6" y2="24"/>
</g>
</svg>
