<?xml version="1.0" encoding="utf-8"?>
<svg version="1.1" id="categorizing-alert--mobile" xmlns="http://www.w3.org/2000/svg" xmlns:xlink="http://www.w3.org/1999/xlink" x="0px" y="0px"
	 viewBox="-145 336.7 320.5 121.3" style="enable-background:new -145 336.7 320.5 121.3;" xml:space="preserve">
<style type="text/css">
	.categorizing-mobile-st0{fill:#7AC442;stroke:#FFFFFF;stroke-width:0.5;stroke-miterlimit:10;}
	.categorizing-mobile-st1{opacity:0.97;}
	.categorizing-mobile-st2{fill:#F6F4F4;}
	.categorizing-mobile-st3{fill:#E8212D;stroke:#FFFFFF;stroke-width:0.5;stroke-miterlimit:10;}
	.categorizing-mobile-st4{fill:#4F4C4F;stroke:#FFFFFF;stroke-width:0.5;stroke-miterlimit:10;}
	.categorizing-mobile-st5{fill:none;stroke:#F2F0F0;stroke-width:0.5;stroke-miterlimit:10;}
	.categorizing-mobile-st6{fill:#F2F0F0;}
	.categorizing-mobile-st7{fill:none;stroke:#F2F0F0;stroke-width:0.5;stroke-linejoin:bevel;stroke-miterlimit:10;}
</style>
<g>
	<rect x="-144.8" y="367.5" class="categorizing-mobile-st0" width="320" height="28.9"/>
	<g>
		<g class="categorizing-mobile-st1">
			<path class="categorizing-mobile-st2" d="M-87.8,385.5h-0.9l-1.4-4.7c-0.2-0.7-0.3-1.2-0.4-1.4c-0.1,0.4-0.2,0.9-0.3,1.4l-1.3,4.6h-0.9l-1.9-7.1h0.9
				l1.1,4.4c0.1,0.6,0.3,1.1,0.3,1.7c0.1-0.5,0.2-1.1,0.4-1.8l1.3-4.3h0.9l1.3,4.3c0.2,0.6,0.3,1.1,0.4,1.7c0.1-0.4,0.2-1,0.3-1.7
				l1.1-4.4h0.9L-87.8,385.5z"/>
			<path class="categorizing-mobile-st2" d="M-82.6,380c0.2,0,0.4,0,0.6,0.1l-0.1,0.8c-0.2,0-0.4-0.1-0.6-0.1c-0.3,0-0.5,0.1-0.8,0.2
				c-0.2,0.2-0.4,0.4-0.6,0.6c-0.1,0.3-0.2,0.6-0.2,0.9v2.9h-0.9V380h0.7l0.1,1l0,0c0.2-0.4,0.4-0.6,0.7-0.8
				C-83.2,380.1-82.9,380-82.6,380z"/>
			<path class="categorizing-mobile-st2" d="M-81.2,378.7c0-0.2,0.1-0.3,0.1-0.4c0.1-0.1,0.2-0.1,0.4-0.1c0.1,0,0.3,0,0.4,0.1s0.2,0.2,0.2,0.4
				c0,0.2-0.1,0.3-0.2,0.4s-0.2,0.1-0.4,0.1c-0.1,0-0.3,0-0.4-0.1C-81.1,379-81.2,378.8-81.2,378.7z M-80.2,385.5h-0.9v-5.4h0.9
				V385.5z"/>
			<path class="categorizing-mobile-st2" d="M-76.8,384.8c0.1,0,0.2,0,0.4,0c0.2,0,0.3,0,0.3-0.1v0.7c-0.1,0-0.2,0.1-0.4,0.1c-0.2,0-0.3,0.1-0.5,0.1
				c-1,0-1.6-0.6-1.6-1.7v-3.1h-0.8v-0.4l0.8-0.4l0.4-1.1h0.5v1.2h1.5v0.7h-1.5v3.1c0,0.3,0.1,0.5,0.2,0.7
				C-77.3,384.8-77.2,384.8-76.8,384.8z"/>
			<path class="categorizing-mobile-st2" d="M-72.8,385.6c-0.8,0-1.4-0.2-1.9-0.7s-0.7-1.2-0.7-2c0-0.9,0.2-1.5,0.6-2.1c0.4-0.5,1-0.8,1.7-0.8
				s1.2,0.2,1.6,0.7c0.4,0.4,0.6,1,0.6,1.8v0.5h-3.7c0,0.6,0.2,1.1,0.5,1.4s0.7,0.5,1.2,0.5c0.3,0,0.6,0,0.8-0.1
				c0.3-0.1,0.6-0.1,0.9-0.3v0.8c-0.3,0.1-0.6,0.2-0.8,0.3S-72.6,385.6-72.8,385.6z M-73.1,380.7c-0.4,0-0.8,0.1-1,0.4
				s-0.4,0.6-0.4,1.1h2.7c0-0.5-0.1-0.9-0.3-1.1C-72.3,380.9-72.7,380.7-73.1,380.7z"/>
			<path class="categorizing-mobile-st2" d="M-67.2,380c0.2,0,0.4,0,0.6,0.1l-0.1,0.8c-0.2,0-0.4-0.1-0.6-0.1c-0.3,0-0.5,0.1-0.8,0.2
				c-0.2,0.2-0.4,0.4-0.6,0.6c-0.1,0.3-0.2,0.6-0.2,0.9v2.9h-0.9V380h0.7l0.1,1l0,0c0.2-0.4,0.4-0.6,0.7-0.8
				C-67.8,380.1-67.4,380-67.2,380z"/>
		</g>
	</g>
	<rect x="-144.8" y="429.1" class="categorizing-mobile-st3" width="320" height="28.9"/>
	<g>
		<g class="categorizing-mobile-st1">
			<path class="categorizing-mobile-st2" d="M-90.1,445.1c0,0.6-0.2,1.1-0.7,1.5c-0.4,0.4-1.1,0.5-1.9,0.5s-1.5-0.1-2-0.3v-0.9c0.3,0.1,0.6,0.2,1,0.3
				c0.4,0.1,0.7,0.1,1,0.1c0.5,0,0.9-0.1,1.2-0.3c0.3-0.2,0.4-0.5,0.4-0.8c0-0.2,0-0.4-0.1-0.6s-0.3-0.3-0.5-0.4s-0.6-0.3-1-0.5
				c-0.7-0.2-1.1-0.5-1.4-0.9c-0.3-0.3-0.4-0.8-0.4-1.3c0-0.6,0.2-1,0.6-1.3s1-0.5,1.7-0.5s1.4,0.1,2,0.4l-0.3,0.8
				c-0.6-0.3-1.2-0.4-1.7-0.4c-0.4,0-0.8,0.1-1,0.3c-0.2,0.2-0.4,0.4-0.4,0.8c0,0.2,0,0.4,0.1,0.6s0.2,0.3,0.4,0.4
				c0.2,0.1,0.5,0.3,1,0.4c0.5,0.2,0.9,0.4,1.2,0.6c0.3,0.2,0.5,0.4,0.6,0.6C-90.2,444.5-90.1,444.8-90.1,445.1z"/>
			<path class="categorizing-mobile-st2" d="M-87.2,446.4c0.1,0,0.2,0,0.4,0c0.2,0,0.3,0,0.3-0.1v0.7c-0.1,0-0.2,0.1-0.4,0.1c-0.2,0-0.3,0.1-0.5,0.1
				c-1,0-1.6-0.6-1.6-1.7v-3.1h-0.8V442l0.8-0.4l0.4-1.1h0.5v1.2h1.5v0.7H-88v3.1c0,0.3,0.1,0.5,0.2,0.7
				C-87.6,446.4-87.3,446.4-87.2,446.4z"/>
			<path class="categorizing-mobile-st2" d="M-83.2,447.2c-0.8,0-1.4-0.2-1.9-0.7s-0.7-1.2-0.7-2c0-0.9,0.2-1.5,0.6-2.1c0.4-0.5,1-0.8,1.7-0.8
				s1.2,0.2,1.6,0.7c0.4,0.4,0.6,1,0.6,1.8v0.5H-85c0,0.6,0.2,1.1,0.5,1.4s0.7,0.5,1.2,0.5c0.3,0,0.6,0,0.8-0.1
				c0.3-0.1,0.6-0.1,0.9-0.3v0.8c-0.3,0.1-0.6,0.2-0.8,0.3C-82.4,447.1-82.8,447.2-83.2,447.2z M-83.3,442.3c-0.4,0-0.8,0.1-1,0.4
				s-0.4,0.6-0.4,1.1h2.7c0-0.5-0.1-0.9-0.3-1.1S-82.9,442.3-83.3,442.3z"/>
			<path class="categorizing-mobile-st2" d="M-76.6,447.1l-0.2-0.8l0,0c-0.3,0.3-0.5,0.6-0.8,0.7s-0.6,0.2-1,0.2c-0.5,0-0.9-0.1-1.2-0.4
				s-0.4-0.7-0.4-1.2c0-1.1,0.9-1.7,2.6-1.7h0.9v-0.3c0-0.4-0.1-0.7-0.3-0.9c-0.2-0.2-0.5-0.3-0.8-0.3s-0.6,0-0.8,0.1
				c-0.3,0.1-0.5,0.2-0.7,0.3l-0.3-0.7c0.3-0.1,0.6-0.3,0.9-0.3c0.3-0.1,0.6-0.1,0.9-0.1c0.6,0,1.1,0.1,1.4,0.4s0.5,0.7,0.5,1.4v3.7
				L-76.6,447.1L-76.6,447.1z M-78.4,446.4c0.5,0,0.9-0.1,1.2-0.4c0.3-0.3,0.4-0.6,0.4-1.1v-0.5h-0.8c-0.6,0-1.1,0.1-1.3,0.3
				s-0.4,0.4-0.4,0.8c0,0.3,0.1,0.5,0.3,0.6C-78.9,446.4-78.8,446.4-78.4,446.4z"/>
			<path class="categorizing-mobile-st2" d="M-67.7,447.1v-3.5c0-0.8-0.4-1.3-1.1-1.3c-0.5,0-0.9,0.1-1.1,0.4s-0.4,0.7-0.4,1.3v3h-0.9v-3.5
				c0-0.4-0.1-0.7-0.3-1c-0.2-0.2-0.5-0.3-0.8-0.3c-0.5,0-0.9,0.2-1.1,0.5s-0.3,0.8-0.3,1.5v2.8h-0.9v-5.4h0.7l0.1,0.7l0,0
				c0.2-0.3,0.4-0.5,0.6-0.6c0.3-0.1,0.6-0.2,0.9-0.2c0.8,0,1.4,0.3,1.6,0.9l0,0c0.2-0.3,0.4-0.5,0.7-0.7c0.3-0.2,0.6-0.2,1-0.2
				c0.6,0,1.1,0.2,1.4,0.5s0.5,0.8,0.5,1.5v3.5C-66.8,447.1-67.7,447.1-67.7,447.1z"/>
		</g>
	</g>
	<rect x="-144.8" y="398.3" class="categorizing-mobile-st0" width="320" height="28.9"/>
	<g>
		<g>
			<g class="categorizing-mobile-st1">
				<path class="categorizing-mobile-st2" d="M-90.1,414.4c0,0.6-0.2,1.1-0.7,1.5c-0.4,0.4-1.1,0.5-1.9,0.5s-1.5-0.1-2-0.3v-0.9c0.3,0.1,0.6,0.2,1,0.3
					c0.4,0.1,0.7,0.1,1,0.1c0.5,0,0.9-0.1,1.2-0.3c0.3-0.2,0.4-0.5,0.4-0.8c0-0.2,0-0.4-0.1-0.6s-0.3-0.3-0.5-0.4s-0.6-0.3-1-0.5
					c-0.7-0.2-1.1-0.5-1.4-0.9c-0.3-0.3-0.4-0.8-0.4-1.3c0-0.6,0.2-1,0.6-1.3s1-0.5,1.7-0.5s1.4,0.1,2,0.4l-0.3,0.8
					c-0.6-0.3-1.2-0.4-1.7-0.4c-0.4,0-0.8,0.1-1,0.3c-0.2,0.2-0.4,0.4-0.4,0.8c0,0.2,0,0.4,0.1,0.6s0.2,0.3,0.4,0.4
					c0.2,0.1,0.5,0.3,1,0.4c0.5,0.2,0.9,0.4,1.2,0.6c0.3,0.2,0.5,0.4,0.6,0.6C-90.2,413.7-90.1,414-90.1,414.4z"/>
				<path class="categorizing-mobile-st2" d="M-88.1,413.5l0.3-0.4l0.3-0.4l1.7-1.8h1l-2.2,2.3l2.3,3.1h-1.1l-1.9-2.5l-0.6,0.5v2h-0.9v-7.6h0.9v4v0.8
					H-88.1z"/>
				<path class="categorizing-mobile-st2" d="M-81.4,416.4c-0.8,0-1.4-0.2-1.9-0.7s-0.7-1.2-0.7-2c0-0.9,0.2-1.5,0.6-2.1c0.4-0.5,1-0.8,1.7-0.8
					s1.2,0.2,1.6,0.7c0.4,0.4,0.6,1,0.6,1.8v0.5h-3.7c0,0.6,0.2,1.1,0.5,1.4s0.7,0.5,1.2,0.5c0.3,0,0.6,0,0.8-0.1
					c0.3-0.1,0.6-0.1,0.9-0.3v0.8c-0.3,0.1-0.6,0.2-0.8,0.3S-81.1,416.4-81.4,416.4z M-81.7,411.5c-0.4,0-0.8,0.1-1,0.4
					s-0.4,0.6-0.4,1.1h2.7c0-0.5-0.1-0.9-0.3-1.1S-81.2,411.5-81.7,411.5z"/>
				<path class="categorizing-mobile-st2" d="M-76.3,415.6c0.1,0,0.2,0,0.4,0c0.2,0,0.3,0,0.3-0.1v0.7c-0.1,0-0.2,0.1-0.4,0.1c-0.2,0-0.3,0.1-0.5,0.1
					c-1,0-1.6-0.6-1.6-1.7v-3.1h-0.8v-0.4l0.8-0.4l0.4-1.1h0.5v1.2h1.5v0.7h-1.5v3.1c0,0.3,0.1,0.5,0.2,0.7
					C-76.8,415.6-76.7,415.6-76.3,415.6z"/>
				<path class="categorizing-mobile-st2" d="M-72.6,416.4c-0.8,0-1.4-0.2-1.8-0.7s-0.6-1.2-0.6-2c0-0.9,0.2-1.6,0.7-2.1c0.4-0.5,1.1-0.7,1.9-0.7
					c0.3,0,0.5,0,0.8,0.1s0.5,0.1,0.6,0.2l-0.3,0.7c-0.5-0.2-0.8-0.3-1.2-0.3c-0.5,0-0.9,0.2-1.2,0.5c-0.3,0.3-0.4,0.8-0.4,1.5
					c0,0.6,0.1,1.1,0.4,1.5s0.6,0.5,1.1,0.5s0.9-0.1,1.4-0.3v0.8C-71.6,416.3-71.9,416.4-72.6,416.4z"/>
				<path class="categorizing-mobile-st2" d="M-66.3,416.3v-3.4c0-0.4-0.1-0.8-0.3-1c-0.2-0.2-0.5-0.3-0.9-0.3c-0.5,0-0.9,0.2-1.2,0.5
					c-0.3,0.3-0.4,0.8-0.4,1.5v2.8h-0.9v-7.6h0.9v2.2c0,0.3,0,0.5,0,0.8h0.1c0.2-0.3,0.4-0.5,0.7-0.6s0.6-0.2,1-0.2
					c0.7,0,1.1,0.2,1.5,0.5c0.3,0.3,0.5,0.8,0.5,1.5v3.5C-65.6,416.3-66.3,416.3-66.3,416.3z"/>
			</g>
		</g>
	</g>
	<rect x="-144.8" y="336.7" class="categorizing-mobile-st4" width="320" height="28.9"/>
	<g>
		<g class="categorizing-mobile-st1">
			<path class="categorizing-mobile-st2" d="M-91.1,350.9h2.5v3.5c-0.4,0.1-0.8,0.2-1.2,0.3s-0.8,0.1-1.4,0.1c-1.1,0-1.9-0.3-2.5-1
				c-0.6-0.6-0.9-1.5-0.9-2.7c0-0.7,0.1-1.4,0.4-2s0.7-1,1.3-1.3c0.6-0.3,1.2-0.4,2-0.4s1.5,0.1,2.1,0.4l-0.3,0.8
				c-0.6-0.3-1.2-0.4-1.8-0.4c-0.8,0-1.5,0.3-2,0.8s-0.7,1.2-0.7,2.1s0.2,1.7,0.7,2.2s1.1,0.7,2,0.7c0.5,0,0.9-0.1,1.4-0.2v-2.1
				h-1.6V350.9z"/>
			<path class="categorizing-mobile-st2" d="M-80.2,354.7v-3.5c0-0.8-0.4-1.3-1.1-1.3c-0.5,0-0.9,0.1-1.1,0.4s-0.4,0.7-0.4,1.3v3h-0.9v-3.4
				c0-0.4-0.1-0.7-0.3-1c-0.2-0.2-0.5-0.3-0.8-0.3c-0.5,0-0.9,0.2-1.1,0.5s-0.3,0.8-0.3,1.5v2.8h-0.9v-5.4h0.7l0.1,0.7l0,0
				c0.2-0.3,0.4-0.5,0.6-0.6c0.3-0.1,0.6-0.2,0.9-0.2c0.8,0,1.4,0.3,1.6,0.9l0,0c0.2-0.3,0.4-0.5,0.7-0.7c0.3-0.2,0.6-0.2,1-0.2
				c0.6,0,1.1,0.2,1.4,0.5s0.5,0.8,0.5,1.5v3.5L-80.2,354.7L-80.2,354.7z"/>
			<path class="categorizing-mobile-st2" d="M-74.6,354.7l-0.2-0.8l0,0c-0.3,0.3-0.5,0.6-0.8,0.7s-0.6,0.2-1,0.2c-0.5,0-0.9-0.1-1.2-0.4
				s-0.4-0.7-0.4-1.2c0-1.1,0.9-1.7,2.6-1.7h0.9v-0.3c0-0.4-0.1-0.7-0.3-0.9c-0.2-0.2-0.5-0.3-0.8-0.3s-0.6,0-0.8,0.1
				c-0.3,0.1-0.5,0.2-0.7,0.3l-0.3-0.7c0.3-0.1,0.6-0.3,0.9-0.3c0.3-0.1,0.6-0.1,0.9-0.1c0.6,0,1.1,0.1,1.4,0.4s0.5,0.7,0.5,1.4v3.7
				L-74.6,354.7L-74.6,354.7z M-76.3,354.1c0.5,0,0.9-0.1,1.2-0.4c0.3-0.3,0.4-0.6,0.4-1.1v-0.5h-0.8c-0.6,0-1.1,0.1-1.3,0.3
				s-0.4,0.4-0.4,0.8c0,0.3,0.1,0.5,0.3,0.6C-76.9,354-76.7,354.1-76.3,354.1z"/>
			<path class="categorizing-mobile-st2" d="M-72.4,347.9c0-0.2,0.1-0.3,0.1-0.4c0.1-0.1,0.2-0.1,0.4-0.1c0.1,0,0.3,0,0.4,0.1s0.2,0.2,0.2,0.4
				c0,0.2-0.1,0.3-0.2,0.4s-0.2,0.1-0.4,0.1c-0.1,0-0.3,0-0.4-0.1S-72.4,348-72.4,347.9z M-71.6,354.7h-0.9v-5.4h0.9V354.7z"/>
			<path class="categorizing-mobile-st2" d="M-69.1,354.7H-70v-7.6h0.9V354.7z"/>
		</g>
	</g>
	<g>
		<rect x="-124.6" y="345" class="categorizing-mobile-st5" width="17.8" height="12.3"/>
		<polyline class="categorizing-mobile-st5" points="-124.6,345 -115.7,352.8 -106.8,345 		"/>
	</g>
	<g>
		<circle class="categorizing-mobile-st5" cx="-115.7" cy="443.6" r="8.9"/>
		<g>
			<circle class="categorizing-mobile-st5" cx="-113.8" cy="441.7" r="2.7"/>
			<circle class="categorizing-mobile-st5" cx="-118.3" cy="446.2" r="1.9"/>
			<line class="categorizing-mobile-st5" x1="-116.4" y1="441.8" x2="-118.1" y2="444.4"/>
			<line class="categorizing-mobile-st5" x1="-113.8" y1="444.4" x2="-116.4" y2="445.9"/>
		</g>
		<line class="categorizing-mobile-st5" x1="-119.7" y1="444.9" x2="-123.9" y2="440.6"/>
	</g>
	<g>
		<g>
			<g>
				<g class="categorizing-mobile-st1">
					<path class="categorizing-mobile-st6" d="M132.4,353h-0.8l-3.1-4.7l0,0v0.3c0,0.5,0,0.9,0,1.2v3.2h-0.7v-5.7h0.8l0.2,0.3l1.9,2.9l1,1.6l0,0
						c0-0.1,0-0.3,0-0.7c0-0.4,0-0.7,0-0.8v-3.2h0.7L132.4,353L132.4,353z"/>
					<path class="categorizing-mobile-st6" d="M135.8,353.1c-0.6,0-1.1-0.2-1.5-0.6s-0.5-0.9-0.5-1.6s0.2-1.2,0.5-1.6s0.8-0.6,1.4-0.6
						c0.5,0,1,0.2,1.3,0.5s0.5,0.8,0.5,1.4v0.4h-2.9c0,0.5,0.1,0.9,0.4,1.1s0.6,0.4,1,0.4c0.2,0,0.4,0,0.7-0.1
						c0.2,0,0.4-0.1,0.7-0.2v0.6c-0.2,0.1-0.5,0.2-0.7,0.2S136.1,353.1,135.8,353.1z M135.6,349.2c-0.3,0-0.6,0.1-0.8,0.3
						c-0.2,0.2-0.3,0.5-0.3,0.9h2.2c0-0.4-0.1-0.7-0.3-0.9S135.9,349.2,135.6,349.2z"/>
					<path class="categorizing-mobile-st6" d="M139.1,348.7v2.8c0,0.3,0.1,0.6,0.2,0.8s0.4,0.3,0.7,0.3c0.4,0,0.8-0.1,1-0.4s0.3-0.6,0.3-1.2v-2.2h0.7
						v4.3h-0.6l-0.1-0.6l0,0c-0.1,0.2-0.3,0.4-0.5,0.5s-0.5,0.2-0.8,0.2c-0.5,0-0.9-0.1-1.2-0.4c-0.3-0.2-0.4-0.6-0.4-1.2v-2.8
						C138.4,348.7,139.1,348.7,139.1,348.7z"/>
					<path class="categorizing-mobile-st6" d="M144.9,352.5c0.1,0,0.2,0,0.3,0s0.2,0,0.3-0.1v0.5c-0.1,0-0.2,0.1-0.3,0.1s-0.3,0-0.4,0
						c-0.8,0-1.3-0.4-1.3-1.3v-2.5h-0.6v-0.3l0.6-0.3l0.3-0.9h0.4v1h1.2v0.5h-1.2v2.5c0,0.2,0.1,0.4,0.2,0.6
						C144.4,352.5,144.6,352.5,144.9,352.5z"/>
					<path class="categorizing-mobile-st6" d="M148.2,348.7c0.2,0,0.4,0,0.5,0l-0.1,0.6c-0.2,0-0.3-0.1-0.5-0.1s-0.4,0.1-0.6,0.2s-0.3,0.3-0.5,0.5
						s-0.2,0.5-0.2,0.7v2.3h-0.7v-4.3h0.6l0.1,0.8l0,0c0.2-0.3,0.4-0.5,0.6-0.6S148.1,348.7,148.2,348.7z"/>
					<path class="categorizing-mobile-st6" d="M152.2,353l-0.1-0.6l0,0c-0.2,0.3-0.4,0.5-0.6,0.5c-0.2,0.1-0.5,0.1-0.8,0.1c-0.4,0-0.8-0.1-1-0.3
						c-0.2-0.2-0.4-0.5-0.4-0.9c0-0.9,0.7-1.3,2.1-1.4h0.7v-0.2c0-0.3-0.1-0.6-0.2-0.7c-0.1-0.2-0.4-0.2-0.7-0.2
						c-0.2,0-0.4,0-0.6,0.1s-0.4,0.1-0.6,0.2l-0.2-0.5c0.2-0.1,0.5-0.2,0.7-0.3s0.5-0.1,0.8-0.1c0.5,0,0.9,0.1,1.2,0.3
						s0.4,0.6,0.4,1.1v2.9H152.2L152.2,353z M150.8,352.5c0.4,0,0.7-0.1,0.9-0.3s0.3-0.5,0.3-0.9v-0.4h-0.6c-0.5,0-0.9,0.1-1.1,0.2
						c-0.2,0.1-0.3,0.4-0.3,0.7c0,0.2,0.1,0.4,0.2,0.5S150.6,352.5,150.8,352.5z"/>
					<path class="categorizing-mobile-st6" d="M154.8,353h-0.7v-6.1h0.7V353z"/>
				</g>
			</g>
		</g>
	</g>
	<g>
		<g>
			<g>
				<g class="categorizing-mobile-st1">
					<path class="categorizing-mobile-st6" d="M138.2,380.8h2v2.8c-0.3,0.1-0.6,0.2-0.9,0.2c-0.3,0-0.7,0.1-1.1,0.1c-0.9,0-1.5-0.3-2-0.8
						s-0.7-1.2-0.7-2.2c0-0.6,0.1-1.1,0.4-1.6s0.6-0.8,1-1s1-0.4,1.6-0.4s1.2,0.1,1.7,0.3l-0.3,0.6c-0.5-0.2-1-0.3-1.5-0.3
						c-0.7,0-1.2,0.2-1.6,0.6c-0.4,0.4-0.6,1-0.6,1.7c0,0.8,0.2,1.3,0.6,1.7c0.4,0.4,0.9,0.6,1.6,0.6c0.4,0,0.8,0,1.1-0.1v-1.7h-1.3
						V380.8L138.2,380.8z"/>
					<path class="categorizing-mobile-st6" d="M145.2,381.7c0,0.7-0.2,1.2-0.5,1.6c-0.4,0.4-0.8,0.6-1.5,0.6c-0.4,0-0.7-0.1-1-0.3s-0.5-0.4-0.7-0.8
						s-0.2-0.7-0.2-1.2c0-0.7,0.2-1.2,0.5-1.6s0.8-0.6,1.5-0.6c0.6,0,1.1,0.2,1.4,0.6C145.1,380.5,145.2,381,145.2,381.7z
						 M142.1,381.7c0,0.5,0.1,0.9,0.3,1.2c0.2,0.3,0.5,0.4,0.9,0.4s0.7-0.1,0.9-0.4s0.3-0.7,0.3-1.2s-0.1-0.9-0.3-1.2
						c-0.2-0.3-0.5-0.4-0.9-0.4C142.4,380.1,142.1,380.6,142.1,381.7z"/>
					<path class="categorizing-mobile-st6" d="M150.1,381.7c0,0.7-0.2,1.2-0.5,1.6c-0.4,0.4-0.8,0.6-1.5,0.6c-0.4,0-0.7-0.1-1-0.3s-0.5-0.4-0.7-0.8
						s-0.2-0.7-0.2-1.2c0-0.7,0.2-1.2,0.5-1.6s0.8-0.6,1.5-0.6c0.6,0,1.1,0.2,1.4,0.6C149.9,380.5,150.1,381,150.1,381.7z
						 M146.9,381.7c0,0.5,0.1,0.9,0.3,1.2c0.2,0.3,0.5,0.4,0.9,0.4s0.7-0.1,0.9-0.4s0.3-0.7,0.3-1.2s-0.1-0.9-0.3-1.2
						c-0.2-0.3-0.5-0.4-0.9-0.4C147.2,380.1,146.9,380.6,146.9,381.7z"/>
					<path class="categorizing-mobile-st6" d="M152.8,383.9c-0.6,0-1-0.2-1.3-0.6s-0.5-0.9-0.5-1.6s0.2-1.2,0.5-1.6s0.7-0.6,1.3-0.6s1,0.2,1.3,0.6h0.1
						c0-0.1,0-0.2,0-0.3s0-0.3,0-0.3v-1.7h0.7v6.1h-0.6l-0.1-0.6l0,0C153.8,383.7,153.4,383.9,152.8,383.9z M152.9,383.3
						c0.4,0,0.7-0.1,0.9-0.3c0.2-0.2,0.3-0.6,0.3-1.1v-0.1c0-0.6-0.1-1-0.3-1.3s-0.5-0.4-0.9-0.4s-0.6,0.1-0.8,0.4s-0.3,0.7-0.3,1.2
						s0.1,0.9,0.3,1.2C152.1,383.2,152.4,383.3,152.9,383.3z"/>
				</g>
			</g>
		</g>
	</g>
	<g>
		<g>
			<g>
				<g class="categorizing-mobile-st1">
					<path class="categorizing-mobile-st6" d="M138.2,411.6h2v2.8c-0.3,0.1-0.6,0.2-0.9,0.2c-0.3,0.1-0.7,0.1-1.1,0.1c-0.9,0-1.5-0.3-2-0.8
						s-0.7-1.2-0.7-2.2c0-0.6,0.1-1.1,0.4-1.6s0.6-0.8,1-1s1-0.4,1.6-0.4s1.2,0.1,1.7,0.3l-0.3,0.6c-0.5-0.2-1-0.3-1.5-0.3
						c-0.7,0-1.2,0.2-1.6,0.6c-0.4,0.4-0.6,1-0.6,1.7c0,0.8,0.2,1.3,0.6,1.7c0.4,0.4,0.9,0.6,1.6,0.6c0.4,0,0.8,0,1.1-0.1v-1.7h-1.3
						V411.6L138.2,411.6z"/>
					<path class="categorizing-mobile-st6" d="M145.2,412.5c0,0.7-0.2,1.2-0.5,1.6s-0.8,0.6-1.5,0.6c-0.4,0-0.7-0.1-1-0.3c-0.3-0.2-0.5-0.4-0.7-0.8
						c-0.2-0.3-0.2-0.7-0.2-1.2c0-0.7,0.2-1.2,0.5-1.6s0.8-0.6,1.5-0.6c0.6,0,1.1,0.2,1.4,0.6S145.2,411.8,145.2,412.5z
						 M142.1,412.5c0,0.5,0.1,0.9,0.3,1.2c0.2,0.3,0.5,0.4,0.9,0.4s0.7-0.1,0.9-0.4s0.3-0.7,0.3-1.2s-0.1-0.9-0.3-1.2
						s-0.5-0.4-0.9-0.4C142.4,410.9,142.1,411.4,142.1,412.5z"/>
					<path class="categorizing-mobile-st6" d="M150.1,412.5c0,0.7-0.2,1.2-0.5,1.6s-0.8,0.6-1.5,0.6c-0.4,0-0.7-0.1-1-0.3c-0.3-0.2-0.5-0.4-0.7-0.8
						c-0.2-0.3-0.2-0.7-0.2-1.2c0-0.7,0.2-1.2,0.5-1.6s0.8-0.6,1.5-0.6c0.6,0,1.1,0.2,1.4,0.6S150.1,411.8,150.1,412.5z
						 M146.9,412.5c0,0.5,0.1,0.9,0.3,1.2c0.2,0.3,0.5,0.4,0.9,0.4s0.7-0.1,0.9-0.4s0.3-0.7,0.3-1.2s-0.1-0.9-0.3-1.2
						s-0.5-0.4-0.9-0.4C147.2,410.9,146.9,411.4,146.9,412.5z"/>
					<path class="categorizing-mobile-st6" d="M152.8,414.7c-0.6,0-1-0.2-1.3-0.6s-0.5-0.9-0.5-1.6s0.2-1.2,0.5-1.6s0.7-0.6,1.3-0.6s1,0.2,1.3,0.6h0.1
						c0-0.1,0-0.2,0-0.3c0-0.2,0-0.3,0-0.3v-1.7h0.7v6.1h-0.6l-0.1-0.6l0,0C153.8,414.5,153.4,414.7,152.8,414.7z M152.9,414.1
						c0.4,0,0.7-0.1,0.9-0.3c0.2-0.2,0.3-0.6,0.3-1.1v-0.1c0-0.6-0.1-1-0.3-1.3s-0.5-0.4-0.9-0.4s-0.6,0.1-0.8,0.4s-0.3,0.7-0.3,1.2
						s0.1,0.9,0.3,1.2C152.1,414,152.4,414.1,152.9,414.1z"/>
				</g>
			</g>
		</g>
	</g>
	<g>
		<g>
			<g>
				<g class="categorizing-mobile-st1">
					<path class="categorizing-mobile-st6" d="M141.6,439.7h1.6c0.8,0,1.3,0.1,1.7,0.3s0.5,0.6,0.5,1.1c0,0.3-0.1,0.6-0.3,0.8s-0.5,0.4-0.8,0.4l0,0
						c0.4,0.1,0.8,0.2,1,0.5s0.3,0.5,0.3,0.9c0,0.5-0.2,0.9-0.5,1.2c-0.3,0.3-0.8,0.4-1.5,0.4h-2V439.7L141.6,439.7z M142.4,442.1
						h1.1c0.4,0,0.8-0.1,1-0.2s0.3-0.4,0.3-0.7c0-0.3-0.1-0.5-0.3-0.7s-0.6-0.2-1.1-0.2h-0.9L142.4,442.1L142.4,442.1z M142.4,442.7
						v2.1h1.2c0.5,0,0.8-0.1,1-0.3s0.3-0.4,0.3-0.8c0-0.3-0.1-0.6-0.4-0.8s-0.6-0.2-1.1-0.2L142.4,442.7L142.4,442.7z"/>
					<path class="categorizing-mobile-st6" d="M149.4,445.4l-0.1-0.6l0,0c-0.2,0.3-0.4,0.4-0.6,0.5s-0.5,0.1-0.8,0.1c-0.4,0-0.8-0.1-1-0.3
						c-0.2-0.2-0.4-0.5-0.4-0.9c0-0.9,0.7-1.3,2.1-1.4h0.7v-0.3c0-0.3-0.1-0.6-0.2-0.7s-0.4-0.2-0.7-0.2c-0.2,0-0.4,0-0.6,0.1
						s-0.4,0.1-0.6,0.2l-0.2-0.5c0.2-0.1,0.5-0.2,0.7-0.3c0.3-0.1,0.5-0.1,0.8-0.1c0.5,0,0.9,0.1,1.2,0.3c0.3,0.2,0.4,0.6,0.4,1.1
						v2.9L149.4,445.4L149.4,445.4z M147.9,444.9c0.4,0,0.7-0.1,0.9-0.3c0.2-0.2,0.3-0.5,0.3-0.9v-0.4h-0.6c-0.5,0-0.9,0.1-1.1,0.2
						s-0.3,0.4-0.3,0.7c0,0.2,0.1,0.4,0.2,0.5S147.6,444.9,147.9,444.9z"/>
					<path class="categorizing-mobile-st6" d="M152.8,445.5c-0.6,0-1-0.2-1.3-0.6s-0.5-0.9-0.5-1.6s0.2-1.2,0.5-1.6s0.7-0.6,1.3-0.6s1,0.2,1.3,0.6h0.1
						c0-0.1,0-0.2,0-0.3c0-0.2,0-0.3,0-0.3v-1.7h0.7v6.1h-0.6l-0.1-0.6l0,0C153.8,445.3,153.4,445.5,152.8,445.5z M152.9,444.9
						c0.4,0,0.7-0.1,0.9-0.3c0.2-0.2,0.3-0.6,0.3-1.1v-0.1c0-0.6-0.1-1-0.3-1.3s-0.5-0.4-0.9-0.4s-0.6,0.1-0.8,0.4s-0.3,0.7-0.3,1.2
						s0.1,0.9,0.3,1.2C152.1,444.8,152.4,444.9,152.9,444.9z"/>
				</g>
			</g>
		</g>
	</g>
	<g>
		<path class="categorizing-mobile-st7" d="M-108.9,389.6h-13.4c-0.5,0-0.9-0.4-0.9-0.9v-13.4c0-0.5,0.4-0.9,0.9-0.9h13.4c0.5,0,0.9,0.4,0.9,0.9v13.4
			C-108.1,389.2-108.4,389.6-108.9,389.6z"/>
		<rect x="-116.9" y="377.2" class="categorizing-mobile-st7" width="2.7" height="9.5"/>
	</g>
	<g>
		<polygon class="categorizing-mobile-st7" points="-111.4,412.1 -115.7,412.1 -119.8,412.1 -124.2,409.2 -115.7,420.4 -107.2,409.2 		"/>
		<polyline class="categorizing-mobile-st7" points="-124.2,409.2 -121.2,406.2 -118.8,405.2 -115.7,405.2 		"/>
		<polyline class="categorizing-mobile-st7" points="-115.7,407.3 -118.9,407.3 -121.2,406.2 		"/>
		<line class="categorizing-mobile-st7" x1="-118.9" y1="407.3" x2="-119.8" y2="412.1"/>
		<polyline class="categorizing-mobile-st7" points="-107.2,409.2 -110.2,406.2 -112.6,405.2 -115.7,405.2 		"/>
		<polyline class="categorizing-mobile-st7" points="-115.7,407.3 -112.4,407.3 -110.2,406.2 		"/>
		<line class="categorizing-mobile-st7" x1="-112.4" y1="407.3" x2="-111.4" y2="412.1"/>
		<line class="categorizing-mobile-st7" x1="-119.8" y1="412.1" x2="-115.7" y2="420.4"/>
		<line class="categorizing-mobile-st7" x1="-111.4" y1="412.1" x2="-115.7" y2="420.4"/>
	</g>
</g>
</svg>
