<?xml version="1.0" encoding="utf-8"?>
<svg version="1.1" class="categorizing-alert" xmlns="http://www.w3.org/2000/svg" xmlns:xlink="http://www.w3.org/1999/xlink" x="0px" y="0px"
	 viewBox="419.012 536.276 1200 61" style="enable-background:new 419.012 536.276 1200 61;" xml:space="preserve">
<g>
	<g>
		<path data-button="gmail" data-category="neutral" class="categorizing-st1" d="M1465.541,546.776h-90.439v40h90.439V546.776L1465.541,546.776z"/>
	</g>
</g>
<g>
	<g>
		<g>
			<g>
				<g class="categorizing-st0">
					<path class="categorizing-st2" d="M1404.363,571.018h-1.471l-5.352-8.299h-0.055l0.033,0.555c0.055,0.828,0.082,1.549,0.082,2.16v5.584
						h-1.162v-9.994h1.457l0.307,0.486l3.281,5.072l1.744,2.713h0.055c-0.01-0.109-0.027-0.5-0.055-1.172
						c-0.027-0.672-0.041-1.158-0.041-1.459v-5.641h1.176L1404.363,571.018L1404.363,571.018z"/>
					<path class="categorizing-st2" d="M1410.097,571.155c-1.125,0-2.008-0.34-2.648-1.021c-0.64-0.681-0.961-1.619-0.961-2.813
						c0-1.203,0.299-2.162,0.896-2.875s1.403-1.07,2.42-1.07c0.943,0,1.695,0.305,2.256,0.912c0.561,0.609,0.84,1.434,0.84,2.473
						v0.744h-5.141c0.023,0.854,0.24,1.5,0.65,1.941c0.41,0.443,0.99,0.664,1.742,0.664c0.401,0,0.782-0.035,1.143-0.107
						c0.359-0.07,0.781-0.207,1.264-0.412v1.08c-0.414,0.178-0.804,0.303-1.168,0.375
						C1411.025,571.12,1410.594,571.155,1410.097,571.155z M1409.79,564.382c-0.588,0-1.053,0.189-1.395,0.566
						c-0.342,0.379-0.545,0.904-0.609,1.58h3.822c-0.01-0.703-0.172-1.236-0.486-1.6
						C1410.808,564.563,1410.365,564.382,1409.79,564.382z"/>
					<path class="categorizing-st2" d="M1415.962,563.513v4.834c0,0.605,0.137,1.055,0.407,1.35c0.271,0.293,0.691,0.441,1.261,0.441
						c0.771,0,1.331-0.215,1.682-0.643c0.352-0.43,0.527-1.119,0.527-2.072v-3.91h1.236v7.506h-1.012l-0.178-0.99h-0.061
						c-0.224,0.359-0.541,0.637-0.951,0.834c-0.41,0.195-0.886,0.293-1.428,0.293c-0.902,0-1.583-0.217-2.041-0.648
						c-0.458-0.434-0.688-1.127-0.688-2.078v-4.916h1.246L1415.962,563.513L1415.962,563.513z"/>
					<path class="categorizing-st2" d="M1425.964,570.151c0.159,0,0.346-0.016,0.561-0.049c0.214-0.031,0.375-0.068,0.484-0.109v0.943
						c-0.113,0.051-0.29,0.1-0.529,0.146c-0.239,0.049-0.482,0.072-0.729,0.072c-1.467,0-2.201-0.771-2.201-2.316v-4.369h-1.059
						v-0.588l1.072-0.492l0.492-1.6h0.732v1.723h2.166v0.957h-2.166v4.334c0,0.434,0.104,0.766,0.311,0.998
						C1425.305,570.033,1425.595,570.151,1425.964,570.151z"/>
					<path class="categorizing-st2" d="M1432.007,563.376c0.332,0,0.626,0.027,0.881,0.082l-0.15,1.135c-0.277-0.062-0.549-0.096-0.812-0.096
						c-0.396,0-0.766,0.109-1.104,0.328s-0.604,0.521-0.796,0.906s-0.287,0.812-0.287,1.281v4.006h-1.23v-7.506h1.012l0.137,1.375
						h0.055c0.287-0.498,0.626-0.873,1.018-1.129C1431.12,563.505,1431.546,563.376,1432.007,563.376z"/>
					<path class="categorizing-st2" d="M1438.925,571.018l-0.24-1.066h-0.055c-0.373,0.471-0.746,0.787-1.117,0.953
						c-0.371,0.168-0.84,0.25-1.404,0.25c-0.738,0-1.317-0.193-1.736-0.58c-0.42-0.389-0.629-0.936-0.629-1.641
						c0-1.523,1.2-2.32,3.602-2.393l1.271-0.049v-0.443c0-0.57-0.123-0.99-0.369-1.262c-0.246-0.272-0.64-0.406-1.182-0.406
						c-0.396,0-0.771,0.059-1.125,0.178c-0.354,0.117-0.685,0.25-0.994,0.396l-0.377-0.924c0.379-0.199,0.791-0.357,1.238-0.471
						c0.446-0.115,0.889-0.172,1.326-0.172c0.906,0,1.581,0.201,2.023,0.602c0.441,0.402,0.662,1.039,0.662,1.914v5.113h-0.894
						V571.018z M1436.388,570.165c0.688,0,1.23-0.186,1.624-0.559c0.394-0.371,0.591-0.898,0.591-1.582v-0.676l-1.107,0.047
						c-0.861,0.033-1.488,0.17-1.883,0.41c-0.395,0.242-0.592,0.623-0.592,1.143c0,0.391,0.12,0.691,0.359,0.902
						C1435.62,570.059,1435.955,570.165,1436.388,570.165z"/>
					<path class="categorizing-st2" d="M1443.374,571.018h-1.23v-10.636h1.23V571.018z"/>
				</g>
			</g>
		</g>
	</g>
</g>
<g>
	<path data-button="gmail" data-category="good" class="categorizing-st1" d="M1371.102,546.776h-70.555c-2.761,0-5,2.239-5,5v30c0,2.761,2.239,5,5,5h70.555V546.776L1371.102,546.776z"/>
</g>
<g>
	<path data-button="gmail" data-category="evil" class="categorizing-st1" d="M1527.096,546.776h-57.555v40h57.555c2.761,0,5-2.239,5-5v-30
		C1532.096,549.015,1529.857,546.776,1527.096,546.776L1527.096,546.776z"/>
</g>
<g class="categorizing-st0">
	<path class="categorizing-st0" d="M597.909,564.161h4.438v6.302c-0.68,0.217-1.371,0.381-2.074,0.492s-1.518,0.167-2.443,0.167
		c-1.957,0-3.472-0.58-4.544-1.74s-1.608-2.78-1.608-4.86c0-1.342,0.267-2.514,0.8-3.516s1.302-1.768,2.307-2.298
		c1.005-0.53,2.19-0.796,3.555-0.796c1.371,0,2.648,0.252,3.832,0.756l-0.615,1.406c-1.131-0.492-2.235-0.738-3.313-0.738
		c-1.529,0-2.725,0.463-3.586,1.389c-0.861,0.926-1.292,2.191-1.292,3.797c0,1.699,0.413,2.991,1.239,3.876
		c0.826,0.885,2.027,1.327,3.604,1.327c0.861,0,1.702-0.103,2.522-0.308v-3.814h-2.821v-1.442L597.909,564.161L597.909,564.161z"/>
	<path class="categorizing-st0" d="M617.257,570.946v-6.214c0-1.523-0.653-2.285-1.96-2.285c-0.896,0-1.556,0.261-1.978,0.782
		c-0.422,0.521-0.633,1.318-0.633,2.391v5.326h-1.573v-6.214c0-0.762-0.16-1.333-0.479-1.714c-0.319-0.381-0.819-0.571-1.499-0.571
		c-0.891,0-1.542,0.272-1.956,0.817c-0.414,0.545-0.62,1.438-0.62,2.681v5.001h-1.582v-9.65h1.274l0.237,1.318h0.088
		c0.275-0.469,0.664-0.835,1.165-1.099s1.062-0.396,1.683-0.396c1.512,0,2.496,0.539,2.953,1.617h0.088
		c0.311-0.516,0.734-0.914,1.27-1.195c0.536-0.281,1.144-0.422,1.824-0.422c1.09,0,1.906,0.281,2.448,0.844s0.813,1.462,0.813,2.698
		v6.284L617.257,570.946L617.257,570.946z"/>
	<path class="categorizing-st0" d="M627.535,570.946l-0.308-1.371h-0.07c-0.48,0.604-0.959,1.013-1.437,1.227c-0.478,0.213-1.08,0.32-1.806,0.32
		c-0.949,0-1.693-0.249-2.232-0.747c-0.539-0.498-0.809-1.201-0.809-2.109c0-1.957,1.544-2.982,4.632-3.076l1.635-0.062v-0.571
		c0-0.732-0.158-1.272-0.475-1.622c-0.316-0.348-0.823-0.522-1.521-0.522c-0.51,0-0.992,0.076-1.446,0.229
		c-0.454,0.153-0.88,0.322-1.279,0.51l-0.483-1.187c0.486-0.258,1.017-0.46,1.591-0.606s1.143-0.22,1.705-0.22
		c1.166,0,2.033,0.258,2.602,0.773c0.569,0.515,0.853,1.336,0.853,2.461v6.574L627.535,570.946L627.535,570.946L627.535,570.946z
		 M624.274,569.848c0.885,0,1.581-0.238,2.087-0.716c0.506-0.478,0.76-1.156,0.76-2.035v-0.87l-1.424,0.062
		c-1.107,0.041-1.915,0.217-2.421,0.527c-0.506,0.31-0.76,0.8-0.76,1.468c0,0.504,0.154,0.891,0.461,1.16
		C623.284,569.713,623.717,569.848,624.274,569.848z"/>
	<path class="categorizing-st0" d="M631.317,558.685c0-0.352,0.089-0.606,0.268-0.765c0.179-0.159,0.4-0.237,0.664-0.237
		c0.246,0,0.461,0.079,0.646,0.237c0.185,0.158,0.277,0.413,0.277,0.765c0,0.346-0.092,0.601-0.277,0.765
		c-0.185,0.164-0.4,0.246-0.646,0.246c-0.264,0-0.485-0.082-0.664-0.246C631.406,559.286,631.317,559.031,631.317,558.685z
		 M633.022,570.946h-1.582v-9.65h1.582V570.946z"/>
	<path class="categorizing-st0" d="M637.429,570.946h-1.582V557.27h1.582V570.946z"/>
</g>
<g>
	<rect x="516.831" y="553.356" class="categorizing-st5" width="38.865" height="26.84"/>
	<polyline class="categorizing-st5" points="516.831,553.356 536.263,570.238 555.696,553.356 	"/>
</g>
<g>
	<g>
		<g>
			<g>
				<g class="categorizing-st0">
					<path class="categorizing-st2" d="M1496.525,571.018h-5.584v-9.994h5.584v1.107h-4.326v3.117h4.074v1.094h-4.074v3.568h4.326V571.018z"/>
					<path class="categorizing-st2" d="M1500.21,571.018l-2.844-7.506h1.318l1.594,4.423c0.314,0.889,0.515,1.552,0.602,1.989h0.055
						c0.014-0.06,0.03-0.127,0.051-0.201c0.021-0.076,0.045-0.158,0.072-0.246c0.027-0.09,0.195-0.604,0.506-1.542l1.6-4.423h1.312
						l-2.852,7.506L1500.21,571.018L1500.21,571.018z"/>
					<path class="categorizing-st2" d="M1505.57,561.482c0-0.273,0.068-0.472,0.208-0.595c0.14-0.123,0.312-0.185,0.517-0.185
						c0.191,0,0.358,0.062,0.502,0.185c0.144,0.123,0.215,0.321,0.215,0.595c0,0.269-0.071,0.467-0.215,0.595
						c-0.144,0.128-0.311,0.191-0.502,0.191c-0.205,0-0.377-0.063-0.517-0.191C1505.638,561.949,1505.57,561.751,1505.57,561.482z
						 M1506.896,571.018h-1.23v-7.506h1.23V571.018z"/>
					<path class="categorizing-st2" d="M1510.505,571.018h-1.23v-10.636h1.23V571.018z"/>
				</g>
			</g>
		</g>
	</g>
</g>
<g>
	<g>
		<g>
			<g>
				<g class="categorizing-st0">
					<path data-button="gmail" data-category="good" class="categorizing-st2" d="M1321.154,565.741h3.452v4.902c-0.528,0.168-1.066,0.295-1.613,0.383c-0.547,0.086-1.181,0.129-1.9,0.129
						c-1.522,0-2.7-0.451-3.534-1.354c-0.834-0.903-1.251-2.162-1.251-3.779c0-1.045,0.208-1.955,0.622-2.734
						c0.414-0.779,1.013-1.375,1.795-1.789c0.781-0.412,1.703-0.617,2.765-0.617c1.066,0,2.06,0.195,2.98,0.588l-0.479,1.094
						c-0.88-0.383-1.739-0.574-2.577-0.574c-1.189,0-2.119,0.359-2.789,1.08c-0.67,0.719-1.005,1.703-1.005,2.953
						c0,1.32,0.321,2.326,0.964,3.014c0.643,0.689,1.576,1.033,2.803,1.033c0.67,0,1.324-0.08,1.962-0.24v-2.967h-2.194
						L1321.154,565.741L1321.154,565.741z"/>
					<path data-button="gmail" data-category="good" class="categorizing-st2" d="M1333.356,567.253c0,1.225-0.31,2.182-0.93,2.871c-0.62,0.688-1.477,1.031-2.57,1.031
						c-0.679,0-1.28-0.158-1.805-0.475c-0.525-0.317-0.927-0.771-1.21-1.363c-0.283-0.594-0.424-1.281-0.424-2.064
						c0-1.223,0.305-2.174,0.916-2.855c0.611-0.68,1.467-1.021,2.57-1.021c1.057,0,1.896,0.348,2.52,1.043
						C1333.044,565.114,1333.356,566.058,1333.356,567.253z M1327.689,567.253c0,0.943,0.186,1.66,0.557,2.148
						c0.372,0.49,0.92,0.736,1.645,0.736c0.715,0,1.26-0.246,1.634-0.736c0.374-0.488,0.561-1.205,0.561-2.148
						c0-0.943-0.188-1.654-0.563-2.131c-0.377-0.475-0.927-0.713-1.651-0.713C1328.415,564.409,1327.689,565.356,1327.689,567.253z"
						/>
					<path data-button="gmail" data-category="good" class="categorizing-st2" d="M1341.826,567.253c0,1.225-0.311,2.182-0.93,2.871c-0.619,0.688-1.477,1.031-2.57,1.031
						c-0.68,0-1.281-0.158-1.805-0.475c-0.524-0.317-0.928-0.771-1.21-1.363c-0.282-0.594-0.424-1.281-0.424-2.064
						c0-1.223,0.306-2.174,0.916-2.855c0.61-0.68,1.468-1.021,2.57-1.021c1.058,0,1.897,0.348,2.519,1.043
						C1341.515,565.114,1341.826,566.058,1341.826,567.253z M1336.159,567.253c0,0.943,0.186,1.66,0.558,2.148
						c0.371,0.49,0.919,0.736,1.644,0.736c0.716,0,1.261-0.246,1.634-0.736c0.373-0.488,0.561-1.205,0.561-2.148
						c0-0.943-0.188-1.654-0.564-2.131c-0.375-0.475-0.926-0.713-1.65-0.713C1336.886,564.409,1336.159,565.356,1336.159,567.253z"
						/>
					<path data-button="gmail" data-category="good" class="categorizing-st2" d="M1346.433,571.155c-0.975,0-1.732-0.336-2.27-1.012c-0.537-0.674-0.807-1.629-0.807-2.863
						c0-1.227,0.27-2.184,0.811-2.871c0.539-0.689,1.299-1.033,2.279-1.033c1.008,0,1.781,0.369,2.324,1.107h0.089
						c-0.014-0.09-0.032-0.273-0.055-0.551c-0.022-0.275-0.034-0.461-0.034-0.557v-2.994h1.23v10.637h-0.991l-0.185-1.004h-0.055
						C1348.247,570.774,1347.468,571.155,1346.433,571.155z M1346.631,570.138c0.747,0,1.293-0.205,1.638-0.613
						c0.344-0.406,0.516-1.076,0.516-2.006v-0.225c0-1.045-0.174-1.789-0.523-2.232c-0.348-0.445-0.896-0.666-1.644-0.666
						c-0.634,0-1.124,0.252-1.47,0.754c-0.346,0.504-0.52,1.223-0.52,2.158c0,0.93,0.172,1.633,0.516,2.111
						C1345.489,569.897,1345.984,570.138,1346.631,570.138z"/>
				</g>
			</g>
		</g>
	</g>
</g>
</svg>
