<?xml version="1.0" encoding="utf-8"?>
<svg version="1.1" class="cateogizing-mobile" xmlns="http://www.w3.org/2000/svg" xmlns:xlink="http://www.w3.org/1999/xlink" x="0px" y="0px"
	 viewBox="-145 367.3123 320.5 29.3731" style="enable-background:new -145 367.3123 320.5 29.3731;" xml:space="preserve">
<g id="Interface">
	<g>
		<g class="categorizing-mobile-st0">
			<path class="categorizing-mobile-st1" d="M-87.8301,385.4889h-0.9082l-1.3916-4.6777c-0.2051-0.6963-0.3252-1.167-0.3613-1.4111
				c-0.0518,0.374-0.166,0.8545-0.3418,1.4404l-1.3477,4.6484h-0.9082l-1.8896-7.1387h0.9375l1.1084,4.3604
				c0.1494,0.5693,0.2637,1.1357,0.3418,1.6992c0.0713-0.5342,0.1982-1.1182,0.3809-1.7529l1.2598-4.3066h0.9277l1.3135,4.3408
				c0.1689,0.5635,0.2998,1.1357,0.3906,1.7188c0.0518-0.4492,0.168-1.0186,0.3467-1.709l1.1035-4.3506h0.9375L-87.8301,385.4889z"
				/>
			<path class="categorizing-mobile-st1" d="M-82.5791,380.0299c0.2373,0,0.4473,0.0195,0.6299,0.0586l-0.1074,0.8105
				c-0.1982-0.0459-0.3926-0.0684-0.5811-0.0684c-0.2832,0-0.5459,0.0781-0.7891,0.2344c-0.2422,0.1562-0.4316,0.3721-0.5684,0.6465
				c-0.1367,0.2754-0.2051,0.5811-0.2051,0.916v2.8613h-0.8789v-5.3613h0.7227l0.0977,0.9814h0.0391
				c0.2051-0.3545,0.4473-0.623,0.7275-0.8057S-82.9082,380.0299-82.5791,380.0299z"/>
			<path class="categorizing-mobile-st1" d="M-81.1465,378.6774c0-0.1953,0.0498-0.3369,0.1484-0.4248c0.0996-0.0879,0.2227-0.1318,0.3691-0.1318
				c0.1367,0,0.2559,0.0439,0.3594,0.1318c0.1016,0.0879,0.1533,0.2295,0.1533,0.4248c0,0.1924-0.0518,0.334-0.1533,0.4248
				c-0.1035,0.0908-0.2227,0.1367-0.3594,0.1367c-0.1465,0-0.2695-0.0459-0.3691-0.1367
				C-81.0967,379.0114-81.1465,378.8698-81.1465,378.6774z M-80.1992,385.4889h-0.8789v-5.3613h0.8789V385.4889z"/>
			<path class="categorizing-mobile-st1" d="M-76.8379,384.8688c0.1143,0,0.2471-0.0117,0.4004-0.0342s0.2686-0.0488,0.3467-0.0781v0.6738
				c-0.0811,0.0361-0.207,0.0703-0.3789,0.1055c-0.1699,0.0332-0.3438,0.0508-0.5195,0.0508c-1.0479,0-1.5723-0.5518-1.5723-1.6553
				v-3.1201h-0.7568v-0.4199l0.7666-0.3516l0.3516-1.1426h0.5225v1.2305h1.5479v0.6836h-1.5479v3.0957
				c0,0.3096,0.0742,0.5469,0.2217,0.7129C-77.3076,384.7858-77.1016,384.8688-76.8379,384.8688z"/>
			<path class="categorizing-mobile-st1" d="M-72.8711,385.5865c-0.8037,0-1.4346-0.2432-1.8916-0.7305c-0.458-0.4863-0.6865-1.1562-0.6865-2.0088
				c0-0.8594,0.2129-1.5439,0.6396-2.0537c0.4268-0.5088,1.0029-0.7637,1.7285-0.7637c0.6738,0,1.2109,0.2168,1.6113,0.6523
				c0.4004,0.4336,0.6006,1.0225,0.6006,1.7646v0.5322h-3.6719c0.0166,0.6084,0.1709,1.0713,0.4639,1.3867
				s0.708,0.4736,1.2451,0.4736c0.2861,0,0.5586-0.0254,0.8154-0.0752c0.2568-0.0508,0.5586-0.1494,0.9033-0.2959v0.7715
				c-0.2959,0.127-0.5742,0.2168-0.835,0.2686S-72.5166,385.5865-72.8711,385.5865z M-73.0908,380.7477
				c-0.4199,0-0.752,0.1348-0.9961,0.4053s-0.3887,0.6465-0.4346,1.1279h2.7295c-0.0068-0.501-0.1221-0.8818-0.3467-1.1426
				S-72.6807,380.7477-73.0908,380.7477z"/>
			<path class="categorizing-mobile-st1" d="M-67.1426,380.0299c0.2373,0,0.4473,0.0195,0.6299,0.0586l-0.1074,0.8105
				c-0.1982-0.0459-0.3926-0.0684-0.5811-0.0684c-0.2832,0-0.5459,0.0781-0.7891,0.2344c-0.2422,0.1562-0.4316,0.3721-0.5684,0.6465
				c-0.1367,0.2754-0.2051,0.5811-0.2051,0.916v2.8613h-0.8789v-5.3613h0.7227l0.0977,0.9814h0.0391
				c0.2051-0.3545,0.4473-0.623,0.7275-0.8057S-67.4717,380.0299-67.1426,380.0299z"/>
		</g>
	</g>
	<g>
		<g>
			<g>
				<g class="categorizing-mobile-st0">
					<path class="categorizing-mobile-st0" d="M138.2725,380.837h1.9727v2.8008c-0.3018,0.0967-0.6094,0.1689-0.9219,0.2188
						s-0.6748,0.0742-1.0859,0.0742c-0.8701,0-1.543-0.2578-2.0195-0.7734s-0.7148-1.2354-0.7148-2.1602
						c0-0.5967,0.1182-1.1172,0.3555-1.5625s0.5791-0.7861,1.0254-1.0215s0.9736-0.3535,1.5801-0.3535
						c0.6094,0,1.1768,0.1123,1.7031,0.3359l-0.2734,0.625c-0.5029-0.2188-0.9932-0.3281-1.4727-0.3281
						c-0.6797,0-1.2109,0.2061-1.5938,0.6172s-0.5742,0.9736-0.5742,1.6875c0,0.7549,0.1836,1.3291,0.5508,1.7227
						s0.9014,0.5898,1.6016,0.5898c0.3828,0,0.7568-0.0459,1.1211-0.1367v-1.6953h-1.2539V380.837z"/>
					<path class="categorizing-mobile-st0" d="M145.2451,381.7003c0,0.7002-0.1768,1.2471-0.5312,1.6406s-0.8438,0.5898-1.4688,0.5898
						c-0.3877,0-0.7314-0.0908-1.0312-0.2715s-0.5303-0.4404-0.6914-0.7793s-0.2422-0.7314-0.2422-1.1797
						c0-0.6982,0.1748-1.2412,0.5234-1.6309s0.8389-0.584,1.4688-0.584c0.6045,0,1.084,0.1982,1.4395,0.5957
						S145.2451,381.0177,145.2451,381.7003z M142.0068,381.7003c0,0.5391,0.1064,0.9482,0.3184,1.2285s0.5254,0.4199,0.9395,0.4199
						c0.4092,0,0.7197-0.1396,0.9336-0.4199s0.3203-0.6895,0.3203-1.2285s-0.1074-0.9443-0.3223-1.2168
						s-0.5293-0.4082-0.9434-0.4082C142.4219,380.0753,142.0068,380.6173,142.0068,381.7003z"/>
					<path class="categorizing-mobile-st0" d="M150.085,381.7003c0,0.7002-0.1768,1.2471-0.5312,1.6406s-0.8438,0.5898-1.4688,0.5898
						c-0.3877,0-0.7314-0.0908-1.0312-0.2715s-0.5303-0.4404-0.6914-0.7793s-0.2422-0.7314-0.2422-1.1797
						c0-0.6982,0.1748-1.2412,0.5234-1.6309s0.8389-0.584,1.4688-0.584c0.6045,0,1.084,0.1982,1.4395,0.5957
						S150.085,381.0177,150.085,381.7003z M146.8467,381.7003c0,0.5391,0.1064,0.9482,0.3184,1.2285s0.5254,0.4199,0.9395,0.4199
						c0.4092,0,0.7197-0.1396,0.9336-0.4199s0.3203-0.6895,0.3203-1.2285s-0.1074-0.9443-0.3223-1.2168
						s-0.5293-0.4082-0.9434-0.4082C147.2617,380.0753,146.8467,380.6173,146.8467,381.7003z"/>
					<path class="categorizing-mobile-st0" d="M152.7178,383.9308c-0.5576,0-0.9893-0.1924-1.2969-0.5781s-0.4609-0.9307-0.4609-1.6367
						c0-0.7002,0.1543-1.2471,0.4629-1.6406s0.7432-0.5898,1.3027-0.5898c0.5752,0,1.0186,0.2109,1.3281,0.6328h0.0508
						c-0.0078-0.0518-0.0186-0.1572-0.0312-0.3145s-0.0195-0.2637-0.0195-0.3184v-1.7109h0.7031v6.0781h-0.5664l-0.1055-0.5742
						h-0.0312C153.7539,383.713,153.3086,383.9308,152.7178,383.9308z M152.8311,383.3488c0.4268,0,0.7393-0.1162,0.9355-0.3496
						s0.2949-0.6152,0.2949-1.1465v-0.1289c0-0.5967-0.0996-1.0215-0.2988-1.2754s-0.5127-0.3809-0.9395-0.3809
						c-0.3623,0-0.6416,0.1436-0.8398,0.4316s-0.2969,0.6982-0.2969,1.2324c0,0.5312,0.0986,0.9336,0.2949,1.207
						S152.4609,383.3488,152.8311,383.3488z"/>
				</g>
			</g>
		</g>
	</g>
	<g>
		<path class="categorizing-mobile-st2" d="M-108.969,389.6013h-13.3719c-0.5041,0-0.9165-0.4124-0.9165-0.9164v-13.3719
			c0-0.5041,0.4124-0.9165,0.9165-0.9165h13.3719c0.5041,0,0.9165,0.4124,0.9165,0.9165v13.3719
			C-108.0526,389.1889-108.465,389.6013-108.969,389.6013z"/>
		<rect x="-116.9915" y="377.2256" class="categorizing-mobile-st2" width="2.673" height="9.5465"/>
	</g>
</g>
</svg>
