<?xml version="1.0" encoding="utf-8"?>
<svg version="1.1" class="categorizing-alert" xmlns="http://www.w3.org/2000/svg" xmlns:xlink="http://www.w3.org/1999/xlink" x="0px" y="0px"
	 viewBox="419.012 664.276 1200 61" style="enable-background:new 419.012 664.276 1200 61;" xml:space="preserve">
<g>
	<g class="categorizing-st0">
		<path class="categorizing-st0" d="M599.614,696.51c0,1.119-0.404,2.001-1.213,2.646c-0.809,0.645-1.934,0.967-3.375,0.967
			c-1.523,0-2.701-0.202-3.533-0.606v-1.547c0.545,0.234,1.141,0.419,1.789,0.554c0.648,0.135,1.252,0.202,1.815,0.202
			c0.961,0,1.685-0.185,2.171-0.554c0.486-0.369,0.729-0.876,0.729-1.521c0-0.428-0.088-0.779-0.264-1.055
			c-0.176-0.276-0.47-0.533-0.883-0.773c-0.413-0.24-1.039-0.513-1.876-0.817c-1.189-0.434-2.039-0.945-2.549-1.533
			c-0.51-0.59-0.765-1.35-0.765-2.281c0-1.002,0.376-1.799,1.129-2.391c0.753-0.592,1.745-0.888,2.975-0.888
			c1.283,0,2.464,0.24,3.542,0.721l-0.501,1.389c-1.102-0.457-2.127-0.686-3.076-0.686c-0.762,0-1.358,0.164-1.789,0.492
			c-0.431,0.328-0.646,0.788-0.646,1.38c0,0.422,0.083,0.772,0.25,1.051s0.437,0.531,0.809,0.76s0.957,0.489,1.753,0.782
			c0.955,0.352,1.667,0.693,2.136,1.024c0.469,0.331,0.814,0.711,1.037,1.143C599.502,695.397,599.614,695.912,599.614,696.51z"/>
		<path class="categorizing-st0" d="M603.317,694.98l0.536-0.686l0.615-0.738l3.085-3.261h1.846l-3.902,4.122l4.175,5.528h-1.907l-3.349-4.5
			l-1.099,0.958v3.542h-1.564v-13.676h1.564v7.146l-0.07,1.564L603.317,694.98L603.317,694.98L603.317,694.98z"/>
		<path class="categorizing-st0" d="M615.239,700.122c-1.447,0-2.583-0.438-3.406-1.314c-0.823-0.875-1.235-2.081-1.235-3.616
			c0-1.547,0.384-2.778,1.151-3.696c0.768-0.916,1.805-1.375,3.111-1.375c1.213,0,2.18,0.391,2.9,1.174
			c0.721,0.781,1.081,1.841,1.081,3.177v0.958h-6.609c0.029,1.096,0.308,1.928,0.835,2.496s1.274,0.853,2.241,0.853
			c0.516,0,1.005-0.045,1.468-0.136c0.463-0.091,1.005-0.269,1.626-0.532v1.389c-0.533,0.229-1.034,0.39-1.503,0.483
			S615.877,700.122,615.239,700.122z M614.843,691.412c-0.756,0-1.354,0.243-1.793,0.729s-0.7,1.163-0.782,2.03h4.913
			c-0.012-0.902-0.22-1.588-0.624-2.057C616.153,691.645,615.581,691.412,614.843,691.412z"/>
		<path class="categorizing-st0" d="M624.277,698.83c0.205,0,0.445-0.021,0.721-0.062s0.483-0.088,0.624-0.141v1.213
			c-0.146,0.064-0.374,0.127-0.681,0.189c-0.308,0.061-0.62,0.092-0.936,0.092c-1.887,0-2.83-0.993-2.83-2.979v-5.616h-1.362v-0.756
			l1.38-0.633l0.633-2.057h0.94v2.215h2.786v1.23h-2.786v5.572c0,0.557,0.133,0.984,0.4,1.283
			C623.433,698.679,623.802,698.83,624.277,698.83z"/>
		<path class="categorizing-st0" d="M631.18,700.122c-1.389,0-2.47-0.426-3.243-1.279c-0.773-0.852-1.16-2.075-1.16-3.669
			c0-1.617,0.391-2.863,1.173-3.739c0.782-0.876,1.897-1.314,3.344-1.314c0.469,0,0.933,0.049,1.393,0.145
			c0.46,0.098,0.839,0.222,1.138,0.374l-0.483,1.318c-0.814-0.305-1.509-0.457-2.083-0.457c-0.973,0-1.69,0.307-2.153,0.919
			s-0.694,1.524-0.694,2.737c0,1.166,0.231,2.059,0.694,2.677s1.148,0.927,2.057,0.927c0.85,0,1.685-0.188,2.505-0.562v1.406
			C632.999,699.949,632.17,700.122,631.18,700.122z"/>
		<path class="categorizing-st0" d="M642.292,699.946v-6.17c0-0.785-0.174-1.369-0.523-1.754c-0.349-0.383-0.895-0.575-1.639-0.575
			c-0.979,0-1.695,0.272-2.149,0.817s-0.681,1.444-0.681,2.698v4.983h-1.582v-13.676h1.582v4.008c0,0.527-0.029,0.979-0.088,1.354
			h0.105c0.287-0.469,0.694-0.835,1.222-1.099c0.528-0.264,1.122-0.396,1.784-0.396c1.172,0,2.054,0.28,2.646,0.84
			c0.592,0.56,0.888,1.454,0.888,2.685v6.284L642.292,699.946L642.292,699.946z"/>
	</g>
</g>
<g>
	<g>
		<path data-button="sketch" data-category="neutral" class="categorizing-st1 category-button-outline" d="M1465.541,674.776h-90.439v40h90.439V674.776L1465.541,674.776z"/>
	</g>
</g>
<g>
	<g>
		<g>
			<g>
				<g class="categorizing-st0">
					<path data-button="sketch" data-category="neutral" class="categorizing-st0 category-button-text" d="M1404.451,699.019h-1.469l-5.354-8.299h-0.055l0.035,0.554c0.055,0.829,0.082,1.55,0.082,2.16v5.585
						h-1.162v-9.994h1.455l0.309,0.485l3.281,5.072l1.742,2.714h0.055c-0.009-0.109-0.027-0.5-0.055-1.172
						c-0.027-0.673-0.041-1.159-0.041-1.46v-5.64h1.176L1404.451,699.019L1404.451,699.019z"/>
					<path data-button="sketch" data-category="neutral" class="categorizing-st0 category-button-text" d="M1410.187,699.156c-1.126,0-2.01-0.341-2.649-1.021c-0.64-0.682-0.96-1.619-0.96-2.813
						c0-1.203,0.298-2.161,0.895-2.874c0.598-0.714,1.404-1.07,2.42-1.07c0.943,0,1.695,0.305,2.256,0.912
						c0.561,0.609,0.842,1.433,0.842,2.472v0.745h-5.141c0.022,0.853,0.238,1.499,0.648,1.941c0.41,0.442,0.992,0.663,1.744,0.663
						c0.4,0,0.781-0.035,1.141-0.106c0.36-0.07,0.782-0.208,1.266-0.413v1.08c-0.415,0.178-0.805,0.303-1.17,0.376
						C1411.114,699.12,1410.683,699.156,1410.187,699.156z M1409.878,692.382c-0.588,0-1.053,0.189-1.395,0.567
						s-0.544,0.904-0.607,1.579h3.82c-0.009-0.702-0.17-1.235-0.484-1.6S1410.453,692.382,1409.878,692.382z"/>
					<path data-button="sketch" data-category="neutral" class="categorizing-st0 category-button-text" d="M1416.052,691.514v4.833c0,0.606,0.135,1.056,0.406,1.351c0.271,0.293,0.691,0.44,1.262,0.44
						c0.77,0,1.33-0.214,1.682-0.643c0.351-0.429,0.525-1.119,0.525-2.071v-3.91h1.238v7.506h-1.012l-0.178-0.991h-0.062
						c-0.223,0.36-0.539,0.638-0.949,0.834s-0.887,0.294-1.43,0.294c-0.902,0-1.582-0.217-2.04-0.649s-0.687-1.126-0.687-2.078
						v-4.915L1416.052,691.514L1416.052,691.514z"/>
					<path data-button="sketch" data-category="neutral" class="categorizing-st0 category-button-text" d="M1426.052,698.151c0.16,0,0.347-0.016,0.561-0.048c0.215-0.032,0.377-0.068,0.486-0.109v0.943
						c-0.114,0.05-0.291,0.1-0.53,0.146c-0.239,0.049-0.481,0.072-0.728,0.072c-1.468,0-2.201-0.772-2.201-2.317v-4.368h-1.061
						v-0.588l1.074-0.492l0.492-1.6h0.73v1.723h2.168v0.957h-2.168v4.334c0,0.433,0.104,0.766,0.312,0.998
						S1425.683,698.151,1426.052,698.151z"/>
					<path data-button="sketch" data-category="neutral" class="categorizing-st0 category-button-text" d="M1432.095,691.377c0.333,0,0.627,0.027,0.883,0.082l-0.15,1.135c-0.278-0.063-0.55-0.096-0.814-0.096
						c-0.396,0-0.764,0.109-1.104,0.328s-0.605,0.521-0.797,0.906c-0.191,0.385-0.287,0.812-0.287,1.281v4.006h-1.23v-7.506h1.012
						l0.137,1.374h0.055c0.287-0.497,0.627-0.873,1.02-1.128C1431.209,691.505,1431.635,691.377,1432.095,691.377z"/>
					<path data-button="sketch" data-category="neutral" class="categorizing-st0 category-button-text" d="M1439.013,699.019l-0.238-1.066h-0.055c-0.374,0.47-0.746,0.787-1.118,0.953
						c-0.372,0.167-0.84,0.25-1.405,0.25c-0.738,0-1.316-0.193-1.736-0.581c-0.419-0.388-0.629-0.935-0.629-1.641
						c0-1.522,1.201-2.319,3.604-2.393l1.271-0.048v-0.444c0-0.569-0.123-0.99-0.369-1.261s-0.641-0.407-1.184-0.407
						c-0.396,0-0.771,0.06-1.124,0.178s-0.685,0.251-0.995,0.396l-0.375-0.923c0.378-0.2,0.79-0.357,1.236-0.472
						c0.447-0.114,0.889-0.171,1.326-0.171c0.907,0,1.582,0.2,2.023,0.602c0.442,0.401,0.664,1.039,0.664,1.914v5.113
						L1439.013,699.019L1439.013,699.019z M1436.478,698.165c0.688,0,1.229-0.186,1.623-0.558c0.395-0.371,0.592-0.898,0.592-1.582
						v-0.677l-1.107,0.048c-0.861,0.032-1.49,0.169-1.884,0.41c-0.394,0.241-0.591,0.622-0.591,1.142
						c0,0.392,0.119,0.692,0.358,0.902C1435.708,698.06,1436.044,698.165,1436.478,698.165z"/>
					<path data-button="sketch" data-category="neutral" class="categorizing-st0 category-button-text" d="M1443.464,699.019h-1.23v-10.637h1.23V699.019z"/>
				</g>
			</g>
		</g>
	</g>
</g>
<g>
	<g>
		<path data-button="sketch" data-category="good" class="categorizing-st1 category-button-outline" d="M1371.102,674.776h-70.555c-2.761,0-5,2.239-5,5v30c0,2.761,2.239,5,5,5h70.555V674.776L1371.102,674.776z"/>
	</g>
</g>
<g>
	<g>
		<path data-button="sketch" data-category="evil" class="categorizing-st1 category-button-outline" d="M1527.096,674.776h-57.555v40h57.555c2.761,0,5-2.239,5-5v-30
			C1532.096,677.015,1529.857,674.776,1527.096,674.776L1527.096,674.776z"/>
	</g>
</g>
<g>
	<polygon class="categorizing-st5" points="545.519,693.226 536.263,693.226 527.007,693.226 517.72,686.953 536.263,711.347 554.806,686.953
		"/>
	<polyline class="categorizing-st5" points="517.72,686.953 524.237,680.436 529.529,678.205 536.263,678.205 	"/>
	<polyline class="categorizing-st5" points="536.263,682.809 529.16,682.809 524.237,680.436 	"/>
	<line class="categorizing-st5" x1="529.16" y1="682.809" x2="527.007" y2="693.226"/>
	<polyline class="categorizing-st5" points="554.806,686.953 548.29,680.436 542.998,678.205 536.263,678.205 	"/>
	<polyline class="categorizing-st5" points="536.263,682.809 543.367,682.809 548.29,680.436 	"/>
	<line class="categorizing-st5" x1="543.367" y1="682.809" x2="545.519" y2="693.226"/>
	<line class="categorizing-st5" x1="527.007" y1="693.226" x2="536.263" y2="711.347"/>
	<line class="categorizing-st5" x1="545.519" y1="693.226" x2="536.263" y2="711.347"/>
</g>
<g>
	<g>
		<g>
			<g>
				<g class="categorizing-st0">
					<path data-button="sketch" data-category="good" class="categorizing-st0 category-button-text" d="M1321.32,693.741h3.452v4.902c-0.528,0.168-1.066,0.295-1.613,0.383c-0.547,0.086-1.181,0.129-1.9,0.129
						c-1.522,0-2.7-0.451-3.534-1.354c-0.834-0.903-1.251-2.162-1.251-3.779c0-1.045,0.208-1.955,0.622-2.734
						c0.414-0.779,1.013-1.375,1.795-1.789c0.781-0.412,1.703-0.617,2.765-0.617c1.066,0,2.06,0.195,2.98,0.588l-0.479,1.094
						c-0.88-0.383-1.739-0.574-2.577-0.574c-1.189,0-2.119,0.359-2.789,1.08c-0.67,0.719-1.005,1.703-1.005,2.953
						c0,1.32,0.321,2.326,0.964,3.014c0.643,0.689,1.576,1.033,2.803,1.033c0.67,0,1.324-0.08,1.962-0.24v-2.967h-2.194
						L1321.32,693.741L1321.32,693.741z"/>
					<path data-button="sketch" data-category="good" class="categorizing-st0 category-button-text" d="M1333.522,695.253c0,1.225-0.31,2.182-0.93,2.871c-0.62,0.688-1.477,1.031-2.57,1.031
						c-0.679,0-1.28-0.158-1.805-0.475c-0.525-0.317-0.927-0.771-1.21-1.363c-0.283-0.594-0.424-1.281-0.424-2.064
						c0-1.223,0.305-2.174,0.916-2.855c0.611-0.68,1.467-1.021,2.57-1.021c1.057,0,1.896,0.348,2.52,1.043
						C1333.21,693.114,1333.522,694.058,1333.522,695.253z M1327.855,695.253c0,0.943,0.186,1.66,0.557,2.148
						c0.372,0.49,0.92,0.736,1.645,0.736c0.715,0,1.26-0.246,1.634-0.736c0.374-0.488,0.561-1.205,0.561-2.148
						s-0.188-1.654-0.563-2.131c-0.377-0.475-0.927-0.713-1.651-0.713C1328.581,692.409,1327.855,693.356,1327.855,695.253z"/>
					<path data-button="sketch" data-category="good" class="categorizing-st0 category-button-text" d="M1341.992,695.253c0,1.225-0.311,2.182-0.93,2.871c-0.619,0.688-1.477,1.031-2.57,1.031
						c-0.68,0-1.281-0.158-1.805-0.475c-0.524-0.317-0.928-0.771-1.21-1.363c-0.282-0.594-0.424-1.281-0.424-2.064
						c0-1.223,0.306-2.174,0.916-2.855c0.61-0.68,1.468-1.021,2.57-1.021c1.058,0,1.897,0.348,2.519,1.043
						C1341.681,693.114,1341.992,694.058,1341.992,695.253z M1336.325,695.253c0,0.943,0.186,1.66,0.558,2.148
						c0.371,0.49,0.919,0.736,1.644,0.736c0.716,0,1.261-0.246,1.634-0.736c0.373-0.488,0.561-1.205,0.561-2.148
						s-0.188-1.654-0.564-2.131c-0.375-0.475-0.926-0.713-1.65-0.713C1337.052,692.409,1336.325,693.356,1336.325,695.253z"/>
					<path data-button="sketch" data-category="good" class="categorizing-st0 category-button-text" d="M1346.599,699.155c-0.975,0-1.732-0.336-2.27-1.012c-0.537-0.674-0.807-1.629-0.807-2.863
						c0-1.227,0.27-2.184,0.811-2.871c0.539-0.689,1.299-1.033,2.279-1.033c1.008,0,1.781,0.369,2.324,1.107h0.089
						c-0.014-0.09-0.032-0.273-0.055-0.551c-0.022-0.275-0.034-0.461-0.034-0.557v-2.994h1.23v10.637h-0.991l-0.185-1.004h-0.055
						C1348.413,698.774,1347.634,699.155,1346.599,699.155z M1346.797,698.138c0.747,0,1.293-0.205,1.638-0.613
						c0.344-0.406,0.516-1.076,0.516-2.006v-0.225c0-1.045-0.174-1.789-0.523-2.232c-0.348-0.445-0.896-0.666-1.644-0.666
						c-0.634,0-1.124,0.252-1.47,0.754c-0.346,0.504-0.52,1.223-0.52,2.158c0,0.93,0.172,1.633,0.516,2.111
						C1345.655,697.897,1346.15,698.138,1346.797,698.138z"/>
				</g>
			</g>
		</g>
	</g>
</g>
<g>
	<g>
		<g>
			<g class="categorizing-st0">
				<path data-button="sketch" data-category="evil" class="categorizing-st0 category-button-text" d="M1496.525,699.018h-5.584v-9.994h5.584v1.107h-4.326v3.117h4.074v1.094h-4.074v3.568h4.326V699.018z"/>
				<path data-button="sketch" data-category="evil" class="categorizing-st0 category-button-text" d="M1500.21,699.018l-2.844-7.506h1.318l1.594,4.424c0.314,0.889,0.515,1.551,0.602,1.988h0.055
					c0.014-0.059,0.03-0.127,0.051-0.201c0.021-0.076,0.045-0.158,0.072-0.246c0.027-0.09,0.195-0.604,0.506-1.541l1.6-4.424h1.312
					l-2.852,7.506L1500.21,699.018L1500.21,699.018z"/>
				<path data-button="sketch" data-category="evil" class="categorizing-st0 category-button-text" d="M1505.57,689.483c0-0.273,0.068-0.473,0.208-0.596c0.14-0.123,0.312-0.184,0.517-0.184
					c0.191,0,0.358,0.061,0.502,0.184c0.144,0.123,0.215,0.322,0.215,0.596c0,0.268-0.071,0.467-0.215,0.594
					c-0.144,0.129-0.311,0.191-0.502,0.191c-0.205,0-0.377-0.062-0.517-0.191C1505.638,689.95,1505.57,689.751,1505.57,689.483z
					 M1506.896,699.018h-1.23v-7.506h1.23V699.018z"/>
				<path data-button="sketch" data-category="evil" class="categorizing-st0 category-button-text" d="M1510.505,699.018h-1.23v-10.637h1.23V699.018z"/>
			</g>
		</g>
	</g>
</g>
</svg>
