<?xml version="1.0" encoding="utf-8"?>
<svg version="1.1" class="categorizing-mobile" xmlns="http://www.w3.org/2000/svg" xmlns:xlink="http://www.w3.org/1999/xlink" x="0px" y="0px"
	 viewBox="-145 336.5143 320.5 29.3731" style="enable-background:new -145 336.5143 320.5 29.3731;" xml:space="preserve">
<g id="Interface">
	<g>
		<g class="categorizing-mobile-st0">
			<path class="categorizing-mobile-st1" d="M-91.0283,350.9176h2.4658v3.501c-0.3779,0.1201-0.7617,0.2119-1.1523,0.2734s-0.8428,0.0928-1.3574,0.0928
				c-1.0869,0-1.9287-0.3223-2.5244-0.9668s-0.8936-1.5449-0.8936-2.7002c0-0.7451,0.1484-1.3965,0.4443-1.9531
				s0.7236-0.9824,1.2812-1.2764c0.5586-0.2949,1.2168-0.4424,1.9756-0.4424c0.7617,0,1.4717,0.1396,2.1289,0.4199l-0.3418,0.7812
				c-0.6279-0.2734-1.2422-0.4102-1.8408-0.4102c-0.8496,0-1.5137,0.2568-1.9922,0.7715s-0.7178,1.2178-0.7178,2.1094
				c0,0.9443,0.2295,1.6621,0.6885,2.1533s1.126,0.7373,2.002,0.7373c0.4785,0,0.9453-0.0566,1.4014-0.1709v-2.1191h-1.5674
				V350.9176z"/>
			<path class="categorizing-mobile-st1" d="M-80.2793,354.6872v-3.4521c0-0.8467-0.3633-1.2695-1.0889-1.2695c-0.498,0-0.8643,0.1445-1.0986,0.4346
				s-0.3516,0.7324-0.3516,1.3281v2.959h-0.874v-3.4521c0-0.4229-0.0889-0.7402-0.2656-0.9521
				c-0.1777-0.2119-0.4551-0.3174-0.833-0.3174c-0.4951,0-0.8564,0.1514-1.0869,0.4541c-0.2285,0.3027-0.3438,0.7988-0.3438,1.4893
				v2.7783h-0.8789v-5.3613h0.708l0.1318,0.7324h0.0488c0.1533-0.2607,0.3691-0.4639,0.6465-0.6104
				c0.2793-0.1465,0.5908-0.2197,0.9355-0.2197c0.8398,0,1.3867,0.2998,1.6406,0.8984h0.0488
				c0.1729-0.2861,0.4082-0.5078,0.7051-0.6641c0.2988-0.1562,0.6357-0.2344,1.0137-0.2344c0.6055,0,1.0586,0.1562,1.3594,0.4688
				c0.3018,0.3125,0.4521,0.8125,0.4521,1.499v3.4912H-80.2793z"/>
			<path class="categorizing-mobile-st1" d="M-74.5693,354.6872l-0.1709-0.7617h-0.0391c-0.2666,0.335-0.5332,0.5625-0.7979,0.6816
				c-0.2656,0.1182-0.6006,0.1777-1.0039,0.1777c-0.5273,0-0.9404-0.1387-1.2402-0.415s-0.4492-0.667-0.4492-1.1719
				c0-1.0869,0.8574-1.6572,2.5732-1.709l0.9082-0.0342v-0.3174c0-0.4072-0.0879-0.707-0.2637-0.9014
				c-0.1758-0.1934-0.457-0.29-0.8447-0.29c-0.2832,0-0.5508,0.042-0.8027,0.127c-0.2529,0.085-0.4893,0.1787-0.7109,0.2832
				l-0.2686-0.6592c0.2705-0.1436,0.5645-0.2559,0.8838-0.3369s0.6348-0.1221,0.9473-0.1221c0.6475,0,1.1299,0.1436,1.4453,0.4297
				s0.4736,0.7422,0.4736,1.3672v3.6523H-74.5693z M-76.3809,354.0768c0.4912,0,0.8779-0.1328,1.1592-0.3975
				c0.2822-0.2656,0.4229-0.6426,0.4229-1.1309v-0.4834l-0.791,0.0342c-0.6152,0.0225-1.0635,0.1201-1.3447,0.293
				c-0.2822,0.1729-0.4229,0.4443-0.4229,0.8154c0,0.2803,0.085,0.4951,0.2568,0.6445
				C-76.9307,354.0016-76.6904,354.0768-76.3809,354.0768z"/>
			<path class="categorizing-mobile-st1" d="M-72.4678,347.8756c0-0.1953,0.0498-0.3369,0.1484-0.4248c0.0996-0.0879,0.2227-0.1318,0.3691-0.1318
				c0.1367,0,0.2559,0.0439,0.3594,0.1318c0.1016,0.0879,0.1533,0.2295,0.1533,0.4248c0,0.1924-0.0518,0.334-0.1533,0.4248
				c-0.1035,0.0908-0.2227,0.1367-0.3594,0.1367c-0.1465,0-0.2695-0.0459-0.3691-0.1367
				C-72.418,348.2096-72.4678,348.068-72.4678,347.8756z M-71.5205,354.6872h-0.8789v-5.3613h0.8789V354.6872z"/>
			<path class="categorizing-mobile-st1" d="M-69.0723,354.6872h-0.8789v-7.5977h0.8789V354.6872z"/>
		</g>
	</g>
	<g>
		<rect x="-124.5597" y="345.0515" class="categorizing-mobile-st2" width="17.8093" height="12.2987"/>
		<polyline class="categorizing-mobile-st2" points="-124.5597,345.0515 -115.655,352.7874 -106.7504,345.0515 		"/>
	</g>
	<g>
		<g>
			<g>
				<g class="categorizing-mobile-st0">
					<path class="categorizing-mobile-st1" d="M132.4678,353.0544h-0.8398l-3.0586-4.7422h-0.0312l0.0195,0.3164
						c0.0312,0.4736,0.0469,0.8857,0.0469,1.2344v3.1914h-0.6641v-5.7109h0.832l0.1758,0.2773l1.875,2.8984l0.9961,1.5508h0.0312
						c-0.0049-0.0625-0.0156-0.2861-0.0312-0.6699s-0.0234-0.6621-0.0234-0.834v-3.2227h0.6719V353.0544z"/>
					<path class="categorizing-mobile-st1" d="M135.7451,353.1325c-0.6436,0-1.1475-0.1943-1.5137-0.584s-0.5488-0.9248-0.5488-1.6074
						c0-0.6875,0.1709-1.2354,0.5117-1.6426s0.8018-0.6113,1.3828-0.6113c0.5391,0,0.9688,0.1738,1.2891,0.5215
						s0.4805,0.8184,0.4805,1.4121v0.4258h-2.9375c0.0127,0.4873,0.1367,0.8564,0.3711,1.1094s0.5664,0.3789,0.9961,0.3789
						c0.2295,0,0.4463-0.0205,0.6523-0.0605s0.4463-0.1191,0.7227-0.2363v0.6172c-0.2373,0.1016-0.46,0.1729-0.668,0.2148
						S136.0293,353.1325,135.7451,353.1325z M135.5693,349.2614c-0.3359,0-0.6016,0.1084-0.7969,0.3242
						s-0.3115,0.5166-0.3477,0.9023h2.1836c-0.0049-0.4014-0.0977-0.7061-0.2773-0.9141S135.8975,349.2614,135.5693,349.2614z"/>
					<path class="categorizing-mobile-st1" d="M139.0967,348.7653v2.7617c0,0.3467,0.0771,0.6035,0.2324,0.7715s0.3955,0.252,0.7207,0.252
						c0.4404,0,0.7607-0.1221,0.9609-0.3672s0.3008-0.6396,0.3008-1.1836v-2.2344h0.707v4.2891h-0.5781l-0.1016-0.5664h-0.0352
						c-0.1279,0.2061-0.3086,0.3643-0.543,0.4766s-0.5068,0.168-0.8164,0.168c-0.5156,0-0.9043-0.124-1.166-0.3711
						s-0.3926-0.6436-0.3926-1.1875v-2.8086H139.0967z"/>
					<path class="categorizing-mobile-st1" d="M144.8115,352.5583c0.0908,0,0.1982-0.0088,0.3203-0.0273s0.2148-0.0391,0.2773-0.0625v0.5391
						c-0.0654,0.0283-0.166,0.0566-0.3027,0.084s-0.2754,0.041-0.416,0.041c-0.8389,0-1.2578-0.4414-1.2578-1.3242v-2.4961h-0.6055
						v-0.3359l0.6133-0.2812l0.2812-0.9141h0.418v0.9844h1.2383v0.5469h-1.2383v2.4766c0,0.2471,0.0596,0.4375,0.1777,0.5703
						S144.6006,352.5583,144.8115,352.5583z"/>
					<path class="categorizing-mobile-st1" d="M148.2646,348.6872c0.1904,0,0.3584,0.0156,0.5039,0.0469l-0.0859,0.6484
						c-0.1592-0.0361-0.3135-0.0547-0.4648-0.0547c-0.2266,0-0.4365,0.0625-0.6309,0.1875s-0.3457,0.2979-0.4551,0.5176
						s-0.1641,0.4639-0.1641,0.7324v2.2891h-0.7031v-4.2891h0.5781l0.0781,0.7852h0.0312c0.1641-0.2842,0.3584-0.499,0.582-0.6445
						S148.002,348.6872,148.2646,348.6872z"/>
					<path class="categorizing-mobile-st1" d="M152.2178,353.0544l-0.1367-0.6094h-0.0312c-0.2139,0.2686-0.4268,0.4502-0.6387,0.5449
						s-0.4795,0.1426-0.8027,0.1426c-0.4219,0-0.7529-0.1104-0.9922-0.332s-0.3594-0.5342-0.3594-0.9375
						c0-0.8701,0.6865-1.3252,2.0586-1.3672l0.7266-0.0273v-0.2539c0-0.3252-0.0703-0.5654-0.2109-0.7207
						s-0.3662-0.2324-0.6758-0.2324c-0.2266,0-0.4404,0.0342-0.6426,0.1016s-0.3916,0.1436-0.5684,0.2266l-0.2148-0.5273
						c0.2158-0.1143,0.4521-0.2041,0.707-0.2695s0.5078-0.0977,0.7578-0.0977c0.5186,0,0.9033,0.1143,1.1562,0.3438
						s0.3789,0.5938,0.3789,1.0938v2.9219H152.2178z M150.7686,352.5661c0.3936,0,0.7021-0.1064,0.9277-0.3184
						s0.3379-0.5137,0.3379-0.9043v-0.3867l-0.6328,0.0273c-0.4922,0.0186-0.8506,0.0967-1.0762,0.2344
						s-0.3379,0.3555-0.3379,0.6523c0,0.2236,0.0684,0.3955,0.2051,0.5156S150.5215,352.5661,150.7686,352.5661z"/>
					<path class="categorizing-mobile-st1" d="M154.7607,353.0544h-0.7031v-6.0781h0.7031V353.0544z"/>
				</g>
			</g>
		</g>
	</g>
</g>
</svg>
