<?xml version="1.0" encoding="utf-8"?>
<svg version="1.1" class="categorizing-mobile" xmlns="http://www.w3.org/2000/svg" xmlns:xlink="http://www.w3.org/1999/xlink" x="0px" y="0px"
	 viewBox="-145 428.9084 320.5 29.3731" style="enable-background:new -145 428.9084 320.5 29.3731;" xml:space="preserve">
<g id="Interface">
	<g>
		<g class="categorizing-mobile-st0">
			<path class="categorizing-mobile-st1" d="M-90.0811,445.1706c0,0.6221-0.2246,1.1113-0.6738,1.4697s-1.0742,0.5371-1.875,0.5371
				c-0.8467,0-1.501-0.1123-1.9629-0.3369v-0.8594c0.3027,0.1299,0.6338,0.2324,0.9941,0.3076
				c0.3594,0.0752,0.6953,0.1123,1.0078,0.1123c0.5342,0,0.9355-0.1025,1.2061-0.3076s0.4053-0.4863,0.4053-0.8447
				c0-0.2373-0.0488-0.4326-0.1465-0.5859s-0.2617-0.2959-0.4902-0.4297c-0.2305-0.1338-0.5771-0.2852-1.043-0.4541
				c-0.6611-0.2412-1.1328-0.5254-1.416-0.8516c-0.2832-0.3281-0.4248-0.75-0.4248-1.2676c0-0.5566,0.209-0.999,0.6279-1.3281
				c0.418-0.3291,0.9688-0.4932,1.6523-0.4932c0.7129,0,1.3691,0.1338,1.9678,0.4004l-0.2783,0.7715
				c-0.6123-0.2539-1.1816-0.3809-1.709-0.3809c-0.4229,0-0.7539,0.0908-0.9941,0.2734c-0.2383,0.1826-0.3584,0.4375-0.3584,0.7666
				c0,0.2344,0.0459,0.4287,0.1396,0.584c0.0918,0.1543,0.2422,0.2949,0.4492,0.4219c0.2061,0.127,0.5312,0.2715,0.9736,0.4346
				c0.5303,0.1953,0.9258,0.3848,1.1865,0.5693c0.2607,0.1836,0.4521,0.3945,0.5762,0.6348
				C-90.1426,444.5524-90.0811,444.8385-90.0811,445.1706z"/>
			<path class="categorizing-mobile-st1" d="M-87.1006,446.4596c0.1143,0,0.2471-0.0117,0.4004-0.0342s0.2686-0.0488,0.3467-0.0781v0.6738
				c-0.0811,0.0361-0.207,0.0703-0.3789,0.1055c-0.1699,0.0332-0.3438,0.0508-0.5195,0.0508c-1.0479,0-1.5723-0.5518-1.5723-1.6553
				v-3.1201h-0.7568v-0.4199l0.7666-0.3516l0.3516-1.1426h0.5225v1.2305h1.5479v0.6836h-1.5479v3.0957
				c0,0.3096,0.0742,0.5469,0.2217,0.7129C-87.5703,446.3766-87.3643,446.4596-87.1006,446.4596z"/>
			<path class="categorizing-mobile-st1" d="M-83.1338,447.1774c-0.8037,0-1.4346-0.2432-1.8916-0.7305c-0.458-0.4863-0.6865-1.1562-0.6865-2.0088
				c0-0.8594,0.2129-1.5439,0.6396-2.0537c0.4268-0.5088,1.0029-0.7637,1.7285-0.7637c0.6738,0,1.2109,0.2168,1.6113,0.6523
				c0.4004,0.4336,0.6006,1.0225,0.6006,1.7646v0.5322h-3.6719c0.0166,0.6084,0.1709,1.0713,0.4639,1.3867
				s0.708,0.4736,1.2451,0.4736c0.2861,0,0.5586-0.0254,0.8154-0.0752c0.2568-0.0508,0.5586-0.1494,0.9033-0.2959v0.7715
				c-0.2959,0.127-0.5742,0.2168-0.835,0.2686S-82.7793,447.1774-83.1338,447.1774z M-83.3535,442.3385
				c-0.4199,0-0.752,0.1348-0.9961,0.4053s-0.3887,0.6465-0.4346,1.1279h2.7295c-0.0068-0.501-0.1221-0.8818-0.3467-1.1426
				S-82.9434,442.3385-83.3535,442.3385z"/>
			<path class="categorizing-mobile-st1" d="M-76.5938,447.0797l-0.1709-0.7617h-0.0391c-0.2666,0.335-0.5332,0.5625-0.7979,0.6816
				c-0.2656,0.1182-0.6006,0.1777-1.0039,0.1777c-0.5273,0-0.9404-0.1387-1.2402-0.415s-0.4492-0.667-0.4492-1.1719
				c0-1.0869,0.8574-1.6572,2.5732-1.709l0.9082-0.0342v-0.3174c0-0.4072-0.0879-0.707-0.2637-0.9014
				c-0.1758-0.1934-0.457-0.29-0.8447-0.29c-0.2832,0-0.5508,0.042-0.8027,0.127c-0.2529,0.085-0.4893,0.1787-0.7109,0.2832
				l-0.2686-0.6592c0.2705-0.1436,0.5645-0.2559,0.8838-0.3369s0.6348-0.1221,0.9473-0.1221c0.6475,0,1.1299,0.1436,1.4453,0.4297
				s0.4736,0.7422,0.4736,1.3672v3.6523H-76.5938z M-78.4053,446.4694c0.4912,0,0.8779-0.1328,1.1592-0.3975
				c0.2822-0.2656,0.4229-0.6426,0.4229-1.1309v-0.4834l-0.791,0.0342c-0.6152,0.0225-1.0635,0.1201-1.3447,0.293
				c-0.2822,0.1729-0.4229,0.4443-0.4229,0.8154c0,0.2803,0.085,0.4951,0.2568,0.6445
				C-78.9551,446.3942-78.7148,446.4694-78.4053,446.4694z"/>
			<path class="categorizing-mobile-st1" d="M-67.6025,447.0797v-3.4521c0-0.8467-0.3633-1.2695-1.0889-1.2695c-0.498,0-0.8643,0.1445-1.0986,0.4346
				s-0.3516,0.7324-0.3516,1.3281v2.959h-0.874v-3.4521c0-0.4229-0.0889-0.7402-0.2656-0.9521
				c-0.1777-0.2119-0.4551-0.3174-0.833-0.3174c-0.4951,0-0.8564,0.1514-1.0869,0.4541c-0.2285,0.3027-0.3438,0.7988-0.3438,1.4893
				v2.7783h-0.8789v-5.3613h0.708l0.1318,0.7324h0.0488c0.1533-0.2607,0.3691-0.4639,0.6465-0.6104
				c0.2793-0.1465,0.5908-0.2197,0.9355-0.2197c0.8398,0,1.3867,0.2998,1.6406,0.8984h0.0488
				c0.1729-0.2861,0.4082-0.5078,0.7051-0.6641c0.2988-0.1562,0.6357-0.2344,1.0137-0.2344c0.6055,0,1.0586,0.1562,1.3594,0.4688
				c0.3018,0.3125,0.4521,0.8125,0.4521,1.499v3.4912H-67.6025z"/>
		</g>
	</g>
	<g>
		<circle class="categorizing-mobile-st2" cx="-115.655" cy="443.595" r="8.9355"/>
		<g>
			<circle class="categorizing-mobile-st2" cx="-113.7791" cy="441.7191" r="2.7137"/>
			<circle class="categorizing-mobile-st2" cx="-118.3251" cy="446.2651" r="1.9195"/>
			<line class="categorizing-mobile-st2" x1="-116.4929" y1="441.7941" x2="-118.007" y2="444.3749"/>
			<line class="categorizing-mobile-st2" x1="-113.8529" y1="444.4321" x2="-116.435" y2="445.9469"/>
		</g>
		<line class="categorizing-mobile-st2" x1="-119.6824" y1="444.9078" x2="-123.9565" y2="440.6337"/>
	</g>
	<g>
		<g>
			<g>
				<g class="categorizing-mobile-st0">
					<path class="categorizing-mobile-st0" d="M141.6084,439.737h1.6289c0.7656,0,1.3184,0.1143,1.6582,0.3418s0.5098,0.585,0.5098,1.0723
						c0,0.3389-0.0928,0.6182-0.2773,0.8379s-0.4541,0.3623-0.8086,0.4277v0.0391c0.4404,0.0752,0.7637,0.2275,0.9707,0.457
						s0.3105,0.5322,0.3105,0.9102c0,0.5107-0.1748,0.9092-0.5234,1.1953s-0.8359,0.4297-1.4609,0.4297h-2.0078V439.737z
						 M142.3271,442.1667h1.0547c0.4482,0,0.7734-0.0713,0.9766-0.2148s0.3047-0.3828,0.3047-0.7188
						c0-0.3125-0.1113-0.5381-0.334-0.6758s-0.5752-0.207-1.0566-0.207h-0.9453V442.1667z M142.3271,442.7682v2.0703h1.1523
						c0.458,0,0.7979-0.0889,1.0195-0.2656s0.332-0.4453,0.332-0.8047c0-0.3408-0.1172-0.5928-0.3516-0.7559
						s-0.5859-0.2441-1.0547-0.2441H142.3271z"/>
					<path class="categorizing-mobile-st0" d="M149.3584,445.4479l-0.1367-0.6094h-0.0312c-0.2139,0.2686-0.4268,0.4502-0.6387,0.5449
						s-0.4795,0.1426-0.8027,0.1426c-0.4219,0-0.7529-0.1104-0.9922-0.332s-0.3594-0.5342-0.3594-0.9375
						c0-0.8701,0.6865-1.3252,2.0586-1.3672l0.7266-0.0273v-0.2539c0-0.3252-0.0703-0.5654-0.2109-0.7207
						s-0.3662-0.2324-0.6758-0.2324c-0.2266,0-0.4404,0.0342-0.6426,0.1016s-0.3916,0.1436-0.5684,0.2266l-0.2148-0.5273
						c0.2158-0.1143,0.4521-0.2041,0.707-0.2695s0.5078-0.0977,0.7578-0.0977c0.5186,0,0.9033,0.1143,1.1562,0.3438
						s0.3789,0.5938,0.3789,1.0938v2.9219H149.3584z M147.9092,444.9596c0.3936,0,0.7021-0.1064,0.9277-0.3184
						s0.3379-0.5137,0.3379-0.9043v-0.3867l-0.6328,0.0273c-0.4922,0.0186-0.8506,0.0967-1.0762,0.2344
						s-0.3379,0.3555-0.3379,0.6523c0,0.2236,0.0684,0.3955,0.2051,0.5156S147.6621,444.9596,147.9092,444.9596z"/>
					<path class="categorizing-mobile-st0" d="M152.7178,445.526c-0.5576,0-0.9893-0.1924-1.2969-0.5781s-0.4609-0.9307-0.4609-1.6367
						c0-0.7002,0.1543-1.2471,0.4629-1.6406s0.7432-0.5898,1.3027-0.5898c0.5752,0,1.0186,0.2109,1.3281,0.6328h0.0508
						c-0.0078-0.0518-0.0186-0.1572-0.0312-0.3145s-0.0195-0.2637-0.0195-0.3184v-1.7109h0.7031v6.0781h-0.5664l-0.1055-0.5742
						h-0.0312C153.7539,445.3083,153.3086,445.526,152.7178,445.526z M152.8311,444.944c0.4268,0,0.7393-0.1162,0.9355-0.3496
						s0.2949-0.6152,0.2949-1.1465v-0.1289c0-0.5967-0.0996-1.0215-0.2988-1.2754s-0.5127-0.3809-0.9395-0.3809
						c-0.3623,0-0.6416,0.1436-0.8398,0.4316s-0.2969,0.6982-0.2969,1.2324c0,0.5312,0.0986,0.9336,0.2949,1.207
						S152.4609,444.944,152.8311,444.944z"/>
				</g>
			</g>
		</g>
	</g>
</g>
</svg>
