<?xml version="1.0" encoding="utf-8"?>
<svg version="1.1" class="categorizing-mobile" xmlns="http://www.w3.org/2000/svg" xmlns:xlink="http://www.w3.org/1999/xlink" x="0px" y="0px"
	 viewBox="-145 398.1104 320.5 29.3731" style="enable-background:new -145 398.1104 320.5 29.3731;" xml:space="preserve">
<g id="Interface">
	<g>
		<g>
			<g class="categorizing-mobile-st0">
				<path class="categorizing-mobile-st1" d="M-90.0811,414.3727c0,0.6221-0.2246,1.1113-0.6738,1.4697s-1.0742,0.5371-1.875,0.5371
					c-0.8467,0-1.501-0.1123-1.9629-0.3369v-0.8594c0.3027,0.1299,0.6338,0.2324,0.9941,0.3076
					c0.3594,0.0752,0.6953,0.1123,1.0078,0.1123c0.5342,0,0.9355-0.1025,1.2061-0.3076s0.4053-0.4863,0.4053-0.8447
					c0-0.2373-0.0488-0.4326-0.1465-0.5859s-0.2617-0.2959-0.4902-0.4297c-0.2305-0.1338-0.5771-0.2852-1.043-0.4541
					c-0.6611-0.2412-1.1328-0.5254-1.416-0.8516c-0.2832-0.3281-0.4248-0.75-0.4248-1.2676c0-0.5566,0.209-0.999,0.6279-1.3281
					c0.418-0.3291,0.9688-0.4932,1.6523-0.4932c0.7129,0,1.3691,0.1338,1.9678,0.4004l-0.2783,0.7715
					c-0.6123-0.2539-1.1816-0.3809-1.709-0.3809c-0.4229,0-0.7539,0.0908-0.9941,0.2734c-0.2383,0.1826-0.3584,0.4375-0.3584,0.7666
					c0,0.2344,0.0459,0.4287,0.1396,0.584c0.0918,0.1543,0.2422,0.2949,0.4492,0.4219c0.2061,0.127,0.5312,0.2715,0.9736,0.4346
					c0.5303,0.1953,0.9258,0.3848,1.1865,0.5693c0.2607,0.1836,0.4521,0.3945,0.5762,0.6348
					C-90.1426,413.7545-90.0811,414.0407-90.0811,414.3727z"/>
				<path class="categorizing-mobile-st1" d="M-88.0234,413.5231l0.2979-0.3809l0.3418-0.4102l1.7139-1.8115h1.0254l-2.168,2.29l2.3193,3.0713h-1.0596
					l-1.8604-2.5l-0.6104,0.5322v1.9678h-0.8691v-7.5977h0.8691v3.9697l-0.0391,0.8691H-88.0234z"/>
				<path class="categorizing-mobile-st1" d="M-81.4004,416.3795c-0.8037,0-1.4346-0.2432-1.8916-0.7305c-0.458-0.4863-0.6865-1.1562-0.6865-2.0088
					c0-0.8594,0.2129-1.5439,0.6396-2.0537c0.4268-0.5088,1.0029-0.7637,1.7285-0.7637c0.6738,0,1.2109,0.2168,1.6113,0.6523
					c0.4004,0.4336,0.6006,1.0225,0.6006,1.7646v0.5322h-3.6719c0.0166,0.6084,0.1709,1.0713,0.4639,1.3867
					s0.708,0.4736,1.2451,0.4736c0.2861,0,0.5586-0.0254,0.8154-0.0752c0.2568-0.0508,0.5586-0.1494,0.9033-0.2959v0.7715
					c-0.2959,0.127-0.5742,0.2168-0.835,0.2686S-81.0459,416.3795-81.4004,416.3795z M-81.6201,411.5407
					c-0.4199,0-0.752,0.1348-0.9961,0.4053s-0.3887,0.6465-0.4346,1.1279h2.7295c-0.0068-0.501-0.1221-0.8818-0.3467-1.1426
					S-81.21,411.5407-81.6201,411.5407z"/>
				<path class="categorizing-mobile-st1" d="M-76.3789,415.6618c0.1143,0,0.2471-0.0117,0.4004-0.0342s0.2686-0.0488,0.3467-0.0781v0.6738
					c-0.0811,0.0361-0.207,0.0703-0.3789,0.1055c-0.1699,0.0332-0.3438,0.0508-0.5195,0.0508c-1.0479,0-1.5723-0.5518-1.5723-1.6553
					v-3.1201h-0.7568v-0.4199l0.7666-0.3516l0.3516-1.1426h0.5225v1.2305h1.5479v0.6836h-1.5479v3.0957
					c0,0.3096,0.0742,0.5469,0.2217,0.7129C-76.8486,415.5788-76.6426,415.6618-76.3789,415.6618z"/>
				<path class="categorizing-mobile-st1" d="M-72.5439,416.3795c-0.7715,0-1.3721-0.2363-1.8018-0.7109c-0.4297-0.4727-0.6445-1.1523-0.6445-2.0381
					c0-0.8984,0.2178-1.5908,0.6514-2.0771c0.4355-0.4873,1.0547-0.7305,1.8584-0.7305c0.2607,0,0.5186,0.0273,0.7744,0.0801
					c0.2549,0.0547,0.4658,0.123,0.6318,0.208l-0.2686,0.7324c-0.4521-0.1689-0.8379-0.2539-1.1572-0.2539
					c-0.54,0-0.9395,0.1699-1.1963,0.5107c-0.2568,0.3398-0.3857,0.8467-0.3857,1.5205c0,0.6475,0.1289,1.1436,0.3857,1.4873
					c0.2568,0.3428,0.6377,0.5146,1.1426,0.5146c0.4717,0,0.9355-0.1045,1.3916-0.3125v0.7812
					C-71.5332,416.2838-71.9941,416.3795-72.5439,416.3795z"/>
				<path class="categorizing-mobile-st1" d="M-66.3711,416.2819v-3.4277c0-0.4365-0.0967-0.7607-0.291-0.9746
					c-0.1934-0.2129-0.4971-0.3193-0.9102-0.3193c-0.5439,0-0.9414,0.1514-1.1934,0.4541c-0.2529,0.3027-0.3789,0.8027-0.3789,1.499
					v2.7686h-0.8789v-7.5977h0.8789v2.2266c0,0.293-0.0166,0.5439-0.0488,0.752h0.0586c0.1592-0.2607,0.3857-0.4639,0.6787-0.6104
					s0.623-0.2197,0.9912-0.2197c0.6514,0,1.1406,0.1553,1.4697,0.4668c0.3291,0.3105,0.4932,0.8076,0.4932,1.4912v3.4912H-66.3711z
					"/>
			</g>
		</g>
	</g>
	<g>
		<g>
			<g>
				<g class="categorizing-mobile-st0">
					<path class="categorizing-mobile-st0" d="M138.2725,411.6354h1.9727v2.8008c-0.3018,0.0967-0.6094,0.1689-0.9219,0.2188
						s-0.6748,0.0742-1.0859,0.0742c-0.8701,0-1.543-0.2578-2.0195-0.7734s-0.7148-1.2354-0.7148-2.1602
						c0-0.5967,0.1182-1.1172,0.3555-1.5625s0.5791-0.7861,1.0254-1.0215s0.9736-0.3535,1.5801-0.3535
						c0.6094,0,1.1768,0.1123,1.7031,0.3359l-0.2734,0.625c-0.5029-0.2188-0.9932-0.3281-1.4727-0.3281
						c-0.6797,0-1.2109,0.2061-1.5938,0.6172s-0.5742,0.9736-0.5742,1.6875c0,0.7549,0.1836,1.3291,0.5508,1.7227
						s0.9014,0.5898,1.6016,0.5898c0.3828,0,0.7568-0.0459,1.1211-0.1367v-1.6953h-1.2539V411.6354z"/>
					<path class="categorizing-mobile-st0" d="M145.2451,412.4987c0,0.7002-0.1768,1.2471-0.5312,1.6406s-0.8438,0.5898-1.4688,0.5898
						c-0.3877,0-0.7314-0.0908-1.0312-0.2715s-0.5303-0.4404-0.6914-0.7793s-0.2422-0.7314-0.2422-1.1797
						c0-0.6982,0.1748-1.2412,0.5234-1.6309s0.8389-0.584,1.4688-0.584c0.6045,0,1.084,0.1982,1.4395,0.5957
						S145.2451,411.8161,145.2451,412.4987z M142.0068,412.4987c0,0.5391,0.1064,0.9482,0.3184,1.2285s0.5254,0.4199,0.9395,0.4199
						c0.4092,0,0.7197-0.1396,0.9336-0.4199s0.3203-0.6895,0.3203-1.2285s-0.1074-0.9443-0.3223-1.2168
						s-0.5293-0.4082-0.9434-0.4082C142.4219,410.8737,142.0068,411.4157,142.0068,412.4987z"/>
					<path class="categorizing-mobile-st0" d="M150.085,412.4987c0,0.7002-0.1768,1.2471-0.5312,1.6406s-0.8438,0.5898-1.4688,0.5898
						c-0.3877,0-0.7314-0.0908-1.0312-0.2715s-0.5303-0.4404-0.6914-0.7793s-0.2422-0.7314-0.2422-1.1797
						c0-0.6982,0.1748-1.2412,0.5234-1.6309s0.8389-0.584,1.4688-0.584c0.6045,0,1.084,0.1982,1.4395,0.5957
						S150.085,411.8161,150.085,412.4987z M146.8467,412.4987c0,0.5391,0.1064,0.9482,0.3184,1.2285s0.5254,0.4199,0.9395,0.4199
						c0.4092,0,0.7197-0.1396,0.9336-0.4199s0.3203-0.6895,0.3203-1.2285s-0.1074-0.9443-0.3223-1.2168
						s-0.5293-0.4082-0.9434-0.4082C147.2617,410.8737,146.8467,411.4157,146.8467,412.4987z"/>
					<path class="categorizing-mobile-st0" d="M152.7178,414.7292c-0.5576,0-0.9893-0.1924-1.2969-0.5781s-0.4609-0.9307-0.4609-1.6367
						c0-0.7002,0.1543-1.2471,0.4629-1.6406s0.7432-0.5898,1.3027-0.5898c0.5752,0,1.0186,0.2109,1.3281,0.6328h0.0508
						c-0.0078-0.0518-0.0186-0.1572-0.0312-0.3145s-0.0195-0.2637-0.0195-0.3184v-1.7109h0.7031v6.0781h-0.5664l-0.1055-0.5742
						h-0.0312C153.7539,414.5114,153.3086,414.7292,152.7178,414.7292z M152.8311,414.1471c0.4268,0,0.7393-0.1162,0.9355-0.3496
						s0.2949-0.6152,0.2949-1.1465v-0.1289c0-0.5967-0.0996-1.0215-0.2988-1.2754s-0.5127-0.3809-0.9395-0.3809
						c-0.3623,0-0.6416,0.1436-0.8398,0.4316s-0.2969,0.6982-0.2969,1.2324c0,0.5312,0.0986,0.9336,0.2949,1.207
						S152.4609,414.1471,152.8311,414.1471z"/>
				</g>
			</g>
		</g>
	</g>
	<g>
		<polygon class="categorizing-mobile-st2" points="-111.4135,412.0866 -115.655,412.0866 -119.8965,412.0866 -124.152,409.212 -115.655,420.3902
			-107.158,409.212 		"/>
		<polyline class="categorizing-mobile-st2" points="-124.152,409.212 -121.1658,406.2258 -118.741,405.2036 -115.655,405.2036 		"/>
		<polyline class="categorizing-mobile-st2" points="-115.655,407.3135 -118.9101,407.3135 -121.1658,406.2258 		"/>
		<line class="categorizing-mobile-st2" x1="-118.9101" y1="407.3135" x2="-119.8965" y2="412.0866"/>
		<polyline class="categorizing-mobile-st2" points="-107.158,409.212 -110.1442,406.2258 -112.569,405.2036 -115.655,405.2036 		"/>
		<polyline class="categorizing-mobile-st2" points="-115.655,407.3135 -112.3999,407.3135 -110.1442,406.2258 		"/>
		<line class="categorizing-mobile-st2" x1="-112.3999" y1="407.3135" x2="-111.4135" y2="412.0866"/>
		<line class="categorizing-mobile-st2" x1="-119.8965" y1="412.0866" x2="-115.655" y2="420.3902"/>
		<line class="categorizing-mobile-st2" x1="-111.4135" y1="412.0866" x2="-115.655" y2="420.3902"/>
	</g>
</g>
</svg>
