<?xml version="1.0" encoding="utf-8"?>
<!-- Generator: Adobe Illustrator 19.1.0, SVG Export Plug-In . SVG Version: 6.00 Build 0)  -->
<svg version="1.1" id="categorizing-alert" xmlns="http://www.w3.org/2000/svg" xmlns:xlink="http://www.w3.org/1999/xlink" x="0px" y="0px"
	 viewBox="0 0 1087.024 256.612" style="enable-background:new 0 0 1087.024 256.612;" xml:space="preserve">
<style type="text/css">
	.categorizing-st0{fill:none;stroke:#FFFFFF;stroke-miterlimit:10;}
	.categorizing-st1{fill:none;stroke:#504D50;stroke-width:0.9903;stroke-miterlimit:10;}
	.categorizing-st2{fill:#FFFFFF;}
	.categorizing-st3{fill:#F272AA;stroke:#FFFFFF;stroke-miterlimit:10;}
	.categorizing-st4{opacity:0.97;}
	.categorizing-st5{fill:#F2F0F0;}
	.categorizing-st6{fill:none;stroke:#F2F0F0;stroke-miterlimit:10;}
	.categorizing-st7{fill:#7AC442;stroke:#FFFFFF;stroke-miterlimit:10;}
	.categorizing-st8{fill:#F6F4F4;}
	.categorizing-st9{fill:#E8212D;stroke:#FFFFFF;stroke-miterlimit:10;}
	.categorizing-st10{opacity:0.85;fill:#F9F7F7;stroke:#FFFFFF;stroke-miterlimit:10;}
	.categorizing-st11{fill:#504D50;}
	.categorizing-st12{fill:#4F4C4F;stroke:#FFFFFF;stroke-miterlimit:10;}
	.categorizing-st13{fill:#7AC743;}
	.categorizing-st14{fill:#EA4130;}
	.categorizing-st15{fill:none;stroke:#4F4C4F;stroke-linecap:square;stroke-linejoin:bevel;stroke-miterlimit:10;}
	.categorizing-st16{fill-rule:evenodd;clip-rule:evenodd;fill:none;stroke:#14ABE1;stroke-width:3;stroke-linecap:round;stroke-miterlimit:10;}
	.categorizing-st17{opacity:0;}
	.categorizing-st18{fill:#FF1D25;stroke:#FFFFFF;stroke-miterlimit:10;}
	.categorizing-st19{clip-path:url(#SVGID_4_);}
	.categorizing-st20{fill:#7AC743;stroke:#FFFFFF;stroke-miterlimit:10;}
	.categorizing-st21{fill:url(#);}
	.categorizing-st22{fill:#7AC743;stroke:#FFFFFF;stroke-linecap:round;stroke-linejoin:round;stroke-miterlimit:10;}
	.categorizing-st23{fill:#7AC743;stroke:#FFFFFF;stroke-width:0.9071;stroke-miterlimit:10;}
	.categorizing-st24{fill:none;stroke:#FFFFFF;stroke-linecap:round;stroke-linejoin:round;}
	.categorizing-st25{fill:#7AC743;stroke:#FFFFFF;stroke-linecap:round;stroke-linejoin:round;}
</style>
<rect x="0.5" y="64.5" class="categorizing-st7" width="1086.024" height="60"/>
<g>
	<g class="categorizing-st4">
		<path class="categorizing-st8" d="M128.165,99.67h-1.635l-2.505-8.42c-0.369-1.254-0.586-2.101-0.65-2.54c-0.094,0.674-0.299,1.538-0.615,2.593
			l-2.426,8.367H118.7l-3.401-12.85h1.688l1.995,7.849c0.27,1.025,0.475,2.045,0.615,3.059c0.129-0.961,0.357-2.013,0.686-3.155
			l2.268-7.752h1.67l2.364,7.813c0.305,1.014,0.539,2.045,0.703,3.094c0.094-0.809,0.302-1.834,0.624-3.076l1.986-7.831h1.688
			L128.165,99.67z"/>
		<path class="categorizing-st8" d="M137.617,89.844c0.428,0,0.806,0.035,1.134,0.105l-0.193,1.459c-0.357-0.082-0.706-0.123-1.046-0.123
			c-0.51,0-0.983,0.141-1.419,0.422s-0.778,0.67-1.024,1.164c-0.246,0.496-0.369,1.045-0.369,1.648v5.15h-1.582v-9.65h1.301
			l0.176,1.767h0.07c0.369-0.639,0.806-1.122,1.31-1.45S137.025,89.844,137.617,89.844z"/>
		<path class="categorizing-st8" d="M140.196,87.409c0-0.352,0.089-0.606,0.268-0.765s0.4-0.237,0.664-0.237c0.246,0,0.461,0.079,0.646,0.237
			s0.277,0.413,0.277,0.765c0,0.346-0.092,0.601-0.277,0.765s-0.4,0.246-0.646,0.246c-0.264,0-0.485-0.082-0.664-0.246
			S140.196,87.755,140.196,87.409z M141.901,99.67h-1.582v-9.65h1.582V99.67z"/>
		<path class="categorizing-st8" d="M147.951,98.554c0.205,0,0.445-0.021,0.721-0.062s0.483-0.088,0.624-0.141v1.213
			c-0.146,0.064-0.374,0.127-0.681,0.189c-0.308,0.061-0.62,0.092-0.936,0.092c-1.887,0-2.83-0.993-2.83-2.979V91.25h-1.362v-0.756
			l1.38-0.633l0.633-2.057h0.94v2.215h2.786v1.23h-2.786v5.572c0,0.557,0.133,0.984,0.4,1.283S147.476,98.554,147.951,98.554z"/>
		<path class="categorizing-st8" d="M155.091,99.846c-1.447,0-2.583-0.438-3.406-1.314c-0.823-0.875-1.235-2.081-1.235-3.616
			c0-1.547,0.384-2.778,1.151-3.696c0.768-0.916,1.805-1.375,3.111-1.375c1.213,0,2.18,0.391,2.9,1.174
			c0.721,0.781,1.081,1.841,1.081,3.177v0.958h-6.609c0.029,1.096,0.308,1.928,0.835,2.496s1.274,0.853,2.241,0.853
			c0.516,0,1.005-0.045,1.468-0.136s1.005-0.269,1.626-0.532v1.389c-0.533,0.229-1.034,0.39-1.503,0.483
			S155.729,99.846,155.091,99.846z M154.695,91.136c-0.756,0-1.354,0.243-1.793,0.729s-0.7,1.163-0.782,2.03h4.913
			c-0.012-0.902-0.22-1.588-0.624-2.057S155.433,91.136,154.695,91.136z"/>
		<path class="categorizing-st8" d="M165.404,89.844c0.428,0,0.806,0.035,1.134,0.105l-0.193,1.459c-0.357-0.082-0.706-0.123-1.046-0.123
			c-0.51,0-0.983,0.141-1.419,0.422s-0.778,0.67-1.024,1.164c-0.246,0.496-0.369,1.045-0.369,1.648v5.15h-1.582v-9.65h1.301
			l0.176,1.767h0.07c0.369-0.639,0.806-1.122,1.31-1.45S164.812,89.844,165.404,89.844z"/>
	</g>
</g>
<rect x="0.5" y="192.5" class="categorizing-st9" width="1086.024" height="60"/>
<g>
	<g class="categorizing-st4">
		<path class="categorizing-st8" d="M124.114,224.233c0,1.119-0.404,2.002-1.213,2.646s-1.934,0.967-3.375,0.967
			c-1.523,0-2.701-0.203-3.533-0.607v-1.547c0.545,0.234,1.141,0.42,1.789,0.555s1.252,0.201,1.815,0.201
			c0.961,0,1.685-0.184,2.171-0.553s0.729-0.877,0.729-1.521c0-0.428-0.088-0.779-0.264-1.055s-0.47-0.533-0.883-0.773
			s-1.039-0.512-1.876-0.816c-1.189-0.434-2.039-0.945-2.549-1.533c-0.51-0.59-0.765-1.35-0.765-2.281
			c0-1.002,0.376-1.799,1.129-2.391s1.745-0.889,2.975-0.889c1.283,0,2.464,0.24,3.542,0.721l-0.501,1.389
			c-1.102-0.457-2.127-0.686-3.076-0.686c-0.762,0-1.358,0.164-1.789,0.492s-0.646,0.789-0.646,1.381
			c0,0.422,0.083,0.771,0.25,1.051c0.167,0.277,0.437,0.531,0.809,0.76s0.957,0.488,1.753,0.781
			c0.955,0.352,1.667,0.693,2.136,1.025c0.469,0.33,0.814,0.711,1.037,1.143C124.002,223.121,124.114,223.635,124.114,224.233z"/>
		<path class="categorizing-st8" d="M129.478,226.553c0.205,0,0.445-0.02,0.721-0.061s0.483-0.088,0.624-0.141v1.213
			c-0.146,0.064-0.374,0.127-0.681,0.189c-0.308,0.061-0.62,0.092-0.936,0.092c-1.887,0-2.83-0.994-2.83-2.98v-5.615h-1.362v-0.756
			l1.38-0.633l0.633-2.057h0.94v2.215h2.786v1.23h-2.786v5.572c0,0.557,0.133,0.984,0.4,1.283S129.004,226.553,129.478,226.553z"/>
		<path class="categorizing-st8" d="M136.619,227.846c-1.447,0-2.583-0.438-3.406-1.314c-0.823-0.875-1.235-2.082-1.235-3.617
			c0-1.547,0.384-2.777,1.151-3.695c0.768-0.916,1.805-1.375,3.111-1.375c1.213,0,2.18,0.391,2.9,1.174
			c0.721,0.781,1.081,1.84,1.081,3.176v0.959h-6.609c0.029,1.096,0.308,1.928,0.835,2.496s1.274,0.852,2.241,0.852
			c0.516,0,1.005-0.045,1.468-0.135c0.463-0.092,1.005-0.27,1.626-0.533v1.389c-0.533,0.229-1.034,0.391-1.503,0.484
			S137.257,227.846,136.619,227.846z M136.223,219.135c-0.756,0-1.354,0.244-1.793,0.73s-0.7,1.162-0.782,2.029h4.913
			c-0.012-0.902-0.22-1.588-0.624-2.057S136.961,219.135,136.223,219.135z"/>
		<path class="categorizing-st8" d="M148.39,227.67l-0.308-1.371h-0.07c-0.48,0.604-0.959,1.012-1.437,1.227c-0.478,0.213-1.08,0.32-1.806,0.32
			c-0.949,0-1.693-0.25-2.232-0.748s-0.809-1.201-0.809-2.109c0-1.957,1.544-2.982,4.632-3.076l1.635-0.061v-0.572
			c0-0.732-0.158-1.271-0.475-1.621c-0.316-0.348-0.823-0.523-1.521-0.523c-0.51,0-0.992,0.076-1.446,0.229s-0.88,0.322-1.279,0.51
			l-0.483-1.186c0.486-0.258,1.017-0.461,1.591-0.607s1.143-0.219,1.705-0.219c1.166,0,2.033,0.258,2.602,0.773
			s0.853,1.336,0.853,2.461v6.574H148.39z M145.129,226.571c0.885,0,1.581-0.238,2.087-0.715c0.507-0.479,0.76-1.156,0.76-2.035
			v-0.871l-1.424,0.062c-1.107,0.041-1.915,0.217-2.421,0.527s-0.76,0.799-0.76,1.467c0,0.504,0.154,0.891,0.461,1.16
			S144.573,226.571,145.129,226.571z"/>
		<path class="categorizing-st8" d="M164.574,227.67v-6.215c0-1.523-0.653-2.285-1.96-2.285c-0.896,0-1.556,0.262-1.978,0.783
			s-0.633,1.318-0.633,2.391v5.326h-1.573v-6.215c0-0.762-0.16-1.332-0.479-1.713s-0.819-0.572-1.499-0.572
			c-0.891,0-1.542,0.273-1.956,0.818s-0.62,1.438-0.62,2.68v5.002h-1.582v-9.65h1.274l0.237,1.318h0.088
			c0.275-0.469,0.664-0.836,1.165-1.1s1.062-0.395,1.683-0.395c1.512,0,2.496,0.539,2.953,1.617h0.088
			c0.311-0.516,0.734-0.914,1.27-1.195s1.144-0.422,1.824-0.422c1.09,0,1.906,0.281,2.448,0.844s0.813,1.461,0.813,2.697v6.285
			H164.574z"/>
	</g>
</g>
<rect x="0.5" y="128.5" class="categorizing-st10" width="1086.024" height="60"/>
<g>
	<g class="categorizing-st4">
		<path class="categorizing-st11" d="M124.114,160.234c0,1.119-0.404,2.001-1.213,2.646s-1.934,0.967-3.375,0.967
			c-1.523,0-2.701-0.202-3.533-0.606v-1.547c0.545,0.234,1.141,0.419,1.789,0.554s1.252,0.202,1.815,0.202
			c0.961,0,1.685-0.185,2.171-0.554s0.729-0.876,0.729-1.521c0-0.428-0.088-0.779-0.264-1.055s-0.47-0.533-0.883-0.773
			s-1.039-0.513-1.876-0.817c-1.189-0.434-2.039-0.945-2.549-1.533c-0.51-0.59-0.765-1.35-0.765-2.281
			c0-1.002,0.376-1.799,1.129-2.391s1.745-0.888,2.975-0.888c1.283,0,2.464,0.24,3.542,0.721l-0.501,1.389
			c-1.102-0.457-2.127-0.686-3.076-0.686c-0.762,0-1.358,0.164-1.789,0.492s-0.646,0.788-0.646,1.38c0,0.422,0.083,0.772,0.25,1.051
			s0.437,0.531,0.809,0.76s0.957,0.489,1.753,0.782c0.955,0.352,1.667,0.693,2.136,1.024s0.814,0.711,1.037,1.143
			C124.002,159.121,124.114,159.636,124.114,160.234z"/>
		<path class="categorizing-st11" d="M127.817,158.704l0.536-0.686l0.615-0.738l3.085-3.261h1.846l-3.902,4.122l4.175,5.528h-1.907l-3.349-4.5
			l-1.099,0.958v3.542h-1.564v-13.676h1.564v7.146l-0.07,1.564H127.817z"/>
		<path class="categorizing-st11" d="M139.739,163.846c-1.447,0-2.583-0.438-3.406-1.314c-0.823-0.875-1.235-2.081-1.235-3.616
			c0-1.547,0.384-2.778,1.151-3.696c0.768-0.916,1.805-1.375,3.111-1.375c1.213,0,2.18,0.391,2.9,1.174
			c0.721,0.781,1.081,1.841,1.081,3.177v0.958h-6.609c0.029,1.096,0.308,1.928,0.835,2.496s1.274,0.853,2.241,0.853
			c0.516,0,1.005-0.045,1.468-0.136s1.005-0.269,1.626-0.532v1.389c-0.533,0.229-1.034,0.39-1.503,0.483
			S140.377,163.846,139.739,163.846z M139.343,155.136c-0.756,0-1.354,0.243-1.793,0.729s-0.7,1.163-0.782,2.03h4.913
			c-0.012-0.902-0.22-1.588-0.624-2.057S140.081,155.136,139.343,155.136z"/>
		<path class="categorizing-st11" d="M148.777,162.554c0.205,0,0.445-0.021,0.721-0.062s0.483-0.088,0.624-0.141v1.213
			c-0.146,0.064-0.374,0.127-0.681,0.189c-0.308,0.061-0.62,0.092-0.936,0.092c-1.887,0-2.83-0.993-2.83-2.979v-5.616h-1.362v-0.756
			l1.38-0.633l0.633-2.057h0.94v2.215h2.786v1.23h-2.786v5.572c0,0.557,0.133,0.984,0.4,1.283S148.302,162.554,148.777,162.554z"/>
		<path class="categorizing-st11" d="M155.68,163.846c-1.389,0-2.47-0.426-3.243-1.279c-0.773-0.852-1.16-2.075-1.16-3.669
			c0-1.617,0.391-2.863,1.173-3.739s1.897-1.314,3.344-1.314c0.469,0,0.933,0.049,1.393,0.145c0.46,0.098,0.839,0.222,1.138,0.374
			l-0.483,1.318c-0.814-0.305-1.509-0.457-2.083-0.457c-0.973,0-1.69,0.307-2.153,0.919s-0.694,1.524-0.694,2.737
			c0,1.166,0.231,2.059,0.694,2.677s1.148,0.927,2.057,0.927c0.85,0,1.685-0.188,2.505-0.562v1.406
			C157.499,163.673,156.67,163.846,155.68,163.846z"/>
		<path class="categorizing-st11" d="M166.792,163.67v-6.17c0-0.785-0.174-1.369-0.523-1.754c-0.349-0.383-0.895-0.575-1.639-0.575
			c-0.979,0-1.695,0.272-2.149,0.817s-0.681,1.444-0.681,2.698v4.983h-1.582v-13.676h1.582v4.008c0,0.527-0.029,0.979-0.088,1.354
			h0.105c0.287-0.469,0.694-0.835,1.222-1.099s1.122-0.396,1.784-0.396c1.172,0,2.054,0.28,2.646,0.84s0.888,1.454,0.888,2.685
			v6.284H166.792z"/>
	</g>
</g>
<rect x="0.5" y="0.5" class="categorizing-st12" width="1086.024" height="60"/>
<g>
	<g>
		<g>
			<path class="categorizing-st8" d="M989.041,75.5v38h-88.439v-38H989.041 M990.041,74.5h-90.439v40h90.439V74.5L990.041,74.5z"/>
		</g>
		<g>
			<g>
				<g>
					<g>
						<g class="categorizing-st4">
							<path class="categorizing-st8" d="M928.951,98.743h-1.469l-5.354-8.299h-0.055l0.035,0.554c0.055,0.829,0.082,1.55,0.082,2.16v5.585
								h-1.162v-9.994h1.455l0.309,0.485l3.281,5.072l1.742,2.714h0.055c-0.009-0.109-0.027-0.5-0.055-1.172
								c-0.027-0.673-0.041-1.159-0.041-1.46v-5.64h1.176V98.743z"/>
							<path class="categorizing-st8" d="M934.687,98.88c-1.126,0-2.01-0.341-2.649-1.021c-0.64-0.682-0.96-1.619-0.96-2.813
								c0-1.203,0.298-2.161,0.895-2.874c0.598-0.714,1.404-1.07,2.42-1.07c0.943,0,1.695,0.305,2.256,0.912
								c0.561,0.609,0.842,1.433,0.842,2.472v0.745h-5.141c0.022,0.853,0.238,1.499,0.648,1.941s0.992,0.663,1.744,0.663
								c0.4,0,0.781-0.035,1.141-0.106c0.36-0.07,0.782-0.208,1.266-0.413v1.08c-0.415,0.178-0.805,0.303-1.17,0.376
								C935.614,98.844,935.183,98.88,934.687,98.88z M934.378,92.106c-0.588,0-1.053,0.189-1.395,0.567s-0.544,0.904-0.607,1.579
								h3.82c-0.009-0.702-0.17-1.235-0.484-1.6S934.953,92.106,934.378,92.106z"/>
							<path class="categorizing-st8" d="M940.552,91.238v4.833c0,0.606,0.135,1.056,0.406,1.351c0.271,0.293,0.691,0.44,1.262,0.44
								c0.77,0,1.33-0.214,1.682-0.643c0.351-0.429,0.525-1.119,0.525-2.071v-3.91h1.238v7.506h-1.012l-0.178-0.991h-0.062
								c-0.223,0.36-0.539,0.638-0.949,0.834s-0.887,0.294-1.43,0.294c-0.902,0-1.582-0.217-2.04-0.649s-0.687-1.126-0.687-2.078
								v-4.915H940.552z"/>
							<path class="categorizing-st8" d="M950.552,97.875c0.16,0,0.347-0.016,0.561-0.048c0.215-0.032,0.377-0.068,0.486-0.109v0.943
								c-0.114,0.05-0.291,0.1-0.53,0.146c-0.239,0.049-0.481,0.072-0.728,0.072c-1.468,0-2.201-0.772-2.201-2.317v-4.368h-1.061
								v-0.588l1.074-0.492l0.492-1.6h0.73v1.723h2.168v0.957h-2.168v4.334c0,0.433,0.104,0.766,0.312,0.998
								S950.183,97.875,950.552,97.875z"/>
							<path class="categorizing-st8" d="M956.595,91.101c0.333,0,0.627,0.027,0.883,0.082l-0.15,1.135c-0.278-0.063-0.55-0.096-0.814-0.096
								c-0.396,0-0.764,0.109-1.104,0.328s-0.605,0.521-0.797,0.906c-0.191,0.385-0.287,0.812-0.287,1.281v4.006h-1.23v-7.506h1.012
								l0.137,1.374h0.055c0.287-0.497,0.627-0.873,1.02-1.128C955.709,91.229,956.135,91.101,956.595,91.101z"/>
							<path class="categorizing-st8" d="M963.513,98.743l-0.238-1.066h-0.055c-0.374,0.47-0.746,0.787-1.118,0.953
								c-0.372,0.167-0.84,0.25-1.405,0.25c-0.738,0-1.316-0.193-1.736-0.581c-0.419-0.388-0.629-0.935-0.629-1.641
								c0-1.522,1.201-2.319,3.604-2.393l1.271-0.048v-0.444c0-0.569-0.123-0.99-0.369-1.261c-0.246-0.271-0.641-0.407-1.184-0.407
								c-0.396,0-0.771,0.06-1.124,0.178s-0.685,0.251-0.995,0.396l-0.375-0.923c0.378-0.2,0.79-0.357,1.236-0.472
								c0.447-0.114,0.889-0.171,1.326-0.171c0.907,0,1.582,0.2,2.023,0.602c0.442,0.401,0.664,1.039,0.664,1.914v5.113H963.513z
								 M960.978,97.889c0.688,0,1.229-0.186,1.623-0.558c0.395-0.371,0.592-0.898,0.592-1.582v-0.677l-1.107,0.048
								c-0.861,0.032-1.49,0.169-1.884,0.41s-0.591,0.622-0.591,1.142c0,0.392,0.119,0.692,0.358,0.902
								S960.544,97.889,960.978,97.889z"/>
							<path class="categorizing-st8" d="M967.964,98.743h-1.23V88.107h1.23V98.743z"/>
						</g>
					</g>
				</g>
			</g>
		</g>
		<g>
			<g>
				<g>
					<g>
						<g class="categorizing-st4">
							<path class="categorizing-st8" d="M1021.025,98.742h-5.584v-9.994h5.584v1.107h-4.326v3.117h4.074v1.094h-4.074v3.568h4.326V98.742z"/>
							<path class="categorizing-st8" d="M1024.71,98.742l-2.844-7.506h1.318l1.594,4.424c0.314,0.889,0.515,1.551,0.602,1.988h0.055
								c0.014-0.059,0.03-0.127,0.051-0.201c0.021-0.076,0.045-0.158,0.072-0.246c0.027-0.09,0.195-0.604,0.506-1.541l1.6-4.424
								h1.312l-2.852,7.506H1024.71z"/>
							<path class="categorizing-st8" d="M1030.07,89.207c0-0.273,0.068-0.473,0.208-0.596s0.312-0.184,0.517-0.184
								c0.191,0,0.358,0.061,0.502,0.184s0.215,0.322,0.215,0.596c0,0.268-0.071,0.467-0.215,0.594
								c-0.144,0.129-0.311,0.191-0.502,0.191c-0.205,0-0.377-0.062-0.517-0.191C1030.138,89.674,1030.07,89.475,1030.07,89.207z
								 M1031.396,98.742h-1.23v-7.506h1.23V98.742z"/>
							<path class="categorizing-st8" d="M1035.005,98.742h-1.23V88.106h1.23V98.742z"/>
						</g>
					</g>
				</g>
			</g>
		</g>
		<g>
			<path class="categorizing-st8" d="M825.047,114c-2.481,0-4.5-2.019-4.5-4.5v-30c0-2.481,2.019-4.5,4.5-4.5h70.055v39H825.047z"/>
			<g>
				<path class="categorizing-st8" d="M894.602,75.5v38h-69.555c-2.206,0-4-1.794-4-4v-30c0-2.206,1.794-4,4-4H894.602 M895.602,74.5h-70.555
					c-2.761,0-5,2.239-5,5v30c0,2.761,2.239,5,5,5h70.555V74.5L895.602,74.5z"/>
			</g>
		</g>
		<g>
			<path class="categorizing-st8" d="M1051.596,75.5c2.206,0,4,1.794,4,4v30c0,2.206-1.794,4-4,4h-56.555v-38H1051.596 M1051.596,74.5h-57.555v40
				h57.555c2.761,0,5-2.239,5-5v-30C1056.596,76.739,1054.357,74.5,1051.596,74.5L1051.596,74.5z"/>
		</g>
		<g>
			<g>
				<g>
					<g>
						<g class="categorizing-st4">
							<path class="categorizing-st13" d="M845.82,93.465h3.452v4.902c-0.528,0.168-1.066,0.295-1.613,0.383c-0.547,0.086-1.181,0.129-1.9,0.129
								c-1.522,0-2.7-0.451-3.534-1.354s-1.251-2.162-1.251-3.779c0-1.045,0.208-1.955,0.622-2.734s1.013-1.375,1.795-1.789
								c0.781-0.412,1.703-0.617,2.765-0.617c1.066,0,2.06,0.195,2.98,0.588l-0.479,1.094c-0.88-0.383-1.739-0.574-2.577-0.574
								c-1.189,0-2.119,0.359-2.789,1.08c-0.67,0.719-1.005,1.703-1.005,2.953c0,1.32,0.321,2.326,0.964,3.014
								c0.643,0.689,1.576,1.033,2.803,1.033c0.67,0,1.324-0.08,1.962-0.24v-2.967h-2.194V93.465z"/>
							<path class="categorizing-st13" d="M858.022,94.977c0,1.225-0.31,2.182-0.93,2.871c-0.62,0.688-1.477,1.031-2.57,1.031
								c-0.679,0-1.28-0.158-1.805-0.475s-0.927-0.771-1.21-1.363c-0.283-0.594-0.424-1.281-0.424-2.064
								c0-1.223,0.305-2.174,0.916-2.855c0.611-0.68,1.467-1.021,2.57-1.021c1.057,0,1.896,0.348,2.52,1.043
								C857.71,92.838,858.022,93.782,858.022,94.977z M852.355,94.977c0,0.943,0.186,1.66,0.557,2.148
								c0.372,0.49,0.92,0.736,1.645,0.736c0.715,0,1.26-0.246,1.634-0.736c0.374-0.488,0.561-1.205,0.561-2.148
								s-0.188-1.654-0.563-2.131c-0.377-0.475-0.927-0.713-1.651-0.713C853.081,92.133,852.355,93.08,852.355,94.977z"/>
							<path class="categorizing-st13" d="M866.492,94.977c0,1.225-0.311,2.182-0.93,2.871c-0.619,0.688-1.477,1.031-2.57,1.031
								c-0.68,0-1.281-0.158-1.805-0.475s-0.928-0.771-1.21-1.363c-0.282-0.594-0.424-1.281-0.424-2.064
								c0-1.223,0.306-2.174,0.916-2.855c0.61-0.68,1.468-1.021,2.57-1.021c1.058,0,1.897,0.348,2.519,1.043
								C866.181,92.838,866.492,93.782,866.492,94.977z M860.825,94.977c0,0.943,0.186,1.66,0.558,2.148
								c0.371,0.49,0.919,0.736,1.644,0.736c0.716,0,1.261-0.246,1.634-0.736c0.373-0.488,0.561-1.205,0.561-2.148
								s-0.188-1.654-0.564-2.131c-0.375-0.475-0.926-0.713-1.65-0.713C861.552,92.133,860.825,93.08,860.825,94.977z"/>
							<path class="categorizing-st13" d="M871.099,98.879c-0.975,0-1.732-0.336-2.27-1.012c-0.537-0.674-0.807-1.629-0.807-2.863
								c0-1.227,0.27-2.184,0.811-2.871c0.539-0.689,1.299-1.033,2.279-1.033c1.008,0,1.781,0.369,2.324,1.107h0.089
								c-0.014-0.09-0.032-0.273-0.055-0.551c-0.022-0.275-0.034-0.461-0.034-0.557v-2.994h1.23v10.637h-0.991l-0.185-1.004h-0.055
								C872.913,98.498,872.134,98.879,871.099,98.879z M871.297,97.862c0.747,0,1.293-0.205,1.638-0.613
								c0.344-0.406,0.516-1.076,0.516-2.006v-0.225c0-1.045-0.174-1.789-0.523-2.232c-0.348-0.445-0.896-0.666-1.644-0.666
								c-0.634,0-1.124,0.252-1.47,0.754c-0.346,0.504-0.52,1.223-0.52,2.158c0,0.93,0.172,1.633,0.516,2.111
								C870.155,97.621,870.65,97.862,871.297,97.862z"/>
						</g>
					</g>
				</g>
			</g>
		</g>
	</g>
	<g>
		<g>
			<g>
				<path class="categorizing-st8" d="M989.041,203.5v38h-88.439v-38H989.041 M990.041,202.5h-90.439v40h90.439V202.5L990.041,202.5z"/>
			</g>
		</g>
		<g>
			<g>
				<g>
					<g>
						<g class="categorizing-st4">
							<path class="categorizing-st8" d="M928.951,226.743h-1.469l-5.354-8.299h-0.055l0.035,0.554c0.055,0.829,0.082,1.55,0.082,2.16v5.585
								h-1.162v-9.994h1.455l0.309,0.485l3.281,5.072l1.742,2.714h0.055c-0.009-0.109-0.027-0.5-0.055-1.172
								c-0.027-0.673-0.041-1.159-0.041-1.46v-5.64h1.176V226.743z"/>
							<path class="categorizing-st8" d="M934.687,226.88c-1.126,0-2.01-0.341-2.649-1.021c-0.64-0.682-0.96-1.619-0.96-2.813
								c0-1.203,0.298-2.161,0.895-2.874c0.598-0.714,1.404-1.07,2.42-1.07c0.943,0,1.695,0.305,2.256,0.912
								c0.561,0.609,0.842,1.433,0.842,2.472v0.745h-5.141c0.022,0.853,0.238,1.499,0.648,1.941s0.992,0.663,1.744,0.663
								c0.4,0,0.781-0.035,1.141-0.106c0.36-0.07,0.782-0.208,1.266-0.413v1.08c-0.415,0.178-0.805,0.303-1.17,0.376
								C935.614,226.844,935.183,226.88,934.687,226.88z M934.378,220.106c-0.588,0-1.053,0.189-1.395,0.567
								s-0.544,0.904-0.607,1.579h3.82c-0.009-0.702-0.17-1.235-0.484-1.6S934.953,220.106,934.378,220.106z"/>
							<path class="categorizing-st8" d="M940.552,219.238v4.833c0,0.606,0.135,1.056,0.406,1.351c0.271,0.293,0.691,0.44,1.262,0.44
								c0.77,0,1.33-0.214,1.682-0.643c0.351-0.429,0.525-1.119,0.525-2.071v-3.91h1.238v7.506h-1.012l-0.178-0.991h-0.062
								c-0.223,0.36-0.539,0.638-0.949,0.834s-0.887,0.294-1.43,0.294c-0.902,0-1.582-0.217-2.04-0.649s-0.687-1.126-0.687-2.078
								v-4.915H940.552z"/>
							<path class="categorizing-st8" d="M950.552,225.875c0.16,0,0.347-0.016,0.561-0.048c0.215-0.032,0.377-0.068,0.486-0.109v0.943
								c-0.114,0.05-0.291,0.1-0.53,0.146c-0.239,0.049-0.481,0.072-0.728,0.072c-1.468,0-2.201-0.772-2.201-2.317v-4.368h-1.061
								v-0.588l1.074-0.492l0.492-1.6h0.73v1.723h2.168v0.957h-2.168v4.334c0,0.433,0.104,0.766,0.312,0.998
								S950.183,225.875,950.552,225.875z"/>
							<path class="categorizing-st8" d="M956.595,219.101c0.333,0,0.627,0.027,0.883,0.082l-0.15,1.135c-0.278-0.063-0.55-0.096-0.814-0.096
								c-0.396,0-0.764,0.109-1.104,0.328s-0.605,0.521-0.797,0.906c-0.191,0.385-0.287,0.812-0.287,1.281v4.006h-1.23v-7.506h1.012
								l0.137,1.374h0.055c0.287-0.497,0.627-0.873,1.02-1.128C955.709,219.229,956.135,219.101,956.595,219.101z"/>
							<path class="categorizing-st8" d="M963.513,226.743l-0.238-1.066h-0.055c-0.374,0.47-0.746,0.787-1.118,0.953
								c-0.372,0.167-0.84,0.25-1.405,0.25c-0.738,0-1.316-0.193-1.736-0.581c-0.419-0.388-0.629-0.935-0.629-1.641
								c0-1.522,1.201-2.319,3.604-2.393l1.271-0.048v-0.444c0-0.569-0.123-0.99-0.369-1.261c-0.246-0.271-0.641-0.407-1.184-0.407
								c-0.396,0-0.771,0.06-1.124,0.178s-0.685,0.251-0.995,0.396l-0.375-0.923c0.378-0.2,0.79-0.357,1.236-0.472
								c0.447-0.114,0.889-0.171,1.326-0.171c0.907,0,1.582,0.2,2.023,0.602c0.442,0.401,0.664,1.039,0.664,1.914v5.113H963.513z
								 M960.978,225.889c0.688,0,1.229-0.186,1.623-0.558c0.395-0.371,0.592-0.898,0.592-1.582v-0.677l-1.107,0.048
								c-0.861,0.032-1.49,0.169-1.884,0.41s-0.591,0.622-0.591,1.142c0,0.392,0.119,0.692,0.358,0.902
								S960.544,225.889,960.978,225.889z"/>
							<path class="categorizing-st8" d="M967.964,226.743h-1.23v-10.637h1.23V226.743z"/>
						</g>
					</g>
				</g>
			</g>
		</g>
		<g>
			<g>
				<g>
					<g>
						<g class="categorizing-st4">
							<path class="categorizing-st8" d="M845.82,221.465h3.452v4.902c-0.528,0.168-1.066,0.295-1.613,0.383c-0.547,0.086-1.181,0.129-1.9,0.129
								c-1.522,0-2.7-0.451-3.534-1.354s-1.251-2.162-1.251-3.779c0-1.045,0.208-1.955,0.622-2.734s1.013-1.375,1.795-1.789
								c0.781-0.412,1.703-0.617,2.765-0.617c1.066,0,2.06,0.195,2.98,0.588l-0.479,1.094c-0.88-0.383-1.739-0.574-2.577-0.574
								c-1.189,0-2.119,0.359-2.789,1.08c-0.67,0.719-1.005,1.703-1.005,2.953c0,1.32,0.321,2.326,0.964,3.014
								c0.643,0.689,1.576,1.033,2.803,1.033c0.67,0,1.324-0.08,1.962-0.24v-2.967h-2.194V221.465z"/>
							<path class="categorizing-st8" d="M858.022,222.977c0,1.225-0.31,2.182-0.93,2.871c-0.62,0.688-1.477,1.031-2.57,1.031
								c-0.679,0-1.28-0.158-1.805-0.475s-0.927-0.771-1.21-1.363c-0.283-0.594-0.424-1.281-0.424-2.064
								c0-1.223,0.305-2.174,0.916-2.855c0.611-0.68,1.467-1.021,2.57-1.021c1.057,0,1.896,0.348,2.52,1.043
								C857.71,220.838,858.022,221.782,858.022,222.977z M852.355,222.977c0,0.943,0.186,1.66,0.557,2.148
								c0.372,0.49,0.92,0.736,1.645,0.736c0.715,0,1.26-0.246,1.634-0.736c0.374-0.488,0.561-1.205,0.561-2.148
								s-0.188-1.654-0.563-2.131c-0.377-0.475-0.927-0.713-1.651-0.713C853.081,220.133,852.355,221.08,852.355,222.977z"/>
							<path class="categorizing-st8" d="M866.492,222.977c0,1.225-0.311,2.182-0.93,2.871c-0.619,0.688-1.477,1.031-2.57,1.031
								c-0.68,0-1.281-0.158-1.805-0.475s-0.928-0.771-1.21-1.363c-0.282-0.594-0.424-1.281-0.424-2.064
								c0-1.223,0.306-2.174,0.916-2.855c0.61-0.68,1.468-1.021,2.57-1.021c1.058,0,1.897,0.348,2.519,1.043
								C866.181,220.838,866.492,221.782,866.492,222.977z M860.825,222.977c0,0.943,0.186,1.66,0.558,2.148
								c0.371,0.49,0.919,0.736,1.644,0.736c0.716,0,1.261-0.246,1.634-0.736c0.373-0.488,0.561-1.205,0.561-2.148
								s-0.188-1.654-0.564-2.131c-0.375-0.475-0.926-0.713-1.65-0.713C861.552,220.133,860.825,221.08,860.825,222.977z"/>
							<path class="categorizing-st8" d="M871.099,226.879c-0.975,0-1.732-0.336-2.27-1.012c-0.537-0.674-0.807-1.629-0.807-2.863
								c0-1.227,0.27-2.184,0.811-2.871c0.539-0.689,1.299-1.033,2.279-1.033c1.008,0,1.781,0.369,2.324,1.107h0.089
								c-0.014-0.09-0.032-0.273-0.055-0.551c-0.022-0.275-0.034-0.461-0.034-0.557v-2.994h1.23v10.637h-0.991l-0.185-1.004h-0.055
								C872.913,226.498,872.134,226.879,871.099,226.879z M871.297,225.862c0.747,0,1.293-0.205,1.638-0.613
								c0.344-0.406,0.516-1.076,0.516-2.006v-0.225c0-1.045-0.174-1.789-0.523-2.232c-0.348-0.445-0.896-0.666-1.644-0.666
								c-0.634,0-1.124,0.252-1.47,0.754c-0.346,0.504-0.52,1.223-0.52,2.158c0,0.93,0.172,1.633,0.516,2.111
								C870.155,225.621,870.65,225.862,871.297,225.862z"/>
						</g>
					</g>
				</g>
			</g>
		</g>
	</g>
	<g>
		<g>
			<g>
				<path class="categorizing-st11" d="M989.041,139.5v38h-88.439v-38H989.041 M990.041,138.5h-90.439v40h90.439V138.5L990.041,138.5z"/>
			</g>
		</g>
		<g>
			<g>
				<g>
					<g>
						<g class="categorizing-st4">
							<path class="categorizing-st11" d="M928.951,162.743h-1.469l-5.354-8.299h-0.055l0.035,0.554c0.055,0.829,0.082,1.55,0.082,2.16v5.585
								h-1.162v-9.994h1.455l0.309,0.485l3.281,5.072l1.742,2.714h0.055c-0.009-0.109-0.027-0.5-0.055-1.172
								c-0.027-0.673-0.041-1.159-0.041-1.46v-5.64h1.176V162.743z"/>
							<path class="categorizing-st11" d="M934.687,162.88c-1.126,0-2.01-0.341-2.649-1.021c-0.64-0.682-0.96-1.619-0.96-2.813
								c0-1.203,0.298-2.161,0.895-2.874c0.598-0.714,1.404-1.07,2.42-1.07c0.943,0,1.695,0.305,2.256,0.912
								c0.561,0.609,0.842,1.433,0.842,2.472v0.745h-5.141c0.022,0.853,0.238,1.499,0.648,1.941s0.992,0.663,1.744,0.663
								c0.4,0,0.781-0.035,1.141-0.106c0.36-0.07,0.782-0.208,1.266-0.413v1.08c-0.415,0.178-0.805,0.303-1.17,0.376
								C935.614,162.844,935.183,162.88,934.687,162.88z M934.378,156.106c-0.588,0-1.053,0.189-1.395,0.567
								s-0.544,0.904-0.607,1.579h3.82c-0.009-0.702-0.17-1.235-0.484-1.6S934.953,156.106,934.378,156.106z"/>
							<path class="categorizing-st11" d="M940.552,155.238v4.833c0,0.606,0.135,1.056,0.406,1.351c0.271,0.293,0.691,0.44,1.262,0.44
								c0.77,0,1.33-0.214,1.682-0.643c0.351-0.429,0.525-1.119,0.525-2.071v-3.91h1.238v7.506h-1.012l-0.178-0.991h-0.062
								c-0.223,0.36-0.539,0.638-0.949,0.834s-0.887,0.294-1.43,0.294c-0.902,0-1.582-0.217-2.04-0.649s-0.687-1.126-0.687-2.078
								v-4.915H940.552z"/>
							<path class="categorizing-st11" d="M950.552,161.875c0.16,0,0.347-0.016,0.561-0.048c0.215-0.032,0.377-0.068,0.486-0.109v0.943
								c-0.114,0.05-0.291,0.1-0.53,0.146c-0.239,0.049-0.481,0.072-0.728,0.072c-1.468,0-2.201-0.772-2.201-2.317v-4.368h-1.061
								v-0.588l1.074-0.492l0.492-1.6h0.73v1.723h2.168v0.957h-2.168v4.334c0,0.433,0.104,0.766,0.312,0.998
								S950.183,161.875,950.552,161.875z"/>
							<path class="categorizing-st11" d="M956.595,155.101c0.333,0,0.627,0.027,0.883,0.082l-0.15,1.135c-0.278-0.063-0.55-0.096-0.814-0.096
								c-0.396,0-0.764,0.109-1.104,0.328s-0.605,0.521-0.797,0.906c-0.191,0.385-0.287,0.812-0.287,1.281v4.006h-1.23v-7.506h1.012
								l0.137,1.374h0.055c0.287-0.497,0.627-0.873,1.02-1.128C955.709,155.229,956.135,155.101,956.595,155.101z"/>
							<path class="categorizing-st11" d="M963.513,162.743l-0.238-1.066h-0.055c-0.374,0.47-0.746,0.787-1.118,0.953
								c-0.372,0.167-0.84,0.25-1.405,0.25c-0.738,0-1.316-0.193-1.736-0.581c-0.419-0.388-0.629-0.935-0.629-1.641
								c0-1.522,1.201-2.319,3.604-2.393l1.271-0.048v-0.444c0-0.569-0.123-0.99-0.369-1.261c-0.246-0.271-0.641-0.407-1.184-0.407
								c-0.396,0-0.771,0.06-1.124,0.178s-0.685,0.251-0.995,0.396l-0.375-0.923c0.378-0.2,0.79-0.357,1.236-0.472
								c0.447-0.114,0.889-0.171,1.326-0.171c0.907,0,1.582,0.2,2.023,0.602c0.442,0.401,0.664,1.039,0.664,1.914v5.113H963.513z
								 M960.978,161.889c0.688,0,1.229-0.186,1.623-0.558c0.395-0.371,0.592-0.898,0.592-1.582v-0.677l-1.107,0.048
								c-0.861,0.032-1.49,0.169-1.884,0.41s-0.591,0.622-0.591,1.142c0,0.392,0.119,0.692,0.358,0.902
								S960.544,161.889,960.978,161.889z"/>
							<path class="categorizing-st11" d="M967.964,162.743h-1.23v-10.637h1.23V162.743z"/>
						</g>
					</g>
				</g>
			</g>
		</g>
		<g>
			<g>
				<g>
					<g>
						<g class="categorizing-st4">
							<path class="categorizing-st11" d="M845.82,157.465h3.452v4.902c-0.528,0.168-1.066,0.295-1.613,0.383c-0.547,0.086-1.181,0.129-1.9,0.129
								c-1.522,0-2.7-0.451-3.534-1.354s-1.251-2.162-1.251-3.779c0-1.045,0.208-1.955,0.622-2.734s1.013-1.375,1.795-1.789
								c0.781-0.412,1.703-0.617,2.765-0.617c1.066,0,2.06,0.195,2.98,0.588l-0.479,1.094c-0.88-0.383-1.739-0.574-2.577-0.574
								c-1.189,0-2.119,0.359-2.789,1.08c-0.67,0.719-1.005,1.703-1.005,2.953c0,1.32,0.321,2.326,0.964,3.014
								c0.643,0.689,1.576,1.033,2.803,1.033c0.67,0,1.324-0.08,1.962-0.24v-2.967h-2.194V157.465z"/>
							<path class="categorizing-st11" d="M858.022,158.977c0,1.225-0.31,2.182-0.93,2.871c-0.62,0.688-1.477,1.031-2.57,1.031
								c-0.679,0-1.28-0.158-1.805-0.475s-0.927-0.771-1.21-1.363c-0.283-0.594-0.424-1.281-0.424-2.064
								c0-1.223,0.305-2.174,0.916-2.855c0.611-0.68,1.467-1.021,2.57-1.021c1.057,0,1.896,0.348,2.52,1.043
								C857.71,156.838,858.022,157.782,858.022,158.977z M852.355,158.977c0,0.943,0.186,1.66,0.557,2.148
								c0.372,0.49,0.92,0.736,1.645,0.736c0.715,0,1.26-0.246,1.634-0.736c0.374-0.488,0.561-1.205,0.561-2.148
								s-0.188-1.654-0.563-2.131c-0.377-0.475-0.927-0.713-1.651-0.713C853.081,156.133,852.355,157.08,852.355,158.977z"/>
							<path class="categorizing-st11" d="M866.492,158.977c0,1.225-0.311,2.182-0.93,2.871c-0.619,0.688-1.477,1.031-2.57,1.031
								c-0.68,0-1.281-0.158-1.805-0.475s-0.928-0.771-1.21-1.363c-0.282-0.594-0.424-1.281-0.424-2.064
								c0-1.223,0.306-2.174,0.916-2.855c0.61-0.68,1.468-1.021,2.57-1.021c1.058,0,1.897,0.348,2.519,1.043
								C866.181,156.838,866.492,157.782,866.492,158.977z M860.825,158.977c0,0.943,0.186,1.66,0.558,2.148
								c0.371,0.49,0.919,0.736,1.644,0.736c0.716,0,1.261-0.246,1.634-0.736c0.373-0.488,0.561-1.205,0.561-2.148
								s-0.188-1.654-0.564-2.131c-0.375-0.475-0.926-0.713-1.65-0.713C861.552,156.133,860.825,157.08,860.825,158.977z"/>
							<path class="categorizing-st11" d="M871.099,162.879c-0.975,0-1.732-0.336-2.27-1.012c-0.537-0.674-0.807-1.629-0.807-2.863
								c0-1.227,0.27-2.184,0.811-2.871c0.539-0.689,1.299-1.033,2.279-1.033c1.008,0,1.781,0.369,2.324,1.107h0.089
								c-0.014-0.09-0.032-0.273-0.055-0.551c-0.022-0.275-0.034-0.461-0.034-0.557v-2.994h1.23v10.637h-0.991l-0.185-1.004h-0.055
								C872.913,162.498,872.134,162.879,871.099,162.879z M871.297,161.862c0.747,0,1.293-0.205,1.638-0.613
								c0.344-0.406,0.516-1.076,0.516-2.006v-0.225c0-1.045-0.174-1.789-0.523-2.232c-0.348-0.445-0.896-0.666-1.644-0.666
								c-0.634,0-1.124,0.252-1.47,0.754c-0.346,0.504-0.52,1.223-0.52,2.158c0,0.93,0.172,1.633,0.516,2.111
								C870.155,161.621,870.65,161.862,871.297,161.862z"/>
						</g>
					</g>
				</g>
			</g>
		</g>
		<g>
			<g>
				<g>
					<g class="categorizing-st4">
						<path class="categorizing-st11" d="M1021.025,162.742h-5.584v-9.994h5.584v1.107h-4.326v3.117h4.074v1.094h-4.074v3.568h4.326V162.742z"/>
						<path class="categorizing-st11" d="M1024.71,162.742l-2.844-7.506h1.318l1.594,4.424c0.314,0.889,0.515,1.551,0.602,1.988h0.055
							c0.014-0.059,0.03-0.127,0.051-0.201c0.021-0.076,0.045-0.158,0.072-0.246c0.027-0.09,0.195-0.604,0.506-1.541l1.6-4.424
							h1.312l-2.852,7.506H1024.71z"/>
						<path class="categorizing-st11" d="M1030.07,153.207c0-0.273,0.068-0.473,0.208-0.596s0.312-0.184,0.517-0.184
							c0.191,0,0.358,0.061,0.502,0.184s0.215,0.322,0.215,0.596c0,0.268-0.071,0.467-0.215,0.594
							c-0.144,0.129-0.311,0.191-0.502,0.191c-0.205,0-0.377-0.062-0.517-0.191C1030.138,153.674,1030.07,153.475,1030.07,153.207z
							 M1031.396,162.742h-1.23v-7.506h1.23V162.742z"/>
						<path class="categorizing-st11" d="M1035.005,162.742h-1.23v-10.637h1.23V162.742z"/>
					</g>
				</g>
			</g>
		</g>
		<g>
			<g>
				<path class="categorizing-st11" d="M894.602,139.5v38h-69.555c-2.206,0-4-1.794-4-4v-30c0-2.206,1.794-4,4-4H894.602 M895.602,138.5h-70.555
					c-2.761,0-5,2.239-5,5v30c0,2.761,2.239,5,5,5h70.555V138.5L895.602,138.5z"/>
			</g>
		</g>
		<g>
			<g>
				<path class="categorizing-st11" d="M1051.596,139.5c2.206,0,4,1.794,4,4v30c0,2.206-1.794,4-4,4h-56.555v-38H1051.596 M1051.596,138.5
					h-57.555v40h57.555c2.761,0,5-2.239,5-5v-30C1056.596,140.739,1054.357,138.5,1051.596,138.5L1051.596,138.5z"/>
			</g>
		</g>
	</g>
	<g>
		<g>
			<rect x="900.102" y="11" class="categorizing-st8" width="89.438" height="39"/>
			<g>
				<path class="categorizing-st8" d="M989.041,11.5v38h-88.439v-38H989.041 M990.041,10.5h-90.439v40h90.439V10.5L990.041,10.5z"/>
			</g>
		</g>
		<g>
			<g>
				<g>
					<g>
						<g class="categorizing-st4">
							<path class="categorizing-st11" d="M928.863,34.742h-1.471l-5.352-8.299h-0.055l0.033,0.555c0.055,0.828,0.082,1.549,0.082,2.16v5.584
								h-1.162v-9.994h1.457l0.307,0.486l3.281,5.072l1.744,2.713h0.055c-0.01-0.109-0.027-0.5-0.055-1.172
								c-0.027-0.672-0.041-1.158-0.041-1.459v-5.641h1.176V34.742z"/>
							<path class="categorizing-st11" d="M934.597,34.879c-1.125,0-2.008-0.34-2.648-1.021s-0.961-1.619-0.961-2.813
								c0-1.203,0.299-2.162,0.896-2.875c0.597-0.713,1.403-1.07,2.42-1.07c0.943,0,1.695,0.305,2.256,0.912
								c0.561,0.609,0.84,1.434,0.84,2.473v0.744h-5.141c0.023,0.854,0.24,1.5,0.65,1.941c0.41,0.443,0.99,0.664,1.742,0.664
								c0.401,0,0.782-0.035,1.143-0.107c0.359-0.07,0.781-0.207,1.264-0.412v1.08c-0.414,0.178-0.804,0.303-1.168,0.375
								C935.525,34.844,935.094,34.879,934.597,34.879z M934.29,28.106c-0.588,0-1.053,0.189-1.395,0.566
								c-0.342,0.379-0.545,0.904-0.609,1.58h3.822c-0.01-0.703-0.172-1.236-0.486-1.6C935.308,28.287,934.865,28.106,934.29,28.106
								z"/>
							<path class="categorizing-st11" d="M940.462,27.237v4.834c0,0.605,0.137,1.055,0.407,1.35c0.271,0.293,0.691,0.441,1.261,0.441
								c0.771,0,1.331-0.215,1.682-0.643c0.352-0.43,0.527-1.119,0.527-2.072v-3.91h1.236v7.506h-1.012l-0.178-0.99h-0.061
								c-0.224,0.359-0.541,0.637-0.951,0.834c-0.41,0.195-0.886,0.293-1.428,0.293c-0.902,0-1.583-0.217-2.041-0.648
								c-0.458-0.434-0.688-1.127-0.688-2.078v-4.916H940.462z"/>
							<path class="categorizing-st11" d="M950.464,33.875c0.159,0,0.346-0.016,0.561-0.049c0.214-0.031,0.375-0.068,0.484-0.109v0.943
								c-0.113,0.051-0.29,0.1-0.529,0.146c-0.239,0.049-0.482,0.072-0.729,0.072c-1.467,0-2.201-0.771-2.201-2.316v-4.369h-1.059
								v-0.588l1.072-0.492l0.492-1.6h0.732v1.723h2.166v0.957h-2.166v4.334c0,0.434,0.104,0.766,0.311,0.998
								S950.095,33.875,950.464,33.875z"/>
							<path class="categorizing-st11" d="M956.507,27.1c0.332,0,0.626,0.027,0.881,0.082l-0.15,1.135c-0.277-0.062-0.549-0.096-0.812-0.096
								c-0.396,0-0.766,0.109-1.104,0.328s-0.604,0.521-0.796,0.906s-0.287,0.812-0.287,1.281v4.006h-1.23v-7.506h1.012l0.137,1.375
								h0.055c0.287-0.498,0.626-0.873,1.018-1.129C955.62,27.229,956.046,27.1,956.507,27.1z"/>
							<path class="categorizing-st11" d="M963.425,34.742l-0.24-1.066h-0.055c-0.373,0.471-0.746,0.787-1.117,0.953
								c-0.371,0.168-0.84,0.25-1.404,0.25c-0.738,0-1.317-0.193-1.736-0.58c-0.42-0.389-0.629-0.936-0.629-1.641
								c0-1.523,1.2-2.32,3.602-2.393l1.271-0.049v-0.443c0-0.57-0.123-0.99-0.369-1.262s-0.64-0.406-1.182-0.406
								c-0.396,0-0.771,0.059-1.125,0.178c-0.354,0.117-0.685,0.25-0.994,0.396l-0.377-0.924c0.379-0.199,0.791-0.357,1.238-0.471
								c0.446-0.115,0.889-0.172,1.326-0.172c0.906,0,1.581,0.201,2.023,0.602c0.441,0.402,0.662,1.039,0.662,1.914v5.113H963.425z
								 M960.888,33.889c0.688,0,1.23-0.186,1.624-0.559c0.394-0.371,0.591-0.898,0.591-1.582v-0.676l-1.107,0.047
								c-0.861,0.033-1.488,0.17-1.883,0.41c-0.395,0.242-0.592,0.623-0.592,1.143c0,0.391,0.12,0.691,0.359,0.902
								C960.12,33.783,960.455,33.889,960.888,33.889z"/>
							<path class="categorizing-st11" d="M967.874,34.742h-1.23V24.106h1.23V34.742z"/>
						</g>
					</g>
				</g>
			</g>
		</g>
		<g>
			<g>
				<g>
					<g>
						<g class="categorizing-st4">
							<path class="categorizing-st8" d="M1021.025,34.742h-5.584v-9.994h5.584v1.107h-4.326v3.117h4.074v1.094h-4.074v3.568h4.326V34.742z"/>
							<path class="categorizing-st8" d="M1024.71,34.742l-2.844-7.506h1.318l1.594,4.423c0.314,0.889,0.515,1.552,0.602,1.989h0.055
								c0.014-0.06,0.03-0.127,0.051-0.201c0.021-0.076,0.045-0.158,0.072-0.246c0.027-0.09,0.195-0.604,0.506-1.542l1.6-4.423
								h1.312l-2.852,7.506H1024.71z"/>
							<path class="categorizing-st8" d="M1030.07,25.206c0-0.273,0.068-0.472,0.208-0.595s0.312-0.185,0.517-0.185
								c0.191,0,0.358,0.062,0.502,0.185s0.215,0.321,0.215,0.595c0,0.269-0.071,0.467-0.215,0.595s-0.311,0.191-0.502,0.191
								c-0.205,0-0.377-0.063-0.517-0.191S1030.07,25.475,1030.07,25.206z M1031.396,34.742h-1.23v-7.506h1.23V34.742z"/>
							<path class="categorizing-st8" d="M1035.005,34.742h-1.23V24.106h1.23V34.742z"/>
						</g>
					</g>
				</g>
			</g>
		</g>
		<g>
			<path class="categorizing-st8" d="M894.602,11.5v38h-69.555c-2.206,0-4-1.794-4-4v-30c0-2.206,1.794-4,4-4H894.602 M895.602,10.5h-70.555
				c-2.761,0-5,2.239-5,5v30c0,2.761,2.239,5,5,5h70.555V10.5L895.602,10.5z"/>
		</g>
		<g>
			<path class="categorizing-st8" d="M1051.596,11.5c2.206,0,4,1.794,4,4v30c0,2.206-1.794,4-4,4h-56.555v-38H1051.596 M1051.596,10.5h-57.555v40
				h57.555c2.761,0,5-2.239,5-5v-30C1056.596,12.739,1054.357,10.5,1051.596,10.5L1051.596,10.5z"/>
		</g>
		<g>
			<g>
				<g>
					<g>
						<g class="categorizing-st4">
							<path class="categorizing-st8" d="M845.654,29.465h3.452v4.902c-0.528,0.168-1.066,0.295-1.613,0.383c-0.547,0.086-1.181,0.129-1.9,0.129
								c-1.522,0-2.7-0.451-3.534-1.354s-1.251-2.162-1.251-3.779c0-1.045,0.208-1.955,0.622-2.734s1.013-1.375,1.795-1.789
								c0.781-0.412,1.703-0.617,2.765-0.617c1.066,0,2.06,0.195,2.98,0.588l-0.479,1.094c-0.88-0.383-1.739-0.574-2.577-0.574
								c-1.189,0-2.119,0.359-2.789,1.08c-0.67,0.719-1.005,1.703-1.005,2.953c0,1.32,0.321,2.326,0.964,3.014
								c0.643,0.689,1.576,1.033,2.803,1.033c0.67,0,1.324-0.08,1.962-0.24v-2.967h-2.194V29.465z"/>
							<path class="categorizing-st8" d="M857.856,30.977c0,1.225-0.31,2.182-0.93,2.871c-0.62,0.688-1.477,1.031-2.57,1.031
								c-0.679,0-1.28-0.158-1.805-0.475s-0.927-0.771-1.21-1.363c-0.283-0.594-0.424-1.281-0.424-2.064
								c0-1.223,0.305-2.174,0.916-2.855c0.611-0.68,1.467-1.021,2.57-1.021c1.057,0,1.896,0.348,2.52,1.043
								C857.544,28.838,857.856,29.782,857.856,30.977z M852.189,30.977c0,0.943,0.186,1.66,0.557,2.148
								c0.372,0.49,0.92,0.736,1.645,0.736c0.715,0,1.26-0.246,1.634-0.736c0.374-0.488,0.561-1.205,0.561-2.148
								s-0.188-1.654-0.563-2.131c-0.377-0.475-0.927-0.713-1.651-0.713C852.915,28.133,852.189,29.08,852.189,30.977z"/>
							<path class="categorizing-st8" d="M866.326,30.977c0,1.225-0.311,2.182-0.93,2.871c-0.619,0.688-1.477,1.031-2.57,1.031
								c-0.68,0-1.281-0.158-1.805-0.475s-0.928-0.771-1.21-1.363c-0.282-0.594-0.424-1.281-0.424-2.064
								c0-1.223,0.306-2.174,0.916-2.855c0.61-0.68,1.468-1.021,2.57-1.021c1.058,0,1.897,0.348,2.519,1.043
								C866.015,28.838,866.326,29.782,866.326,30.977z M860.659,30.977c0,0.943,0.186,1.66,0.558,2.148
								c0.371,0.49,0.919,0.736,1.644,0.736c0.716,0,1.261-0.246,1.634-0.736c0.373-0.488,0.561-1.205,0.561-2.148
								s-0.188-1.654-0.564-2.131c-0.375-0.475-0.926-0.713-1.65-0.713C861.386,28.133,860.659,29.08,860.659,30.977z"/>
							<path class="categorizing-st8" d="M870.933,34.879c-0.975,0-1.732-0.336-2.27-1.012c-0.537-0.674-0.807-1.629-0.807-2.863
								c0-1.227,0.27-2.184,0.811-2.871c0.539-0.689,1.299-1.033,2.279-1.033c1.008,0,1.781,0.369,2.324,1.107h0.089
								c-0.014-0.09-0.032-0.273-0.055-0.551c-0.022-0.275-0.034-0.461-0.034-0.557v-2.994h1.23v10.637h-0.991l-0.185-1.004h-0.055
								C872.747,34.498,871.968,34.879,870.933,34.879z M871.131,33.862c0.747,0,1.293-0.205,1.638-0.613
								c0.344-0.406,0.516-1.076,0.516-2.006v-0.225c0-1.045-0.174-1.789-0.523-2.232c-0.348-0.445-0.896-0.666-1.644-0.666
								c-0.634,0-1.124,0.252-1.47,0.754c-0.346,0.504-0.52,1.223-0.52,2.158c0,0.93,0.172,1.633,0.516,2.111
								C869.989,33.621,870.484,33.862,871.131,33.862z"/>
						</g>
					</g>
				</g>
			</g>
		</g>
	</g>
	<g>
		<path class="categorizing-st8" d="M894.602,203.5v38h-69.555c-2.206,0-4-1.794-4-4v-30c0-2.206,1.794-4,4-4H894.602 M895.602,202.5h-70.555
			c-2.761,0-5,2.239-5,5v30c0,2.761,2.239,5,5,5h70.555V202.5L895.602,202.5z"/>
	</g>
	<g>
		<path class="categorizing-st8" d="M994.54,242v-39h57.055c2.481,0,4.5,2.019,4.5,4.5v30c0,2.481-2.019,4.5-4.5,4.5H994.54z"/>
		<g>
			<path class="categorizing-st8" d="M1051.596,203.5c2.206,0,4,1.794,4,4v30c0,2.206-1.794,4-4,4h-56.555v-38H1051.596 M1051.596,202.5h-57.555
				v40h57.555c2.761,0,5-2.239,5-5v-30C1056.596,204.739,1054.357,202.5,1051.596,202.5L1051.596,202.5z"/>
		</g>
	</g>
	<g>
		<g>
			<g>
				<g class="categorizing-st4">
					<path class="categorizing-st14" d="M1021.025,225.744h-5.584v-9.994h5.584v1.107h-4.326v3.117h4.074v1.094h-4.074v3.568h4.326V225.744z"/>
					<path class="categorizing-st14" d="M1024.71,225.744l-2.844-7.506h1.318l1.594,4.422c0.314,0.889,0.515,1.553,0.602,1.99h0.055
						c0.014-0.061,0.03-0.127,0.051-0.201c0.021-0.076,0.045-0.158,0.072-0.246c0.027-0.09,0.195-0.604,0.506-1.543l1.6-4.422h1.312
						l-2.852,7.506H1024.71z"/>
					<path class="categorizing-st14" d="M1030.07,216.207c0-0.273,0.068-0.471,0.208-0.594s0.312-0.186,0.517-0.186
						c0.191,0,0.358,0.062,0.502,0.186s0.215,0.32,0.215,0.594c0,0.27-0.071,0.467-0.215,0.596
						c-0.144,0.127-0.311,0.191-0.502,0.191c-0.205,0-0.377-0.064-0.517-0.191C1030.138,216.674,1030.07,216.477,1030.07,216.207z
						 M1031.396,225.744h-1.23v-7.506h1.23V225.744z"/>
					<path class="categorizing-st14" d="M1035.005,225.744h-1.23v-10.637h1.23V225.744z"/>
				</g>
			</g>
		</g>
	</g>
</g>
<g class="categorizing-st4">
	<path class="categorizing-st8" d="M122.409,27.885h4.438v6.302c-0.68,0.217-1.371,0.381-2.074,0.492s-1.518,0.167-2.443,0.167
		c-1.957,0-3.472-0.58-4.544-1.74c-1.072-1.16-1.608-2.78-1.608-4.86c0-1.342,0.267-2.514,0.8-3.516s1.302-1.768,2.307-2.298
		s2.19-0.796,3.555-0.796c1.371,0,2.648,0.252,3.832,0.756l-0.615,1.406c-1.131-0.492-2.235-0.738-3.313-0.738
		c-1.529,0-2.725,0.463-3.586,1.389s-1.292,2.191-1.292,3.797c0,1.699,0.413,2.991,1.239,3.876c0.826,0.885,2.027,1.327,3.604,1.327
		c0.861,0,1.702-0.103,2.522-0.308v-3.814h-2.821V27.885z"/>
	<path class="categorizing-st8" d="M141.757,34.67v-6.214c0-1.523-0.653-2.285-1.96-2.285c-0.896,0-1.556,0.261-1.978,0.782
		s-0.633,1.318-0.633,2.391v5.326h-1.573v-6.214c0-0.762-0.16-1.333-0.479-1.714s-0.819-0.571-1.499-0.571
		c-0.891,0-1.542,0.272-1.956,0.817s-0.62,1.438-0.62,2.681v5.001h-1.582v-9.65h1.274l0.237,1.318h0.088
		c0.275-0.469,0.664-0.835,1.165-1.099s1.062-0.396,1.683-0.396c1.512,0,2.496,0.539,2.953,1.617h0.088
		c0.311-0.516,0.734-0.914,1.27-1.195s1.144-0.422,1.824-0.422c1.09,0,1.906,0.281,2.448,0.844s0.813,1.462,0.813,2.698v6.284
		H141.757z"/>
	<path class="categorizing-st8" d="M152.035,34.67l-0.308-1.371h-0.07c-0.48,0.604-0.959,1.013-1.437,1.227c-0.478,0.213-1.08,0.32-1.806,0.32
		c-0.949,0-1.693-0.249-2.232-0.747s-0.809-1.201-0.809-2.109c0-1.957,1.544-2.982,4.632-3.076l1.635-0.062v-0.571
		c0-0.732-0.158-1.272-0.475-1.622c-0.316-0.348-0.823-0.522-1.521-0.522c-0.51,0-0.992,0.076-1.446,0.229s-0.88,0.322-1.279,0.51
		l-0.483-1.187c0.486-0.258,1.017-0.46,1.591-0.606s1.143-0.22,1.705-0.22c1.166,0,2.033,0.258,2.602,0.773s0.853,1.336,0.853,2.461
		v6.574H152.035z M148.774,33.572c0.885,0,1.581-0.238,2.087-0.716s0.76-1.156,0.76-2.035v-0.87l-1.424,0.062
		c-1.107,0.041-1.915,0.217-2.421,0.527s-0.76,0.8-0.76,1.468c0,0.504,0.154,0.891,0.461,1.16S148.217,33.572,148.774,33.572z"/>
	<path class="categorizing-st8" d="M155.817,22.409c0-0.352,0.089-0.606,0.268-0.765s0.4-0.237,0.664-0.237c0.246,0,0.461,0.079,0.646,0.237
		s0.277,0.413,0.277,0.765c0,0.346-0.092,0.601-0.277,0.765s-0.4,0.246-0.646,0.246c-0.264,0-0.485-0.082-0.664-0.246
		S155.817,22.755,155.817,22.409z M157.522,34.67h-1.582v-9.65h1.582V34.67z"/>
	<path class="categorizing-st8" d="M161.929,34.67h-1.582V20.994h1.582V34.67z"/>
</g>
<g>
	<rect x="41.331" y="17.08" class="categorizing-st6" width="38.865" height="26.84"/>
	<polyline class="categorizing-st6" points="41.331,17.08 60.763,33.962 80.196,17.08 	"/>
</g>
<g>
	<path class="categorizing-st6" d="M75.063,111.091H45.882c-1.1,0-2-0.9-2-2V79.909c0-1.1,0.9-2,2-2h29.182c1.1,0,2,0.9,2,2v29.182
		C77.063,110.191,76.163,111.091,75.063,111.091z"/>
	<rect x="57.556" y="84.083" class="categorizing-st6" width="5.833" height="20.833"/>
</g>
<g>
	<polygon class="categorizing-st15" points="70.019,156.95 60.763,156.95 51.507,156.95 42.22,150.677 60.763,175.071 79.306,150.677 	"/>
	<polyline class="categorizing-st15" points="42.22,150.677 48.737,144.16 54.029,141.929 60.763,141.929 	"/>
	<polyline class="categorizing-st15" points="60.763,146.533 53.66,146.533 48.737,144.16 	"/>
	<line class="categorizing-st15" x1="53.66" y1="146.533" x2="51.507" y2="156.95"/>
	<polyline class="categorizing-st15" points="79.306,150.677 72.79,144.16 67.498,141.929 60.763,141.929 	"/>
	<polyline class="categorizing-st15" points="60.763,146.533 67.867,146.533 72.79,144.16 	"/>
	<line class="categorizing-st15" x1="67.867" y1="146.533" x2="70.019" y2="156.95"/>
	<line class="categorizing-st15" x1="51.507" y1="156.95" x2="60.763" y2="175.071"/>
	<line class="categorizing-st15" x1="70.019" y1="156.95" x2="60.763" y2="175.071"/>
</g>
<g>
	<circle class="categorizing-st6" cx="60.763" cy="222.5" r="19.5"/>
	<g>
		<circle class="categorizing-st6" cx="64.857" cy="218.406" r="5.922"/>
		<circle class="categorizing-st6" cx="54.936" cy="228.327" r="4.189"/>
		<line class="categorizing-st6" x1="58.935" y1="218.57" x2="55.631" y2="224.202"/>
		<line class="categorizing-st6" x1="64.696" y1="224.327" x2="59.061" y2="227.633"/>
	</g>
	<line class="categorizing-st6" x1="51.974" y1="225.365" x2="42.647" y2="216.038"/>
</g>
</svg>
