<?xml version="1.0" encoding="utf-8"?>
<svg version="1.1" id="categorizing-alert" xmlns="http://www.w3.org/2000/svg" xmlns:xlink="http://www.w3.org/1999/xlink" x="0px" y="0px"
	 viewBox="238 268.388 1087.024 256.612" style="enable-background:new 238 268.388 1087.024 256.612;" xml:space="preserve">
<style type="text/css">
	.categorizing-st0{fill:#7AC442;stroke:#FFFFFF;stroke-miterlimit:10;}
	.categorizing-st1{opacity:0.97;}
	.categorizing-st2{fill:rgba(0,0,0,0); stroke:#F6F4F4}
	.categorizing-st3{fill:#E8212D;stroke:#FFFFFF;stroke-miterlimit:10;}
	.categorizing-st4{fill:#F9F7F7;stroke:#FFFFFF;stroke-miterlimit:10;enable-background:new    ;}
	.categorizing-st5{fill:#F6F4F4;}
	.categorizing-st6{fill:#4F4C4F;stroke:#FFFFFF;stroke-miterlimit:10;}
	.categorizing-st9{fill:none;stroke:#F2F0F0;stroke-miterlimit:10;}
	.categorizing-st10{fill:none;stroke:#FFFFFF;stroke-linecap:round;stroke-linejoin:round;stroke-miterlimit:10;}
</style>


<g class="categorizing-alert--gmail active" data-category-alert="neutral" data-category-app="gmail">
	<rect x="238" y="268.388" class="categorizing-st6 categorizing-alert-bg" width="1086.024" height="60"/>
	<g>
		<rect x="278.831" y="284.968" class="categorizing-st9" width="38.865" height="26.84"/>
		<polyline class="categorizing-st9" points="278.831,284.968 298.263,301.85 317.696,284.968 	"/>
	</g>
	<g class="categorizing-st1">
		<path class="categorizing-st5" d="M359.909,295.773h4.438v6.302c-0.68,0.217-1.371,0.381-2.074,0.492s-1.518,0.167-2.443,0.167
			c-1.957,0-3.472-0.58-4.544-1.74c-1.072-1.16-1.608-2.78-1.608-4.86c0-1.342,0.267-2.514,0.8-3.516
			c0.533-1.002,1.302-1.768,2.307-2.298s2.19-0.796,3.555-0.796c1.371,0,2.648,0.252,3.832,0.756l-0.615,1.406
			c-1.131-0.492-2.235-0.738-3.313-0.738c-1.529,0-2.725,0.463-3.586,1.389s-1.292,2.191-1.292,3.797
			c0,1.699,0.413,2.991,1.239,3.876c0.826,0.885,2.027,1.327,3.604,1.327c0.861,0,1.702-0.103,2.522-0.308v-3.814h-2.821v-1.442
			L359.909,295.773L359.909,295.773z"/>
		<path class="categorizing-st5" d="M379.257,302.558v-6.214c0-1.523-0.653-2.285-1.96-2.285c-0.896,0-1.556,0.261-1.978,0.782
			s-0.633,1.318-0.633,2.391v5.326h-1.573v-6.214c0-0.762-0.16-1.333-0.479-1.714c-0.319-0.381-0.819-0.571-1.499-0.571
			c-0.891,0-1.542,0.272-1.956,0.817c-0.414,0.545-0.62,1.438-0.62,2.681v5.001h-1.582v-9.65h1.274l0.237,1.318h0.088
			c0.275-0.469,0.664-0.835,1.165-1.099s1.062-0.396,1.683-0.396c1.512,0,2.496,0.539,2.953,1.617h0.088
			c0.311-0.516,0.734-0.914,1.27-1.195c0.536-0.281,1.144-0.422,1.824-0.422c1.09,0,1.906,0.281,2.448,0.844s0.813,1.462,0.813,2.698
			v6.284L379.257,302.558L379.257,302.558z"/>
		<path class="categorizing-st5" d="M389.535,302.558l-0.308-1.371h-0.07c-0.48,0.604-0.959,1.013-1.437,1.227c-0.478,0.213-1.08,0.32-1.806,0.32
			c-0.949,0-1.693-0.249-2.232-0.747s-0.809-1.201-0.809-2.109c0-1.957,1.544-2.982,4.632-3.076l1.635-0.062v-0.571
			c0-0.732-0.158-1.272-0.475-1.622c-0.316-0.348-0.823-0.522-1.521-0.522c-0.51,0-0.992,0.076-1.446,0.229s-0.88,0.322-1.279,0.51
			l-0.483-1.187c0.486-0.258,1.017-0.46,1.591-0.606s1.143-0.22,1.705-0.22c1.166,0,2.033,0.258,2.602,0.773s0.853,1.336,0.853,2.461
			v6.574L389.535,302.558L389.535,302.558L389.535,302.558z M386.274,301.46c0.885,0,1.581-0.238,2.087-0.716s0.76-1.156,0.76-2.035
			v-0.87l-1.424,0.062c-1.107,0.041-1.915,0.217-2.421,0.527s-0.76,0.8-0.76,1.468c0,0.504,0.154,0.891,0.461,1.16
			S385.717,301.46,386.274,301.46z"/>
		<path class="categorizing-st5" d="M393.317,290.297c0-0.352,0.089-0.606,0.268-0.765c0.179-0.159,0.4-0.237,0.664-0.237
			c0.246,0,0.461,0.079,0.646,0.237s0.277,0.413,0.277,0.765c0,0.346-0.092,0.601-0.277,0.765s-0.4,0.246-0.646,0.246
			c-0.264,0-0.485-0.082-0.664-0.246C393.406,290.898,393.317,290.643,393.317,290.297z M395.022,302.558h-1.582v-9.65h1.582V302.558
			z"/>
		<path class="categorizing-st5" d="M399.429,302.558h-1.582v-13.676h1.582V302.558z"/>
	</g>
	<g class="button-group">
		<g>
			<path data-button="gmail" data-category="good" class="categorizing-st2 category-button-outline" d="M1133.102,278.388h-70.555c-2.761,0-5,2.239-5,5v30c0,2.761,2.239,5,5,5h70.555V278.388L1133.102,278.388z"/>
			<g class="categorizing-st1">
				<path data-button="gmail" data-category="good" class="categorizing-st5 category-button-text" d="M1083.154,297.353h3.452v4.902c-0.528,0.168-1.066,0.295-1.613,0.383c-0.547,0.086-1.181,0.129-1.9,0.129
					c-1.522,0-2.7-0.451-3.534-1.354c-0.834-0.903-1.251-2.162-1.251-3.779c0-1.045,0.208-1.955,0.622-2.734
					c0.414-0.779,1.013-1.375,1.795-1.789c0.781-0.412,1.703-0.617,2.765-0.617c1.066,0,2.06,0.195,2.98,0.588l-0.479,1.094
					c-0.88-0.383-1.739-0.574-2.577-0.574c-1.189,0-2.119,0.359-2.789,1.08c-0.67,0.719-1.005,1.703-1.005,2.953
					c0,1.32,0.321,2.326,0.964,3.014c0.643,0.689,1.576,1.033,2.803,1.033c0.67,0,1.324-0.08,1.962-0.24v-2.967h-2.194
					L1083.154,297.353L1083.154,297.353z"/>
				<path data-button="gmail" data-category="good" class="categorizing-st5 category-button-text" d="M1095.356,298.865c0,1.225-0.31,2.182-0.93,2.871c-0.62,0.688-1.477,1.031-2.57,1.031
					c-0.679,0-1.28-0.158-1.805-0.475c-0.525-0.317-0.927-0.771-1.21-1.363c-0.283-0.594-0.424-1.281-0.424-2.064
					c0-1.223,0.305-2.174,0.916-2.855c0.611-0.68,1.467-1.021,2.57-1.021c1.057,0,1.896,0.348,2.52,1.043
					C1095.044,296.726,1095.356,297.67,1095.356,298.865z M1089.689,298.865c0,0.943,0.186,1.66,0.557,2.148
					c0.372,0.49,0.92,0.736,1.645,0.736c0.715,0,1.26-0.246,1.634-0.736c0.374-0.488,0.561-1.205,0.561-2.148
					c0-0.943-0.188-1.654-0.563-2.131c-0.377-0.475-0.927-0.713-1.651-0.713C1090.415,296.021,1089.689,296.968,1089.689,298.865z"
					/>
				<path data-button="gmail" data-category="good" class="categorizing-st5 category-button-text" d="M1103.826,298.865c0,1.225-0.311,2.182-0.93,2.871c-0.619,0.688-1.477,1.031-2.57,1.031
					c-0.68,0-1.281-0.158-1.805-0.475c-0.524-0.317-0.928-0.771-1.21-1.363c-0.282-0.594-0.424-1.281-0.424-2.064
					c0-1.223,0.306-2.174,0.916-2.855c0.61-0.68,1.468-1.021,2.57-1.021c1.058,0,1.897,0.348,2.519,1.043
					C1103.515,296.726,1103.826,297.67,1103.826,298.865z M1098.159,298.865c0,0.943,0.186,1.66,0.558,2.148
					c0.371,0.49,0.919,0.736,1.644,0.736c0.716,0,1.261-0.246,1.634-0.736c0.373-0.488,0.561-1.205,0.561-2.148
					c0-0.943-0.188-1.654-0.564-2.131c-0.375-0.475-0.926-0.713-1.65-0.713C1098.886,296.021,1098.159,296.968,1098.159,298.865z"
					/>
				<path data-button="gmail" data-category="good" class="categorizing-st5 category-button-text" d="M1108.433,302.767c-0.975,0-1.732-0.336-2.27-1.012c-0.537-0.674-0.807-1.629-0.807-2.863
					c0-1.227,0.27-2.184,0.811-2.871c0.539-0.689,1.299-1.033,2.279-1.033c1.008,0,1.781,0.369,2.324,1.107h0.089
					c-0.014-0.09-0.032-0.273-0.055-0.551c-0.022-0.275-0.034-0.461-0.034-0.557v-2.994h1.23v10.637h-0.991l-0.185-1.004h-0.055
					C1110.247,302.386,1109.468,302.767,1108.433,302.767z M1108.631,301.75c0.747,0,1.293-0.205,1.638-0.613
					c0.344-0.406,0.516-1.076,0.516-2.006v-0.225c0-1.045-0.174-1.789-0.523-2.232c-0.348-0.445-0.896-0.666-1.644-0.666
					c-0.634,0-1.124,0.252-1.47,0.754c-0.346,0.504-0.52,1.223-0.52,2.158c0,0.93,0.172,1.633,0.516,2.111
					C1107.489,301.509,1107.984,301.75,1108.631,301.75z"/>
			</g>
		</g>
		<g>
			<path data-button="gmail" data-category="neutral" class="categorizing-st2 category-button-outline" d="M1227.541,278.388h-90.439v40h90.439V278.388L1227.541,278.388z"/>
			<g class="categorizing-st1">
				<path data-button="gmail" data-category="neutral" class="categorizing-st5 category-button-text" d="M1166.363,302.63h-1.471l-5.352-8.299h-0.055l0.033,0.555c0.055,0.828,0.082,1.549,0.082,2.16v5.584
					h-1.162v-9.994h1.457l0.307,0.486l3.281,5.072l1.744,2.713h0.055c-0.01-0.109-0.027-0.5-0.055-1.172
					c-0.027-0.672-0.041-1.158-0.041-1.459v-5.641h1.176L1166.363,302.63L1166.363,302.63z"/>
				<path data-button="gmail" data-category="neutral" class="categorizing-st5 category-button-text" d="M1172.097,302.767c-1.125,0-2.008-0.34-2.648-1.021s-0.961-1.619-0.961-2.813
					c0-1.203,0.299-2.162,0.896-2.875s1.403-1.07,2.42-1.07c0.943,0,1.695,0.305,2.256,0.912c0.561,0.609,0.84,1.434,0.84,2.473
					v0.744h-5.141c0.023,0.854,0.24,1.5,0.65,1.941c0.41,0.443,0.99,0.664,1.742,0.664c0.401,0,0.782-0.035,1.143-0.107
					c0.359-0.07,0.781-0.207,1.264-0.412v1.08c-0.414,0.178-0.804,0.303-1.168,0.375
					C1173.025,302.732,1172.594,302.767,1172.097,302.767z M1171.79,295.994c-0.588,0-1.053,0.189-1.395,0.566
					c-0.342,0.379-0.545,0.904-0.609,1.58h3.822c-0.01-0.703-0.172-1.236-0.486-1.6
					C1172.808,296.175,1172.365,295.994,1171.79,295.994z"/>
				<path data-button="gmail" data-category="neutral" class="categorizing-st5 category-button-text" d="M1177.962,295.125v4.834c0,0.605,0.137,1.055,0.407,1.35c0.271,0.293,0.691,0.441,1.261,0.441
					c0.771,0,1.331-0.215,1.682-0.643c0.352-0.43,0.527-1.119,0.527-2.072v-3.91h1.236v7.506h-1.012l-0.178-0.99h-0.061
					c-0.224,0.359-0.541,0.637-0.951,0.834c-0.41,0.195-0.886,0.293-1.428,0.293c-0.902,0-1.583-0.217-2.041-0.648
					c-0.458-0.434-0.688-1.127-0.688-2.078v-4.916h1.246L1177.962,295.125L1177.962,295.125z"/>
				<path data-button="gmail" data-category="neutral" class="categorizing-st5 category-button-text" d="M1187.964,301.763c0.159,0,0.346-0.016,0.561-0.049c0.214-0.031,0.375-0.068,0.484-0.109v0.943
					c-0.113,0.051-0.29,0.1-0.529,0.146c-0.239,0.049-0.482,0.072-0.729,0.072c-1.467,0-2.201-0.771-2.201-2.316v-4.369h-1.059
					v-0.588l1.072-0.492l0.492-1.6h0.732v1.723h2.166v0.957h-2.166v4.334c0,0.434,0.104,0.766,0.311,0.998
					C1187.305,301.645,1187.595,301.763,1187.964,301.763z"/>
				<path data-button="gmail" data-category="neutral" class="categorizing-st5 category-button-text" d="M1194.007,294.988c0.332,0,0.626,0.027,0.881,0.082l-0.15,1.135c-0.277-0.062-0.549-0.096-0.812-0.096
					c-0.396,0-0.766,0.109-1.104,0.328s-0.604,0.521-0.796,0.906s-0.287,0.812-0.287,1.281v4.006h-1.23v-7.506h1.012l0.137,1.375
					h0.055c0.287-0.498,0.626-0.873,1.018-1.129C1193.12,295.117,1193.546,294.988,1194.007,294.988z"/>
				<path data-button="gmail" data-category="neutral" class="categorizing-st5 category-button-text" d="M1200.925,302.63l-0.24-1.066h-0.055c-0.373,0.471-0.746,0.787-1.117,0.953
					c-0.371,0.168-0.84,0.25-1.404,0.25c-0.738,0-1.317-0.193-1.736-0.58c-0.42-0.389-0.629-0.936-0.629-1.641
					c0-1.523,1.2-2.32,3.602-2.393l1.271-0.049v-0.443c0-0.57-0.123-0.99-0.369-1.262s-0.64-0.406-1.182-0.406
					c-0.396,0-0.771,0.059-1.125,0.178c-0.354,0.117-0.685,0.25-0.994,0.396l-0.377-0.924c0.379-0.199,0.791-0.357,1.238-0.471
					c0.446-0.115,0.889-0.172,1.326-0.172c0.906,0,1.581,0.201,2.023,0.602c0.441,0.402,0.662,1.039,0.662,1.914v5.113h-0.894
					V302.63z M1198.388,301.777c0.688,0,1.23-0.186,1.624-0.559c0.394-0.371,0.591-0.898,0.591-1.582v-0.676l-1.107,0.047
					c-0.861,0.033-1.488,0.17-1.883,0.41c-0.395,0.242-0.592,0.623-0.592,1.143c0,0.391,0.12,0.691,0.359,0.902
					C1197.62,301.671,1197.955,301.777,1198.388,301.777z"/>
				<path data-button="gmail" data-category="neutral" class="categorizing-st5 category-button-text" d="M1205.374,302.63h-1.23v-10.636h1.23V302.63z"/>
			</g>
		</g>
		<g>
			<path data-button="gmail" data-category="evil" class="categorizing-st2 category-button-outline" d="M1289.096,278.388h-57.555v40h57.555c2.761,0,5-2.239,5-5v-30
				C1294.096,280.627,1291.857,278.388,1289.096,278.388L1289.096,278.388z"/>
			<g class="categorizing-st1">
				<path data-button="gmail" data-category="evil" class="categorizing-st5 category-button-text" d="M1258.525,302.63h-5.584v-9.994h5.584v1.107h-4.326v3.117h4.074v1.094h-4.074v3.568h4.326V302.63z"/>
				<path data-button="gmail" data-category="evil" class="categorizing-st5 category-button-text" d="M1262.21,302.63l-2.844-7.506h1.318l1.594,4.423c0.314,0.889,0.515,1.552,0.602,1.989h0.055
					c0.014-0.06,0.03-0.127,0.051-0.201c0.021-0.076,0.045-0.158,0.072-0.246c0.027-0.09,0.195-0.604,0.506-1.542l1.6-4.423h1.312
					l-2.852,7.506L1262.21,302.63L1262.21,302.63z"/>
				<path data-button="gmail" data-category="evil" class="categorizing-st5 category-button-text" d="M1267.57,293.094c0-0.273,0.068-0.472,0.208-0.595c0.14-0.123,0.312-0.185,0.517-0.185
					c0.191,0,0.358,0.062,0.502,0.185c0.144,0.123,0.215,0.321,0.215,0.595c0,0.269-0.071,0.467-0.215,0.595
					s-0.311,0.191-0.502,0.191c-0.205,0-0.377-0.063-0.517-0.191S1267.57,293.363,1267.57,293.094z M1268.896,302.63h-1.23v-7.506
					h1.23V302.63z"/>
				<path data-button="gmail" data-category="evil" class="categorizing-st5 category-button-text" d="M1272.505,302.63h-1.23v-10.636h1.23V302.63z"/>
			</g>
		</g>
	</g>
</g>

<g class="categorizing-alert--writer active" data-category-alert="good" data-category-app="writer">
	<rect x="238" y="332.388" class="categorizing-st0 categorizing-alert-bg" width="1086.024" height="60"/>
	<g>
		<path class="categorizing-st9" d="M312.563,378.979h-29.181c-1.1,0-2-0.9-2-2v-29.182c0-1.1,0.9-2,2-2h29.182c1.1,0,2,0.9,2,2v29.182
			C314.563,378.079,313.663,378.979,312.563,378.979z"/>
		<rect x="295.056" y="351.971" class="categorizing-st9" width="5.833" height="20.833"/>
	</g>
	<g>
		<g class="categorizing-st1">
			<path class="categorizing-st5" d="M365.665,367.558h-1.635l-2.505-8.42c-0.369-1.254-0.586-2.101-0.65-2.54
				c-0.094,0.674-0.299,1.538-0.615,2.593l-2.426,8.367H356.2l-3.401-12.85h1.688l1.995,7.849c0.27,1.025,0.475,2.045,0.615,3.059
				c0.129-0.961,0.357-2.013,0.686-3.155l2.268-7.752h1.67l2.364,7.813c0.305,1.014,0.539,2.045,0.703,3.094
				c0.094-0.809,0.302-1.834,0.624-3.076l1.986-7.831h1.688L365.665,367.558z"/>
			<path class="categorizing-st5" d="M375.117,357.732c0.428,0,0.806,0.035,1.134,0.105l-0.193,1.459c-0.357-0.082-0.706-0.123-1.046-0.123
				c-0.51,0-0.983,0.141-1.419,0.422s-0.778,0.67-1.024,1.164c-0.246,0.496-0.369,1.045-0.369,1.648v5.15h-1.582v-9.65h1.301
				l0.176,1.767h0.07c0.369-0.639,0.806-1.122,1.31-1.45C373.979,357.896,374.525,357.732,375.117,357.732z"/>
			<path class="categorizing-st5" d="M377.696,355.297c0-0.352,0.089-0.606,0.268-0.765c0.179-0.159,0.4-0.237,0.664-0.237
				c0.246,0,0.461,0.079,0.646,0.237s0.277,0.413,0.277,0.765c0,0.346-0.092,0.601-0.277,0.765s-0.4,0.246-0.646,0.246
				c-0.264,0-0.485-0.082-0.664-0.246S377.696,355.643,377.696,355.297z M379.401,367.558h-1.582v-9.65h1.582V367.558z"/>
			<path class="categorizing-st5" d="M385.451,366.442c0.205,0,0.445-0.021,0.721-0.062s0.483-0.088,0.624-0.141v1.213
				c-0.146,0.064-0.374,0.127-0.681,0.189c-0.308,0.061-0.62,0.092-0.936,0.092c-1.887,0-2.83-0.993-2.83-2.979v-5.616h-1.362v-0.756
				l1.38-0.633l0.633-2.057h0.94v2.215h2.786v1.23h-2.786v5.572c0,0.557,0.133,0.984,0.4,1.283
				C384.607,366.291,384.976,366.442,385.451,366.442z"/>
			<path class="categorizing-st5" d="M392.591,367.734c-1.447,0-2.583-0.438-3.406-1.314c-0.823-0.875-1.235-2.081-1.235-3.616
				c0-1.547,0.384-2.778,1.151-3.696c0.768-0.916,1.805-1.375,3.111-1.375c1.213,0,2.18,0.391,2.9,1.174
				c0.721,0.781,1.081,1.841,1.081,3.177v0.958h-6.609c0.029,1.096,0.308,1.928,0.835,2.496c0.527,0.568,1.274,0.853,2.241,0.853
				c0.516,0,1.005-0.045,1.468-0.136c0.463-0.091,1.005-0.269,1.626-0.532v1.389c-0.533,0.229-1.034,0.39-1.503,0.483
				C393.782,367.688,393.229,367.734,392.591,367.734z M392.195,359.024c-0.756,0-1.354,0.243-1.793,0.729s-0.7,1.163-0.782,2.03
				h4.913c-0.012-0.902-0.22-1.588-0.624-2.057S392.933,359.024,392.195,359.024z"/>
			<path class="categorizing-st5" d="M402.904,357.732c0.428,0,0.806,0.035,1.134,0.105l-0.193,1.459c-0.357-0.082-0.706-0.123-1.046-0.123
				c-0.51,0-0.983,0.141-1.419,0.422s-0.778,0.67-1.024,1.164c-0.246,0.496-0.369,1.045-0.369,1.648v5.15h-1.582v-9.65h1.301
				l0.176,1.767h0.07c0.369-0.639,0.806-1.122,1.31-1.45S402.312,357.732,402.904,357.732z"/>
		</g>
	</g>
	<g class="button-group">
		<g>
			<path data-category="good" data-button="writer" class="categorizing-st2 category-button-outline" d="M1133.102,342.388h-70.555c-2.761,0-5,2.239-5,5v30c0,2.761,2.239,5,5,5h70.555V342.388L1133.102,342.388z"/>
			<g class="categorizing-st1">
				<path data-category="good" data-button="writer" class="categorizing-st5 category-button-text" d="M1083.32,361.353h3.452v4.902c-0.528,0.168-1.066,0.295-1.613,0.383c-0.547,0.086-1.181,0.129-1.9,0.129
					c-1.522,0-2.7-0.451-3.534-1.354c-0.834-0.903-1.251-2.162-1.251-3.779c0-1.045,0.208-1.955,0.622-2.734
					c0.414-0.779,1.013-1.375,1.795-1.789c0.781-0.412,1.703-0.617,2.765-0.617c1.066,0,2.06,0.195,2.98,0.588l-0.479,1.094
					c-0.88-0.383-1.739-0.574-2.577-0.574c-1.189,0-2.119,0.359-2.789,1.08c-0.67,0.719-1.005,1.703-1.005,2.953
					c0,1.32,0.321,2.326,0.964,3.014c0.643,0.689,1.576,1.033,2.803,1.033c0.67,0,1.324-0.08,1.962-0.24v-2.967h-2.194
					L1083.32,361.353L1083.32,361.353z"/>
				<path data-category="good" data-button="writer" class="categorizing-st5 category-button-text" d="M1095.522,362.865c0,1.225-0.31,2.182-0.93,2.871c-0.62,0.688-1.477,1.031-2.57,1.031
					c-0.679,0-1.28-0.158-1.805-0.475c-0.525-0.317-0.927-0.771-1.21-1.363c-0.283-0.594-0.424-1.281-0.424-2.064
					c0-1.223,0.305-2.174,0.916-2.855c0.611-0.68,1.467-1.021,2.57-1.021c1.057,0,1.896,0.348,2.52,1.043
					C1095.21,360.726,1095.522,361.67,1095.522,362.865z M1089.855,362.865c0,0.943,0.186,1.66,0.557,2.148
					c0.372,0.49,0.92,0.736,1.645,0.736c0.715,0,1.26-0.246,1.634-0.736c0.374-0.488,0.561-1.205,0.561-2.148
					s-0.188-1.654-0.563-2.131c-0.377-0.475-0.927-0.713-1.651-0.713C1090.581,360.021,1089.855,360.968,1089.855,362.865z"/>
				<path data-category="good" data-button="writer" class="categorizing-st5 category-button-text" d="M1103.992,362.865c0,1.225-0.311,2.182-0.93,2.871c-0.619,0.688-1.477,1.031-2.57,1.031
					c-0.68,0-1.281-0.158-1.805-0.475c-0.524-0.317-0.928-0.771-1.21-1.363c-0.282-0.594-0.424-1.281-0.424-2.064
					c0-1.223,0.306-2.174,0.916-2.855c0.61-0.68,1.468-1.021,2.57-1.021c1.058,0,1.897,0.348,2.519,1.043
					C1103.681,360.726,1103.992,361.67,1103.992,362.865z M1098.325,362.865c0,0.943,0.186,1.66,0.558,2.148
					c0.371,0.49,0.919,0.736,1.644,0.736c0.716,0,1.261-0.246,1.634-0.736c0.373-0.488,0.561-1.205,0.561-2.148
					s-0.188-1.654-0.564-2.131c-0.375-0.475-0.926-0.713-1.65-0.713C1099.052,360.021,1098.325,360.968,1098.325,362.865z"/>
				<path data-category="good" data-button="writer" class="categorizing-st5 category-button-text" d="M1108.599,366.767c-0.975,0-1.732-0.336-2.27-1.012c-0.537-0.674-0.807-1.629-0.807-2.863
					c0-1.227,0.27-2.184,0.811-2.871c0.539-0.689,1.299-1.033,2.279-1.033c1.008,0,1.781,0.369,2.324,1.107h0.089
					c-0.014-0.09-0.032-0.273-0.055-0.551c-0.022-0.275-0.034-0.461-0.034-0.557v-2.994h1.23v10.637h-0.991l-0.185-1.004h-0.055
					C1110.413,366.386,1109.634,366.767,1108.599,366.767z M1108.797,365.75c0.747,0,1.293-0.205,1.638-0.613
					c0.344-0.406,0.516-1.076,0.516-2.006v-0.225c0-1.045-0.174-1.789-0.523-2.232c-0.348-0.445-0.896-0.666-1.644-0.666
					c-0.634,0-1.124,0.252-1.47,0.754c-0.346,0.504-0.52,1.223-0.52,2.158c0,0.93,0.172,1.633,0.516,2.111
					C1107.655,365.509,1108.15,365.75,1108.797,365.75z"/>
			</g>
		</g>
		<g>
			<path data-button="writer" data-category="neutral" class="categorizing-st2 category-button-outline" d="M1227.541,342.388h-90.439v40h90.439V342.388L1227.541,342.388z"/>
			<g class="categorizing-st1">
				<path data-button="writer" data-category="neutral" class="categorizing-st5 category-button-text" d="M1166.451,366.631h-1.469l-5.354-8.299h-0.055l0.035,0.554c0.055,0.829,0.082,1.55,0.082,2.16v5.585
					h-1.162v-9.994h1.455l0.309,0.485l3.281,5.072l1.742,2.714h0.055c-0.009-0.109-0.027-0.5-0.055-1.172
					c-0.027-0.673-0.041-1.159-0.041-1.46v-5.64h1.176L1166.451,366.631L1166.451,366.631z"/>
				<path data-button="writer" data-category="neutral" class="categorizing-st5 category-button-text" d="M1172.187,366.768c-1.126,0-2.01-0.341-2.649-1.021c-0.64-0.682-0.96-1.619-0.96-2.813
					c0-1.203,0.298-2.161,0.895-2.874c0.598-0.714,1.404-1.07,2.42-1.07c0.943,0,1.695,0.305,2.256,0.912
					c0.561,0.609,0.842,1.433,0.842,2.472v0.745h-5.141c0.022,0.853,0.238,1.499,0.648,1.941c0.41,0.442,0.992,0.663,1.744,0.663
					c0.4,0,0.781-0.035,1.141-0.106c0.36-0.07,0.782-0.208,1.266-0.413v1.08c-0.415,0.178-0.805,0.303-1.17,0.376
					C1173.114,366.732,1172.683,366.768,1172.187,366.768z M1171.878,359.994c-0.588,0-1.053,0.189-1.395,0.567
					s-0.544,0.904-0.607,1.579h3.82c-0.009-0.702-0.17-1.235-0.484-1.6C1172.898,360.175,1172.453,359.994,1171.878,359.994z"/>
				<path data-button="writer" data-category="neutral" class="categorizing-st5 category-button-text" d="M1178.052,359.126v4.833c0,0.606,0.135,1.056,0.406,1.351c0.271,0.293,0.691,0.44,1.262,0.44
					c0.77,0,1.33-0.214,1.682-0.643c0.351-0.429,0.525-1.119,0.525-2.071v-3.91h1.238v7.506h-1.012l-0.178-0.991h-0.062
					c-0.223,0.36-0.539,0.638-0.949,0.834s-0.887,0.294-1.43,0.294c-0.902,0-1.582-0.217-2.04-0.649s-0.687-1.126-0.687-2.078
					v-4.915L1178.052,359.126L1178.052,359.126z"/>
				<path data-button="writer" data-category="neutral" class="categorizing-st5 category-button-text" d="M1188.052,365.763c0.16,0,0.347-0.016,0.561-0.048c0.215-0.032,0.377-0.068,0.486-0.109v0.943
					c-0.114,0.05-0.291,0.1-0.53,0.146c-0.239,0.049-0.481,0.072-0.728,0.072c-1.468,0-2.201-0.772-2.201-2.317v-4.368h-1.061
					v-0.588l1.074-0.492l0.492-1.6h0.73v1.723h2.168v0.957h-2.168v4.334c0,0.433,0.104,0.766,0.312,0.998
					S1187.683,365.763,1188.052,365.763z"/>
				<path data-button="writer" data-category="neutral" class="categorizing-st5 category-button-text" d="M1194.095,358.989c0.333,0,0.627,0.027,0.883,0.082l-0.15,1.135c-0.278-0.063-0.55-0.096-0.814-0.096
					c-0.396,0-0.764,0.109-1.104,0.328s-0.605,0.521-0.797,0.906c-0.191,0.385-0.287,0.812-0.287,1.281v4.006h-1.23v-7.506h1.012
					l0.137,1.374h0.055c0.287-0.497,0.627-0.873,1.02-1.128C1193.209,359.117,1193.635,358.989,1194.095,358.989z"/>
				<path data-button="writer" data-category="neutral" class="categorizing-st5 category-button-text" d="M1201.013,366.631l-0.238-1.066h-0.055c-0.374,0.47-0.746,0.787-1.118,0.953
					c-0.372,0.167-0.84,0.25-1.405,0.25c-0.738,0-1.316-0.193-1.736-0.581c-0.419-0.388-0.629-0.935-0.629-1.641
					c0-1.522,1.201-2.319,3.604-2.393l1.271-0.048v-0.444c0-0.569-0.123-0.99-0.369-1.261s-0.641-0.407-1.184-0.407
					c-0.396,0-0.771,0.06-1.124,0.178s-0.685,0.251-0.995,0.396l-0.375-0.923c0.378-0.2,0.79-0.357,1.236-0.472
					c0.447-0.114,0.889-0.171,1.326-0.171c0.907,0,1.582,0.2,2.023,0.602c0.442,0.401,0.664,1.039,0.664,1.914v5.113
					L1201.013,366.631L1201.013,366.631z M1198.478,365.777c0.688,0,1.229-0.186,1.623-0.558c0.395-0.371,0.592-0.898,0.592-1.582
					v-0.677l-1.107,0.048c-0.861,0.032-1.49,0.169-1.884,0.41s-0.591,0.622-0.591,1.142c0,0.392,0.119,0.692,0.358,0.902
					S1198.044,365.777,1198.478,365.777z"/>
				<path data-button="writer" data-category="neutral" class="categorizing-st5 category-button-text" d="M1205.464,366.631h-1.23v-10.636h1.23V366.631z"/>
			</g>
		</g>
		<g>
			<path data-button="writer" data-category="evil" class="categorizing-st2 category-button-outline" d="M1289.096,342.388h-57.555v40h57.555c2.761,0,5-2.239,5-5v-30
				C1294.096,344.627,1291.857,342.388,1289.096,342.388L1289.096,342.388z"/>
			<g class="categorizing-st1">
				<path data-button="writer" data-category="evil" class="categorizing-st5 category-button-text" d="M1258.525,366.63h-5.584v-9.994h5.584v1.107h-4.326v3.117h4.074v1.094h-4.074v3.568h4.326V366.63z"/>
				<path data-button="writer" data-category="evil" class="categorizing-st5 category-button-text" d="M1262.21,366.63l-2.844-7.506h1.318l1.594,4.424c0.314,0.889,0.515,1.551,0.602,1.988h0.055
					c0.014-0.059,0.03-0.127,0.051-0.201c0.021-0.076,0.045-0.158,0.072-0.246c0.027-0.09,0.195-0.604,0.506-1.541l1.6-4.424h1.312
					l-2.852,7.506C1263.624,366.63,1262.21,366.63,1262.21,366.63z"/>
				<path data-button="writer" data-category="evil" class="categorizing-st5 category-button-text" d="M1267.57,357.095c0-0.273,0.068-0.473,0.208-0.596c0.14-0.123,0.312-0.184,0.517-0.184
					c0.191,0,0.358,0.061,0.502,0.184c0.144,0.123,0.215,0.322,0.215,0.596c0,0.268-0.071,0.467-0.215,0.594
					c-0.144,0.129-0.311,0.191-0.502,0.191c-0.205,0-0.377-0.062-0.517-0.191C1267.638,357.562,1267.57,357.363,1267.57,357.095z
					 M1268.896,366.63h-1.23v-7.506h1.23V366.63z"/>
				<path data-button="writer" data-category="evil" class="categorizing-st5 category-button-text" d="M1272.505,366.63h-1.23v-10.636h1.23V366.63z"/>
			</g>
		</g>

	</g>
</g>

<g class="categorizing-alert--sketch" data-category-alert="neutral" data-category-app="sketch">
	<rect x="238" y="396.388" class="categorizing-st4 categorizing-alert-bg" width="1086.024" height="60"/>
	<g>
		<polygon class="categorizing-st10" points="307.519,424.838 298.263,424.838 289.007,424.838 279.72,418.565 298.263,442.959 316.806,418.565
			"/>
		<polyline class="categorizing-st10" points="279.72,418.565 286.237,412.048 291.529,409.817 298.263,409.817 	"/>
		<polyline class="categorizing-st10" points="298.263,414.421 291.16,414.421 286.237,412.048 	"/>
		<line class="categorizing-st10" x1="291.16" y1="414.421" x2="289.007" y2="424.838"/>
		<polyline class="categorizing-st10" points="316.806,418.565 310.29,412.048 304.998,409.817 298.263,409.817 	"/>
		<polyline class="categorizing-st10" points="298.263,414.421 305.367,414.421 310.29,412.048 	"/>
		<line class="categorizing-st10" x1="305.367" y1="414.421" x2="307.519" y2="424.838"/>
		<line class="categorizing-st10" x1="289.007" y1="424.838" x2="298.263" y2="442.959"/>
		<line class="categorizing-st10" x1="307.519" y1="424.838" x2="298.263" y2="442.959"/>
	</g>
	<g>
		<g class="categorizing-st1">
			<path class="categorizing-st5" d="M361.614,428.122c0,1.119-0.404,2.001-1.213,2.646c-0.809,0.645-1.934,0.967-3.375,0.967
				c-1.523,0-2.701-0.202-3.533-0.606v-1.547c0.545,0.234,1.141,0.419,1.789,0.554c0.648,0.135,1.252,0.202,1.815,0.202
				c0.961,0,1.685-0.185,2.171-0.554s0.729-0.876,0.729-1.521c0-0.428-0.088-0.779-0.264-1.055s-0.47-0.533-0.883-0.773
				s-1.039-0.513-1.876-0.817c-1.189-0.434-2.039-0.945-2.549-1.533c-0.51-0.59-0.765-1.35-0.765-2.281
				c0-1.002,0.376-1.799,1.129-2.391c0.753-0.592,1.745-0.888,2.975-0.888c1.283,0,2.464,0.24,3.542,0.721l-0.501,1.389
				c-1.102-0.457-2.127-0.686-3.076-0.686c-0.762,0-1.358,0.164-1.789,0.492s-0.646,0.788-0.646,1.38c0,0.422,0.083,0.772,0.25,1.051
				s0.437,0.531,0.809,0.76c0.372,0.229,0.957,0.489,1.753,0.782c0.955,0.352,1.667,0.693,2.136,1.024s0.814,0.711,1.037,1.143
				C361.502,427.009,361.614,427.524,361.614,428.122z"/>
			<path class="categorizing-st5" d="M365.317,426.592l0.536-0.686l0.615-0.738l3.085-3.261h1.846l-3.902,4.122l4.175,5.528h-1.907l-3.349-4.5
				l-1.099,0.958v3.542h-1.564v-13.676h1.564v7.146l-0.07,1.564h0.07L365.317,426.592L365.317,426.592z"/>
			<path class="categorizing-st5" d="M377.239,431.734c-1.447,0-2.583-0.438-3.406-1.314c-0.823-0.875-1.235-2.081-1.235-3.616
				c0-1.547,0.384-2.778,1.151-3.696c0.768-0.916,1.805-1.375,3.111-1.375c1.213,0,2.18,0.391,2.9,1.174
				c0.721,0.781,1.081,1.841,1.081,3.177v0.958h-6.609c0.029,1.096,0.308,1.928,0.835,2.496s1.274,0.853,2.241,0.853
				c0.516,0,1.005-0.045,1.468-0.136c0.463-0.091,1.005-0.269,1.626-0.532v1.389c-0.533,0.229-1.034,0.39-1.503,0.483
				S377.877,431.734,377.239,431.734z M376.843,423.024c-0.756,0-1.354,0.243-1.793,0.729s-0.7,1.163-0.782,2.03h4.913
				c-0.012-0.902-0.22-1.588-0.624-2.057C378.153,423.257,377.581,423.024,376.843,423.024z"/>
			<path class="categorizing-st5" d="M386.277,430.442c0.205,0,0.445-0.021,0.721-0.062s0.483-0.088,0.624-0.141v1.213
				c-0.146,0.064-0.374,0.127-0.681,0.189c-0.308,0.061-0.62,0.092-0.936,0.092c-1.887,0-2.83-0.993-2.83-2.979v-5.616h-1.362v-0.756
				l1.38-0.633l0.633-2.057h0.94v2.215h2.786v1.23h-2.786v5.572c0,0.557,0.133,0.984,0.4,1.283
				C385.433,430.291,385.802,430.442,386.277,430.442z"/>
			<path class="categorizing-st5" d="M393.18,431.734c-1.389,0-2.47-0.426-3.243-1.279c-0.773-0.852-1.16-2.075-1.16-3.669
				c0-1.617,0.391-2.863,1.173-3.739s1.897-1.314,3.344-1.314c0.469,0,0.933,0.049,1.393,0.145c0.46,0.098,0.839,0.222,1.138,0.374
				l-0.483,1.318c-0.814-0.305-1.509-0.457-2.083-0.457c-0.973,0-1.69,0.307-2.153,0.919s-0.694,1.524-0.694,2.737
				c0,1.166,0.231,2.059,0.694,2.677s1.148,0.927,2.057,0.927c0.85,0,1.685-0.188,2.505-0.562v1.406
				C394.999,431.561,394.17,431.734,393.18,431.734z"/>
			<path class="categorizing-st5" d="M404.292,431.558v-6.17c0-0.785-0.174-1.369-0.523-1.754c-0.349-0.383-0.895-0.575-1.639-0.575
				c-0.979,0-1.695,0.272-2.149,0.817c-0.454,0.545-0.681,1.444-0.681,2.698v4.983h-1.582v-13.676h1.582v4.008
				c0,0.527-0.029,0.979-0.088,1.354h0.105c0.287-0.469,0.694-0.835,1.222-1.099s1.122-0.396,1.784-0.396
				c1.172,0,2.054,0.28,2.646,0.84s0.888,1.454,0.888,2.685v6.284L404.292,431.558L404.292,431.558z"/>
		</g>
	</g>
	<g class="button-group">
		<g>
			<path data-category="good" data-button="sketch" class="categorizing-st2 category-button-outline" d="M1133.102,406.388h-70.555c-2.761,0-5,2.239-5,5v30c0,2.761,2.239,5,5,5h70.555V406.388L1133.102,406.388z"/>
			<g class="categorizing-st1">
				<path data-category="good" data-button="sketch" class="categorizing-st5 category-button-text" d="M1083.32,425.353h3.452v4.902c-0.528,0.168-1.066,0.295-1.613,0.383c-0.547,0.086-1.181,0.129-1.9,0.129
					c-1.522,0-2.7-0.451-3.534-1.354c-0.834-0.903-1.251-2.162-1.251-3.779c0-1.045,0.208-1.955,0.622-2.734
					s1.013-1.375,1.795-1.789c0.781-0.412,1.703-0.617,2.765-0.617c1.066,0,2.06,0.195,2.98,0.588l-0.479,1.094
					c-0.88-0.383-1.739-0.574-2.577-0.574c-1.189,0-2.119,0.359-2.789,1.08c-0.67,0.719-1.005,1.703-1.005,2.953
					c0,1.32,0.321,2.326,0.964,3.014c0.643,0.689,1.576,1.033,2.803,1.033c0.67,0,1.324-0.08,1.962-0.24v-2.967h-2.194
					L1083.32,425.353L1083.32,425.353z"/>
				<path data-category="good" data-button="sketch" class="categorizing-st5 category-button-text" d="M1095.522,426.865c0,1.225-0.31,2.182-0.93,2.871c-0.62,0.688-1.477,1.031-2.57,1.031
					c-0.679,0-1.28-0.158-1.805-0.475c-0.525-0.317-0.927-0.771-1.21-1.363c-0.283-0.594-0.424-1.281-0.424-2.064
					c0-1.223,0.305-2.174,0.916-2.855c0.611-0.68,1.467-1.021,2.57-1.021c1.057,0,1.896,0.348,2.52,1.043
					C1095.21,424.726,1095.522,425.67,1095.522,426.865z M1089.855,426.865c0,0.943,0.186,1.66,0.557,2.148
					c0.372,0.49,0.92,0.736,1.645,0.736c0.715,0,1.26-0.246,1.634-0.736c0.374-0.488,0.561-1.205,0.561-2.148
					s-0.188-1.654-0.563-2.131c-0.377-0.475-0.927-0.713-1.651-0.713C1090.581,424.021,1089.855,424.968,1089.855,426.865z"/>
				<path data-category="good" data-button="sketch" class="categorizing-st5 category-button-text" d="M1103.992,426.865c0,1.225-0.311,2.182-0.93,2.871c-0.619,0.688-1.477,1.031-2.57,1.031
					c-0.68,0-1.281-0.158-1.805-0.475c-0.524-0.317-0.928-0.771-1.21-1.363c-0.282-0.594-0.424-1.281-0.424-2.064
					c0-1.223,0.306-2.174,0.916-2.855c0.61-0.68,1.468-1.021,2.57-1.021c1.058,0,1.897,0.348,2.519,1.043
					C1103.681,424.726,1103.992,425.67,1103.992,426.865z M1098.325,426.865c0,0.943,0.186,1.66,0.558,2.148
					c0.371,0.49,0.919,0.736,1.644,0.736c0.716,0,1.261-0.246,1.634-0.736c0.373-0.488,0.561-1.205,0.561-2.148
					s-0.188-1.654-0.564-2.131c-0.375-0.475-0.926-0.713-1.65-0.713C1099.052,424.021,1098.325,424.968,1098.325,426.865z"/>
				<path data-category="good" data-button="sketch" class="categorizing-st5 category-button-text" d="M1108.599,430.767c-0.975,0-1.732-0.336-2.27-1.012c-0.537-0.674-0.807-1.629-0.807-2.863
					c0-1.227,0.27-2.184,0.811-2.871c0.539-0.689,1.299-1.033,2.279-1.033c1.008,0,1.781,0.369,2.324,1.107h0.089
					c-0.014-0.09-0.032-0.273-0.055-0.551c-0.022-0.275-0.034-0.461-0.034-0.557v-2.994h1.23v10.637h-0.991l-0.185-1.004h-0.055
					C1110.413,430.386,1109.634,430.767,1108.599,430.767z M1108.797,429.75c0.747,0,1.293-0.205,1.638-0.613
					c0.344-0.406,0.516-1.076,0.516-2.006v-0.225c0-1.045-0.174-1.789-0.523-2.232c-0.348-0.445-0.896-0.666-1.644-0.666
					c-0.634,0-1.124,0.252-1.47,0.754c-0.346,0.504-0.52,1.223-0.52,2.158c0,0.93,0.172,1.633,0.516,2.111
					C1107.655,429.509,1108.15,429.75,1108.797,429.75z"/>
			</g>
		</g>
		<g>
			<path data-button="sketch" data-category="neutral" class="categorizing-st2 category-button-outline" d="M1227.541,406.388h-90.439v40h90.439V406.388L1227.541,406.388z"/>
			<g class="categorizing-st1">
				<path data-button="sketch" data-category="neutral" class="categorizing-st5 category-button-text" d="M1166.451,430.631h-1.469l-5.354-8.299h-0.055l0.035,0.554c0.055,0.829,0.082,1.55,0.082,2.16v5.585
					h-1.162v-9.994h1.455l0.309,0.485l3.281,5.072l1.742,2.714h0.055c-0.009-0.109-0.027-0.5-0.055-1.172
					c-0.027-0.673-0.041-1.159-0.041-1.46v-5.64h1.176L1166.451,430.631L1166.451,430.631z"/>
				<path data-button="sketch" data-category="neutral" class="categorizing-st5 category-button-text" d="M1172.187,430.768c-1.126,0-2.01-0.341-2.649-1.021c-0.64-0.682-0.96-1.619-0.96-2.813
					c0-1.203,0.298-2.161,0.895-2.874c0.598-0.714,1.404-1.07,2.42-1.07c0.943,0,1.695,0.305,2.256,0.912
					c0.561,0.609,0.842,1.433,0.842,2.472v0.745h-5.141c0.022,0.853,0.238,1.499,0.648,1.941c0.41,0.442,0.992,0.663,1.744,0.663
					c0.4,0,0.781-0.035,1.141-0.106c0.36-0.07,0.782-0.208,1.266-0.413v1.08c-0.415,0.178-0.805,0.303-1.17,0.376
					C1173.114,430.732,1172.683,430.768,1172.187,430.768z M1171.878,423.994c-0.588,0-1.053,0.189-1.395,0.567
					s-0.544,0.904-0.607,1.579h3.82c-0.009-0.702-0.17-1.235-0.484-1.6C1172.898,424.175,1172.453,423.994,1171.878,423.994z"/>
				<path data-button="sketch" data-category="neutral" class="categorizing-st5 category-button-text" d="M1178.052,423.126v4.833c0,0.606,0.135,1.056,0.406,1.351c0.271,0.293,0.691,0.44,1.262,0.44
					c0.77,0,1.33-0.214,1.682-0.643c0.351-0.429,0.525-1.119,0.525-2.071v-3.91h1.238v7.506h-1.012l-0.178-0.991h-0.062
					c-0.223,0.36-0.539,0.638-0.949,0.834s-0.887,0.294-1.43,0.294c-0.902,0-1.582-0.217-2.04-0.649s-0.687-1.126-0.687-2.078
					v-4.915h1.245V423.126z"/>
				<path data-button="sketch" data-category="neutral" class="categorizing-st5 category-button-text" d="M1188.052,429.763c0.16,0,0.347-0.016,0.561-0.048c0.215-0.032,0.377-0.068,0.486-0.109v0.943
					c-0.114,0.05-0.291,0.1-0.53,0.146c-0.239,0.049-0.481,0.072-0.728,0.072c-1.468,0-2.201-0.772-2.201-2.317v-4.368h-1.061
					v-0.588l1.074-0.492l0.492-1.6h0.73v1.723h2.168v0.957h-2.168v4.334c0,0.433,0.104,0.766,0.312,0.998
					S1187.683,429.763,1188.052,429.763z"/>
				<path data-button="sketch" data-category="neutral" class="categorizing-st5 category-button-text" d="M1194.095,422.989c0.333,0,0.627,0.027,0.883,0.082l-0.15,1.135c-0.278-0.063-0.55-0.096-0.814-0.096
					c-0.396,0-0.764,0.109-1.104,0.328s-0.605,0.521-0.797,0.906c-0.191,0.385-0.287,0.812-0.287,1.281v4.006h-1.23v-7.506h1.012
					l0.137,1.374h0.055c0.287-0.497,0.627-0.873,1.02-1.128C1193.209,423.117,1193.635,422.989,1194.095,422.989z"/>
				<path data-button="sketch" data-category="neutral" class="categorizing-st5 category-button-text" d="M1201.013,430.631l-0.238-1.066h-0.055c-0.374,0.47-0.746,0.787-1.118,0.953
					c-0.372,0.167-0.84,0.25-1.405,0.25c-0.738,0-1.316-0.193-1.736-0.581c-0.419-0.388-0.629-0.935-0.629-1.641
					c0-1.522,1.201-2.319,3.604-2.393l1.271-0.048v-0.444c0-0.569-0.123-0.99-0.369-1.261s-0.641-0.407-1.184-0.407
					c-0.396,0-0.771,0.06-1.124,0.178s-0.685,0.251-0.995,0.396l-0.375-0.923c0.378-0.2,0.79-0.357,1.236-0.472
					c0.447-0.114,0.889-0.171,1.326-0.171c0.907,0,1.582,0.2,2.023,0.602c0.442,0.401,0.664,1.039,0.664,1.914v5.113
					L1201.013,430.631L1201.013,430.631z M1198.478,429.777c0.688,0,1.229-0.186,1.623-0.558c0.395-0.371,0.592-0.898,0.592-1.582
					v-0.677l-1.107,0.048c-0.861,0.032-1.49,0.169-1.884,0.41s-0.591,0.622-0.591,1.142c0,0.392,0.119,0.692,0.358,0.902
					S1198.044,429.777,1198.478,429.777z"/>
				<path data-button="sketch" data-category="neutral" class="categorizing-st5 category-button-text" d="M1205.464,430.631h-1.23v-10.637h1.23V430.631z"/>
			</g>
		</g>
		<g>
			<path data-button="sketch" data-category="evil" class="categorizing-st2 category-button-outline" d="M1289.096,406.388h-57.555v40h57.555c2.761,0,5-2.239,5-5v-30
				C1294.096,408.627,1291.857,406.388,1289.096,406.388L1289.096,406.388z"/>
				<g class="categorizing-st1">
					<path data-button="sketch" data-category="evil" class="categorizing-st5 category-button-text" d="M1258.525,430.63h-5.584v-9.994h5.584v1.107h-4.326v3.117h4.074v1.094h-4.074v3.568h4.326V430.63z"/>
					<path data-button="sketch" data-category="evil" class="categorizing-st5 category-button-text" d="M1262.21,430.63l-2.844-7.506h1.318l1.594,4.424c0.314,0.889,0.515,1.551,0.602,1.988h0.055
						c0.014-0.059,0.03-0.127,0.051-0.201c0.021-0.076,0.045-0.158,0.072-0.246c0.027-0.09,0.195-0.604,0.506-1.541l1.6-4.424h1.312
						l-2.852,7.506L1262.21,430.63L1262.21,430.63z"/>
					<path data-button="sketch" data-category="evil" class="categorizing-st5 category-button-text" d="M1267.57,421.095c0-0.273,0.068-0.473,0.208-0.596s0.312-0.184,0.517-0.184
						c0.191,0,0.358,0.061,0.502,0.184c0.144,0.123,0.215,0.322,0.215,0.596c0,0.268-0.071,0.467-0.215,0.594
						c-0.144,0.129-0.311,0.191-0.502,0.191c-0.205,0-0.377-0.062-0.517-0.191C1267.638,421.562,1267.57,421.363,1267.57,421.095z
						 M1268.896,430.63h-1.23v-7.506h1.23V430.63z"/>
					<path data-button="sketch" data-category="evil" class="categorizing-st5 category-button-text" d="M1272.505,430.63h-1.23v-10.637h1.23V430.63z"/>
				</g>
		</g>
	</g>
</g>

<g class="categorizing-alert--steam active" data-category-alert="evil" data-category-app="steam">
	<rect x="238" y="460.388" class="categorizing-st3 categorizing-alert-bg" width="1086.024" height="60"/>
	<g>
		<circle class="categorizing-st9" cx="298.263" cy="490.388" r="19.5"/>
		<g>
			<circle class="categorizing-st9" cx="302.357" cy="486.294" r="5.922"/>
			<circle class="categorizing-st9" cx="292.436" cy="496.215" r="4.189"/>
			<line class="categorizing-st9" x1="296.435" y1="486.458" x2="293.131" y2="492.09"/>
			<line class="categorizing-st9" x1="302.196" y1="492.215" x2="296.561" y2="495.521"/>
		</g>
		<line class="categorizing-st9" x1="289.474" y1="493.253" x2="280.147" y2="483.926"/>
	</g>
	<g>
		<g class="categorizing-st1">
			<path class="categorizing-st5" d="M361.614,492.121c0,1.119-0.404,2.002-1.213,2.646s-1.934,0.967-3.375,0.967
				c-1.523,0-2.701-0.203-3.533-0.607v-1.547c0.545,0.234,1.141,0.42,1.789,0.555c0.648,0.135,1.252,0.201,1.815,0.201
				c0.961,0,1.685-0.184,2.171-0.553c0.486-0.369,0.729-0.877,0.729-1.521c0-0.428-0.088-0.779-0.264-1.055s-0.47-0.533-0.883-0.773
				s-1.039-0.512-1.876-0.816c-1.189-0.434-2.039-0.945-2.549-1.533c-0.51-0.59-0.765-1.35-0.765-2.281
				c0-1.002,0.376-1.799,1.129-2.391c0.753-0.592,1.745-0.889,2.975-0.889c1.283,0,2.464,0.24,3.542,0.721l-0.501,1.389
				c-1.102-0.457-2.127-0.686-3.076-0.686c-0.762,0-1.358,0.164-1.789,0.492s-0.646,0.789-0.646,1.381
				c0,0.422,0.083,0.771,0.25,1.051c0.167,0.277,0.437,0.531,0.809,0.76c0.372,0.229,0.957,0.488,1.753,0.781
				c0.955,0.352,1.667,0.693,2.136,1.025c0.469,0.33,0.814,0.711,1.037,1.143C361.502,491.009,361.614,491.523,361.614,492.121z"/>
			<path class="categorizing-st5" d="M366.978,494.441c0.205,0,0.445-0.02,0.721-0.061c0.276-0.041,0.483-0.088,0.624-0.141v1.213
				c-0.146,0.064-0.374,0.127-0.681,0.189c-0.308,0.061-0.62,0.092-0.936,0.092c-1.887,0-2.83-0.994-2.83-2.98v-5.615h-1.362v-0.756
				l1.38-0.633l0.633-2.057h0.94v2.215h2.786v1.23h-2.786v5.572c0,0.557,0.133,0.984,0.4,1.283S366.504,494.441,366.978,494.441z"/>
			<path class="categorizing-st5" d="M374.119,495.734c-1.447,0-2.583-0.438-3.406-1.314c-0.823-0.875-1.235-2.082-1.235-3.617
				c0-1.547,0.384-2.777,1.151-3.695c0.768-0.916,1.805-1.375,3.111-1.375c1.213,0,2.18,0.391,2.9,1.174
				c0.721,0.781,1.081,1.84,1.081,3.176v0.959h-6.609c0.029,1.096,0.308,1.928,0.835,2.496c0.527,0.568,1.274,0.852,2.241,0.852
				c0.516,0,1.005-0.045,1.468-0.135c0.463-0.092,1.005-0.27,1.626-0.533v1.389c-0.533,0.229-1.034,0.391-1.503,0.484
				C375.31,495.688,374.757,495.734,374.119,495.734z M373.723,487.023c-0.756,0-1.354,0.244-1.793,0.73
				c-0.439,0.486-0.7,1.162-0.782,2.029h4.913c-0.012-0.902-0.22-1.588-0.624-2.057S374.461,487.023,373.723,487.023z"/>
			<path class="categorizing-st5" d="M385.89,495.558l-0.308-1.371h-0.07c-0.48,0.604-0.959,1.012-1.437,1.227c-0.478,0.213-1.08,0.32-1.806,0.32
				c-0.949,0-1.693-0.25-2.232-0.748s-0.809-1.201-0.809-2.109c0-1.957,1.544-2.982,4.632-3.076l1.635-0.061v-0.572
				c0-0.732-0.158-1.271-0.475-1.621c-0.316-0.348-0.823-0.523-1.521-0.523c-0.51,0-0.992,0.076-1.446,0.229s-0.88,0.322-1.279,0.51
				l-0.483-1.186c0.486-0.258,1.017-0.461,1.591-0.607s1.143-0.219,1.705-0.219c1.166,0,2.033,0.258,2.602,0.773
				s0.853,1.336,0.853,2.461v6.574h-1.152L385.89,495.558L385.89,495.558z M382.629,494.459c0.885,0,1.581-0.238,2.087-0.715
				c0.507-0.479,0.76-1.156,0.76-2.035v-0.871l-1.424,0.062c-1.107,0.041-1.915,0.217-2.421,0.527c-0.506,0.31-0.76,0.799-0.76,1.467
				c0,0.504,0.154,0.891,0.461,1.16S382.073,494.459,382.629,494.459z"/>
			<path class="categorizing-st5" d="M402.074,495.558v-6.215c0-1.523-0.653-2.285-1.96-2.285c-0.896,0-1.556,0.262-1.978,0.783
				s-0.633,1.318-0.633,2.391v5.326h-1.573v-6.215c0-0.762-0.16-1.332-0.479-1.713s-0.819-0.572-1.499-0.572
				c-0.891,0-1.542,0.273-1.956,0.818c-0.414,0.545-0.62,1.438-0.62,2.68v5.002h-1.582v-9.65h1.274l0.237,1.318h0.088
				c0.275-0.469,0.664-0.836,1.165-1.1s1.062-0.395,1.683-0.395c1.512,0,2.496,0.539,2.953,1.617h0.088
				c0.311-0.516,0.734-0.914,1.27-1.195s1.144-0.422,1.824-0.422c1.09,0,1.906,0.281,2.448,0.844s0.813,1.461,0.813,2.697v6.285
				L402.074,495.558L402.074,495.558z"/>
		</g>
	</g>
	<g class="button-group">
		<g>
			<path data-category="good" data-button="steam" class="categorizing-st2 category-button-outline" d="M1133.102,470.388h-70.555c-2.761,0-5,2.239-5,5v30c0,2.761,2.239,5,5,5h70.555V470.388L1133.102,470.388z"/>
			<g class="categorizing-st1">
				<path data-category="good" data-button="steam" class="categorizing-st5 category-button-text" d="M1083.32,489.353h3.452v4.902c-0.528,0.168-1.066,0.295-1.613,0.383c-0.547,0.086-1.181,0.129-1.9,0.129
					c-1.522,0-2.7-0.451-3.534-1.354c-0.834-0.903-1.251-2.162-1.251-3.779c0-1.045,0.208-1.955,0.622-2.734
					s1.013-1.375,1.795-1.789c0.781-0.412,1.703-0.617,2.765-0.617c1.066,0,2.06,0.195,2.98,0.588l-0.479,1.094
					c-0.88-0.383-1.739-0.574-2.577-0.574c-1.189,0-2.119,0.359-2.789,1.08c-0.67,0.719-1.005,1.703-1.005,2.953
					c0,1.32,0.321,2.326,0.964,3.014c0.643,0.689,1.576,1.033,2.803,1.033c0.67,0,1.324-0.08,1.962-0.24v-2.967h-2.194
					L1083.32,489.353L1083.32,489.353z"/>
				<path data-category="good" data-button="steam" class="categorizing-st5 category-button-text" d="M1095.522,490.865c0,1.225-0.31,2.182-0.93,2.871c-0.62,0.688-1.477,1.031-2.57,1.031
					c-0.679,0-1.28-0.158-1.805-0.475c-0.525-0.317-0.927-0.771-1.21-1.363c-0.283-0.594-0.424-1.281-0.424-2.064
					c0-1.223,0.305-2.174,0.916-2.855c0.611-0.68,1.467-1.021,2.57-1.021c1.057,0,1.896,0.348,2.52,1.043
					C1095.21,488.726,1095.522,489.67,1095.522,490.865z M1089.855,490.865c0,0.943,0.186,1.66,0.557,2.148
					c0.372,0.49,0.92,0.736,1.645,0.736c0.715,0,1.26-0.246,1.634-0.736c0.374-0.488,0.561-1.205,0.561-2.148
					s-0.188-1.654-0.563-2.131c-0.377-0.475-0.927-0.713-1.651-0.713C1090.581,488.021,1089.855,488.968,1089.855,490.865z"/>
				<path data-category="good" data-button="steam" class="categorizing-st5 category-button-text" d="M1103.992,490.865c0,1.225-0.311,2.182-0.93,2.871c-0.619,0.688-1.477,1.031-2.57,1.031
					c-0.68,0-1.281-0.158-1.805-0.475c-0.524-0.317-0.928-0.771-1.21-1.363c-0.282-0.594-0.424-1.281-0.424-2.064
					c0-1.223,0.306-2.174,0.916-2.855c0.61-0.68,1.468-1.021,2.57-1.021c1.058,0,1.897,0.348,2.519,1.043
					C1103.681,488.726,1103.992,489.67,1103.992,490.865z M1098.325,490.865c0,0.943,0.186,1.66,0.558,2.148
					c0.371,0.49,0.919,0.736,1.644,0.736c0.716,0,1.261-0.246,1.634-0.736c0.373-0.488,0.561-1.205,0.561-2.148
					s-0.188-1.654-0.564-2.131c-0.375-0.475-0.926-0.713-1.65-0.713C1099.052,488.021,1098.325,488.968,1098.325,490.865z"/>
				<path data-category="good" data-button="steam" class="categorizing-st5 category-button-text" d="M1108.599,494.767c-0.975,0-1.732-0.336-2.27-1.012c-0.537-0.674-0.807-1.629-0.807-2.863
					c0-1.227,0.27-2.184,0.811-2.871c0.539-0.689,1.299-1.033,2.279-1.033c1.008,0,1.781,0.369,2.324,1.107h0.089
					c-0.014-0.09-0.032-0.273-0.055-0.551c-0.022-0.275-0.034-0.461-0.034-0.557v-2.994h1.23v10.637h-0.991l-0.185-1.004h-0.055
					C1110.413,494.386,1109.634,494.767,1108.599,494.767z M1108.797,493.75c0.747,0,1.293-0.205,1.638-0.613
					c0.344-0.406,0.516-1.076,0.516-2.006v-0.225c0-1.045-0.174-1.789-0.523-2.232c-0.348-0.445-0.896-0.666-1.644-0.666
					c-0.634,0-1.124,0.252-1.47,0.754c-0.346,0.504-0.52,1.223-0.52,2.158c0,0.93,0.172,1.633,0.516,2.111
					C1107.655,493.509,1108.15,493.75,1108.797,493.75z"/>
			</g>
		</g>
		<g>
			<path data-button="steam" data-category="neutral" class="categorizing-st2 category-button-outline" d="M1227.541,470.388h-90.439v40h90.439V470.388L1227.541,470.388z"/>
			<g class="categorizing-st1">
				<path data-button="steam" data-category="neutral" class="categorizing-st5 category-button-text" d="M1166.451,494.631h-1.469l-5.354-8.299h-0.055l0.035,0.554c0.055,0.829,0.082,1.55,0.082,2.16v5.585
					h-1.162v-9.994h1.455l0.309,0.485l3.281,5.072l1.742,2.714h0.055c-0.009-0.109-0.027-0.5-0.055-1.172
					c-0.027-0.673-0.041-1.159-0.041-1.46v-5.64h1.176L1166.451,494.631L1166.451,494.631z"/>
				<path data-button="steam" data-category="neutral" class="categorizing-st5 category-button-text" d="M1172.187,494.768c-1.126,0-2.01-0.341-2.649-1.021c-0.64-0.682-0.96-1.619-0.96-2.813
					c0-1.203,0.298-2.161,0.895-2.874c0.598-0.714,1.404-1.07,2.42-1.07c0.943,0,1.695,0.305,2.256,0.912
					c0.561,0.609,0.842,1.433,0.842,2.472v0.745h-5.141c0.022,0.853,0.238,1.499,0.648,1.941c0.41,0.442,0.992,0.663,1.744,0.663
					c0.4,0,0.781-0.035,1.141-0.106c0.36-0.07,0.782-0.208,1.266-0.413v1.08c-0.415,0.178-0.805,0.303-1.17,0.376
					C1173.114,494.732,1172.683,494.768,1172.187,494.768z M1171.878,487.994c-0.588,0-1.053,0.189-1.395,0.567
					s-0.544,0.904-0.607,1.579h3.82c-0.009-0.702-0.17-1.235-0.484-1.6C1172.898,488.175,1172.453,487.994,1171.878,487.994z"/>
				<path data-button="steam" data-category="neutral" class="categorizing-st5 category-button-text" d="M1178.052,487.126v4.833c0,0.606,0.135,1.056,0.406,1.351c0.271,0.293,0.691,0.44,1.262,0.44
					c0.77,0,1.33-0.214,1.682-0.643c0.351-0.429,0.525-1.119,0.525-2.071v-3.91h1.238v7.506h-1.012l-0.178-0.991h-0.062
					c-0.223,0.36-0.539,0.638-0.949,0.834s-0.887,0.294-1.43,0.294c-0.902,0-1.582-0.217-2.04-0.649s-0.687-1.126-0.687-2.078
					v-4.915h1.245V487.126z"/>
				<path data-button="steam" data-category="neutral" class="categorizing-st5 category-button-text" d="M1188.052,493.763c0.16,0,0.347-0.016,0.561-0.048c0.215-0.032,0.377-0.068,0.486-0.109v0.943
					c-0.114,0.05-0.291,0.1-0.53,0.146c-0.239,0.049-0.481,0.072-0.728,0.072c-1.468,0-2.201-0.772-2.201-2.317v-4.368h-1.061
					v-0.588l1.074-0.492l0.492-1.6h0.73v1.723h2.168v0.957h-2.168v4.334c0,0.433,0.104,0.766,0.312,0.998
					S1187.683,493.763,1188.052,493.763z"/>
				<path data-button="steam" data-category="neutral" class="categorizing-st5 category-button-text" d="M1194.095,486.989c0.333,0,0.627,0.027,0.883,0.082l-0.15,1.135c-0.278-0.063-0.55-0.096-0.814-0.096
					c-0.396,0-0.764,0.109-1.104,0.328s-0.605,0.521-0.797,0.906c-0.191,0.385-0.287,0.812-0.287,1.281v4.006h-1.23v-7.506h1.012
					l0.137,1.374h0.055c0.287-0.497,0.627-0.873,1.02-1.128C1193.209,487.117,1193.635,486.989,1194.095,486.989z"/>
				<path data-button="steam" data-category="neutral" class="categorizing-st5 category-button-text" d="M1201.013,494.631l-0.238-1.066h-0.055c-0.374,0.47-0.746,0.787-1.118,0.953
					c-0.372,0.167-0.84,0.25-1.405,0.25c-0.738,0-1.316-0.193-1.736-0.581c-0.419-0.388-0.629-0.935-0.629-1.641
					c0-1.522,1.201-2.319,3.604-2.393l1.271-0.048v-0.444c0-0.569-0.123-0.99-0.369-1.261s-0.641-0.407-1.184-0.407
					c-0.396,0-0.771,0.06-1.124,0.178s-0.685,0.251-0.995,0.396l-0.375-0.923c0.378-0.2,0.79-0.357,1.236-0.472
					c0.447-0.114,0.889-0.171,1.326-0.171c0.907,0,1.582,0.2,2.023,0.602c0.442,0.401,0.664,1.039,0.664,1.914v5.113
					L1201.013,494.631L1201.013,494.631z M1198.478,493.777c0.688,0,1.229-0.186,1.623-0.558c0.395-0.371,0.592-0.898,0.592-1.582
					v-0.677l-1.107,0.048c-0.861,0.032-1.49,0.169-1.884,0.41s-0.591,0.622-0.591,1.142c0,0.392,0.119,0.692,0.358,0.902
					S1198.044,493.777,1198.478,493.777z"/>
				<path data-button="steam" data-category="neutral" class="categorizing-st5 category-button-text" d="M1205.464,494.631h-1.23v-10.637h1.23V494.631z"/>
			</g>
		</g>
		<g>
			<path data-button="steam" data-category="evil" class="categorizing-st2 category-button-outline" d="M1289.096,470.388h-57.555v40h57.555c2.761,0,5-2.239,5-5v-30
				C1294.096,472.627,1291.857,470.388,1289.096,470.388L1289.096,470.388z"/>
			<g class="categorizing-st1">
				<path data-button="steam" data-category="evil" class="categorizing-st5 category-button-text" d="M1258.525,493.632h-5.584v-9.994h5.584v1.107h-4.326v3.117h4.074v1.094h-4.074v3.568h4.326V493.632z"/>
				<path data-button="steam" data-category="evil" class="categorizing-st5 category-button-text" d="M1262.21,493.632l-2.844-7.506h1.318l1.594,4.422c0.314,0.889,0.515,1.553,0.602,1.99h0.055
					c0.014-0.061,0.03-0.127,0.051-0.201c0.021-0.076,0.045-0.158,0.072-0.246c0.027-0.09,0.195-0.604,0.506-1.543l1.6-4.422h1.312
					l-2.852,7.506H1262.21z"/>
				<path data-button="steam" data-category="evil" class="categorizing-st5 category-button-text" d="M1267.57,484.095c0-0.273,0.068-0.471,0.208-0.594s0.312-0.186,0.517-0.186
					c0.191,0,0.358,0.062,0.502,0.186s0.215,0.32,0.215,0.594c0,0.27-0.071,0.467-0.215,0.596c-0.144,0.127-0.311,0.191-0.502,0.191
					c-0.205,0-0.377-0.064-0.517-0.191C1267.638,484.562,1267.57,484.365,1267.57,484.095z M1268.896,493.632h-1.23v-7.506h1.23
					V493.632z"/>
				<path data-button="steam" data-category="evil" class="categorizing-st5 category-button-text" d="M1272.505,493.632h-1.23v-10.637h1.23V493.632z"/>
			</g>
		</g>
	</g>
</g>


</svg>
