<?xml version="1.0" encoding="utf-8"?>
<svg version="1.1" id="challenges-browser" xmlns="http://www.w3.org/2000/svg" xmlns:xlink="http://www.w3.org/1999/xlink" x="0px" y="0px"
	 viewBox="0 0 871.3 474" style="enable-background:new 0 0 871.3 474;" xml:space="preserve">
<style type="text/css">
	.st0{fill:none;stroke:#FFFFFF;stroke-miterlimit:10;}
	.st1{fill:none;stroke:#504D50;stroke-width:0.9903;stroke-miterlimit:10;}
	.st2{fill:#FFFFFF;}
	.st3{fill:#F272AA;stroke:#FFFFFF;stroke-miterlimit:10;}
	.st4{opacity:0.97;}
	.st5{fill:#F2F0F0;}
	.st6{fill:none;stroke:#F2F0F0;stroke-miterlimit:10;}
	.st7{fill:#7AC442;stroke:#FFFFFF;stroke-miterlimit:10;}
	.st8{fill:#F6F4F4;}
	.st9{fill:#E8212D;stroke:#FFFFFF;stroke-miterlimit:10;}
	.st10{opacity:0.85;fill:#F9F7F7;stroke:#FFFFFF;stroke-miterlimit:10;}
	.st11{fill:#504D50;}
	.st12{fill:#4F4C4F;stroke:#FFFFFF;stroke-miterlimit:10;}
	.st13{fill:#7AC743;}
	.st14{fill:#EA4130;}
	.st15{fill:none;stroke:#4F4C4F;stroke-linecap:square;stroke-linejoin:bevel;stroke-miterlimit:10;}
	.st16{fill-rule:evenodd;clip-rule:evenodd;fill:none;stroke:#14ABE1;stroke-width:3;stroke-linecap:round;stroke-miterlimit:10;}
	.st17{opacity:0;}
	.st18{fill:#FF1D25;stroke:#FFFFFF;stroke-miterlimit:10;}
	.st19{clip-path:url(#SVGID_4_);}
	.st20{fill:#7AC743;stroke:#FFFFFF;stroke-miterlimit:10;}
	.st21{fill:url(#);}
	.st22{fill:#7AC743;stroke:#FFFFFF;stroke-linecap:round;stroke-linejoin:round;stroke-miterlimit:10;}
	.st23{fill:#7AC743;stroke:#FFFFFF;stroke-width:0.9071;stroke-miterlimit:10;}
	.st24{fill:none;stroke:#FFFFFF;stroke-linecap:round;stroke-linejoin:round;}
	.st25{fill:#7AC743;stroke:#FFFFFF;stroke-linecap:round;stroke-linejoin:round;}
</style>
<g>
	<g>
		<g>
			<path class="st0" d="M864.8,473.5H6.5c-3.3,0-6-2.7-6-6V6.5c0-3.3,2.7-6,6-6h858.3c3.3,0,6,2.7,6,6v461
				C870.8,470.8,868.1,473.5,864.8,473.5z"/>
		</g>
		<line class="st0" x1="0.5" y1="30.5" x2="870.8" y2="30.5"/>
		<g>
			<circle class="st0" cx="18.8" cy="15.5" r="8.3"/>
			<circle class="st0" cx="39.4" cy="15.5" r="8.3"/>
			<circle class="st0" cx="60" cy="15.5" r="8.3"/>
		</g>
	</g>
</g>
<g>
	<path class="st0" d="M840.8,30.5v313.6c0,3.3-2.7,6-6,6h-265c-3.3,0-6-2.7-6-6V30.5"/>
</g>
<g>
	<line class="st0" x1="543.8" y1="30.5" x2="543.8" y2="473.5"/>
	<line class="st0" x1="30.5" y1="473.5" x2="30.5" y2="30.5"/>
</g>
<g>
	<g>
		<rect x="71.5" y="90.7" class="st0" width="6.7" height="16.7"/>
		<path class="st0" d="M98.1,94.9c1.2,0,2.1-0.9,2.1-2.1s-0.9-2.1-2.1-2.1h-13v-4.4c0-2.2-1.8-4-4-4v4v-0.4v4.8l0,0v16.7h13.8v0
			c1.2,0,2.1-0.9,2.1-2.1c0-0.9-0.5-1.6-1.3-1.9l0-0.2c0.1,0,0.2,0,0.3,0c1.2,0,2.1-0.9,2.1-2.1c0-1-0.7-1.8-1.6-2l0-0.1
			c0.2,0,0.3,0.1,0.5,0.1c1.2,0,2.1-0.9,2.1-2.1c0-1.1-0.8-1.9-1.8-2.1l0-0.2C97.6,94.9,97.9,94.9,98.1,94.9z"/>
	</g>
	<g>
		<g>
			<path class="st2" d="M111.6,106.3h-1.6V92.6h1.6V106.3z"/>
			<path class="st2" d="M114.3,94c0-0.4,0.1-0.6,0.3-0.8s0.4-0.2,0.7-0.2c0.2,0,0.5,0.1,0.6,0.2c0.2,0.2,0.3,0.4,0.3,0.8
				c0,0.3-0.1,0.6-0.3,0.8c-0.2,0.2-0.4,0.2-0.6,0.2c-0.3,0-0.5-0.1-0.7-0.2S114.3,94.4,114.3,94z M116.1,106.3h-1.6v-9.7h1.6V106.3
				z"/>
			<path class="st2" d="M120.4,101.3l0.5-0.7l0.6-0.7l3.1-3.3h1.8l-3.9,4.1l4.2,5.5h-1.9l-3.3-4.5l-1.1,1v3.5h-1.6V92.6h1.6v7.1
				V101.3L120.4,101.3z"/>
			<path class="st2" d="M132.4,106.5c-1.4,0-2.6-0.4-3.4-1.3c-0.8-0.9-1.2-2.1-1.2-3.6c0-1.5,0.4-2.8,1.2-3.7s1.8-1.4,3.1-1.4
				c1.2,0,2.2,0.4,2.9,1.2s1.1,1.8,1.1,3.2v1h-6.6c0,1.1,0.3,1.9,0.8,2.5s1.3,0.9,2.2,0.9c0.5,0,1,0,1.5-0.1s1-0.3,1.6-0.5v1.4
				c-0.5,0.2-1,0.4-1.5,0.5S133,106.5,132.4,106.5z M132,97.7c-0.8,0-1.4,0.2-1.8,0.7s-0.7,1.2-0.8,2h4.9c0-0.9-0.2-1.6-0.6-2.1
				S132.7,97.7,132,97.7z"/>
			<path class="st2" d="M154.9,106.3v-6.2c0-1.5-0.7-2.3-2-2.3c-0.9,0-1.6,0.3-2,0.8s-0.6,1.3-0.6,2.4v5.3h-1.6v-6.2
				c0-0.8-0.2-1.3-0.5-1.7c-0.3-0.4-0.8-0.6-1.5-0.6c-0.9,0-1.5,0.3-2,0.8c-0.4,0.5-0.6,1.4-0.6,2.7v5h-1.6v-9.7h1.3l0.2,1.3h0.1
				c0.3-0.5,0.7-0.8,1.2-1.1c0.5-0.3,1.1-0.4,1.7-0.4c1.5,0,2.5,0.5,3,1.6h0.1c0.3-0.5,0.7-0.9,1.3-1.2c0.5-0.3,1.1-0.4,1.8-0.4
				c1.1,0,1.9,0.3,2.4,0.8s0.8,1.5,0.8,2.7v6.3H154.9z"/>
			<path class="st2" d="M163.3,106.5c-1.4,0-2.6-0.4-3.4-1.3c-0.8-0.9-1.2-2.1-1.2-3.6c0-1.5,0.4-2.8,1.2-3.7s1.8-1.4,3.1-1.4
				c1.2,0,2.2,0.4,2.9,1.2s1.1,1.8,1.1,3.2v1h-6.6c0,1.1,0.3,1.9,0.8,2.5s1.3,0.9,2.2,0.9c0.5,0,1,0,1.5-0.1s1-0.3,1.6-0.5v1.4
				c-0.5,0.2-1,0.4-1.5,0.5S164,106.5,163.3,106.5z M162.9,97.7c-0.8,0-1.4,0.2-1.8,0.7s-0.7,1.2-0.8,2h4.9c0-0.9-0.2-1.6-0.6-2.1
				S163.7,97.7,162.9,97.7z"/>
			<path class="st2" d="M170.2,105.3c0-0.2,0-0.4,0.1-0.6s0.1-0.3,0.2-0.4s0.2-0.2,0.4-0.2s0.3-0.1,0.4-0.1c0.2,0,0.3,0,0.4,0.1
				c0.1,0,0.3,0.1,0.4,0.2s0.2,0.2,0.2,0.4s0.1,0.3,0.1,0.6c0,0.2,0,0.4-0.1,0.6s-0.1,0.3-0.2,0.4s-0.2,0.2-0.4,0.2
				c-0.1,0-0.3,0.1-0.4,0.1c-0.2,0-0.3,0-0.4-0.1s-0.3-0.1-0.4-0.2s-0.2-0.2-0.2-0.4S170.2,105.5,170.2,105.3z M171.9,102.6h-1.1
				l-0.4-9.2h2L171.9,102.6z"/>
		</g>
	</g>
</g>
<line class="st0" x1="31.5" y1="137.5" x2="543.8" y2="137.5"/>
<line class="st0" x1="31.5" y1="60.5" x2="543.8" y2="60.5"/>
<g>
	<g>
		<rect x="71.5" y="175.7" class="st0" width="6.7" height="16.7"/>
		<path class="st0" d="M98.1,179.9c1.2,0,2.1-0.9,2.1-2.1s-0.9-2.1-2.1-2.1h-13v-4.4c0-2.2-1.8-4-4-4v4v-0.4v4.8l0,0v16.7h13.8v0
			c1.2,0,2.1-0.9,2.1-2.1c0-0.9-0.5-1.6-1.3-1.9l0-0.2c0.1,0,0.2,0,0.3,0c1.2,0,2.1-0.9,2.1-2.1c0-1-0.7-1.8-1.6-2l0-0.1
			c0.2,0,0.3,0.1,0.5,0.1c1.2,0,2.1-0.9,2.1-2.1c0-1.1-0.8-1.9-1.8-2.1l0-0.2C97.6,179.9,97.9,179.9,98.1,179.9z"/>
	</g>
	<g>
		<g>
			<path class="st2" d="M111.6,191.3h-1.6v-13.7h1.6V191.3z"/>
			<path class="st2" d="M114.3,179c0-0.4,0.1-0.6,0.3-0.8s0.4-0.2,0.7-0.2c0.2,0,0.5,0.1,0.6,0.2c0.2,0.2,0.3,0.4,0.3,0.8
				c0,0.3-0.1,0.6-0.3,0.8c-0.2,0.2-0.4,0.2-0.6,0.2c-0.3,0-0.5-0.1-0.7-0.2S114.3,179.4,114.3,179z M116.1,191.3h-1.6v-9.7h1.6
				V191.3z"/>
			<path class="st2" d="M120.4,186.3l0.5-0.7l0.6-0.7l3.1-3.3h1.8l-3.9,4.1l4.2,5.5h-1.9l-3.3-4.5l-1.1,1v3.5h-1.6v-13.7h1.6v7.1
				V186.3L120.4,186.3z"/>
			<path class="st2" d="M132.4,191.5c-1.4,0-2.6-0.4-3.4-1.3c-0.8-0.9-1.2-2.1-1.2-3.6c0-1.5,0.4-2.8,1.2-3.7s1.8-1.4,3.1-1.4
				c1.2,0,2.2,0.4,2.9,1.2s1.1,1.8,1.1,3.2v1h-6.6c0,1.1,0.3,1.9,0.8,2.5s1.3,0.9,2.2,0.9c0.5,0,1,0,1.5-0.1s1-0.3,1.6-0.5v1.4
				c-0.5,0.2-1,0.4-1.5,0.5S133,191.5,132.4,191.5z M132,182.7c-0.8,0-1.4,0.2-1.8,0.7s-0.7,1.2-0.8,2h4.9c0-0.9-0.2-1.6-0.6-2.1
				S132.7,182.7,132,182.7z"/>
			<path class="st2" d="M154.9,191.3v-6.2c0-1.5-0.7-2.3-2-2.3c-0.9,0-1.6,0.3-2,0.8s-0.6,1.3-0.6,2.4v5.3h-1.6v-6.2
				c0-0.8-0.2-1.3-0.5-1.7c-0.3-0.4-0.8-0.6-1.5-0.6c-0.9,0-1.5,0.3-2,0.8c-0.4,0.5-0.6,1.4-0.6,2.7v5h-1.6v-9.7h1.3l0.2,1.3h0.1
				c0.3-0.5,0.7-0.8,1.2-1.1c0.5-0.3,1.1-0.4,1.7-0.4c1.5,0,2.5,0.5,3,1.6h0.1c0.3-0.5,0.7-0.9,1.3-1.2c0.5-0.3,1.1-0.4,1.8-0.4
				c1.1,0,1.9,0.3,2.4,0.8s0.8,1.5,0.8,2.7v6.3H154.9z"/>
			<path class="st2" d="M163.3,191.5c-1.4,0-2.6-0.4-3.4-1.3c-0.8-0.9-1.2-2.1-1.2-3.6c0-1.5,0.4-2.8,1.2-3.7s1.8-1.4,3.1-1.4
				c1.2,0,2.2,0.4,2.9,1.2s1.1,1.8,1.1,3.2v1h-6.6c0,1.1,0.3,1.9,0.8,2.5s1.3,0.9,2.2,0.9c0.5,0,1,0,1.5-0.1s1-0.3,1.6-0.5v1.4
				c-0.5,0.2-1,0.4-1.5,0.5S164,191.5,163.3,191.5z M162.9,182.7c-0.8,0-1.4,0.2-1.8,0.7s-0.7,1.2-0.8,2h4.9c0-0.9-0.2-1.6-0.6-2.1
				S163.7,182.7,162.9,182.7z"/>
			<path class="st2" d="M170.2,190.3c0-0.2,0-0.4,0.1-0.6s0.1-0.3,0.2-0.4s0.2-0.2,0.4-0.2s0.3-0.1,0.4-0.1c0.2,0,0.3,0,0.4,0.1
				c0.1,0,0.3,0.1,0.4,0.2s0.2,0.2,0.2,0.4s0.1,0.3,0.1,0.6c0,0.2,0,0.4-0.1,0.6s-0.1,0.3-0.2,0.4s-0.2,0.2-0.4,0.2
				c-0.1,0-0.3,0.1-0.4,0.1c-0.2,0-0.3,0-0.4-0.1s-0.3-0.1-0.4-0.2s-0.2-0.2-0.2-0.4S170.2,190.5,170.2,190.3z M171.9,187.6h-1.1
				l-0.4-9.2h2L171.9,187.6z"/>
		</g>
	</g>
</g>
<line class="st0" x1="31.5" y1="222.5" x2="543.8" y2="222.5"/>
<g>
	<g>
		<rect x="71.5" y="260.9" class="st0" width="6.7" height="16.7"/>
		<path class="st0" d="M98.1,265c1.2,0,2.1-0.9,2.1-2.1s-0.9-2.1-2.1-2.1h-13v-4.4c0-2.2-1.8-4-4-4v4v-0.4v4.8l0,0v16.7h13.8v0
			c1.2,0,2.1-0.9,2.1-2.1c0-0.9-0.5-1.6-1.3-1.9l0-0.2c0.1,0,0.2,0,0.3,0c1.2,0,2.1-0.9,2.1-2.1c0-1-0.7-1.8-1.6-2l0-0.1
			c0.2,0,0.3,0.1,0.5,0.1c1.2,0,2.1-0.9,2.1-2.1c0-1.1-0.8-1.9-1.8-2.1l0-0.2C97.6,265,97.9,265,98.1,265z"/>
	</g>
	<g>
		<g>
			<path class="st2" d="M111.6,276.4h-1.6v-13.7h1.6V276.4z"/>
			<path class="st2" d="M114.3,264.1c0-0.4,0.1-0.6,0.3-0.8s0.4-0.2,0.7-0.2c0.2,0,0.5,0.1,0.6,0.2c0.2,0.2,0.3,0.4,0.3,0.8
				c0,0.3-0.1,0.6-0.3,0.8c-0.2,0.2-0.4,0.2-0.6,0.2c-0.3,0-0.5-0.1-0.7-0.2S114.3,264.5,114.3,264.1z M116.1,276.4h-1.6v-9.7h1.6
				V276.4z"/>
			<path class="st2" d="M120.4,271.4l0.5-0.7l0.6-0.7l3.1-3.3h1.8l-3.9,4.1l4.2,5.5h-1.9l-3.3-4.5l-1.1,1v3.5h-1.6v-13.7h1.6v7.1
				V271.4L120.4,271.4z"/>
			<path class="st2" d="M132.4,276.6c-1.4,0-2.6-0.4-3.4-1.3c-0.8-0.9-1.2-2.1-1.2-3.6c0-1.5,0.4-2.8,1.2-3.7
				c0.8-0.9,1.8-1.4,3.1-1.4c1.2,0,2.2,0.4,2.9,1.2c0.7,0.8,1.1,1.8,1.1,3.2v1h-6.6c0,1.1,0.3,1.9,0.8,2.5s1.3,0.9,2.2,0.9
				c0.5,0,1,0,1.5-0.1c0.5-0.1,1-0.3,1.6-0.5v1.4c-0.5,0.2-1,0.4-1.5,0.5S133,276.6,132.4,276.6z M132,267.9c-0.8,0-1.4,0.2-1.8,0.7
				s-0.7,1.2-0.8,2h4.9c0-0.9-0.2-1.6-0.6-2.1S132.7,267.9,132,267.9z"/>
			<path class="st2" d="M154.9,276.4v-6.2c0-1.5-0.7-2.3-2-2.3c-0.9,0-1.6,0.3-2,0.8s-0.6,1.3-0.6,2.4v5.3h-1.6v-6.2
				c0-0.8-0.2-1.3-0.5-1.7c-0.3-0.4-0.8-0.6-1.5-0.6c-0.9,0-1.5,0.3-2,0.8c-0.4,0.5-0.6,1.4-0.6,2.7v5h-1.6v-9.7h1.3l0.2,1.3h0.1
				c0.3-0.5,0.7-0.8,1.2-1.1c0.5-0.3,1.1-0.4,1.7-0.4c1.5,0,2.5,0.5,3,1.6h0.1c0.3-0.5,0.7-0.9,1.3-1.2c0.5-0.3,1.1-0.4,1.8-0.4
				c1.1,0,1.9,0.3,2.4,0.8s0.8,1.5,0.8,2.7v6.3H154.9z"/>
			<path class="st2" d="M163.3,276.6c-1.4,0-2.6-0.4-3.4-1.3c-0.8-0.9-1.2-2.1-1.2-3.6c0-1.5,0.4-2.8,1.2-3.7
				c0.8-0.9,1.8-1.4,3.1-1.4c1.2,0,2.2,0.4,2.9,1.2c0.7,0.8,1.1,1.8,1.1,3.2v1h-6.6c0,1.1,0.3,1.9,0.8,2.5s1.3,0.9,2.2,0.9
				c0.5,0,1,0,1.5-0.1c0.5-0.1,1-0.3,1.6-0.5v1.4c-0.5,0.2-1,0.4-1.5,0.5S164,276.6,163.3,276.6z M162.9,267.9
				c-0.8,0-1.4,0.2-1.8,0.7s-0.7,1.2-0.8,2h4.9c0-0.9-0.2-1.6-0.6-2.1S163.7,267.9,162.9,267.9z"/>
			<path class="st2" d="M170.2,275.4c0-0.2,0-0.4,0.1-0.6c0.1-0.2,0.1-0.3,0.2-0.4c0.1-0.1,0.2-0.2,0.4-0.2c0.1,0,0.3-0.1,0.4-0.1
				c0.2,0,0.3,0,0.4,0.1c0.1,0,0.3,0.1,0.4,0.2c0.1,0.1,0.2,0.2,0.2,0.4c0.1,0.2,0.1,0.3,0.1,0.6c0,0.2,0,0.4-0.1,0.6
				c-0.1,0.2-0.1,0.3-0.2,0.4s-0.2,0.2-0.4,0.2c-0.1,0-0.3,0.1-0.4,0.1c-0.2,0-0.3,0-0.4-0.1s-0.3-0.1-0.4-0.2s-0.2-0.2-0.2-0.4
				C170.3,275.8,170.2,275.6,170.2,275.4z M171.9,272.8h-1.1l-0.4-9.2h2L171.9,272.8z"/>
		</g>
	</g>
</g>
<line class="st0" x1="31.5" y1="307.6" x2="543.8" y2="307.6"/>
<g>
	<g>
		<rect x="71.5" y="346" class="st0" width="6.7" height="16.7"/>
		<path class="st0" d="M98.1,350.2c1.2,0,2.1-0.9,2.1-2.1c0-1.2-0.9-2.1-2.1-2.1h-13v-4.4c0-2.2-1.8-4-4-4v4v-0.4v4.8l0,0v16.7h13.8
			v0c1.2,0,2.1-0.9,2.1-2.1c0-0.9-0.5-1.6-1.3-1.9l0-0.2c0.1,0,0.2,0,0.3,0c1.2,0,2.1-0.9,2.1-2.1c0-1-0.7-1.8-1.6-2l0-0.1
			c0.2,0,0.3,0.1,0.5,0.1c1.2,0,2.1-0.9,2.1-2.1c0-1.1-0.8-1.9-1.8-2.1l0-0.2C97.6,350.1,97.9,350.2,98.1,350.2z"/>
	</g>
	<g>
		<g>
			<path class="st2" d="M111.6,361.5h-1.6v-13.7h1.6V361.5z"/>
			<path class="st2" d="M114.3,349.3c0-0.4,0.1-0.6,0.3-0.8s0.4-0.2,0.7-0.2c0.2,0,0.5,0.1,0.6,0.2c0.2,0.2,0.3,0.4,0.3,0.8
				c0,0.3-0.1,0.6-0.3,0.8c-0.2,0.2-0.4,0.2-0.6,0.2c-0.3,0-0.5-0.1-0.7-0.2S114.3,349.6,114.3,349.3z M116.1,361.5h-1.6v-9.7h1.6
				V361.5z"/>
			<path class="st2" d="M120.4,356.6l0.5-0.7l0.6-0.7l3.1-3.3h1.8l-3.9,4.1l4.2,5.5h-1.9l-3.3-4.5l-1.1,1v3.5h-1.6v-13.7h1.6v7.1
				V356.6L120.4,356.6z"/>
			<path class="st2" d="M132.4,361.7c-1.4,0-2.6-0.4-3.4-1.3c-0.8-0.9-1.2-2.1-1.2-3.6c0-1.5,0.4-2.8,1.2-3.7s1.8-1.4,3.1-1.4
				c1.2,0,2.2,0.4,2.9,1.2s1.1,1.8,1.1,3.2v1h-6.6c0,1.1,0.3,1.9,0.8,2.5s1.3,0.9,2.2,0.9c0.5,0,1,0,1.5-0.1s1-0.3,1.6-0.5v1.4
				c-0.5,0.2-1,0.4-1.5,0.5S133,361.7,132.4,361.7z M132,353c-0.8,0-1.4,0.2-1.8,0.7s-0.7,1.2-0.8,2h4.9c0-0.9-0.2-1.6-0.6-2.1
				S132.7,353,132,353z"/>
			<path class="st2" d="M154.9,361.5v-6.2c0-1.5-0.7-2.3-2-2.3c-0.9,0-1.6,0.3-2,0.8s-0.6,1.3-0.6,2.4v5.3h-1.6v-6.2
				c0-0.8-0.2-1.3-0.5-1.7c-0.3-0.4-0.8-0.6-1.5-0.6c-0.9,0-1.5,0.3-2,0.8c-0.4,0.5-0.6,1.4-0.6,2.7v5h-1.6v-9.7h1.3l0.2,1.3h0.1
				c0.3-0.5,0.7-0.8,1.2-1.1c0.5-0.3,1.1-0.4,1.7-0.4c1.5,0,2.5,0.5,3,1.6h0.1c0.3-0.5,0.7-0.9,1.3-1.2c0.5-0.3,1.1-0.4,1.8-0.4
				c1.1,0,1.9,0.3,2.4,0.8s0.8,1.5,0.8,2.7v6.3H154.9z"/>
			<path class="st2" d="M163.3,361.7c-1.4,0-2.6-0.4-3.4-1.3c-0.8-0.9-1.2-2.1-1.2-3.6c0-1.5,0.4-2.8,1.2-3.7s1.8-1.4,3.1-1.4
				c1.2,0,2.2,0.4,2.9,1.2s1.1,1.8,1.1,3.2v1h-6.6c0,1.1,0.3,1.9,0.8,2.5s1.3,0.9,2.2,0.9c0.5,0,1,0,1.5-0.1s1-0.3,1.6-0.5v1.4
				c-0.5,0.2-1,0.4-1.5,0.5S164,361.7,163.3,361.7z M162.9,353c-0.8,0-1.4,0.2-1.8,0.7s-0.7,1.2-0.8,2h4.9c0-0.9-0.2-1.6-0.6-2.1
				S163.7,353,162.9,353z"/>
			<path class="st2" d="M170.2,360.6c0-0.2,0-0.4,0.1-0.6s0.1-0.3,0.2-0.4s0.2-0.2,0.4-0.2s0.3-0.1,0.4-0.1c0.2,0,0.3,0,0.4,0.1
				c0.1,0,0.3,0.1,0.4,0.2s0.2,0.2,0.2,0.4s0.1,0.3,0.1,0.6c0,0.2,0,0.4-0.1,0.6s-0.1,0.3-0.2,0.4s-0.2,0.2-0.4,0.2
				c-0.1,0-0.3,0.1-0.4,0.1c-0.2,0-0.3,0-0.4-0.1s-0.3-0.1-0.4-0.2s-0.2-0.2-0.2-0.4S170.2,360.8,170.2,360.6z M171.9,357.9h-1.1
				l-0.4-9.2h2L171.9,357.9z"/>
		</g>
	</g>
</g>
<line class="st0" x1="31.5" y1="392.7" x2="543.8" y2="392.7"/>
<g>
	<g>
		<rect x="71.5" y="431.1" class="st0" width="6.7" height="16.7"/>
		<path class="st0" d="M98.1,435.3c1.2,0,2.1-0.9,2.1-2.1c0-1.2-0.9-2.1-2.1-2.1h-13v-4.4c0-2.2-1.8-4-4-4v4v-0.4v4.8l0,0v16.7h13.8
			v0c1.2,0,2.1-0.9,2.1-2.1c0-0.9-0.5-1.6-1.3-1.9l0-0.2c0.1,0,0.2,0,0.3,0c1.2,0,2.1-0.9,2.1-2.1c0-1-0.7-1.8-1.6-2l0-0.1
			c0.2,0,0.3,0.1,0.5,0.1c1.2,0,2.1-0.9,2.1-2.1c0-1.1-0.8-1.9-1.8-2.1l0-0.2C97.6,435.2,97.9,435.3,98.1,435.3z"/>
	</g>
	<g>
		<g>
			<path class="st2" d="M111.6,446.6h-1.6V433h1.6V446.6z"/>
			<path class="st2" d="M114.3,434.4c0-0.4,0.1-0.6,0.3-0.8s0.4-0.2,0.7-0.2c0.2,0,0.5,0.1,0.6,0.2c0.2,0.2,0.3,0.4,0.3,0.8
				c0,0.3-0.1,0.6-0.3,0.8c-0.2,0.2-0.4,0.2-0.6,0.2c-0.3,0-0.5-0.1-0.7-0.2S114.3,434.7,114.3,434.4z M116.1,446.6h-1.6V437h1.6
				V446.6z"/>
			<path class="st2" d="M120.4,441.7l0.5-0.7l0.6-0.7l3.1-3.3h1.8l-3.9,4.1l4.2,5.5h-1.9l-3.3-4.5l-1.1,1v3.5h-1.6V433h1.6v7.1
				V441.7L120.4,441.7z"/>
			<path class="st2" d="M132.4,446.8c-1.4,0-2.6-0.4-3.4-1.3c-0.8-0.9-1.2-2.1-1.2-3.6c0-1.5,0.4-2.8,1.2-3.7s1.8-1.4,3.1-1.4
				c1.2,0,2.2,0.4,2.9,1.2s1.1,1.8,1.1,3.2v1h-6.6c0,1.1,0.3,1.9,0.8,2.5s1.3,0.9,2.2,0.9c0.5,0,1,0,1.5-0.1s1-0.3,1.6-0.5v1.4
				c-0.5,0.2-1,0.4-1.5,0.5S133,446.8,132.4,446.8z M132,438.1c-0.8,0-1.4,0.2-1.8,0.7s-0.7,1.2-0.8,2h4.9c0-0.9-0.2-1.6-0.6-2.1
				S132.7,438.1,132,438.1z"/>
			<path class="st2" d="M154.9,446.6v-6.2c0-1.5-0.7-2.3-2-2.3c-0.9,0-1.6,0.3-2,0.8s-0.6,1.3-0.6,2.4v5.3h-1.6v-6.2
				c0-0.8-0.2-1.3-0.5-1.7c-0.3-0.4-0.8-0.6-1.5-0.6c-0.9,0-1.5,0.3-2,0.8c-0.4,0.5-0.6,1.4-0.6,2.7v5h-1.6V437h1.3l0.2,1.3h0.1
				c0.3-0.5,0.7-0.8,1.2-1.1c0.5-0.3,1.1-0.4,1.7-0.4c1.5,0,2.5,0.5,3,1.6h0.1c0.3-0.5,0.7-0.9,1.3-1.2c0.5-0.3,1.1-0.4,1.8-0.4
				c1.1,0,1.9,0.3,2.4,0.8s0.8,1.5,0.8,2.7v6.3H154.9z"/>
			<path class="st2" d="M163.3,446.8c-1.4,0-2.6-0.4-3.4-1.3c-0.8-0.9-1.2-2.1-1.2-3.6c0-1.5,0.4-2.8,1.2-3.7s1.8-1.4,3.1-1.4
				c1.2,0,2.2,0.4,2.9,1.2s1.1,1.8,1.1,3.2v1h-6.6c0,1.1,0.3,1.9,0.8,2.5s1.3,0.9,2.2,0.9c0.5,0,1,0,1.5-0.1s1-0.3,1.6-0.5v1.4
				c-0.5,0.2-1,0.4-1.5,0.5S164,446.8,163.3,446.8z M162.9,438.1c-0.8,0-1.4,0.2-1.8,0.7s-0.7,1.2-0.8,2h4.9c0-0.9-0.2-1.6-0.6-2.1
				S163.7,438.1,162.9,438.1z"/>
			<path class="st2" d="M170.2,445.7c0-0.2,0-0.4,0.1-0.6s0.1-0.3,0.2-0.4s0.2-0.2,0.4-0.2s0.3-0.1,0.4-0.1c0.2,0,0.3,0,0.4,0.1
				c0.1,0,0.3,0.1,0.4,0.2s0.2,0.2,0.2,0.4s0.1,0.3,0.1,0.6c0,0.2,0,0.4-0.1,0.6s-0.1,0.3-0.2,0.4s-0.2,0.2-0.4,0.2
				c-0.1,0-0.3,0.1-0.4,0.1c-0.2,0-0.3,0-0.4-0.1s-0.3-0.1-0.4-0.2s-0.2-0.2-0.2-0.4S170.2,445.9,170.2,445.7z M171.9,443h-1.1
				l-0.4-9.2h2L171.9,443z"/>
		</g>
	</g>
</g>
</svg>
