<?xml version="1.0" encoding="utf-8"?>
<svg version="1.1" id="Layer_1" xmlns="http://www.w3.org/2000/svg" xmlns:xlink="http://www.w3.org/1999/xlink" x="0px" y="0px"
	 viewBox="0 0 1104.012 80.872" style="enable-background:new 0 0 1104.012 80.872;" xml:space="preserve">
<style type="text/css">
	.challenges-alert-st0{fill:none;stroke:#FFFFFF;stroke-miterlimit:10;}
	.challenges-alert-st1{fill:none;stroke:#504D50;stroke-width:0.9903;stroke-miterlimit:10;}
	.challenges-alert-st2{fill:#FFFFFF;}
	.challenges-alert-st3{fill:#F272AA;stroke:#FFFFFF;stroke-miterlimit:10;}
	.challenges-alert-st4{opacity:0.97;}
	.challenges-alert-st5{fill:#F2F0F0;}
	.challenges-alert-st6{fill:none;stroke:#F2F0F0;stroke-miterlimit:10;}
	.challenges-alert-st7{fill:#7AC442;stroke:#FFFFFF;stroke-miterlimit:10;}
	.challenges-alert-st8{fill:#F6F4F4;}
	.challenges-alert-st9{fill:#E8212D;stroke:#FFFFFF;stroke-miterlimit:10;}
	.challenges-alert-st10{opacity:0.85;fill:#F9F7F7;stroke:#FFFFFF;stroke-miterlimit:10;}
	.challenges-alert-st11{fill:#504D50;}
	.challenges-alert-st12{fill:#4F4C4F;stroke:#FFFFFF;stroke-miterlimit:10;}
	.challenges-alert-st13{fill:#7AC743;}
	.challenges-alert-st14{fill:#EA4130;}
	.challenges-alert-st15{fill:none;stroke:#4F4C4F;stroke-linecap:square;stroke-linejoin:bevel;stroke-miterlimit:10;}
	.challenges-alert-st16{fill-rule:evenodd;clip-rule:evenodd;fill:none;stroke:#14ABE1;stroke-width:3;stroke-linecap:round;stroke-miterlimit:10;}
	.challenges-alert-st17{opacity:0;}
	.challenges-alert-st18{fill:#FF1D25;stroke:#FFFFFF;stroke-miterlimit:10;}
	.challenges-alert-st19{clip-path:url(#SVGID_4_);}
	.challenges-alert-st20{fill:#7AC743;stroke:#FFFFFF;stroke-miterlimit:10;}
	.challenges-alert-st21{fill:url(#);}
	.challenges-alert-st22{fill:#7AC743;stroke:#FFFFFF;stroke-linecap:round;stroke-linejoin:round;stroke-miterlimit:10;}
	.challenges-alert-st23{fill:#7AC743;stroke:#FFFFFF;stroke-width:0.9071;stroke-miterlimit:10;}
	.challenges-alert-st24{fill:none;stroke:#FFFFFF;stroke-linecap:round;stroke-linejoin:round;}
	.challenges-alert-st25{fill:#7AC743;stroke:#FFFFFF;stroke-linecap:round;stroke-linejoin:round;}
</style>
<rect x="0.5" y="0.5" class="challenges-alert-st3" width="1103.012" height="79.872"/>
<g>
	<g class="challenges-alert-st4">
		<path class="challenges-alert-st5" d="M126.14,29.14l3.349-6.319h1.74l-4.28,7.866v4.983h-1.626v-4.913l-4.28-7.937h1.767L126.14,29.14z"/>
		<path class="challenges-alert-st5" d="M140.909,30.828c0,1.576-0.398,2.807-1.195,3.691s-1.898,1.327-3.305,1.327c-0.873,0-1.646-0.203-2.32-0.611
			c-0.674-0.406-1.192-0.991-1.556-1.753s-0.545-1.646-0.545-2.654c0-1.57,0.393-2.793,1.178-3.669s1.887-1.314,3.305-1.314
			c1.359,0,2.439,0.447,3.239,1.34C140.509,28.079,140.909,29.293,140.909,30.828z M133.623,30.828c0,1.213,0.239,2.135,0.716,2.765
			s1.182,0.944,2.114,0.944c0.92,0,1.62-0.314,2.101-0.944s0.721-1.552,0.721-2.765c0-1.213-0.242-2.125-0.725-2.737
			s-1.191-0.919-2.123-0.919C134.557,27.172,133.623,28.39,133.623,30.828z"/>
		<path class="challenges-alert-st5" d="M144.674,26.02v6.214c0,0.779,0.174,1.358,0.523,1.735c0.349,0.379,0.889,0.567,1.622,0.567
			c0.99,0,1.711-0.275,2.162-0.826s0.677-1.438,0.677-2.663V26.02h1.591v9.65h-1.301l-0.229-1.274h-0.079
			c-0.287,0.463-0.694,0.82-1.222,1.072s-1.14,0.378-1.837,0.378c-1.16,0-2.035-0.278-2.624-0.835s-0.883-1.447-0.883-2.672V26.02
			H144.674z"/>
		<path class="challenges-alert-st5" d="M156.63,22.548l0.123,0.193c-0.082,0.322-0.18,0.661-0.294,1.015c-0.114,0.355-0.24,0.716-0.378,1.082
			s-0.281,0.728-0.431,1.085s-0.297,0.7-0.444,1.028h-1.204c0.082-0.352,0.166-0.721,0.25-1.107s0.167-0.773,0.246-1.16
			s0.151-0.762,0.215-1.125s0.12-0.7,0.167-1.011H156.63z"/>
		<path class="challenges-alert-st5" d="M161.573,35.671l-3.656-9.65h1.696l2.048,5.687c0.404,1.143,0.662,1.995,0.773,2.558h0.07
			c0.018-0.076,0.04-0.162,0.066-0.26c0.026-0.096,0.057-0.201,0.092-0.316c0.035-0.113,0.252-0.774,0.65-1.981l2.057-5.687h1.688
			l-3.665,9.65H161.573z"/>
		<path class="challenges-alert-st5" d="M172.457,35.846c-1.447,0-2.583-0.438-3.406-1.314c-0.823-0.875-1.235-2.081-1.235-3.616
			c0-1.547,0.384-2.778,1.151-3.696c0.768-0.916,1.805-1.375,3.111-1.375c1.213,0,2.18,0.391,2.9,1.174
			c0.721,0.781,1.081,1.841,1.081,3.177v0.958h-6.609c0.029,1.096,0.308,1.928,0.835,2.496s1.274,0.853,2.241,0.853
			c0.516,0,1.005-0.045,1.468-0.136s1.005-0.269,1.626-0.532v1.389c-0.533,0.229-1.034,0.39-1.503,0.483
			S173.096,35.846,172.457,35.846z M172.062,27.136c-0.756,0-1.354,0.243-1.793,0.729s-0.7,1.163-0.782,2.03h4.913
			c-0.012-0.902-0.22-1.588-0.624-2.057S172.8,27.136,172.062,27.136z"/>
		<path class="challenges-alert-st5" d="M187.282,25.862c1.271,0,2.253,0.438,2.944,1.314s1.037,2.099,1.037,3.669c0,1.594-0.352,2.825-1.055,3.696
			c-0.703,0.869-1.679,1.305-2.927,1.305c-0.65,0-1.23-0.117-1.74-0.352s-0.926-0.583-1.248-1.046h-0.123
			c-0.182,0.703-0.29,1.11-0.325,1.222h-1.134V21.995h1.582v3.322c0,0.662-0.029,1.324-0.088,1.986h0.088
			C184.944,26.342,185.94,25.862,187.282,25.862z M187.018,27.172c-0.973,0-1.67,0.275-2.092,0.826s-0.633,1.482-0.633,2.795v0.07
			c0,1.318,0.215,2.261,0.646,2.825c0.431,0.566,1.135,0.849,2.114,0.849c0.867,0,1.513-0.317,1.938-0.954
			c0.425-0.635,0.637-1.554,0.637-2.755c0-1.219-0.214-2.133-0.642-2.742S187.903,27.172,187.018,27.172z"/>
		<path class="challenges-alert-st5" d="M197.656,35.846c-1.447,0-2.583-0.438-3.406-1.314c-0.823-0.875-1.235-2.081-1.235-3.616
			c0-1.547,0.384-2.778,1.151-3.696c0.768-0.916,1.805-1.375,3.111-1.375c1.213,0,2.18,0.391,2.9,1.174
			c0.721,0.781,1.081,1.841,1.081,3.177v0.958h-6.609c0.029,1.096,0.308,1.928,0.835,2.496s1.274,0.853,2.241,0.853
			c0.516,0,1.005-0.045,1.468-0.136s1.005-0.269,1.626-0.532v1.389c-0.533,0.229-1.034,0.39-1.503,0.483
			S198.295,35.846,197.656,35.846z M197.261,27.136c-0.756,0-1.354,0.243-1.793,0.729s-0.7,1.163-0.782,2.03h4.913
			c-0.012-0.902-0.22-1.588-0.624-2.057S197.999,27.136,197.261,27.136z"/>
		<path class="challenges-alert-st5" d="M207.574,35.846c-1.447,0-2.583-0.438-3.406-1.314c-0.823-0.875-1.235-2.081-1.235-3.616
			c0-1.547,0.384-2.778,1.151-3.696c0.768-0.916,1.805-1.375,3.111-1.375c1.213,0,2.18,0.391,2.9,1.174
			c0.721,0.781,1.081,1.841,1.081,3.177v0.958h-6.609c0.029,1.096,0.308,1.928,0.835,2.496s1.274,0.853,2.241,0.853
			c0.516,0,1.005-0.045,1.468-0.136s1.005-0.269,1.626-0.532v1.389c-0.533,0.229-1.034,0.39-1.503,0.483
			S208.212,35.846,207.574,35.846z M207.178,27.136c-0.756,0-1.354,0.243-1.793,0.729s-0.7,1.163-0.782,2.03h4.913
			c-0.012-0.902-0.22-1.588-0.624-2.057S207.917,27.136,207.178,27.136z"/>
		<path class="challenges-alert-st5" d="M219.961,35.671v-6.17c0-0.785-0.174-1.369-0.523-1.754c-0.349-0.383-0.895-0.575-1.639-0.575
			c-0.99,0-1.709,0.274-2.158,0.821c-0.448,0.549-0.672,1.44-0.672,2.677v5.001h-1.582v-9.65h1.274l0.237,1.318h0.088
			c0.299-0.475,0.718-0.842,1.257-1.104c0.539-0.26,1.134-0.391,1.784-0.391c1.184,0,2.062,0.287,2.637,0.861
			s0.861,1.468,0.861,2.681v6.284H219.961z"/>
		<path class="challenges-alert-st5" d="M235.005,33.007c0,0.902-0.337,1.602-1.011,2.097s-1.62,0.742-2.839,0.742c-1.271,0-2.282-0.202-3.032-0.606
			v-1.441c1.061,0.516,2.083,0.773,3.067,0.773c0.797,0,1.377-0.129,1.74-0.387s0.545-0.604,0.545-1.037
			c0-0.381-0.174-0.703-0.523-0.967c-0.349-0.264-0.968-0.565-1.859-0.905c-0.908-0.352-1.547-0.651-1.916-0.9
			s-0.64-0.529-0.813-0.84s-0.259-0.688-0.259-1.134c0-0.791,0.322-1.415,0.967-1.872s1.529-0.686,2.654-0.686
			c1.096,0,2.121,0.217,3.076,0.65l-0.536,1.257c-0.979-0.41-1.86-0.615-2.646-0.615c-0.656,0-1.154,0.104-1.494,0.312
			c-0.34,0.209-0.51,0.494-0.51,0.857c0,0.352,0.146,0.644,0.439,0.875s0.976,0.552,2.048,0.962c0.803,0.299,1.396,0.577,1.78,0.835
			s0.667,0.548,0.848,0.87C234.915,32.17,235.005,32.556,235.005,33.007z"/>
		<path class="challenges-alert-st5" d="M241.68,35.846c-1.295,0-2.291-0.466-2.988-1.397h-0.105l0.035,0.36c0.047,0.457,0.07,0.864,0.07,1.222v3.964
			h-1.582V26.02h1.301l0.211,1.318h0.07c0.375-0.527,0.809-0.908,1.301-1.143s1.061-0.352,1.705-0.352
			c1.254,0,2.228,0.436,2.922,1.305c0.694,0.871,1.042,2.097,1.042,3.679c0,1.576-0.349,2.807-1.046,3.691
			S242.939,35.846,241.68,35.846z M241.416,27.172c-0.955,0-1.645,0.27-2.07,0.809s-0.643,1.386-0.655,2.54v0.308
			c0,1.307,0.217,2.252,0.65,2.835s1.137,0.874,2.109,0.874c0.809,0,1.44-0.328,1.894-0.984s0.681-1.57,0.681-2.742
			c0-1.178-0.227-2.079-0.681-2.702C242.891,27.483,242.248,27.172,241.416,27.172z"/>
		<path class="challenges-alert-st5" d="M252.054,35.846c-1.447,0-2.583-0.438-3.406-1.314c-0.823-0.875-1.235-2.081-1.235-3.616
			c0-1.547,0.384-2.778,1.151-3.696c0.768-0.916,1.805-1.375,3.111-1.375c1.213,0,2.18,0.391,2.9,1.174
			c0.721,0.781,1.081,1.841,1.081,3.177v0.958h-6.609c0.029,1.096,0.308,1.928,0.835,2.496s1.274,0.853,2.241,0.853
			c0.516,0,1.005-0.045,1.468-0.136s1.005-0.269,1.626-0.532v1.389c-0.533,0.229-1.034,0.39-1.503,0.483
			S252.693,35.846,252.054,35.846z M251.659,27.136c-0.756,0-1.354,0.243-1.793,0.729s-0.7,1.163-0.782,2.03h4.913
			c-0.012-0.902-0.22-1.588-0.624-2.057S252.397,27.136,251.659,27.136z"/>
		<path class="challenges-alert-st5" d="M264.441,35.671v-6.17c0-0.785-0.174-1.369-0.523-1.754c-0.349-0.383-0.895-0.575-1.639-0.575
			c-0.99,0-1.709,0.274-2.158,0.821c-0.448,0.549-0.672,1.44-0.672,2.677v5.001h-1.582v-9.65h1.274l0.237,1.318h0.088
			c0.299-0.475,0.718-0.842,1.257-1.104c0.539-0.26,1.134-0.391,1.784-0.391c1.184,0,2.062,0.287,2.637,0.861
			s0.861,1.468,0.861,2.681v6.284H264.441z"/>
		<path class="challenges-alert-st5" d="M272.179,35.846c-1.254,0-2.227-0.434-2.918-1.301s-1.037-2.095-1.037-3.683c0-1.576,0.347-2.807,1.042-3.691
			s1.671-1.327,2.931-1.327c1.295,0,2.291,0.475,2.988,1.424h0.114c-0.018-0.117-0.041-0.353-0.07-0.707s-0.044-0.594-0.044-0.717
			v-3.85h1.582v13.676h-1.274l-0.237-1.292h-0.07C274.511,35.357,273.509,35.846,272.179,35.846z M272.434,34.537
			c0.961,0,1.663-0.262,2.105-0.786s0.664-1.385,0.664-2.58v-0.29c0-1.342-0.224-2.298-0.672-2.87
			c-0.448-0.57-1.153-0.856-2.114-0.856c-0.814,0-1.444,0.324-1.89,0.972s-0.668,1.571-0.668,2.772c0,1.195,0.221,2.101,0.664,2.716
			S271.602,34.537,272.434,34.537z"/>
		<path class="challenges-alert-st5" d="M279.477,23.41c0-0.352,0.089-0.606,0.268-0.765s0.4-0.237,0.664-0.237c0.246,0,0.461,0.079,0.646,0.237
			s0.277,0.413,0.277,0.765c0,0.346-0.092,0.601-0.277,0.765s-0.4,0.246-0.646,0.246c-0.264,0-0.485-0.082-0.664-0.246
			S279.477,23.756,279.477,23.41z M281.182,35.671H279.6v-9.65h1.582V35.671z"/>
		<path class="challenges-alert-st5" d="M290.581,35.671v-6.17c0-0.785-0.174-1.369-0.523-1.754c-0.349-0.383-0.895-0.575-1.639-0.575
			c-0.99,0-1.709,0.274-2.158,0.821c-0.448,0.549-0.672,1.44-0.672,2.677v5.001h-1.582v-9.65h1.274l0.237,1.318h0.088
			c0.299-0.475,0.718-0.842,1.257-1.104c0.539-0.26,1.134-0.391,1.784-0.391c1.184,0,2.062,0.287,2.637,0.861
			s0.861,1.468,0.861,2.681v6.284H290.581z"/>
		<path class="challenges-alert-st5" d="M301.342,35.583l0.053-1.187h-0.07c-0.65,0.967-1.646,1.45-2.988,1.45c-1.248,0-2.222-0.436-2.922-1.305
			c-0.7-0.871-1.05-2.097-1.05-3.679c0-1.553,0.353-2.777,1.059-3.674s1.671-1.345,2.896-1.345c1.307,0,2.314,0.486,3.023,1.459
			h0.097l0.211-1.283h1.257v9.809c0,1.383-0.35,2.423-1.05,3.12s-1.789,1.046-3.265,1.046c-1.406,0-2.563-0.205-3.472-0.615v-1.459
			c0.938,0.504,2.124,0.756,3.56,0.756c0.82,0,1.469-0.24,1.947-0.721s0.716-1.146,0.716-1.995V35.583z M298.574,34.554
			c0.973,0,1.68-0.262,2.123-0.786s0.664-1.367,0.664-2.527v-0.378c0-1.289-0.223-2.227-0.668-2.812s-1.163-0.879-2.153-0.879
			c-0.809,0-1.434,0.321-1.876,0.962c-0.442,0.643-0.664,1.558-0.664,2.747c0,1.195,0.215,2.106,0.646,2.733
			S297.718,34.554,298.574,34.554z"/>
		<path class="challenges-alert-st5" d="M316.141,35.671l-0.308-1.371h-0.07c-0.48,0.604-0.959,1.013-1.437,1.227c-0.478,0.213-1.08,0.32-1.806,0.32
			c-0.949,0-1.693-0.249-2.232-0.747s-0.809-1.201-0.809-2.109c0-1.957,1.544-2.982,4.632-3.076l1.635-0.062v-0.571
			c0-0.732-0.158-1.272-0.475-1.622c-0.316-0.348-0.823-0.522-1.521-0.522c-0.51,0-0.992,0.076-1.446,0.229s-0.88,0.322-1.279,0.51
			l-0.483-1.187c0.486-0.258,1.017-0.46,1.591-0.606s1.143-0.22,1.705-0.22c1.166,0,2.033,0.258,2.602,0.773
			s0.853,1.336,0.853,2.461v6.574H316.141z M312.88,34.572c0.885,0,1.581-0.238,2.087-0.716s0.76-1.156,0.76-2.035v-0.87
			l-1.424,0.062c-1.107,0.041-1.915,0.217-2.421,0.527s-0.76,0.8-0.76,1.468c0,0.504,0.154,0.891,0.461,1.16
			S312.323,34.572,312.88,34.572z"/>
		<path class="challenges-alert-st5" d="M326.07,35.671h-1.582V21.995h1.582V35.671z"/>
		<path class="challenges-alert-st5" d="M337.279,30.828c0,1.576-0.398,2.807-1.195,3.691s-1.898,1.327-3.305,1.327c-0.873,0-1.646-0.203-2.32-0.611
			c-0.674-0.406-1.192-0.991-1.556-1.753s-0.545-1.646-0.545-2.654c0-1.57,0.393-2.793,1.178-3.669s1.887-1.314,3.305-1.314
			c1.359,0,2.439,0.447,3.239,1.34C336.879,28.079,337.279,29.293,337.279,30.828z M329.993,30.828c0,1.213,0.239,2.135,0.716,2.765
			s1.182,0.944,2.114,0.944c0.92,0,1.62-0.314,2.101-0.944s0.721-1.552,0.721-2.765c0-1.213-0.242-2.125-0.725-2.737
			s-1.191-0.919-2.123-0.919C330.928,27.172,329.993,28.39,329.993,30.828z"/>
		<path class="challenges-alert-st5" d="M342.776,34.554c0.205,0,0.445-0.021,0.721-0.062s0.483-0.088,0.624-0.141v1.213
			c-0.146,0.064-0.374,0.127-0.681,0.189c-0.308,0.061-0.62,0.092-0.936,0.092c-1.887,0-2.83-0.993-2.83-2.979v-5.616h-1.362v-0.756
			l1.38-0.633l0.633-2.057h0.94v2.215h2.786v1.23h-2.786v5.572c0,0.557,0.133,0.984,0.4,1.283S342.301,34.554,342.776,34.554z"/>
		<path class="challenges-alert-st5" d="M358.638,30.828c0,1.576-0.398,2.807-1.195,3.691s-1.898,1.327-3.305,1.327c-0.873,0-1.646-0.203-2.32-0.611
			c-0.674-0.406-1.192-0.991-1.556-1.753s-0.545-1.646-0.545-2.654c0-1.57,0.393-2.793,1.178-3.669s1.887-1.314,3.305-1.314
			c1.359,0,2.439,0.447,3.239,1.34C358.238,28.079,358.638,29.293,358.638,30.828z M351.352,30.828c0,1.213,0.239,2.135,0.716,2.765
			s1.182,0.944,2.114,0.944c0.92,0,1.62-0.314,2.101-0.944s0.721-1.552,0.721-2.765c0-1.213-0.242-2.125-0.725-2.737
			s-1.191-0.919-2.123-0.919C352.287,27.172,351.352,28.39,351.352,30.828z"/>
		<path class="challenges-alert-st5" d="M365.356,27.251h-2.435v8.42h-1.582v-8.42h-1.688v-0.738l1.688-0.545v-0.554c0-1.172,0.256-2.051,0.769-2.637
			s1.302-0.879,2.369-0.879c0.615,0,1.239,0.108,1.872,0.325l-0.422,1.239c-0.545-0.176-1.022-0.264-1.433-0.264
			c-0.533,0-0.929,0.176-1.187,0.527s-0.387,0.908-0.387,1.67v0.624h2.435V27.251z"/>
		<path class="challenges-alert-st5" d="M374.539,34.554c0.205,0,0.445-0.021,0.721-0.062s0.483-0.088,0.624-0.141v1.213
			c-0.146,0.064-0.374,0.127-0.681,0.189c-0.308,0.061-0.62,0.092-0.936,0.092c-1.887,0-2.83-0.993-2.83-2.979v-5.616h-1.362v-0.756
			l1.38-0.633l0.633-2.057h0.94v2.215h2.786v1.23h-2.786v5.572c0,0.557,0.133,0.984,0.4,1.283S374.064,34.554,374.539,34.554z"/>
		<path class="challenges-alert-st5" d="M377.451,23.41c0-0.352,0.089-0.606,0.268-0.765s0.4-0.237,0.664-0.237c0.246,0,0.461,0.079,0.646,0.237
			s0.277,0.413,0.277,0.765c0,0.346-0.092,0.601-0.277,0.765s-0.4,0.246-0.646,0.246c-0.264,0-0.485-0.082-0.664-0.246
			S377.451,23.756,377.451,23.41z M379.156,35.671h-1.582v-9.65h1.582V35.671z"/>
		<path class="challenges-alert-st5" d="M394.259,35.671v-6.214c0-1.523-0.653-2.285-1.96-2.285c-0.896,0-1.556,0.261-1.978,0.782
			s-0.633,1.318-0.633,2.391v5.326h-1.573v-6.214c0-0.762-0.16-1.333-0.479-1.714s-0.819-0.571-1.499-0.571
			c-0.891,0-1.542,0.272-1.956,0.817s-0.62,1.438-0.62,2.681v5.001h-1.582v-9.65h1.274l0.237,1.318h0.088
			c0.275-0.469,0.664-0.835,1.165-1.099s1.062-0.396,1.683-0.396c1.512,0,2.496,0.539,2.953,1.617h0.088
			c0.311-0.516,0.734-0.914,1.27-1.195s1.144-0.422,1.824-0.422c1.09,0,1.906,0.281,2.448,0.844s0.813,1.462,0.813,2.698v6.284
			H394.259z"/>
		<path class="challenges-alert-st5" d="M402.682,35.846c-1.447,0-2.583-0.438-3.406-1.314c-0.823-0.875-1.235-2.081-1.235-3.616
			c0-1.547,0.384-2.778,1.151-3.696c0.768-0.916,1.805-1.375,3.111-1.375c1.213,0,2.18,0.391,2.9,1.174
			c0.721,0.781,1.081,1.841,1.081,3.177v0.958h-6.609c0.029,1.096,0.308,1.928,0.835,2.496s1.274,0.853,2.241,0.853
			c0.516,0,1.005-0.045,1.468-0.136s1.005-0.269,1.626-0.532v1.389c-0.533,0.229-1.034,0.39-1.503,0.483
			S403.321,35.846,402.682,35.846z M402.287,27.136c-0.756,0-1.354,0.243-1.793,0.729s-0.7,1.163-0.782,2.03h4.913
			c-0.012-0.902-0.22-1.588-0.624-2.057S403.025,27.136,402.287,27.136z"/>
		<path class="challenges-alert-st5" d="M421.322,30.828c0,1.576-0.398,2.807-1.195,3.691s-1.898,1.327-3.305,1.327c-0.873,0-1.646-0.203-2.32-0.611
			c-0.674-0.406-1.192-0.991-1.556-1.753s-0.545-1.646-0.545-2.654c0-1.57,0.393-2.793,1.178-3.669s1.887-1.314,3.305-1.314
			c1.359,0,2.439,0.447,3.239,1.34C420.922,28.079,421.322,29.293,421.322,30.828z M414.036,30.828c0,1.213,0.239,2.135,0.716,2.765
			s1.182,0.944,2.114,0.944c0.92,0,1.62-0.314,2.101-0.944s0.721-1.552,0.721-2.765c0-1.213-0.242-2.125-0.725-2.737
			s-1.191-0.919-2.123-0.919C414.97,27.172,414.036,28.39,414.036,30.828z"/>
		<path class="challenges-alert-st5" d="M430.167,35.671v-6.17c0-0.785-0.174-1.369-0.523-1.754c-0.349-0.383-0.895-0.575-1.639-0.575
			c-0.99,0-1.709,0.274-2.158,0.821c-0.448,0.549-0.672,1.44-0.672,2.677v5.001h-1.582v-9.65h1.274l0.237,1.318h0.088
			c0.299-0.475,0.718-0.842,1.257-1.104c0.539-0.26,1.134-0.391,1.784-0.391c1.184,0,2.062,0.287,2.637,0.861
			s0.861,1.468,0.861,2.681v6.284H430.167z"/>
		<path class="challenges-alert-st5" d="M440.764,35.671h-1.617v-12.85h7.181v1.424h-5.563v4.553h5.221v1.415h-5.221V35.671z"/>
		<path class="challenges-alert-st5" d="M453.995,35.671l-0.308-1.371h-0.07c-0.48,0.604-0.959,1.013-1.437,1.227c-0.478,0.213-1.08,0.32-1.806,0.32
			c-0.949,0-1.693-0.249-2.232-0.747s-0.809-1.201-0.809-2.109c0-1.957,1.544-2.982,4.632-3.076l1.635-0.062v-0.571
			c0-0.732-0.158-1.272-0.475-1.622c-0.316-0.348-0.823-0.522-1.521-0.522c-0.51,0-0.992,0.076-1.446,0.229s-0.88,0.322-1.279,0.51
			l-0.483-1.187c0.486-0.258,1.017-0.46,1.591-0.606s1.143-0.22,1.705-0.22c1.166,0,2.033,0.258,2.602,0.773
			s0.853,1.336,0.853,2.461v6.574H453.995z M450.734,34.572c0.885,0,1.581-0.238,2.087-0.716s0.76-1.156,0.76-2.035v-0.87
			l-1.424,0.062c-1.107,0.041-1.915,0.217-2.421,0.527s-0.76,0.8-0.76,1.468c0,0.504,0.154,0.891,0.461,1.16
			S450.178,34.572,450.734,34.572z"/>
		<path class="challenges-alert-st5" d="M461.768,35.846c-1.389,0-2.47-0.426-3.243-1.279c-0.773-0.852-1.16-2.075-1.16-3.669
			c0-1.617,0.391-2.863,1.173-3.739s1.897-1.314,3.344-1.314c0.469,0,0.933,0.049,1.393,0.145c0.46,0.098,0.839,0.222,1.138,0.374
			l-0.483,1.318c-0.814-0.305-1.509-0.457-2.083-0.457c-0.973,0-1.69,0.307-2.153,0.919S459,29.668,459,30.881
			c0,1.166,0.231,2.059,0.694,2.677s1.148,0.927,2.057,0.927c0.85,0,1.685-0.188,2.505-0.562v1.406
			C463.587,35.673,462.758,35.846,461.768,35.846z"/>
		<path class="challenges-alert-st5" d="M470.411,35.846c-1.447,0-2.583-0.438-3.406-1.314c-0.823-0.875-1.235-2.081-1.235-3.616
			c0-1.547,0.384-2.778,1.151-3.696c0.768-0.916,1.805-1.375,3.111-1.375c1.213,0,2.18,0.391,2.9,1.174
			c0.721,0.781,1.081,1.841,1.081,3.177v0.958h-6.609c0.029,1.096,0.308,1.928,0.835,2.496s1.274,0.853,2.241,0.853
			c0.516,0,1.005-0.045,1.468-0.136s1.005-0.269,1.626-0.532v1.389c-0.533,0.229-1.034,0.39-1.503,0.483
			S471.049,35.846,470.411,35.846z M470.015,27.136c-0.756,0-1.354,0.243-1.793,0.729s-0.7,1.163-0.782,2.03h4.913
			c-0.012-0.902-0.22-1.588-0.624-2.057S470.753,27.136,470.015,27.136z"/>
		<path class="challenges-alert-st5" d="M480.794,25.862c1.271,0,2.253,0.438,2.944,1.314s1.037,2.099,1.037,3.669c0,1.594-0.352,2.825-1.055,3.696
			c-0.703,0.869-1.679,1.305-2.927,1.305c-0.65,0-1.23-0.117-1.74-0.352s-0.926-0.583-1.248-1.046h-0.123
			c-0.182,0.703-0.29,1.11-0.325,1.222h-1.134V21.995h1.582v3.322c0,0.662-0.029,1.324-0.088,1.986h0.088
			C478.456,26.342,479.452,25.862,480.794,25.862z M480.53,27.172c-0.973,0-1.67,0.275-2.092,0.826s-0.633,1.482-0.633,2.795v0.07
			c0,1.318,0.215,2.261,0.646,2.825c0.431,0.566,1.135,0.849,2.114,0.849c0.867,0,1.513-0.317,1.938-0.954
			c0.425-0.635,0.637-1.554,0.637-2.755c0-1.219-0.214-2.133-0.642-2.742S481.415,27.172,480.53,27.172z"/>
		<path class="challenges-alert-st5" d="M495.449,30.828c0,1.576-0.398,2.807-1.195,3.691s-1.898,1.327-3.305,1.327c-0.873,0-1.646-0.203-2.32-0.611
			c-0.674-0.406-1.192-0.991-1.556-1.753s-0.545-1.646-0.545-2.654c0-1.57,0.393-2.793,1.178-3.669s1.887-1.314,3.305-1.314
			c1.359,0,2.439,0.447,3.239,1.34C495.049,28.079,495.449,29.293,495.449,30.828z M488.163,30.828c0,1.213,0.239,2.135,0.716,2.765
			s1.182,0.944,2.114,0.944c0.92,0,1.62-0.314,2.101-0.944s0.721-1.552,0.721-2.765c0-1.213-0.242-2.125-0.725-2.737
			s-1.191-0.919-2.123-0.919C489.097,27.172,488.163,28.39,488.163,30.828z"/>
		<path class="challenges-alert-st5" d="M506.105,30.828c0,1.576-0.398,2.807-1.195,3.691s-1.898,1.327-3.305,1.327c-0.873,0-1.646-0.203-2.32-0.611
			c-0.674-0.406-1.192-0.991-1.556-1.753s-0.545-1.646-0.545-2.654c0-1.57,0.393-2.793,1.178-3.669s1.887-1.314,3.305-1.314
			c1.359,0,2.439,0.447,3.239,1.34C505.705,28.079,506.105,29.293,506.105,30.828z M498.818,30.828c0,1.213,0.239,2.135,0.716,2.765
			s1.182,0.944,2.114,0.944c0.92,0,1.62-0.314,2.101-0.944s0.721-1.552,0.721-2.765c0-1.213-0.242-2.125-0.725-2.737
			s-1.191-0.919-2.123-0.919C499.753,27.172,498.818,28.39,498.818,30.828z"/>
		<path class="challenges-alert-st5" d="M509.94,30.705l0.536-0.686l0.615-0.738l3.085-3.261h1.846l-3.902,4.122l4.175,5.528h-1.907l-3.349-4.5
			l-1.099,0.958v3.542h-1.564V21.995h1.564v7.146l-0.07,1.564H509.94z"/>
		<path class="challenges-alert-st5" d="M517.519,34.695c0-0.223,0.029-0.411,0.088-0.567c0.059-0.154,0.138-0.281,0.237-0.377
			c0.1-0.098,0.217-0.168,0.352-0.211c0.135-0.045,0.281-0.066,0.439-0.066c0.152,0,0.297,0.021,0.435,0.066
			c0.138,0.043,0.256,0.113,0.356,0.211c0.1,0.096,0.179,0.223,0.237,0.377c0.059,0.156,0.088,0.345,0.088,0.567
			c0,0.217-0.029,0.403-0.088,0.558c-0.059,0.156-0.138,0.283-0.237,0.383s-0.218,0.173-0.356,0.22s-0.283,0.07-0.435,0.07
			c-0.158,0-0.305-0.023-0.439-0.07s-0.252-0.12-0.352-0.22s-0.179-0.227-0.237-0.383C517.548,35.098,517.519,34.912,517.519,34.695
			z"/>
		<path class="challenges-alert-st5" d="M126.403,57.27h-4.641v-0.932l1.512-0.343V45.713l-1.512-0.36v-0.932h4.641v0.932l-1.512,0.36v10.283
			l1.512,0.343V57.27z"/>
		<path class="challenges-alert-st5" d="M136.746,57.446c-1.389,0-2.47-0.426-3.243-1.279c-0.773-0.852-1.16-2.075-1.16-3.669
			c0-1.617,0.391-2.863,1.173-3.739s1.897-1.314,3.344-1.314c0.469,0,0.933,0.049,1.393,0.145c0.46,0.098,0.839,0.222,1.138,0.374
			l-0.483,1.318c-0.814-0.305-1.509-0.457-2.083-0.457c-0.973,0-1.69,0.307-2.153,0.919s-0.694,1.524-0.694,2.737
			c0,1.166,0.231,2.059,0.694,2.677s1.148,0.927,2.057,0.927c0.85,0,1.685-0.188,2.505-0.562v1.406
			C138.565,57.273,137.736,57.446,136.746,57.446z"/>
		<path class="challenges-alert-st5" d="M147.858,57.27V51.1c0-0.785-0.174-1.369-0.523-1.754c-0.349-0.383-0.895-0.575-1.639-0.575
			c-0.979,0-1.695,0.272-2.149,0.817s-0.681,1.444-0.681,2.698v4.983h-1.582V43.594h1.582v4.008c0,0.527-0.029,0.979-0.088,1.354
			h0.105c0.287-0.469,0.694-0.835,1.222-1.099s1.122-0.396,1.784-0.396c1.172,0,2.054,0.28,2.646,0.84s0.888,1.454,0.888,2.685
			v6.284H147.858z"/>
		<path class="challenges-alert-st5" d="M158.136,57.27l-0.308-1.371h-0.07c-0.48,0.604-0.959,1.013-1.437,1.227c-0.478,0.213-1.08,0.32-1.806,0.32
			c-0.949,0-1.693-0.249-2.232-0.747s-0.809-1.201-0.809-2.109c0-1.957,1.544-2.982,4.632-3.076l1.635-0.062v-0.571
			c0-0.732-0.158-1.272-0.475-1.622c-0.316-0.348-0.823-0.522-1.521-0.522c-0.51,0-0.992,0.076-1.446,0.229s-0.88,0.322-1.279,0.51
			l-0.483-1.187c0.486-0.258,1.017-0.46,1.591-0.606s1.143-0.22,1.705-0.22c1.166,0,2.033,0.258,2.602,0.773
			s0.853,1.336,0.853,2.461v6.574H158.136z M154.876,56.172c0.885,0,1.581-0.238,2.087-0.716s0.76-1.156,0.76-2.035v-0.87
			l-1.424,0.062c-1.107,0.041-1.915,0.217-2.421,0.527s-0.76,0.8-0.76,1.468c0,0.504,0.154,0.891,0.461,1.16
			S154.319,56.172,154.876,56.172z"/>
		<path class="challenges-alert-st5" d="M163.624,57.27h-1.582V43.594h1.582V57.27z"/>
		<path class="challenges-alert-st5" d="M168.031,57.27h-1.582V43.594h1.582V57.27z"/>
		<path class="challenges-alert-st5" d="M174.959,57.446c-1.447,0-2.583-0.438-3.406-1.314c-0.823-0.875-1.235-2.081-1.235-3.616
			c0-1.547,0.384-2.778,1.151-3.696c0.768-0.916,1.805-1.375,3.111-1.375c1.213,0,2.18,0.391,2.9,1.174
			c0.721,0.781,1.081,1.841,1.081,3.177v0.958h-6.609c0.029,1.096,0.308,1.928,0.835,2.496s1.274,0.853,2.241,0.853
			c0.516,0,1.005-0.045,1.468-0.136s1.005-0.269,1.626-0.532v1.389c-0.533,0.229-1.034,0.39-1.503,0.483
			S175.598,57.446,174.959,57.446z M174.564,48.736c-0.756,0-1.354,0.243-1.793,0.729s-0.7,1.163-0.782,2.03h4.913
			c-0.012-0.902-0.22-1.588-0.624-2.057S175.302,48.736,174.564,48.736z"/>
		<path class="challenges-alert-st5" d="M187.347,57.27V51.1c0-0.785-0.174-1.369-0.523-1.754c-0.349-0.383-0.895-0.575-1.639-0.575
			c-0.99,0-1.709,0.274-2.158,0.821c-0.448,0.549-0.672,1.44-0.672,2.677v5.001h-1.582v-9.65h1.274l0.237,1.318h0.088
			c0.299-0.475,0.718-0.842,1.257-1.104c0.539-0.26,1.134-0.391,1.784-0.391c1.184,0,2.062,0.287,2.637,0.861
			s0.861,1.468,0.861,2.681v6.284H187.347z"/>
		<path class="challenges-alert-st5" d="M198.108,57.182l0.053-1.187h-0.07c-0.65,0.967-1.646,1.45-2.988,1.45c-1.248,0-2.222-0.436-2.922-1.305
			c-0.7-0.871-1.05-2.097-1.05-3.679c0-1.553,0.353-2.777,1.059-3.674s1.671-1.345,2.896-1.345c1.307,0,2.314,0.486,3.023,1.459
			h0.097l0.211-1.283h1.257v9.809c0,1.383-0.35,2.423-1.05,3.12s-1.789,1.046-3.265,1.046c-1.406,0-2.563-0.205-3.472-0.615V59.52
			c0.938,0.504,2.124,0.756,3.56,0.756c0.82,0,1.469-0.24,1.947-0.721s0.716-1.146,0.716-1.995V57.182z M195.339,56.154
			c0.973,0,1.68-0.262,2.123-0.786s0.664-1.367,0.664-2.527v-0.378c0-1.289-0.223-2.227-0.668-2.812s-1.163-0.879-2.153-0.879
			c-0.809,0-1.434,0.321-1.876,0.962c-0.442,0.643-0.664,1.558-0.664,2.747c0,1.195,0.215,2.106,0.646,2.733
			S194.484,56.154,195.339,56.154z"/>
		<path class="challenges-alert-st5" d="M206.61,57.446c-1.447,0-2.583-0.438-3.406-1.314c-0.823-0.875-1.235-2.081-1.235-3.616
			c0-1.547,0.384-2.778,1.151-3.696c0.768-0.916,1.805-1.375,3.111-1.375c1.213,0,2.18,0.391,2.9,1.174
			c0.721,0.781,1.081,1.841,1.081,3.177v0.958h-6.609c0.029,1.096,0.308,1.928,0.835,2.496s1.274,0.853,2.241,0.853
			c0.516,0,1.005-0.045,1.468-0.136s1.005-0.269,1.626-0.532v1.389c-0.533,0.229-1.034,0.39-1.503,0.483
			S207.249,57.446,206.61,57.446z M206.215,48.736c-0.756,0-1.354,0.243-1.793,0.729s-0.7,1.163-0.782,2.03h4.913
			c-0.012-0.902-0.22-1.588-0.624-2.057S206.953,48.736,206.215,48.736z"/>
		<path class="challenges-alert-st5" d="M215.353,47.62h1.696l2.083,5.493c0.439,1.195,0.709,2.071,0.809,2.628h0.07
			c0.053-0.217,0.173-0.622,0.36-1.217s0.346-1.071,0.475-1.429l1.96-5.476h1.705l-4.157,10.986
			c-0.404,1.066-0.885,1.831-1.441,2.294s-1.245,0.694-2.065,0.694c-0.439,0-0.876-0.05-1.31-0.149v-1.257
			c0.293,0.07,0.645,0.105,1.055,0.105c0.504,0,0.932-0.14,1.283-0.418s0.639-0.707,0.861-1.287l0.501-1.283L215.353,47.62z"/>
		<path class="challenges-alert-st5" d="M234.191,52.427c0,1.576-0.398,2.807-1.195,3.691s-1.898,1.327-3.305,1.327c-0.873,0-1.646-0.203-2.32-0.611
			c-0.674-0.406-1.192-0.991-1.556-1.753s-0.545-1.646-0.545-2.654c0-1.57,0.393-2.793,1.178-3.669s1.887-1.314,3.305-1.314
			c1.359,0,2.439,0.447,3.239,1.34C233.792,49.678,234.191,50.892,234.191,52.427z M226.905,52.427c0,1.213,0.239,2.135,0.716,2.765
			s1.182,0.944,2.114,0.944c0.92,0,1.62-0.314,2.101-0.944s0.721-1.552,0.721-2.765s-0.242-2.125-0.725-2.737
			s-1.191-0.919-2.123-0.919C227.84,48.771,226.905,49.99,226.905,52.427z"/>
		<path class="challenges-alert-st5" d="M237.957,47.62v6.214c0,0.779,0.174,1.358,0.523,1.735c0.349,0.379,0.889,0.567,1.622,0.567
			c0.99,0,1.711-0.275,2.162-0.826s0.677-1.438,0.677-2.663V47.62h1.591v9.65h-1.301l-0.229-1.274h-0.079
			c-0.287,0.463-0.694,0.82-1.222,1.072s-1.14,0.378-1.837,0.378c-1.16,0-2.035-0.278-2.624-0.835s-0.883-1.447-0.883-2.672V47.62
			H237.957z"/>
		<path class="challenges-alert-st5" d="M258.371,57.27V51.1c0-0.785-0.174-1.369-0.523-1.754c-0.349-0.383-0.895-0.575-1.639-0.575
			c-0.99,0-1.709,0.274-2.158,0.821c-0.448,0.549-0.672,1.44-0.672,2.677v5.001h-1.582v-9.65h1.274l0.237,1.318h0.088
			c0.299-0.475,0.718-0.842,1.257-1.104c0.539-0.26,1.134-0.391,1.784-0.391c1.184,0,2.062,0.287,2.637,0.861
			s0.861,1.468,0.861,2.681v6.284H258.371z"/>
		<path class="challenges-alert-st5" d="M271.075,52.427c0,1.576-0.398,2.807-1.195,3.691s-1.898,1.327-3.305,1.327c-0.873,0-1.646-0.203-2.32-0.611
			c-0.674-0.406-1.192-0.991-1.556-1.753s-0.545-1.646-0.545-2.654c0-1.57,0.393-2.793,1.178-3.669s1.887-1.314,3.305-1.314
			c1.359,0,2.439,0.447,3.239,1.34C270.675,49.678,271.075,50.892,271.075,52.427z M263.789,52.427c0,1.213,0.239,2.135,0.716,2.765
			s1.182,0.944,2.114,0.944c0.92,0,1.62-0.314,2.101-0.944s0.721-1.552,0.721-2.765s-0.242-2.125-0.725-2.737
			s-1.191-0.919-2.123-0.919C264.723,48.771,263.789,49.99,263.789,52.427z"/>
		<path class="challenges-alert-st5" d="M276.571,56.154c0.205,0,0.445-0.021,0.721-0.062s0.483-0.088,0.624-0.141v1.213
			c-0.146,0.064-0.374,0.127-0.681,0.189c-0.308,0.061-0.62,0.092-0.936,0.092c-1.887,0-2.83-0.993-2.83-2.979V48.85h-1.362v-0.756
			l1.38-0.633l0.633-2.057h0.94v2.215h2.786v1.23h-2.786v5.572c0,0.557,0.133,0.984,0.4,1.283S276.097,56.154,276.571,56.154z"/>
		<path class="challenges-alert-st5" d="M287.274,56.154c0.205,0,0.445-0.021,0.721-0.062s0.483-0.088,0.624-0.141v1.213
			c-0.146,0.064-0.374,0.127-0.681,0.189c-0.308,0.061-0.62,0.092-0.936,0.092c-1.887,0-2.83-0.993-2.83-2.979V48.85h-1.362v-0.756
			l1.38-0.633l0.633-2.057h0.94v2.215h2.786v1.23h-2.786v5.572c0,0.557,0.133,0.984,0.4,1.283S286.799,56.154,287.274,56.154z"/>
		<path class="challenges-alert-st5" d="M298.694,52.427c0,1.576-0.398,2.807-1.195,3.691s-1.898,1.327-3.305,1.327c-0.873,0-1.646-0.203-2.32-0.611
			c-0.674-0.406-1.192-0.991-1.556-1.753s-0.545-1.646-0.545-2.654c0-1.57,0.393-2.793,1.178-3.669s1.887-1.314,3.305-1.314
			c1.359,0,2.439,0.447,3.239,1.34C298.294,49.678,298.694,50.892,298.694,52.427z M291.408,52.427c0,1.213,0.239,2.135,0.716,2.765
			s1.182,0.944,2.114,0.944c0.92,0,1.62-0.314,2.101-0.944s0.721-1.552,0.721-2.765s-0.242-2.125-0.725-2.737
			s-1.191-0.919-2.123-0.919C292.343,48.771,291.408,49.99,291.408,52.427z"/>
		<path class="challenges-alert-st5" d="M307.534,57.27l-3.656-9.65h1.696l2.048,5.687c0.404,1.143,0.662,1.995,0.773,2.558h0.07
			c0.018-0.076,0.04-0.162,0.066-0.26c0.026-0.096,0.057-0.201,0.092-0.316c0.035-0.113,0.252-0.774,0.65-1.981l2.057-5.687h1.688
			l-3.665,9.65H307.534z"/>
		<path class="challenges-alert-st5" d="M314.19,45.009c0-0.352,0.089-0.606,0.268-0.765s0.4-0.237,0.664-0.237c0.246,0,0.461,0.079,0.646,0.237
			s0.277,0.413,0.277,0.765c0,0.346-0.092,0.601-0.277,0.765s-0.4,0.246-0.646,0.246c-0.264,0-0.485-0.082-0.664-0.246
			S314.19,45.355,314.19,45.009z M315.896,57.27h-1.582v-9.65h1.582V57.27z"/>
		<path class="challenges-alert-st5" d="M325.004,54.607c0,0.902-0.337,1.602-1.011,2.097s-1.62,0.742-2.839,0.742c-1.271,0-2.282-0.202-3.032-0.606
			v-1.441c1.061,0.516,2.083,0.773,3.067,0.773c0.797,0,1.377-0.129,1.74-0.387s0.545-0.604,0.545-1.037
			c0-0.381-0.174-0.703-0.523-0.967s-0.968-0.565-1.859-0.905c-0.908-0.352-1.547-0.651-1.916-0.9s-0.64-0.529-0.813-0.84
			s-0.259-0.688-0.259-1.134c0-0.791,0.322-1.415,0.967-1.872s1.529-0.686,2.654-0.686c1.096,0,2.121,0.217,3.076,0.65l-0.536,1.257
			c-0.979-0.41-1.86-0.615-2.646-0.615c-0.656,0-1.154,0.104-1.494,0.312c-0.34,0.209-0.51,0.494-0.51,0.857
			c0,0.352,0.146,0.644,0.439,0.875s0.976,0.552,2.048,0.962c0.803,0.299,1.396,0.577,1.78,0.835s0.667,0.548,0.848,0.87
			S325.004,54.156,325.004,54.607z"/>
		<path class="challenges-alert-st5" d="M326.985,45.009c0-0.352,0.089-0.606,0.268-0.765s0.4-0.237,0.664-0.237c0.246,0,0.461,0.079,0.646,0.237
			s0.277,0.413,0.277,0.765c0,0.346-0.092,0.601-0.277,0.765s-0.4,0.246-0.646,0.246c-0.264,0-0.485-0.082-0.664-0.246
			S326.985,45.355,326.985,45.009z M328.69,57.27h-1.582v-9.65h1.582V57.27z"/>
		<path class="challenges-alert-st5" d="M334.741,56.154c0.205,0,0.445-0.021,0.721-0.062s0.483-0.088,0.624-0.141v1.213
			c-0.146,0.064-0.374,0.127-0.681,0.189c-0.308,0.061-0.62,0.092-0.936,0.092c-1.887,0-2.83-0.993-2.83-2.979V48.85h-1.362v-0.756
			l1.38-0.633l0.633-2.057h0.94v2.215h2.786v1.23h-2.786v5.572c0,0.557,0.133,0.984,0.4,1.283S334.266,56.154,334.741,56.154z"/>
		<path class="challenges-alert-st5" d="M344.055,57.27h-1.617v-12.85h7.181v1.424h-5.563v4.553h5.221v1.415h-5.221V57.27z"/>
		<path class="challenges-alert-st5" d="M357.286,57.27l-0.308-1.371h-0.07c-0.48,0.604-0.959,1.013-1.437,1.227c-0.478,0.213-1.08,0.32-1.806,0.32
			c-0.949,0-1.693-0.249-2.232-0.747s-0.809-1.201-0.809-2.109c0-1.957,1.544-2.982,4.632-3.076l1.635-0.062v-0.571
			c0-0.732-0.158-1.272-0.475-1.622c-0.316-0.348-0.823-0.522-1.521-0.522c-0.51,0-0.992,0.076-1.446,0.229s-0.88,0.322-1.279,0.51
			l-0.483-1.187c0.486-0.258,1.017-0.46,1.591-0.606s1.143-0.22,1.705-0.22c1.166,0,2.033,0.258,2.602,0.773
			s0.853,1.336,0.853,2.461v6.574H357.286z M354.025,56.172c0.885,0,1.581-0.238,2.087-0.716s0.76-1.156,0.76-2.035v-0.87
			l-1.424,0.062c-1.107,0.041-1.915,0.217-2.421,0.527s-0.76,0.8-0.76,1.468c0,0.504,0.154,0.891,0.461,1.16
			S353.468,56.172,354.025,56.172z"/>
		<path class="challenges-alert-st5" d="M365.059,57.446c-1.389,0-2.47-0.426-3.243-1.279c-0.773-0.852-1.16-2.075-1.16-3.669
			c0-1.617,0.391-2.863,1.173-3.739s1.897-1.314,3.344-1.314c0.469,0,0.933,0.049,1.393,0.145c0.46,0.098,0.839,0.222,1.138,0.374
			l-0.483,1.318c-0.814-0.305-1.509-0.457-2.083-0.457c-0.973,0-1.69,0.307-2.153,0.919s-0.694,1.524-0.694,2.737
			c0,1.166,0.231,2.059,0.694,2.677s1.148,0.927,2.057,0.927c0.85,0,1.685-0.188,2.505-0.562v1.406
			C366.878,57.273,366.049,57.446,365.059,57.446z"/>
		<path class="challenges-alert-st5" d="M373.702,57.446c-1.447,0-2.583-0.438-3.406-1.314c-0.823-0.875-1.235-2.081-1.235-3.616
			c0-1.547,0.384-2.778,1.151-3.696c0.768-0.916,1.805-1.375,3.111-1.375c1.213,0,2.18,0.391,2.9,1.174
			c0.721,0.781,1.081,1.841,1.081,3.177v0.958h-6.609c0.029,1.096,0.308,1.928,0.835,2.496s1.274,0.853,2.241,0.853
			c0.516,0,1.005-0.045,1.468-0.136s1.005-0.269,1.626-0.532v1.389c-0.533,0.229-1.034,0.39-1.503,0.483
			S374.34,57.446,373.702,57.446z M373.306,48.736c-0.756,0-1.354,0.243-1.793,0.729s-0.7,1.163-0.782,2.03h4.913
			c-0.012-0.902-0.22-1.588-0.624-2.057S374.044,48.736,373.306,48.736z"/>
		<path class="challenges-alert-st5" d="M384.085,47.462c1.271,0,2.253,0.438,2.944,1.314s1.037,2.099,1.037,3.669c0,1.594-0.352,2.825-1.055,3.696
			c-0.703,0.869-1.679,1.305-2.927,1.305c-0.65,0-1.23-0.117-1.74-0.352s-0.926-0.583-1.248-1.046h-0.123
			c-0.182,0.703-0.29,1.11-0.325,1.222h-1.134V43.594h1.582v3.322c0,0.662-0.029,1.324-0.088,1.986h0.088
			C381.747,47.942,382.743,47.462,384.085,47.462z M383.821,48.771c-0.973,0-1.67,0.275-2.092,0.826s-0.633,1.482-0.633,2.795v0.07
			c0,1.318,0.215,2.261,0.646,2.825c0.431,0.566,1.135,0.849,2.114,0.849c0.867,0,1.513-0.317,1.938-0.954
			c0.425-0.635,0.637-1.554,0.637-2.755c0-1.219-0.214-2.133-0.642-2.742S384.706,48.771,383.821,48.771z"/>
		<path class="challenges-alert-st5" d="M398.739,52.427c0,1.576-0.398,2.807-1.195,3.691s-1.898,1.327-3.305,1.327c-0.873,0-1.646-0.203-2.32-0.611
			c-0.674-0.406-1.192-0.991-1.556-1.753s-0.545-1.646-0.545-2.654c0-1.57,0.393-2.793,1.178-3.669s1.887-1.314,3.305-1.314
			c1.359,0,2.439,0.447,3.239,1.34C398.339,49.678,398.739,50.892,398.739,52.427z M391.453,52.427c0,1.213,0.239,2.135,0.716,2.765
			s1.182,0.944,2.114,0.944c0.92,0,1.62-0.314,2.101-0.944s0.721-1.552,0.721-2.765s-0.242-2.125-0.725-2.737
			s-1.191-0.919-2.123-0.919C392.388,48.771,391.453,49.99,391.453,52.427z"/>
		<path class="challenges-alert-st5" d="M409.395,52.427c0,1.576-0.398,2.807-1.195,3.691s-1.898,1.327-3.305,1.327c-0.873,0-1.646-0.203-2.32-0.611
			c-0.674-0.406-1.192-0.991-1.556-1.753s-0.545-1.646-0.545-2.654c0-1.57,0.393-2.793,1.178-3.669s1.887-1.314,3.305-1.314
			c1.359,0,2.439,0.447,3.239,1.34C408.995,49.678,409.395,50.892,409.395,52.427z M402.109,52.427c0,1.213,0.239,2.135,0.716,2.765
			s1.182,0.944,2.114,0.944c0.92,0,1.62-0.314,2.101-0.944s0.721-1.552,0.721-2.765s-0.242-2.125-0.725-2.737
			s-1.191-0.919-2.123-0.919C403.043,48.771,402.109,49.99,402.109,52.427z"/>
		<path class="challenges-alert-st5" d="M413.23,52.304l0.536-0.686l0.615-0.738l3.085-3.261h1.846l-3.902,4.122l4.175,5.528h-1.907l-3.349-4.5
			l-1.099,0.958v3.542h-1.564V43.594h1.564v7.146l-0.07,1.564H413.23z"/>
		<path class="challenges-alert-st5" d="M429.936,48.85h-2.435v8.42h-1.582v-8.42h-1.688v-0.738l1.688-0.545v-0.554c0-1.172,0.256-2.051,0.769-2.637
			s1.302-0.879,2.369-0.879c0.615,0,1.239,0.108,1.872,0.325l-0.422,1.239c-0.545-0.176-1.022-0.264-1.433-0.264
			c-0.533,0-0.929,0.176-1.187,0.527s-0.387,0.908-0.387,1.67v0.624h2.435V48.85z"/>
		<path class="challenges-alert-st5" d="M439.836,52.427c0,1.576-0.398,2.807-1.195,3.691s-1.898,1.327-3.305,1.327c-0.873,0-1.646-0.203-2.32-0.611
			c-0.674-0.406-1.192-0.991-1.556-1.753s-0.545-1.646-0.545-2.654c0-1.57,0.393-2.793,1.178-3.669s1.887-1.314,3.305-1.314
			c1.359,0,2.439,0.447,3.239,1.34C439.436,49.678,439.836,50.892,439.836,52.427z M432.55,52.427c0,1.213,0.239,2.135,0.716,2.765
			s1.182,0.944,2.114,0.944c0.92,0,1.62-0.314,2.101-0.944s0.721-1.552,0.721-2.765s-0.242-2.125-0.725-2.737
			s-1.191-0.919-2.123-0.919C433.484,48.771,432.55,49.99,432.55,52.427z"/>
		<path class="challenges-alert-st5" d="M446.607,47.444c0.428,0,0.806,0.035,1.134,0.105l-0.193,1.459c-0.357-0.082-0.706-0.123-1.046-0.123
			c-0.51,0-0.983,0.141-1.419,0.422s-0.778,0.67-1.024,1.164c-0.246,0.496-0.369,1.045-0.369,1.648v5.15h-1.582v-9.65h1.301
			l0.176,1.767h0.07c0.369-0.639,0.806-1.122,1.31-1.45S446.015,47.444,446.607,47.444z"/>
		<path class="challenges-alert-st5" d="M456.976,56.154c0.205,0,0.445-0.021,0.721-0.062s0.483-0.088,0.624-0.141v1.213
			c-0.146,0.064-0.374,0.127-0.681,0.189c-0.308,0.061-0.62,0.092-0.936,0.092c-1.887,0-2.83-0.993-2.83-2.979V48.85h-1.362v-0.756
			l1.38-0.633l0.633-2.057h0.94v2.215h2.786v1.23h-2.786v5.572c0,0.557,0.133,0.984,0.4,1.283S456.501,56.154,456.976,56.154z"/>
		<path class="challenges-alert-st5" d="M466.585,57.27V51.1c0-0.785-0.174-1.369-0.523-1.754c-0.349-0.383-0.895-0.575-1.639-0.575
			c-0.979,0-1.695,0.272-2.149,0.817s-0.681,1.444-0.681,2.698v4.983h-1.582V43.594h1.582v4.008c0,0.527-0.029,0.979-0.088,1.354
			h0.105c0.287-0.469,0.694-0.835,1.222-1.099s1.122-0.396,1.784-0.396c1.172,0,2.054,0.28,2.646,0.84s0.888,1.454,0.888,2.685
			v6.284H466.585z"/>
		<path class="challenges-alert-st5" d="M475.009,57.446c-1.447,0-2.583-0.438-3.406-1.314c-0.823-0.875-1.235-2.081-1.235-3.616
			c0-1.547,0.384-2.778,1.151-3.696c0.768-0.916,1.805-1.375,3.111-1.375c1.213,0,2.18,0.391,2.9,1.174
			c0.721,0.781,1.081,1.841,1.081,3.177v0.958h-6.609c0.029,1.096,0.308,1.928,0.835,2.496s1.274,0.853,2.241,0.853
			c0.516,0,1.005-0.045,1.468-0.136s1.005-0.269,1.626-0.532v1.389c-0.533,0.229-1.034,0.39-1.503,0.483
			S475.647,57.446,475.009,57.446z M474.613,48.736c-0.756,0-1.354,0.243-1.793,0.729s-0.7,1.163-0.782,2.03h4.913
			c-0.012-0.902-0.22-1.588-0.624-2.057S475.352,48.736,474.613,48.736z"/>
		<path class="challenges-alert-st5" d="M491.837,57.27V51.1c0-0.785-0.174-1.369-0.523-1.754c-0.349-0.383-0.895-0.575-1.639-0.575
			c-0.99,0-1.709,0.274-2.158,0.821c-0.448,0.549-0.672,1.44-0.672,2.677v5.001h-1.582v-9.65h1.274l0.237,1.318h0.088
			c0.299-0.475,0.718-0.842,1.257-1.104c0.539-0.26,1.134-0.391,1.784-0.391c1.184,0,2.062,0.287,2.637,0.861
			s0.861,1.468,0.861,2.681v6.284H491.837z"/>
		<path class="challenges-alert-st5" d="M500.261,57.446c-1.447,0-2.583-0.438-3.406-1.314c-0.823-0.875-1.235-2.081-1.235-3.616
			c0-1.547,0.384-2.778,1.151-3.696c0.768-0.916,1.805-1.375,3.111-1.375c1.213,0,2.18,0.391,2.9,1.174
			c0.721,0.781,1.081,1.841,1.081,3.177v0.958h-6.609c0.029,1.096,0.308,1.928,0.835,2.496s1.274,0.853,2.241,0.853
			c0.516,0,1.005-0.045,1.468-0.136s1.005-0.269,1.626-0.532v1.389c-0.533,0.229-1.034,0.39-1.503,0.483
			S500.899,57.446,500.261,57.446z M499.865,48.736c-0.756,0-1.354,0.243-1.793,0.729s-0.7,1.163-0.782,2.03h4.913
			c-0.012-0.902-0.22-1.588-0.624-2.057S500.604,48.736,499.865,48.736z"/>
		<path class="challenges-alert-st5" d="M508.359,52.339l-3.331-4.72h1.802l2.487,3.639l2.461-3.639h1.784l-3.331,4.72l3.516,4.931h-1.802
			l-2.628-3.85l-2.663,3.85h-1.784L508.359,52.339z"/>
		<path class="challenges-alert-st5" d="M518.584,56.154c0.205,0,0.445-0.021,0.721-0.062s0.483-0.088,0.624-0.141v1.213
			c-0.146,0.064-0.374,0.127-0.681,0.189c-0.308,0.061-0.62,0.092-0.936,0.092c-1.887,0-2.83-0.993-2.83-2.979V48.85h-1.362v-0.756
			l1.38-0.633l0.633-2.057h0.94v2.215h2.786v1.23h-2.786v5.572c0,0.557,0.133,0.984,0.4,1.283S518.109,56.154,518.584,56.154z"/>
		<path class="challenges-alert-st5" d="M533.391,57.27h-8.016v-1.371l3.076-3.349c0.439-0.475,0.832-0.908,1.178-1.301s0.64-0.776,0.883-1.151
			s0.429-0.752,0.558-1.129c0.129-0.379,0.193-0.79,0.193-1.235c0-0.346-0.05-0.65-0.149-0.914s-0.242-0.487-0.426-0.673
			c-0.185-0.184-0.403-0.323-0.655-0.417s-0.533-0.141-0.844-0.141c-0.557,0-1.059,0.113-1.507,0.339s-0.875,0.514-1.279,0.865
			l-0.896-1.046c0.234-0.211,0.486-0.409,0.756-0.593c0.27-0.186,0.56-0.345,0.87-0.479s0.639-0.241,0.984-0.321
			c0.346-0.078,0.709-0.118,1.09-0.118c0.562,0,1.071,0.079,1.525,0.237s0.839,0.386,1.156,0.682s0.561,0.656,0.734,1.08
			c0.173,0.426,0.259,0.904,0.259,1.438c0,0.498-0.078,0.973-0.233,1.424s-0.369,0.896-0.642,1.332s-0.598,0.874-0.976,1.313
			s-0.787,0.896-1.226,1.371l-2.47,2.628v0.07h6.056V57.27z"/>
		<path class="challenges-alert-st5" d="M543.766,54.387h-1.872v2.883h-1.547v-2.883h-5.933V52.99l5.827-8.64h1.652v8.578h1.872V54.387z
			 M540.347,52.928v-3.129c0-0.328,0.004-0.672,0.013-1.033c0.009-0.359,0.019-0.711,0.031-1.055
			c0.012-0.342,0.025-0.663,0.04-0.962s0.025-0.548,0.031-0.747h-0.079c-0.041,0.117-0.092,0.248-0.154,0.391
			c-0.062,0.145-0.129,0.288-0.202,0.432s-0.148,0.282-0.224,0.417s-0.146,0.249-0.211,0.343l-3.612,5.344H540.347z"/>
		<path class="challenges-alert-st5" d="M556.437,57.27V51.1c0-0.785-0.174-1.369-0.523-1.754c-0.349-0.383-0.895-0.575-1.639-0.575
			c-0.979,0-1.695,0.272-2.149,0.817s-0.681,1.444-0.681,2.698v4.983h-1.582V43.594h1.582v4.008c0,0.527-0.029,0.979-0.088,1.354
			h0.105c0.287-0.469,0.694-0.835,1.222-1.099s1.122-0.396,1.784-0.396c1.172,0,2.054,0.28,2.646,0.84s0.888,1.454,0.888,2.685
			v6.284H556.437z"/>
		<path class="challenges-alert-st5" d="M569.141,52.427c0,1.576-0.398,2.807-1.195,3.691s-1.898,1.327-3.305,1.327c-0.873,0-1.646-0.203-2.32-0.611
			c-0.674-0.406-1.192-0.991-1.556-1.753s-0.545-1.646-0.545-2.654c0-1.57,0.393-2.793,1.178-3.669s1.887-1.314,3.305-1.314
			c1.359,0,2.439,0.447,3.239,1.34C568.741,49.678,569.141,50.892,569.141,52.427z M561.854,52.427c0,1.213,0.239,2.135,0.716,2.765
			s1.182,0.944,2.114,0.944c0.92,0,1.62-0.314,2.101-0.944s0.721-1.552,0.721-2.765s-0.242-2.125-0.725-2.737
			s-1.191-0.919-2.123-0.919C562.789,48.771,561.854,49.99,561.854,52.427z"/>
		<path class="challenges-alert-st5" d="M572.906,47.62v6.214c0,0.779,0.174,1.358,0.523,1.735c0.349,0.379,0.889,0.567,1.622,0.567
			c0.99,0,1.711-0.275,2.162-0.826s0.677-1.438,0.677-2.663V47.62h1.591v9.65h-1.301l-0.229-1.274h-0.079
			c-0.287,0.463-0.694,0.82-1.222,1.072s-1.14,0.378-1.837,0.378c-1.16,0-2.035-0.278-2.624-0.835s-0.883-1.447-0.883-2.672V47.62
			H572.906z"/>
		<path class="challenges-alert-st5" d="M586.805,47.444c0.428,0,0.806,0.035,1.134,0.105l-0.193,1.459c-0.357-0.082-0.706-0.123-1.046-0.123
			c-0.51,0-0.983,0.141-1.419,0.422s-0.778,0.67-1.024,1.164c-0.246,0.496-0.369,1.045-0.369,1.648v5.15h-1.582v-9.65h1.301
			l0.176,1.767h0.07c0.369-0.639,0.806-1.122,1.31-1.45S586.213,47.444,586.805,47.444z"/>
		<path class="challenges-alert-st5" d="M595.791,54.607c0,0.902-0.337,1.602-1.011,2.097s-1.62,0.742-2.839,0.742c-1.271,0-2.282-0.202-3.032-0.606
			v-1.441c1.061,0.516,2.083,0.773,3.067,0.773c0.797,0,1.377-0.129,1.74-0.387s0.545-0.604,0.545-1.037
			c0-0.381-0.174-0.703-0.523-0.967s-0.968-0.565-1.859-0.905c-0.908-0.352-1.547-0.651-1.916-0.9s-0.64-0.529-0.813-0.84
			s-0.259-0.688-0.259-1.134c0-0.791,0.322-1.415,0.967-1.872s1.529-0.686,2.654-0.686c1.096,0,2.121,0.217,3.076,0.65l-0.536,1.257
			c-0.979-0.41-1.86-0.615-2.646-0.615c-0.656,0-1.154,0.104-1.494,0.312c-0.34,0.209-0.51,0.494-0.51,0.857
			c0,0.352,0.146,0.644,0.439,0.875s0.976,0.552,2.048,0.962c0.803,0.299,1.396,0.577,1.78,0.835s0.667,0.548,0.848,0.87
			S595.791,54.156,595.791,54.607z"/>
		<path class="challenges-alert-st5" d="M597.657,56.295c0-0.223,0.029-0.411,0.088-0.567c0.059-0.154,0.138-0.281,0.237-0.377
			c0.1-0.098,0.217-0.168,0.352-0.211c0.135-0.045,0.281-0.066,0.439-0.066c0.152,0,0.297,0.021,0.435,0.066
			c0.138,0.043,0.256,0.113,0.356,0.211c0.1,0.096,0.179,0.223,0.237,0.377c0.059,0.156,0.088,0.345,0.088,0.567
			c0,0.217-0.029,0.403-0.088,0.558c-0.059,0.156-0.138,0.283-0.237,0.383s-0.218,0.173-0.356,0.22s-0.283,0.07-0.435,0.07
			c-0.158,0-0.305-0.023-0.439-0.07s-0.252-0.12-0.352-0.22s-0.179-0.227-0.237-0.383C597.686,56.698,597.657,56.511,597.657,56.295
			z"/>
	</g>
</g>
<g>
	<g>
		<g>
			<path class="challenges-alert-st5" d="M1059.488,21.436c1.103,0,2,0.897,2,2v34c0,1.103-0.897,2-2,2H915.94c-1.103,0-2-0.897-2-2v-34
				c0-1.103,0.897-2,2-2H1059.488 M1059.488,20.436H915.94c-1.657,0-3,1.343-3,3v34c0,1.657,1.343,3,3,3h143.548
				c1.657,0,3-1.343,3-3v-34C1062.488,21.779,1061.145,20.436,1059.488,20.436L1059.488,20.436z"/>
		</g>
	</g>
</g>
<g>
	<path class="challenges-alert-st6" d="M55.796,23.851v12.418c0,6.797,9.15,11.438,9.15,11.438s9.15-4.641,9.15-11.438V23.851H55.796z"/>
	<line class="challenges-alert-st6" x1="64.946" y1="47.707" x2="64.946" y2="52.827"/>
	<g>
		<g>
			<path class="challenges-alert-st6" d="M55.796,25.812h-7.477v4.261c0,3.482,2.823,6.305,6.305,6.305h1.305"/>
		</g>
		<g>
			<path class="challenges-alert-st6" d="M74.097,25.812h7.477v4.261c0,3.482-2.823,6.305-6.305,6.305h-1.305"/>
		</g>
	</g>
	<rect x="58.574" y="52.827" class="challenges-alert-st6" width="12.745" height="4.194"/>
</g>
<g>
	<g>
		<g>
			<g>
				<g class="challenges-alert-st4">
					<path class="challenges-alert-st5" d="M929.332,44.68h-1.266v-8.887h-3.123v-1.107h7.492v1.107h-3.104V44.68z"/>
					<path class="challenges-alert-st5" d="M938.416,44.68l-0.238-1.066h-0.055c-0.374,0.47-0.746,0.787-1.118,0.953
						c-0.372,0.167-0.84,0.25-1.405,0.25c-0.738,0-1.316-0.193-1.736-0.581c-0.419-0.388-0.629-0.935-0.629-1.641
						c0-1.522,1.201-2.319,3.604-2.393l1.271-0.048v-0.444c0-0.569-0.123-0.99-0.369-1.261c-0.246-0.271-0.641-0.407-1.184-0.407
						c-0.396,0-0.771,0.06-1.124,0.178s-0.685,0.251-0.995,0.396l-0.375-0.923c0.378-0.2,0.79-0.357,1.236-0.472
						c0.447-0.114,0.889-0.171,1.326-0.171c0.907,0,1.582,0.2,2.023,0.602c0.442,0.401,0.664,1.039,0.664,1.914v5.113H938.416z
						 M935.881,43.826c0.688,0,1.229-0.186,1.623-0.558c0.395-0.371,0.592-0.898,0.592-1.582v-0.677l-1.107,0.048
						c-0.861,0.032-1.49,0.169-1.884,0.41s-0.591,0.622-0.591,1.142c0,0.392,0.119,0.692,0.358,0.902S935.447,43.826,935.881,43.826
						z"/>
					<path class="challenges-alert-st5" d="M942.854,40.818l0.416-0.533l0.479-0.574l2.4-2.536h1.436l-3.035,3.206l3.246,4.3h-1.482l-2.605-3.5
						l-0.854,0.745v2.755h-1.217V34.044h1.217v5.558l-0.055,1.217H942.854z"/>
					<path class="challenges-alert-st5" d="M952.307,44.817c-1.125,0-2.008-0.341-2.648-1.021c-0.641-0.682-0.961-1.619-0.961-2.813
						c0-1.203,0.299-2.161,0.896-2.874c0.597-0.714,1.403-1.07,2.42-1.07c0.943,0,1.695,0.305,2.256,0.912
						c0.561,0.609,0.84,1.433,0.84,2.472v0.745h-5.141c0.023,0.853,0.24,1.499,0.65,1.941s0.99,0.663,1.742,0.663
						c0.401,0,0.782-0.035,1.143-0.106c0.359-0.07,0.781-0.208,1.264-0.413v1.08c-0.414,0.178-0.804,0.303-1.168,0.376
						C953.234,44.781,952.804,44.817,952.307,44.817z M952,38.043c-0.588,0-1.053,0.189-1.395,0.567s-0.545,0.904-0.609,1.579h3.822
						c-0.01-0.702-0.172-1.235-0.486-1.6S952.574,38.043,952,38.043z"/>
					<path class="challenges-alert-st5" d="M963.156,43.812c0.159,0,0.346-0.016,0.561-0.048c0.214-0.032,0.375-0.068,0.484-0.109v0.943
						c-0.113,0.05-0.29,0.1-0.529,0.146c-0.239,0.049-0.482,0.072-0.729,0.072c-1.467,0-2.201-0.772-2.201-2.317v-4.368h-1.059
						v-0.588l1.072-0.492l0.492-1.6h0.732v1.723h2.166v0.957h-2.166v4.334c0,0.433,0.104,0.766,0.311,0.998
						S962.787,43.812,963.156,43.812z"/>
					<path class="challenges-alert-st5" d="M970.812,44.68v-4.799c0-0.61-0.137-1.065-0.407-1.363c-0.271-0.299-0.696-0.448-1.274-0.448
						c-0.762,0-1.318,0.212-1.672,0.636s-0.529,1.123-0.529,2.099v3.876h-1.23V34.044h1.23v3.117c0,0.41-0.023,0.761-0.068,1.053
						h0.082c0.223-0.364,0.539-0.649,0.949-0.854s0.873-0.308,1.389-0.308c0.911,0,1.597,0.218,2.057,0.652
						c0.461,0.436,0.691,1.132,0.691,2.089v4.888H970.812z"/>
					<path class="challenges-alert-st5" d="M974.258,35.144c0-0.273,0.068-0.472,0.208-0.595s0.312-0.185,0.517-0.185
						c0.191,0,0.358,0.062,0.502,0.185s0.215,0.321,0.215,0.595c0,0.269-0.071,0.467-0.215,0.595s-0.311,0.191-0.502,0.191
						c-0.205,0-0.377-0.063-0.517-0.191S974.258,35.413,974.258,35.144z M975.584,44.68h-1.23v-7.506h1.23V44.68z"/>
					<path class="challenges-alert-st5" d="M982.85,42.609c0,0.702-0.262,1.245-0.785,1.63c-0.524,0.386-1.261,0.578-2.209,0.578
						c-0.988,0-1.774-0.157-2.357-0.472v-1.121c0.824,0.401,1.619,0.602,2.385,0.602c0.62,0,1.071-0.101,1.354-0.301
						c0.283-0.2,0.424-0.47,0.424-0.807c0-0.296-0.135-0.547-0.406-0.752s-0.753-0.439-1.445-0.704
						c-0.707-0.273-1.203-0.507-1.49-0.701c-0.287-0.193-0.498-0.411-0.633-0.652s-0.201-0.535-0.201-0.882
						c0-0.615,0.25-1.101,0.752-1.456c0.501-0.355,1.189-0.533,2.064-0.533c0.852,0,1.649,0.169,2.393,0.506l-0.418,0.978
						c-0.761-0.319-1.446-0.479-2.057-0.479c-0.511,0-0.898,0.081-1.162,0.243c-0.265,0.161-0.396,0.384-0.396,0.666
						c0,0.273,0.113,0.5,0.342,0.68c0.228,0.181,0.758,0.43,1.592,0.749c0.625,0.232,1.086,0.449,1.385,0.649
						s0.519,0.426,0.66,0.677C982.779,41.958,982.85,42.258,982.85,42.609z"/>
					<path class="challenges-alert-st5" d="M991.312,44.817c-1.08,0-1.92-0.332-2.521-0.994c-0.602-0.664-0.902-1.615-0.902-2.854
						c0-1.258,0.304-2.228,0.912-2.909c0.608-0.681,1.476-1.021,2.602-1.021c0.364,0,0.725,0.037,1.083,0.113
						c0.358,0.074,0.653,0.172,0.886,0.29l-0.377,1.025c-0.633-0.237-1.173-0.355-1.619-0.355c-0.757,0-1.315,0.238-1.676,0.714
						c-0.359,0.477-0.539,1.187-0.539,2.13c0,0.907,0.18,1.601,0.539,2.081c0.36,0.481,0.894,0.722,1.6,0.722
						c0.661,0,1.311-0.146,1.949-0.438v1.094C992.729,44.682,992.083,44.817,991.312,44.817z"/>
					<path class="challenges-alert-st5" d="M1000.139,44.68v-4.799c0-0.61-0.137-1.065-0.407-1.363c-0.271-0.299-0.696-0.448-1.274-0.448
						c-0.762,0-1.318,0.212-1.672,0.636s-0.529,1.123-0.529,2.099v3.876h-1.23V34.044h1.23v3.117c0,0.41-0.023,0.761-0.068,1.053
						h0.082c0.223-0.364,0.539-0.649,0.949-0.854s0.873-0.308,1.389-0.308c0.911,0,1.597,0.218,2.057,0.652
						c0.461,0.436,0.691,1.132,0.691,2.089v4.888H1000.139z"/>
					<path class="challenges-alert-st5" d="M1008.314,44.68l-0.24-1.066h-0.055c-0.373,0.47-0.746,0.787-1.117,0.953
						c-0.371,0.167-0.84,0.25-1.404,0.25c-0.738,0-1.317-0.193-1.736-0.581c-0.42-0.388-0.629-0.935-0.629-1.641
						c0-1.522,1.2-2.319,3.602-2.393l1.271-0.048v-0.444c0-0.569-0.123-0.99-0.369-1.261c-0.246-0.271-0.64-0.407-1.182-0.407
						c-0.396,0-0.771,0.06-1.125,0.178s-0.685,0.251-0.994,0.396l-0.377-0.923c0.379-0.2,0.791-0.357,1.238-0.472
						c0.446-0.114,0.889-0.171,1.326-0.171c0.906,0,1.581,0.2,2.023,0.602c0.441,0.401,0.662,1.039,0.662,1.914v5.113H1008.314z
						 M1005.777,43.826c0.688,0,1.23-0.186,1.624-0.558c0.394-0.371,0.591-0.898,0.591-1.582v-0.677l-1.107,0.048
						c-0.861,0.032-1.488,0.169-1.883,0.41s-0.592,0.622-0.592,1.142c0,0.392,0.12,0.692,0.359,0.902
						S1005.345,43.826,1005.777,43.826z"/>
					<path class="challenges-alert-st5" d="M1012.764,44.68h-1.23V34.044h1.23V44.68z"/>
					<path class="challenges-alert-st5" d="M1016.373,44.68h-1.23V34.044h1.23V44.68z"/>
					<path class="challenges-alert-st5" d="M1021.945,44.817c-1.126,0-2.01-0.341-2.649-1.021c-0.64-0.682-0.96-1.619-0.96-2.813
						c0-1.203,0.298-2.161,0.895-2.874c0.598-0.714,1.404-1.07,2.42-1.07c0.943,0,1.695,0.305,2.256,0.912
						c0.561,0.609,0.842,1.433,0.842,2.472v0.745h-5.141c0.022,0.853,0.238,1.499,0.648,1.941s0.992,0.663,1.744,0.663
						c0.4,0,0.781-0.035,1.141-0.106c0.36-0.07,0.782-0.208,1.266-0.413v1.08c-0.415,0.178-0.805,0.303-1.17,0.376
						C1022.872,44.781,1022.441,44.817,1021.945,44.817z M1021.637,38.043c-0.588,0-1.053,0.189-1.395,0.567
						s-0.544,0.904-0.607,1.579h3.82c-0.009-0.702-0.17-1.235-0.484-1.6S1022.211,38.043,1021.637,38.043z"/>
					<path class="challenges-alert-st5" d="M1031.762,44.68v-4.799c0-0.61-0.137-1.065-0.407-1.363c-0.271-0.299-0.696-0.448-1.274-0.448
						c-0.771,0-1.33,0.213-1.679,0.64c-0.349,0.426-0.522,1.119-0.522,2.081v3.89h-1.23v-7.506h0.99l0.186,1.025h0.068
						c0.232-0.369,0.558-0.655,0.977-0.857c0.42-0.203,0.883-0.305,1.389-0.305c0.92,0,1.604,0.224,2.051,0.67
						c0.446,0.446,0.67,1.142,0.67,2.085v4.888H1031.762z"/>
					<path class="challenges-alert-st5" d="M1040.312,44.612l0.041-0.923h-0.055c-0.506,0.752-1.28,1.128-2.324,1.128
						c-0.971,0-1.729-0.338-2.272-1.016c-0.544-0.676-0.817-1.63-0.817-2.86c0-1.208,0.275-2.16,0.824-2.857s1.3-1.046,2.252-1.046
						c1.017,0,1.801,0.378,2.352,1.135h0.076l0.164-0.998h0.977v7.629c0,1.075-0.271,1.885-0.816,2.427s-1.391,0.813-2.539,0.813
						c-1.094,0-1.994-0.159-2.701-0.479V46.43c0.729,0.392,1.652,0.588,2.77,0.588c0.638,0,1.143-0.187,1.514-0.561
						s0.557-0.891,0.557-1.552V44.612z M1038.16,43.812c0.756,0,1.307-0.204,1.65-0.612c0.344-0.407,0.516-1.062,0.516-1.965v-0.294
						c0-1.003-0.173-1.731-0.52-2.188c-0.346-0.456-0.904-0.684-1.674-0.684c-0.629,0-1.115,0.249-1.46,0.749
						c-0.345,0.498-0.517,1.211-0.517,2.136c0,0.93,0.168,1.639,0.503,2.126S1037.494,43.812,1038.16,43.812z"/>
					<path class="challenges-alert-st5" d="M1047.107,44.817c-1.125,0-2.008-0.341-2.648-1.021c-0.641-0.682-0.961-1.619-0.961-2.813
						c0-1.203,0.299-2.161,0.896-2.874c0.597-0.714,1.403-1.07,2.42-1.07c0.943,0,1.695,0.305,2.256,0.912
						c0.561,0.609,0.84,1.433,0.84,2.472v0.745h-5.141c0.023,0.853,0.24,1.499,0.65,1.941s0.99,0.663,1.742,0.663
						c0.401,0,0.782-0.035,1.143-0.106c0.359-0.07,0.781-0.208,1.264-0.413v1.08c-0.414,0.178-0.804,0.303-1.168,0.376
						C1048.035,44.781,1047.604,44.817,1047.107,44.817z M1046.801,38.043c-0.588,0-1.053,0.189-1.395,0.567
						s-0.545,0.904-0.609,1.579h3.822c-0.01-0.702-0.172-1.235-0.486-1.6S1047.375,38.043,1046.801,38.043z"/>
				</g>
			</g>
		</g>
	</g>
</g>
</svg>
