<?xml version="1.0" encoding="utf-8"?>
<!-- Generator: Adobe Illustrator 19.1.0, SVG Export Plug-In . SVG Version: 6.00 Build 0)  -->
<svg version="1.1" id="Layer_1" xmlns="http://www.w3.org/2000/svg" xmlns:xlink="http://www.w3.org/1999/xlink" x="0px" y="0px"
	 viewBox="0 0 1104 80.9" style="enable-background:new 0 0 1104 80.9;" xml:space="preserve">
<style type="text/css">
	.st0{fill:none;stroke:#FFFFFF;stroke-miterlimit:10;}
	.st1{fill:none;stroke:#504D50;stroke-width:0.9903;stroke-miterlimit:10;}
	.st2{fill:#FFFFFF;}
	.st3{fill:#F272AA;stroke:#FFFFFF;stroke-miterlimit:10;}
	.st4{opacity:0.97;}
	.st5{fill:#F2F0F0;}
	.st6{fill:none;stroke:#F2F0F0;stroke-miterlimit:10;}
	.st7{fill:#7AC442;stroke:#FFFFFF;stroke-miterlimit:10;}
	.st8{fill:#F6F4F4;}
	.st9{fill:#E8212D;stroke:#FFFFFF;stroke-miterlimit:10;}
	.st10{opacity:0.85;fill:#F9F7F7;stroke:#FFFFFF;stroke-miterlimit:10;}
	.st11{fill:#504D50;}
	.st12{fill:#4F4C4F;stroke:#FFFFFF;stroke-miterlimit:10;}
	.st13{fill:#7AC743;}
	.st14{fill:#EA4130;}
	.st15{fill:none;stroke:#4F4C4F;stroke-linecap:square;stroke-linejoin:bevel;stroke-miterlimit:10;}
	.st16{fill-rule:evenodd;clip-rule:evenodd;fill:none;stroke:#14ABE1;stroke-width:3;stroke-linecap:round;stroke-miterlimit:10;}
	.st17{opacity:0;}
	.st18{fill:#FF1D25;stroke:#FFFFFF;stroke-miterlimit:10;}
	.st19{clip-path:url(#SVGID_4_);}
	.st20{fill:#7AC743;stroke:#FFFFFF;stroke-miterlimit:10;}
	.st21{fill:url(#);}
	.st22{fill:#7AC743;stroke:#FFFFFF;stroke-linecap:round;stroke-linejoin:round;stroke-miterlimit:10;}
	.st23{fill:#7AC743;stroke:#FFFFFF;stroke-width:0.9071;stroke-miterlimit:10;}
	.st24{fill:none;stroke:#FFFFFF;stroke-linecap:round;stroke-linejoin:round;}
	.st25{fill:#7AC743;stroke:#FFFFFF;stroke-linecap:round;stroke-linejoin:round;}
</style>
<rect x="0.5" y="0.5" class="st3" width="1103" height="79.9"/>
<g>
	<g class="st4">
		<path class="st5" d="M126.1,29.1l3.3-6.3h1.7l-4.3,7.9v5h-1.6v-4.9l-4.3-7.9h1.8L126.1,29.1z"/>
		<path class="st5" d="M140.9,30.8c0,1.6-0.4,2.8-1.2,3.7s-1.9,1.3-3.3,1.3c-0.9,0-1.6-0.2-2.3-0.6c-0.7-0.4-1.2-1-1.6-1.8
			s-0.5-1.6-0.5-2.7c0-1.6,0.4-2.8,1.2-3.7s1.9-1.3,3.3-1.3c1.4,0,2.4,0.4,3.2,1.3C140.5,28.1,140.9,29.3,140.9,30.8z M133.6,30.8
			c0,1.2,0.2,2.1,0.7,2.8s1.2,0.9,2.1,0.9c0.9,0,1.6-0.3,2.1-0.9s0.7-1.6,0.7-2.8c0-1.2-0.2-2.1-0.7-2.7s-1.2-0.9-2.1-0.9
			C134.6,27.2,133.6,28.4,133.6,30.8z"/>
		<path class="st5" d="M144.7,26v6.2c0,0.8,0.2,1.4,0.5,1.7c0.3,0.4,0.9,0.6,1.6,0.6c1,0,1.7-0.3,2.2-0.8s0.7-1.4,0.7-2.7v-5h1.6
			v9.7h-1.3l-0.2-1.3h-0.1c-0.3,0.5-0.7,0.8-1.2,1.1s-1.1,0.4-1.8,0.4c-1.2,0-2-0.3-2.6-0.8s-0.9-1.4-0.9-2.7V26H144.7z"/>
		<path class="st5" d="M156.6,22.5l0.1,0.2c-0.1,0.3-0.2,0.7-0.3,1c-0.1,0.4-0.2,0.7-0.4,1.1s-0.3,0.7-0.4,1.1s-0.3,0.7-0.4,1H154
			c0.1-0.4,0.2-0.7,0.3-1.1s0.2-0.8,0.2-1.2s0.2-0.8,0.2-1.1s0.1-0.7,0.2-1H156.6z"/>
		<path class="st5" d="M161.6,35.7l-3.7-9.7h1.7l2,5.7c0.4,1.1,0.7,2,0.8,2.6h0.1c0-0.1,0-0.2,0.1-0.3c0-0.1,0.1-0.2,0.1-0.3
			c0-0.1,0.3-0.8,0.7-2l2.1-5.7h1.7l-3.7,9.7H161.6z"/>
		<path class="st5" d="M172.5,35.8c-1.4,0-2.6-0.4-3.4-1.3c-0.8-0.9-1.2-2.1-1.2-3.6c0-1.5,0.4-2.8,1.2-3.7c0.8-0.9,1.8-1.4,3.1-1.4
			c1.2,0,2.2,0.4,2.9,1.2c0.7,0.8,1.1,1.8,1.1,3.2v1h-6.6c0,1.1,0.3,1.9,0.8,2.5s1.3,0.9,2.2,0.9c0.5,0,1,0,1.5-0.1s1-0.3,1.6-0.5
			v1.4c-0.5,0.2-1,0.4-1.5,0.5S173.1,35.8,172.5,35.8z M172.1,27.1c-0.8,0-1.4,0.2-1.8,0.7s-0.7,1.2-0.8,2h4.9
			c0-0.9-0.2-1.6-0.6-2.1S172.8,27.1,172.1,27.1z"/>
		<path class="st5" d="M187.3,25.9c1.3,0,2.3,0.4,2.9,1.3s1,2.1,1,3.7c0,1.6-0.4,2.8-1.1,3.7c-0.7,0.9-1.7,1.3-2.9,1.3
			c-0.7,0-1.2-0.1-1.7-0.4s-0.9-0.6-1.2-1h-0.1c-0.2,0.7-0.3,1.1-0.3,1.2h-1.1V22h1.6v3.3c0,0.7,0,1.3-0.1,2h0.1
			C184.9,26.3,185.9,25.9,187.3,25.9z M187,27.2c-1,0-1.7,0.3-2.1,0.8s-0.6,1.5-0.6,2.8v0.1c0,1.3,0.2,2.3,0.6,2.8
			c0.4,0.6,1.1,0.8,2.1,0.8c0.9,0,1.5-0.3,1.9-1c0.4-0.6,0.6-1.6,0.6-2.8c0-1.2-0.2-2.1-0.6-2.7S187.9,27.2,187,27.2z"/>
		<path class="st5" d="M197.7,35.8c-1.4,0-2.6-0.4-3.4-1.3c-0.8-0.9-1.2-2.1-1.2-3.6c0-1.5,0.4-2.8,1.2-3.7c0.8-0.9,1.8-1.4,3.1-1.4
			c1.2,0,2.2,0.4,2.9,1.2c0.7,0.8,1.1,1.8,1.1,3.2v1h-6.6c0,1.1,0.3,1.9,0.8,2.5s1.3,0.9,2.2,0.9c0.5,0,1,0,1.5-0.1s1-0.3,1.6-0.5
			v1.4c-0.5,0.2-1,0.4-1.5,0.5S198.3,35.8,197.7,35.8z M197.3,27.1c-0.8,0-1.4,0.2-1.8,0.7s-0.7,1.2-0.8,2h4.9
			c0-0.9-0.2-1.6-0.6-2.1S198,27.1,197.3,27.1z"/>
		<path class="st5" d="M207.6,35.8c-1.4,0-2.6-0.4-3.4-1.3c-0.8-0.9-1.2-2.1-1.2-3.6c0-1.5,0.4-2.8,1.2-3.7c0.8-0.9,1.8-1.4,3.1-1.4
			c1.2,0,2.2,0.4,2.9,1.2c0.7,0.8,1.1,1.8,1.1,3.2v1h-6.6c0,1.1,0.3,1.9,0.8,2.5s1.3,0.9,2.2,0.9c0.5,0,1,0,1.5-0.1s1-0.3,1.6-0.5
			v1.4c-0.5,0.2-1,0.4-1.5,0.5S208.2,35.8,207.6,35.8z M207.2,27.1c-0.8,0-1.4,0.2-1.8,0.7s-0.7,1.2-0.8,2h4.9
			c0-0.9-0.2-1.6-0.6-2.1S207.9,27.1,207.2,27.1z"/>
		<path class="st5" d="M220,35.7v-6.2c0-0.8-0.2-1.4-0.5-1.8c-0.3-0.4-0.9-0.6-1.6-0.6c-1,0-1.7,0.3-2.2,0.8
			c-0.4,0.5-0.7,1.4-0.7,2.7v5h-1.6V26h1.3l0.2,1.3h0.1c0.3-0.5,0.7-0.8,1.3-1.1c0.5-0.3,1.1-0.4,1.8-0.4c1.2,0,2.1,0.3,2.6,0.9
			s0.9,1.5,0.9,2.7v6.3H220z"/>
		<path class="st5" d="M235,33c0,0.9-0.3,1.6-1,2.1s-1.6,0.7-2.8,0.7c-1.3,0-2.3-0.2-3-0.6v-1.4c1.1,0.5,2.1,0.8,3.1,0.8
			c0.8,0,1.4-0.1,1.7-0.4s0.5-0.6,0.5-1c0-0.4-0.2-0.7-0.5-1c-0.3-0.3-1-0.6-1.9-0.9c-0.9-0.4-1.5-0.7-1.9-0.9s-0.6-0.5-0.8-0.8
			s-0.3-0.7-0.3-1.1c0-0.8,0.3-1.4,1-1.9s1.5-0.7,2.7-0.7c1.1,0,2.1,0.2,3.1,0.7l-0.5,1.3c-1-0.4-1.9-0.6-2.6-0.6
			c-0.7,0-1.2,0.1-1.5,0.3c-0.3,0.2-0.5,0.5-0.5,0.9c0,0.4,0.1,0.6,0.4,0.9s1,0.6,2,1c0.8,0.3,1.4,0.6,1.8,0.8s0.7,0.5,0.8,0.9
			C234.9,32.2,235,32.6,235,33z"/>
		<path class="st5" d="M241.7,35.8c-1.3,0-2.3-0.5-3-1.4h-0.1l0,0.4c0,0.5,0.1,0.9,0.1,1.2v4h-1.6V26h1.3l0.2,1.3h0.1
			c0.4-0.5,0.8-0.9,1.3-1.1s1.1-0.4,1.7-0.4c1.3,0,2.2,0.4,2.9,1.3c0.7,0.9,1,2.1,1,3.7c0,1.6-0.3,2.8-1,3.7S242.9,35.8,241.7,35.8z
			 M241.4,27.2c-1,0-1.6,0.3-2.1,0.8s-0.6,1.4-0.7,2.5v0.3c0,1.3,0.2,2.3,0.7,2.8s1.1,0.9,2.1,0.9c0.8,0,1.4-0.3,1.9-1
			s0.7-1.6,0.7-2.7c0-1.2-0.2-2.1-0.7-2.7C242.9,27.5,242.2,27.2,241.4,27.2z"/>
		<path class="st5" d="M252.1,35.8c-1.4,0-2.6-0.4-3.4-1.3c-0.8-0.9-1.2-2.1-1.2-3.6c0-1.5,0.4-2.8,1.2-3.7c0.8-0.9,1.8-1.4,3.1-1.4
			c1.2,0,2.2,0.4,2.9,1.2c0.7,0.8,1.1,1.8,1.1,3.2v1H249c0,1.1,0.3,1.9,0.8,2.5s1.3,0.9,2.2,0.9c0.5,0,1,0,1.5-0.1s1-0.3,1.6-0.5
			v1.4c-0.5,0.2-1,0.4-1.5,0.5S252.7,35.8,252.1,35.8z M251.7,27.1c-0.8,0-1.4,0.2-1.8,0.7s-0.7,1.2-0.8,2h4.9
			c0-0.9-0.2-1.6-0.6-2.1S252.4,27.1,251.7,27.1z"/>
		<path class="st5" d="M264.4,35.7v-6.2c0-0.8-0.2-1.4-0.5-1.8c-0.3-0.4-0.9-0.6-1.6-0.6c-1,0-1.7,0.3-2.2,0.8
			c-0.4,0.5-0.7,1.4-0.7,2.7v5h-1.6V26h1.3l0.2,1.3h0.1c0.3-0.5,0.7-0.8,1.3-1.1c0.5-0.3,1.1-0.4,1.8-0.4c1.2,0,2.1,0.3,2.6,0.9
			s0.9,1.5,0.9,2.7v6.3H264.4z"/>
		<path class="st5" d="M272.2,35.8c-1.3,0-2.2-0.4-2.9-1.3s-1-2.1-1-3.7c0-1.6,0.3-2.8,1-3.7s1.7-1.3,2.9-1.3c1.3,0,2.3,0.5,3,1.4
			h0.1c0-0.1,0-0.4-0.1-0.7s0-0.6,0-0.7V22h1.6v13.7h-1.3l-0.2-1.3h-0.1C274.5,35.4,273.5,35.8,272.2,35.8z M272.4,34.5
			c1,0,1.7-0.3,2.1-0.8s0.7-1.4,0.7-2.6v-0.3c0-1.3-0.2-2.3-0.7-2.9c-0.4-0.6-1.2-0.9-2.1-0.9c-0.8,0-1.4,0.3-1.9,1
			s-0.7,1.6-0.7,2.8c0,1.2,0.2,2.1,0.7,2.7S271.6,34.5,272.4,34.5z"/>
		<path class="st5" d="M279.5,23.4c0-0.4,0.1-0.6,0.3-0.8s0.4-0.2,0.7-0.2c0.2,0,0.5,0.1,0.6,0.2s0.3,0.4,0.3,0.8
			c0,0.3-0.1,0.6-0.3,0.8s-0.4,0.2-0.6,0.2c-0.3,0-0.5-0.1-0.7-0.2S279.5,23.8,279.5,23.4z M281.2,35.7h-1.6V26h1.6V35.7z"/>
		<path class="st5" d="M290.6,35.7v-6.2c0-0.8-0.2-1.4-0.5-1.8c-0.3-0.4-0.9-0.6-1.6-0.6c-1,0-1.7,0.3-2.2,0.8
			c-0.4,0.5-0.7,1.4-0.7,2.7v5H284V26h1.3l0.2,1.3h0.1c0.3-0.5,0.7-0.8,1.3-1.1c0.5-0.3,1.1-0.4,1.8-0.4c1.2,0,2.1,0.3,2.6,0.9
			s0.9,1.5,0.9,2.7v6.3H290.6z"/>
		<path class="st5" d="M301.3,35.6l0.1-1.2h-0.1c-0.7,1-1.6,1.5-3,1.5c-1.2,0-2.2-0.4-2.9-1.3c-0.7-0.9-1.1-2.1-1.1-3.7
			c0-1.6,0.4-2.8,1.1-3.7s1.7-1.3,2.9-1.3c1.3,0,2.3,0.5,3,1.5h0.1l0.2-1.3h1.3v9.8c0,1.4-0.4,2.4-1.1,3.1s-1.8,1-3.3,1
			c-1.4,0-2.6-0.2-3.5-0.6v-1.5c0.9,0.5,2.1,0.8,3.6,0.8c0.8,0,1.5-0.2,1.9-0.7s0.7-1.1,0.7-2V35.6z M298.6,34.6
			c1,0,1.7-0.3,2.1-0.8s0.7-1.4,0.7-2.5v-0.4c0-1.3-0.2-2.2-0.7-2.8s-1.2-0.9-2.2-0.9c-0.8,0-1.4,0.3-1.9,1
			c-0.4,0.6-0.7,1.6-0.7,2.7c0,1.2,0.2,2.1,0.6,2.7S297.7,34.6,298.6,34.6z"/>
		<path class="st5" d="M316.1,35.7l-0.3-1.4h-0.1c-0.5,0.6-1,1-1.4,1.2c-0.5,0.2-1.1,0.3-1.8,0.3c-0.9,0-1.7-0.2-2.2-0.7
			s-0.8-1.2-0.8-2.1c0-2,1.5-3,4.6-3.1l1.6-0.1v-0.6c0-0.7-0.2-1.3-0.5-1.6c-0.3-0.3-0.8-0.5-1.5-0.5c-0.5,0-1,0.1-1.4,0.2
			s-0.9,0.3-1.3,0.5l-0.5-1.2c0.5-0.3,1-0.5,1.6-0.6s1.1-0.2,1.7-0.2c1.2,0,2,0.3,2.6,0.8s0.9,1.3,0.9,2.5v6.6H316.1z M312.9,34.6
			c0.9,0,1.6-0.2,2.1-0.7s0.8-1.2,0.8-2V31l-1.4,0.1c-1.1,0-1.9,0.2-2.4,0.5s-0.8,0.8-0.8,1.5c0,0.5,0.2,0.9,0.5,1.2
			S312.3,34.6,312.9,34.6z"/>
		<path class="st5" d="M326.1,35.7h-1.6V22h1.6V35.7z"/>
		<path class="st5" d="M337.3,30.8c0,1.6-0.4,2.8-1.2,3.7s-1.9,1.3-3.3,1.3c-0.9,0-1.6-0.2-2.3-0.6c-0.7-0.4-1.2-1-1.6-1.8
			s-0.5-1.6-0.5-2.7c0-1.6,0.4-2.8,1.2-3.7s1.9-1.3,3.3-1.3c1.4,0,2.4,0.4,3.2,1.3C336.9,28.1,337.3,29.3,337.3,30.8z M330,30.8
			c0,1.2,0.2,2.1,0.7,2.8s1.2,0.9,2.1,0.9c0.9,0,1.6-0.3,2.1-0.9s0.7-1.6,0.7-2.8c0-1.2-0.2-2.1-0.7-2.7s-1.2-0.9-2.1-0.9
			C330.9,27.2,330,28.4,330,30.8z"/>
		<path class="st5" d="M342.8,34.6c0.2,0,0.4,0,0.7-0.1s0.5-0.1,0.6-0.1v1.2c-0.1,0.1-0.4,0.1-0.7,0.2c-0.3,0.1-0.6,0.1-0.9,0.1
			c-1.9,0-2.8-1-2.8-3v-5.6h-1.4v-0.8l1.4-0.6l0.6-2.1h0.9V26h2.8v1.2h-2.8v5.6c0,0.6,0.1,1,0.4,1.3S342.3,34.6,342.8,34.6z"/>
		<path class="st5" d="M358.6,30.8c0,1.6-0.4,2.8-1.2,3.7s-1.9,1.3-3.3,1.3c-0.9,0-1.6-0.2-2.3-0.6c-0.7-0.4-1.2-1-1.6-1.8
			s-0.5-1.6-0.5-2.7c0-1.6,0.4-2.8,1.2-3.7s1.9-1.3,3.3-1.3c1.4,0,2.4,0.4,3.2,1.3C358.2,28.1,358.6,29.3,358.6,30.8z M351.4,30.8
			c0,1.2,0.2,2.1,0.7,2.8s1.2,0.9,2.1,0.9c0.9,0,1.6-0.3,2.1-0.9s0.7-1.6,0.7-2.8c0-1.2-0.2-2.1-0.7-2.7s-1.2-0.9-2.1-0.9
			C352.3,27.2,351.4,28.4,351.4,30.8z"/>
		<path class="st5" d="M365.4,27.3h-2.4v8.4h-1.6v-8.4h-1.7v-0.7l1.7-0.5v-0.6c0-1.2,0.3-2.1,0.8-2.6s1.3-0.9,2.4-0.9
			c0.6,0,1.2,0.1,1.9,0.3l-0.4,1.2c-0.5-0.2-1-0.3-1.4-0.3c-0.5,0-0.9,0.2-1.2,0.5s-0.4,0.9-0.4,1.7V26h2.4V27.3z"/>
		<path class="st5" d="M374.5,34.6c0.2,0,0.4,0,0.7-0.1s0.5-0.1,0.6-0.1v1.2c-0.1,0.1-0.4,0.1-0.7,0.2c-0.3,0.1-0.6,0.1-0.9,0.1
			c-1.9,0-2.8-1-2.8-3v-5.6h-1.4v-0.8l1.4-0.6l0.6-2.1h0.9V26h2.8v1.2H373v5.6c0,0.6,0.1,1,0.4,1.3S374.1,34.6,374.5,34.6z"/>
		<path class="st5" d="M377.5,23.4c0-0.4,0.1-0.6,0.3-0.8s0.4-0.2,0.7-0.2c0.2,0,0.5,0.1,0.6,0.2s0.3,0.4,0.3,0.8
			c0,0.3-0.1,0.6-0.3,0.8s-0.4,0.2-0.6,0.2c-0.3,0-0.5-0.1-0.7-0.2S377.5,23.8,377.5,23.4z M379.2,35.7h-1.6V26h1.6V35.7z"/>
		<path class="st5" d="M394.3,35.7v-6.2c0-1.5-0.7-2.3-2-2.3c-0.9,0-1.6,0.3-2,0.8s-0.6,1.3-0.6,2.4v5.3h-1.6v-6.2
			c0-0.8-0.2-1.3-0.5-1.7s-0.8-0.6-1.5-0.6c-0.9,0-1.5,0.3-2,0.8s-0.6,1.4-0.6,2.7v5H382V26h1.3l0.2,1.3h0.1
			c0.3-0.5,0.7-0.8,1.2-1.1s1.1-0.4,1.7-0.4c1.5,0,2.5,0.5,3,1.6h0.1c0.3-0.5,0.7-0.9,1.3-1.2s1.1-0.4,1.8-0.4
			c1.1,0,1.9,0.3,2.4,0.8s0.8,1.5,0.8,2.7v6.3H394.3z"/>
		<path class="st5" d="M402.7,35.8c-1.4,0-2.6-0.4-3.4-1.3c-0.8-0.9-1.2-2.1-1.2-3.6c0-1.5,0.4-2.8,1.2-3.7c0.8-0.9,1.8-1.4,3.1-1.4
			c1.2,0,2.2,0.4,2.9,1.2c0.7,0.8,1.1,1.8,1.1,3.2v1h-6.6c0,1.1,0.3,1.9,0.8,2.5s1.3,0.9,2.2,0.9c0.5,0,1,0,1.5-0.1s1-0.3,1.6-0.5
			v1.4c-0.5,0.2-1,0.4-1.5,0.5S403.3,35.8,402.7,35.8z M402.3,27.1c-0.8,0-1.4,0.2-1.8,0.7s-0.7,1.2-0.8,2h4.9
			c0-0.9-0.2-1.6-0.6-2.1S403,27.1,402.3,27.1z"/>
		<path class="st5" d="M421.3,30.8c0,1.6-0.4,2.8-1.2,3.7s-1.9,1.3-3.3,1.3c-0.9,0-1.6-0.2-2.3-0.6c-0.7-0.4-1.2-1-1.6-1.8
			s-0.5-1.6-0.5-2.7c0-1.6,0.4-2.8,1.2-3.7s1.9-1.3,3.3-1.3c1.4,0,2.4,0.4,3.2,1.3C420.9,28.1,421.3,29.3,421.3,30.8z M414,30.8
			c0,1.2,0.2,2.1,0.7,2.8s1.2,0.9,2.1,0.9c0.9,0,1.6-0.3,2.1-0.9s0.7-1.6,0.7-2.8c0-1.2-0.2-2.1-0.7-2.7s-1.2-0.9-2.1-0.9
			C415,27.2,414,28.4,414,30.8z"/>
		<path class="st5" d="M430.2,35.7v-6.2c0-0.8-0.2-1.4-0.5-1.8c-0.3-0.4-0.9-0.6-1.6-0.6c-1,0-1.7,0.3-2.2,0.8
			c-0.4,0.5-0.7,1.4-0.7,2.7v5h-1.6V26h1.3l0.2,1.3h0.1c0.3-0.5,0.7-0.8,1.3-1.1c0.5-0.3,1.1-0.4,1.8-0.4c1.2,0,2.1,0.3,2.6,0.9
			s0.9,1.5,0.9,2.7v6.3H430.2z"/>
		<path class="st5" d="M440.8,35.7h-1.6V22.8h7.2v1.4h-5.6v4.6h5.2v1.4h-5.2V35.7z"/>
		<path class="st5" d="M454,35.7l-0.3-1.4h-0.1c-0.5,0.6-1,1-1.4,1.2c-0.5,0.2-1.1,0.3-1.8,0.3c-0.9,0-1.7-0.2-2.2-0.7
			s-0.8-1.2-0.8-2.1c0-2,1.5-3,4.6-3.1l1.6-0.1v-0.6c0-0.7-0.2-1.3-0.5-1.6c-0.3-0.3-0.8-0.5-1.5-0.5c-0.5,0-1,0.1-1.4,0.2
			s-0.9,0.3-1.3,0.5l-0.5-1.2c0.5-0.3,1-0.5,1.6-0.6s1.1-0.2,1.7-0.2c1.2,0,2,0.3,2.6,0.8s0.9,1.3,0.9,2.5v6.6H454z M450.7,34.6
			c0.9,0,1.6-0.2,2.1-0.7s0.8-1.2,0.8-2V31l-1.4,0.1c-1.1,0-1.9,0.2-2.4,0.5S449,32.3,449,33c0,0.5,0.2,0.9,0.5,1.2
			S450.2,34.6,450.7,34.6z"/>
		<path class="st5" d="M461.8,35.8c-1.4,0-2.5-0.4-3.2-1.3c-0.8-0.9-1.2-2.1-1.2-3.7c0-1.6,0.4-2.9,1.2-3.7s1.9-1.3,3.3-1.3
			c0.5,0,0.9,0,1.4,0.1c0.5,0.1,0.8,0.2,1.1,0.4l-0.5,1.3c-0.8-0.3-1.5-0.5-2.1-0.5c-1,0-1.7,0.3-2.2,0.9s-0.7,1.5-0.7,2.7
			c0,1.2,0.2,2.1,0.7,2.7s1.1,0.9,2.1,0.9c0.8,0,1.7-0.2,2.5-0.6v1.4C463.6,35.7,462.8,35.8,461.8,35.8z"/>
		<path class="st5" d="M470.4,35.8c-1.4,0-2.6-0.4-3.4-1.3c-0.8-0.9-1.2-2.1-1.2-3.6c0-1.5,0.4-2.8,1.2-3.7c0.8-0.9,1.8-1.4,3.1-1.4
			c1.2,0,2.2,0.4,2.9,1.2c0.7,0.8,1.1,1.8,1.1,3.2v1h-6.6c0,1.1,0.3,1.9,0.8,2.5s1.3,0.9,2.2,0.9c0.5,0,1,0,1.5-0.1s1-0.3,1.6-0.5
			v1.4c-0.5,0.2-1,0.4-1.5,0.5S471,35.8,470.4,35.8z M470,27.1c-0.8,0-1.4,0.2-1.8,0.7s-0.7,1.2-0.8,2h4.9c0-0.9-0.2-1.6-0.6-2.1
			S470.8,27.1,470,27.1z"/>
		<path class="st5" d="M480.8,25.9c1.3,0,2.3,0.4,2.9,1.3s1,2.1,1,3.7c0,1.6-0.4,2.8-1.1,3.7c-0.7,0.9-1.7,1.3-2.9,1.3
			c-0.7,0-1.2-0.1-1.7-0.4s-0.9-0.6-1.2-1h-0.1c-0.2,0.7-0.3,1.1-0.3,1.2h-1.1V22h1.6v3.3c0,0.7,0,1.3-0.1,2h0.1
			C478.5,26.3,479.5,25.9,480.8,25.9z M480.5,27.2c-1,0-1.7,0.3-2.1,0.8s-0.6,1.5-0.6,2.8v0.1c0,1.3,0.2,2.3,0.6,2.8
			c0.4,0.6,1.1,0.8,2.1,0.8c0.9,0,1.5-0.3,1.9-1c0.4-0.6,0.6-1.6,0.6-2.8c0-1.2-0.2-2.1-0.6-2.7S481.4,27.2,480.5,27.2z"/>
		<path class="st5" d="M495.4,30.8c0,1.6-0.4,2.8-1.2,3.7s-1.9,1.3-3.3,1.3c-0.9,0-1.6-0.2-2.3-0.6c-0.7-0.4-1.2-1-1.6-1.8
			s-0.5-1.6-0.5-2.7c0-1.6,0.4-2.8,1.2-3.7s1.9-1.3,3.3-1.3c1.4,0,2.4,0.4,3.2,1.3C495,28.1,495.4,29.3,495.4,30.8z M488.2,30.8
			c0,1.2,0.2,2.1,0.7,2.8s1.2,0.9,2.1,0.9c0.9,0,1.6-0.3,2.1-0.9s0.7-1.6,0.7-2.8c0-1.2-0.2-2.1-0.7-2.7s-1.2-0.9-2.1-0.9
			C489.1,27.2,488.2,28.4,488.2,30.8z"/>
		<path class="st5" d="M506.1,30.8c0,1.6-0.4,2.8-1.2,3.7s-1.9,1.3-3.3,1.3c-0.9,0-1.6-0.2-2.3-0.6c-0.7-0.4-1.2-1-1.6-1.8
			s-0.5-1.6-0.5-2.7c0-1.6,0.4-2.8,1.2-3.7s1.9-1.3,3.3-1.3c1.4,0,2.4,0.4,3.2,1.3C505.7,28.1,506.1,29.3,506.1,30.8z M498.8,30.8
			c0,1.2,0.2,2.1,0.7,2.8s1.2,0.9,2.1,0.9c0.9,0,1.6-0.3,2.1-0.9s0.7-1.6,0.7-2.8c0-1.2-0.2-2.1-0.7-2.7s-1.2-0.9-2.1-0.9
			C499.8,27.2,498.8,28.4,498.8,30.8z"/>
		<path class="st5" d="M509.9,30.7l0.5-0.7l0.6-0.7l3.1-3.3h1.8l-3.9,4.1l4.2,5.5h-1.9l-3.3-4.5l-1.1,1v3.5h-1.6V22h1.6v7.1V30.7
			L509.9,30.7z"/>
		<path class="st5" d="M517.5,34.7c0-0.2,0-0.4,0.1-0.6c0.1-0.2,0.1-0.3,0.2-0.4c0.1-0.1,0.2-0.2,0.4-0.2c0.1,0,0.3-0.1,0.4-0.1
			c0.2,0,0.3,0,0.4,0.1c0.1,0,0.3,0.1,0.4,0.2c0.1,0.1,0.2,0.2,0.2,0.4c0.1,0.2,0.1,0.3,0.1,0.6c0,0.2,0,0.4-0.1,0.6
			c-0.1,0.2-0.1,0.3-0.2,0.4s-0.2,0.2-0.4,0.2s-0.3,0.1-0.4,0.1c-0.2,0-0.3,0-0.4-0.1s-0.3-0.1-0.4-0.2s-0.2-0.2-0.2-0.4
			C517.5,35.1,517.5,34.9,517.5,34.7z"/>
		<path class="st5" d="M126.4,57.3h-4.6v-0.9l1.5-0.3V45.7l-1.5-0.4v-0.9h4.6v0.9l-1.5,0.4V56l1.5,0.3V57.3z"/>
		<path class="st5" d="M136.7,57.4c-1.4,0-2.5-0.4-3.2-1.3c-0.8-0.9-1.2-2.1-1.2-3.7c0-1.6,0.4-2.9,1.2-3.7s1.9-1.3,3.3-1.3
			c0.5,0,0.9,0,1.4,0.1c0.5,0.1,0.8,0.2,1.1,0.4l-0.5,1.3c-0.8-0.3-1.5-0.5-2.1-0.5c-1,0-1.7,0.3-2.2,0.9s-0.7,1.5-0.7,2.7
			c0,1.2,0.2,2.1,0.7,2.7s1.1,0.9,2.1,0.9c0.8,0,1.7-0.2,2.5-0.6v1.4C138.6,57.3,137.7,57.4,136.7,57.4z"/>
		<path class="st5" d="M147.9,57.3v-6.2c0-0.8-0.2-1.4-0.5-1.8c-0.3-0.4-0.9-0.6-1.6-0.6c-1,0-1.7,0.3-2.1,0.8s-0.7,1.4-0.7,2.7v5
			h-1.6V43.6h1.6v4c0,0.5,0,1-0.1,1.4h0.1c0.3-0.5,0.7-0.8,1.2-1.1s1.1-0.4,1.8-0.4c1.2,0,2.1,0.3,2.6,0.8s0.9,1.5,0.9,2.7v6.3
			H147.9z"/>
		<path class="st5" d="M158.1,57.3l-0.3-1.4h-0.1c-0.5,0.6-1,1-1.4,1.2c-0.5,0.2-1.1,0.3-1.8,0.3c-0.9,0-1.7-0.2-2.2-0.7
			s-0.8-1.2-0.8-2.1c0-2,1.5-3,4.6-3.1l1.6-0.1v-0.6c0-0.7-0.2-1.3-0.5-1.6c-0.3-0.3-0.8-0.5-1.5-0.5c-0.5,0-1,0.1-1.4,0.2
			s-0.9,0.3-1.3,0.5l-0.5-1.2c0.5-0.3,1-0.5,1.6-0.6s1.1-0.2,1.7-0.2c1.2,0,2,0.3,2.6,0.8s0.9,1.3,0.9,2.5v6.6H158.1z M154.9,56.2
			c0.9,0,1.6-0.2,2.1-0.7s0.8-1.2,0.8-2v-0.9l-1.4,0.1c-1.1,0-1.9,0.2-2.4,0.5s-0.8,0.8-0.8,1.5c0,0.5,0.2,0.9,0.5,1.2
			S154.3,56.2,154.9,56.2z"/>
		<path class="st5" d="M163.6,57.3H162V43.6h1.6V57.3z"/>
		<path class="st5" d="M168,57.3h-1.6V43.6h1.6V57.3z"/>
		<path class="st5" d="M175,57.4c-1.4,0-2.6-0.4-3.4-1.3c-0.8-0.9-1.2-2.1-1.2-3.6c0-1.5,0.4-2.8,1.2-3.7c0.8-0.9,1.8-1.4,3.1-1.4
			c1.2,0,2.2,0.4,2.9,1.2c0.7,0.8,1.1,1.8,1.1,3.2v1H172c0,1.1,0.3,1.9,0.8,2.5s1.3,0.9,2.2,0.9c0.5,0,1,0,1.5-0.1s1-0.3,1.6-0.5
			v1.4c-0.5,0.2-1,0.4-1.5,0.5S175.6,57.4,175,57.4z M174.6,48.7c-0.8,0-1.4,0.2-1.8,0.7s-0.7,1.2-0.8,2h4.9c0-0.9-0.2-1.6-0.6-2.1
			S175.3,48.7,174.6,48.7z"/>
		<path class="st5" d="M187.3,57.3v-6.2c0-0.8-0.2-1.4-0.5-1.8c-0.3-0.4-0.9-0.6-1.6-0.6c-1,0-1.7,0.3-2.2,0.8
			c-0.4,0.5-0.7,1.4-0.7,2.7v5h-1.6v-9.7h1.3l0.2,1.3h0.1c0.3-0.5,0.7-0.8,1.3-1.1c0.5-0.3,1.1-0.4,1.8-0.4c1.2,0,2.1,0.3,2.6,0.9
			s0.9,1.5,0.9,2.7v6.3H187.3z"/>
		<path class="st5" d="M198.1,57.2l0.1-1.2h-0.1c-0.7,1-1.6,1.5-3,1.5c-1.2,0-2.2-0.4-2.9-1.3c-0.7-0.9-1.1-2.1-1.1-3.7
			c0-1.6,0.4-2.8,1.1-3.7s1.7-1.3,2.9-1.3c1.3,0,2.3,0.5,3,1.5h0.1l0.2-1.3h1.3v9.8c0,1.4-0.4,2.4-1.1,3.1s-1.8,1-3.3,1
			c-1.4,0-2.6-0.2-3.5-0.6v-1.5c0.9,0.5,2.1,0.8,3.6,0.8c0.8,0,1.5-0.2,1.9-0.7s0.7-1.1,0.7-2V57.2z M195.3,56.2
			c1,0,1.7-0.3,2.1-0.8s0.7-1.4,0.7-2.5v-0.4c0-1.3-0.2-2.2-0.7-2.8s-1.2-0.9-2.2-0.9c-0.8,0-1.4,0.3-1.9,1
			c-0.4,0.6-0.7,1.6-0.7,2.7c0,1.2,0.2,2.1,0.6,2.7S194.5,56.2,195.3,56.2z"/>
		<path class="st5" d="M206.6,57.4c-1.4,0-2.6-0.4-3.4-1.3c-0.8-0.9-1.2-2.1-1.2-3.6c0-1.5,0.4-2.8,1.2-3.7c0.8-0.9,1.8-1.4,3.1-1.4
			c1.2,0,2.2,0.4,2.9,1.2c0.7,0.8,1.1,1.8,1.1,3.2v1h-6.6c0,1.1,0.3,1.9,0.8,2.5s1.3,0.9,2.2,0.9c0.5,0,1,0,1.5-0.1s1-0.3,1.6-0.5
			v1.4c-0.5,0.2-1,0.4-1.5,0.5S207.2,57.4,206.6,57.4z M206.2,48.7c-0.8,0-1.4,0.2-1.8,0.7s-0.7,1.2-0.8,2h4.9
			c0-0.9-0.2-1.6-0.6-2.1S207,48.7,206.2,48.7z"/>
		<path class="st5" d="M215.4,47.6h1.7l2.1,5.5c0.4,1.2,0.7,2.1,0.8,2.6h0.1c0.1-0.2,0.2-0.6,0.4-1.2s0.3-1.1,0.5-1.4l2-5.5h1.7
			l-4.2,11c-0.4,1.1-0.9,1.8-1.4,2.3s-1.2,0.7-2.1,0.7c-0.4,0-0.9,0-1.3-0.1v-1.3c0.3,0.1,0.6,0.1,1.1,0.1c0.5,0,0.9-0.1,1.3-0.4
			s0.6-0.7,0.9-1.3l0.5-1.3L215.4,47.6z"/>
		<path class="st5" d="M234.2,52.4c0,1.6-0.4,2.8-1.2,3.7s-1.9,1.3-3.3,1.3c-0.9,0-1.6-0.2-2.3-0.6c-0.7-0.4-1.2-1-1.6-1.8
			s-0.5-1.6-0.5-2.7c0-1.6,0.4-2.8,1.2-3.7s1.9-1.3,3.3-1.3c1.4,0,2.4,0.4,3.2,1.3C233.8,49.7,234.2,50.9,234.2,52.4z M226.9,52.4
			c0,1.2,0.2,2.1,0.7,2.8s1.2,0.9,2.1,0.9c0.9,0,1.6-0.3,2.1-0.9s0.7-1.6,0.7-2.8s-0.2-2.1-0.7-2.7s-1.2-0.9-2.1-0.9
			C227.8,48.8,226.9,50,226.9,52.4z"/>
		<path class="st5" d="M238,47.6v6.2c0,0.8,0.2,1.4,0.5,1.7c0.3,0.4,0.9,0.6,1.6,0.6c1,0,1.7-0.3,2.2-0.8s0.7-1.4,0.7-2.7v-5h1.6
			v9.7h-1.3L243,56h-0.1c-0.3,0.5-0.7,0.8-1.2,1.1s-1.1,0.4-1.8,0.4c-1.2,0-2-0.3-2.6-0.8s-0.9-1.4-0.9-2.7v-6.3H238z"/>
		<path class="st5" d="M258.4,57.3v-6.2c0-0.8-0.2-1.4-0.5-1.8c-0.3-0.4-0.9-0.6-1.6-0.6c-1,0-1.7,0.3-2.2,0.8
			c-0.4,0.5-0.7,1.4-0.7,2.7v5h-1.6v-9.7h1.3l0.2,1.3h0.1c0.3-0.5,0.7-0.8,1.3-1.1c0.5-0.3,1.1-0.4,1.8-0.4c1.2,0,2.1,0.3,2.6,0.9
			s0.9,1.5,0.9,2.7v6.3H258.4z"/>
		<path class="st5" d="M271.1,52.4c0,1.6-0.4,2.8-1.2,3.7s-1.9,1.3-3.3,1.3c-0.9,0-1.6-0.2-2.3-0.6c-0.7-0.4-1.2-1-1.6-1.8
			s-0.5-1.6-0.5-2.7c0-1.6,0.4-2.8,1.2-3.7s1.9-1.3,3.3-1.3c1.4,0,2.4,0.4,3.2,1.3C270.7,49.7,271.1,50.9,271.1,52.4z M263.8,52.4
			c0,1.2,0.2,2.1,0.7,2.8s1.2,0.9,2.1,0.9c0.9,0,1.6-0.3,2.1-0.9s0.7-1.6,0.7-2.8s-0.2-2.1-0.7-2.7s-1.2-0.9-2.1-0.9
			C264.7,48.8,263.8,50,263.8,52.4z"/>
		<path class="st5" d="M276.6,56.2c0.2,0,0.4,0,0.7-0.1s0.5-0.1,0.6-0.1v1.2c-0.1,0.1-0.4,0.1-0.7,0.2c-0.3,0.1-0.6,0.1-0.9,0.1
			c-1.9,0-2.8-1-2.8-3v-5.6h-1.4v-0.8l1.4-0.6l0.6-2.1h0.9v2.2h2.8v1.2h-2.8v5.6c0,0.6,0.1,1,0.4,1.3S276.1,56.2,276.6,56.2z"/>
		<path class="st5" d="M287.3,56.2c0.2,0,0.4,0,0.7-0.1s0.5-0.1,0.6-0.1v1.2c-0.1,0.1-0.4,0.1-0.7,0.2c-0.3,0.1-0.6,0.1-0.9,0.1
			c-1.9,0-2.8-1-2.8-3v-5.6h-1.4v-0.8l1.4-0.6l0.6-2.1h0.9v2.2h2.8v1.2h-2.8v5.6c0,0.6,0.1,1,0.4,1.3S286.8,56.2,287.3,56.2z"/>
		<path class="st5" d="M298.7,52.4c0,1.6-0.4,2.8-1.2,3.7s-1.9,1.3-3.3,1.3c-0.9,0-1.6-0.2-2.3-0.6c-0.7-0.4-1.2-1-1.6-1.8
			s-0.5-1.6-0.5-2.7c0-1.6,0.4-2.8,1.2-3.7s1.9-1.3,3.3-1.3c1.4,0,2.4,0.4,3.2,1.3C298.3,49.7,298.7,50.9,298.7,52.4z M291.4,52.4
			c0,1.2,0.2,2.1,0.7,2.8s1.2,0.9,2.1,0.9c0.9,0,1.6-0.3,2.1-0.9s0.7-1.6,0.7-2.8s-0.2-2.1-0.7-2.7s-1.2-0.9-2.1-0.9
			C292.3,48.8,291.4,50,291.4,52.4z"/>
		<path class="st5" d="M307.5,57.3l-3.7-9.7h1.7l2,5.7c0.4,1.1,0.7,2,0.8,2.6h0.1c0-0.1,0-0.2,0.1-0.3c0-0.1,0.1-0.2,0.1-0.3
			c0-0.1,0.3-0.8,0.7-2l2.1-5.7h1.7l-3.7,9.7H307.5z"/>
		<path class="st5" d="M314.2,45c0-0.4,0.1-0.6,0.3-0.8s0.4-0.2,0.7-0.2c0.2,0,0.5,0.1,0.6,0.2s0.3,0.4,0.3,0.8
			c0,0.3-0.1,0.6-0.3,0.8s-0.4,0.2-0.6,0.2c-0.3,0-0.5-0.1-0.7-0.2S314.2,45.4,314.2,45z M315.9,57.3h-1.6v-9.7h1.6V57.3z"/>
		<path class="st5" d="M325,54.6c0,0.9-0.3,1.6-1,2.1s-1.6,0.7-2.8,0.7c-1.3,0-2.3-0.2-3-0.6v-1.4c1.1,0.5,2.1,0.8,3.1,0.8
			c0.8,0,1.4-0.1,1.7-0.4s0.5-0.6,0.5-1c0-0.4-0.2-0.7-0.5-1s-1-0.6-1.9-0.9c-0.9-0.4-1.5-0.7-1.9-0.9s-0.6-0.5-0.8-0.8
			s-0.3-0.7-0.3-1.1c0-0.8,0.3-1.4,1-1.9s1.5-0.7,2.7-0.7c1.1,0,2.1,0.2,3.1,0.7l-0.5,1.3c-1-0.4-1.9-0.6-2.6-0.6
			c-0.7,0-1.2,0.1-1.5,0.3c-0.3,0.2-0.5,0.5-0.5,0.9c0,0.4,0.1,0.6,0.4,0.9s1,0.6,2,1c0.8,0.3,1.4,0.6,1.8,0.8s0.7,0.5,0.8,0.9
			S325,54.2,325,54.6z"/>
		<path class="st5" d="M327,45c0-0.4,0.1-0.6,0.3-0.8s0.4-0.2,0.7-0.2c0.2,0,0.5,0.1,0.6,0.2s0.3,0.4,0.3,0.8c0,0.3-0.1,0.6-0.3,0.8
			s-0.4,0.2-0.6,0.2c-0.3,0-0.5-0.1-0.7-0.2S327,45.4,327,45z M328.7,57.3h-1.6v-9.7h1.6V57.3z"/>
		<path class="st5" d="M334.7,56.2c0.2,0,0.4,0,0.7-0.1s0.5-0.1,0.6-0.1v1.2c-0.1,0.1-0.4,0.1-0.7,0.2c-0.3,0.1-0.6,0.1-0.9,0.1
			c-1.9,0-2.8-1-2.8-3v-5.6h-1.4v-0.8l1.4-0.6l0.6-2.1h0.9v2.2h2.8v1.2h-2.8v5.6c0,0.6,0.1,1,0.4,1.3S334.3,56.2,334.7,56.2z"/>
		<path class="st5" d="M344.1,57.3h-1.6V44.4h7.2v1.4h-5.6v4.6h5.2v1.4h-5.2V57.3z"/>
		<path class="st5" d="M357.3,57.3l-0.3-1.4h-0.1c-0.5,0.6-1,1-1.4,1.2c-0.5,0.2-1.1,0.3-1.8,0.3c-0.9,0-1.7-0.2-2.2-0.7
			s-0.8-1.2-0.8-2.1c0-2,1.5-3,4.6-3.1l1.6-0.1v-0.6c0-0.7-0.2-1.3-0.5-1.6c-0.3-0.3-0.8-0.5-1.5-0.5c-0.5,0-1,0.1-1.4,0.2
			s-0.9,0.3-1.3,0.5l-0.5-1.2c0.5-0.3,1-0.5,1.6-0.6s1.1-0.2,1.7-0.2c1.2,0,2,0.3,2.6,0.8s0.9,1.3,0.9,2.5v6.6H357.3z M354,56.2
			c0.9,0,1.6-0.2,2.1-0.7s0.8-1.2,0.8-2v-0.9l-1.4,0.1c-1.1,0-1.9,0.2-2.4,0.5s-0.8,0.8-0.8,1.5c0,0.5,0.2,0.9,0.5,1.2
			S353.5,56.2,354,56.2z"/>
		<path class="st5" d="M365.1,57.4c-1.4,0-2.5-0.4-3.2-1.3c-0.8-0.9-1.2-2.1-1.2-3.7c0-1.6,0.4-2.9,1.2-3.7s1.9-1.3,3.3-1.3
			c0.5,0,0.9,0,1.4,0.1c0.5,0.1,0.8,0.2,1.1,0.4l-0.5,1.3c-0.8-0.3-1.5-0.5-2.1-0.5c-1,0-1.7,0.3-2.2,0.9s-0.7,1.5-0.7,2.7
			c0,1.2,0.2,2.1,0.7,2.7s1.1,0.9,2.1,0.9c0.8,0,1.7-0.2,2.5-0.6v1.4C366.9,57.3,366,57.4,365.1,57.4z"/>
		<path class="st5" d="M373.7,57.4c-1.4,0-2.6-0.4-3.4-1.3c-0.8-0.9-1.2-2.1-1.2-3.6c0-1.5,0.4-2.8,1.2-3.7c0.8-0.9,1.8-1.4,3.1-1.4
			c1.2,0,2.2,0.4,2.9,1.2c0.7,0.8,1.1,1.8,1.1,3.2v1h-6.6c0,1.1,0.3,1.9,0.8,2.5s1.3,0.9,2.2,0.9c0.5,0,1,0,1.5-0.1s1-0.3,1.6-0.5
			v1.4c-0.5,0.2-1,0.4-1.5,0.5S374.3,57.4,373.7,57.4z M373.3,48.7c-0.8,0-1.4,0.2-1.8,0.7s-0.7,1.2-0.8,2h4.9
			c0-0.9-0.2-1.6-0.6-2.1S374,48.7,373.3,48.7z"/>
		<path class="st5" d="M384.1,47.5c1.3,0,2.3,0.4,2.9,1.3s1,2.1,1,3.7c0,1.6-0.4,2.8-1.1,3.7c-0.7,0.9-1.7,1.3-2.9,1.3
			c-0.7,0-1.2-0.1-1.7-0.4s-0.9-0.6-1.2-1H381c-0.2,0.7-0.3,1.1-0.3,1.2h-1.1V43.6h1.6v3.3c0,0.7,0,1.3-0.1,2h0.1
			C381.7,47.9,382.7,47.5,384.1,47.5z M383.8,48.8c-1,0-1.7,0.3-2.1,0.8s-0.6,1.5-0.6,2.8v0.1c0,1.3,0.2,2.3,0.6,2.8
			c0.4,0.6,1.1,0.8,2.1,0.8c0.9,0,1.5-0.3,1.9-1c0.4-0.6,0.6-1.6,0.6-2.8c0-1.2-0.2-2.1-0.6-2.7S384.7,48.8,383.8,48.8z"/>
		<path class="st5" d="M398.7,52.4c0,1.6-0.4,2.8-1.2,3.7s-1.9,1.3-3.3,1.3c-0.9,0-1.6-0.2-2.3-0.6c-0.7-0.4-1.2-1-1.6-1.8
			s-0.5-1.6-0.5-2.7c0-1.6,0.4-2.8,1.2-3.7s1.9-1.3,3.3-1.3c1.4,0,2.4,0.4,3.2,1.3C398.3,49.7,398.7,50.9,398.7,52.4z M391.5,52.4
			c0,1.2,0.2,2.1,0.7,2.8s1.2,0.9,2.1,0.9c0.9,0,1.6-0.3,2.1-0.9s0.7-1.6,0.7-2.8s-0.2-2.1-0.7-2.7s-1.2-0.9-2.1-0.9
			C392.4,48.8,391.5,50,391.5,52.4z"/>
		<path class="st5" d="M409.4,52.4c0,1.6-0.4,2.8-1.2,3.7s-1.9,1.3-3.3,1.3c-0.9,0-1.6-0.2-2.3-0.6c-0.7-0.4-1.2-1-1.6-1.8
			s-0.5-1.6-0.5-2.7c0-1.6,0.4-2.8,1.2-3.7s1.9-1.3,3.3-1.3c1.4,0,2.4,0.4,3.2,1.3C409,49.7,409.4,50.9,409.4,52.4z M402.1,52.4
			c0,1.2,0.2,2.1,0.7,2.8s1.2,0.9,2.1,0.9c0.9,0,1.6-0.3,2.1-0.9s0.7-1.6,0.7-2.8s-0.2-2.1-0.7-2.7s-1.2-0.9-2.1-0.9
			C403,48.8,402.1,50,402.1,52.4z"/>
		<path class="st5" d="M413.2,52.3l0.5-0.7l0.6-0.7l3.1-3.3h1.8l-3.9,4.1l4.2,5.5h-1.9l-3.3-4.5l-1.1,1v3.5h-1.6V43.6h1.6v7.1V52.3
			L413.2,52.3z"/>
		<path class="st5" d="M429.9,48.9h-2.4v8.4h-1.6v-8.4h-1.7v-0.7l1.7-0.5V47c0-1.2,0.3-2.1,0.8-2.6s1.3-0.9,2.4-0.9
			c0.6,0,1.2,0.1,1.9,0.3l-0.4,1.2c-0.5-0.2-1-0.3-1.4-0.3c-0.5,0-0.9,0.2-1.2,0.5s-0.4,0.9-0.4,1.7v0.6h2.4V48.9z"/>
		<path class="st5" d="M439.8,52.4c0,1.6-0.4,2.8-1.2,3.7s-1.9,1.3-3.3,1.3c-0.9,0-1.6-0.2-2.3-0.6c-0.7-0.4-1.2-1-1.6-1.8
			s-0.5-1.6-0.5-2.7c0-1.6,0.4-2.8,1.2-3.7s1.9-1.3,3.3-1.3c1.4,0,2.4,0.4,3.2,1.3C439.4,49.7,439.8,50.9,439.8,52.4z M432.5,52.4
			c0,1.2,0.2,2.1,0.7,2.8s1.2,0.9,2.1,0.9c0.9,0,1.6-0.3,2.1-0.9s0.7-1.6,0.7-2.8s-0.2-2.1-0.7-2.7s-1.2-0.9-2.1-0.9
			C433.5,48.8,432.5,50,432.5,52.4z"/>
		<path class="st5" d="M446.6,47.4c0.4,0,0.8,0,1.1,0.1l-0.2,1.5c-0.4-0.1-0.7-0.1-1-0.1c-0.5,0-1,0.1-1.4,0.4s-0.8,0.7-1,1.2
			c-0.2,0.5-0.4,1-0.4,1.6v5.2h-1.6v-9.7h1.3l0.2,1.8h0.1c0.4-0.6,0.8-1.1,1.3-1.5S446,47.4,446.6,47.4z"/>
		<path class="st5" d="M457,56.2c0.2,0,0.4,0,0.7-0.1s0.5-0.1,0.6-0.1v1.2c-0.1,0.1-0.4,0.1-0.7,0.2c-0.3,0.1-0.6,0.1-0.9,0.1
			c-1.9,0-2.8-1-2.8-3v-5.6h-1.4v-0.8l1.4-0.6l0.6-2.1h0.9v2.2h2.8v1.2h-2.8v5.6c0,0.6,0.1,1,0.4,1.3S456.5,56.2,457,56.2z"/>
		<path class="st5" d="M466.6,57.3v-6.2c0-0.8-0.2-1.4-0.5-1.8c-0.3-0.4-0.9-0.6-1.6-0.6c-1,0-1.7,0.3-2.1,0.8s-0.7,1.4-0.7,2.7v5
			H460V43.6h1.6v4c0,0.5,0,1-0.1,1.4h0.1c0.3-0.5,0.7-0.8,1.2-1.1s1.1-0.4,1.8-0.4c1.2,0,2.1,0.3,2.6,0.8s0.9,1.5,0.9,2.7v6.3H466.6
			z"/>
		<path class="st5" d="M475,57.4c-1.4,0-2.6-0.4-3.4-1.3c-0.8-0.9-1.2-2.1-1.2-3.6c0-1.5,0.4-2.8,1.2-3.7c0.8-0.9,1.8-1.4,3.1-1.4
			c1.2,0,2.2,0.4,2.9,1.2c0.7,0.8,1.1,1.8,1.1,3.2v1H472c0,1.1,0.3,1.9,0.8,2.5s1.3,0.9,2.2,0.9c0.5,0,1,0,1.5-0.1s1-0.3,1.6-0.5
			v1.4c-0.5,0.2-1,0.4-1.5,0.5S475.6,57.4,475,57.4z M474.6,48.7c-0.8,0-1.4,0.2-1.8,0.7s-0.7,1.2-0.8,2h4.9c0-0.9-0.2-1.6-0.6-2.1
			S475.4,48.7,474.6,48.7z"/>
		<path class="st5" d="M491.8,57.3v-6.2c0-0.8-0.2-1.4-0.5-1.8c-0.3-0.4-0.9-0.6-1.6-0.6c-1,0-1.7,0.3-2.2,0.8
			c-0.4,0.5-0.7,1.4-0.7,2.7v5h-1.6v-9.7h1.3l0.2,1.3h0.1c0.3-0.5,0.7-0.8,1.3-1.1c0.5-0.3,1.1-0.4,1.8-0.4c1.2,0,2.1,0.3,2.6,0.9
			s0.9,1.5,0.9,2.7v6.3H491.8z"/>
		<path class="st5" d="M500.3,57.4c-1.4,0-2.6-0.4-3.4-1.3c-0.8-0.9-1.2-2.1-1.2-3.6c0-1.5,0.4-2.8,1.2-3.7c0.8-0.9,1.8-1.4,3.1-1.4
			c1.2,0,2.2,0.4,2.9,1.2c0.7,0.8,1.1,1.8,1.1,3.2v1h-6.6c0,1.1,0.3,1.9,0.8,2.5s1.3,0.9,2.2,0.9c0.5,0,1,0,1.5-0.1s1-0.3,1.6-0.5
			v1.4c-0.5,0.2-1,0.4-1.5,0.5S500.9,57.4,500.3,57.4z M499.9,48.7c-0.8,0-1.4,0.2-1.8,0.7s-0.7,1.2-0.8,2h4.9
			c0-0.9-0.2-1.6-0.6-2.1S500.6,48.7,499.9,48.7z"/>
		<path class="st5" d="M508.4,52.3l-3.3-4.7h1.8l2.5,3.6l2.5-3.6h1.8l-3.3,4.7l3.5,4.9h-1.8l-2.6-3.8l-2.7,3.8h-1.8L508.4,52.3z"/>
		<path class="st5" d="M518.6,56.2c0.2,0,0.4,0,0.7-0.1s0.5-0.1,0.6-0.1v1.2c-0.1,0.1-0.4,0.1-0.7,0.2c-0.3,0.1-0.6,0.1-0.9,0.1
			c-1.9,0-2.8-1-2.8-3v-5.6h-1.4v-0.8l1.4-0.6l0.6-2.1h0.9v2.2h2.8v1.2h-2.8v5.6c0,0.6,0.1,1,0.4,1.3S518.1,56.2,518.6,56.2z"/>
		<path class="st5" d="M533.4,57.3h-8v-1.4l3.1-3.3c0.4-0.5,0.8-0.9,1.2-1.3s0.6-0.8,0.9-1.2s0.4-0.8,0.6-1.1
			c0.1-0.4,0.2-0.8,0.2-1.2c0-0.3,0-0.7-0.1-0.9s-0.2-0.5-0.4-0.7c-0.2-0.2-0.4-0.3-0.7-0.4s-0.5-0.1-0.8-0.1
			c-0.6,0-1.1,0.1-1.5,0.3s-0.9,0.5-1.3,0.9l-0.9-1c0.2-0.2,0.5-0.4,0.8-0.6c0.3-0.2,0.6-0.3,0.9-0.5s0.6-0.2,1-0.3
			c0.3-0.1,0.7-0.1,1.1-0.1c0.6,0,1.1,0.1,1.5,0.2s0.8,0.4,1.2,0.7s0.6,0.7,0.7,1.1c0.2,0.4,0.3,0.9,0.3,1.4c0,0.5-0.1,1-0.2,1.4
			s-0.4,0.9-0.6,1.3s-0.6,0.9-1,1.3s-0.8,0.9-1.2,1.4l-2.5,2.6v0.1h6.1V57.3z"/>
		<path class="st5" d="M543.8,54.4h-1.9v2.9h-1.5v-2.9h-5.9V53l5.8-8.6h1.7v8.6h1.9V54.4z M540.3,52.9v-3.1c0-0.3,0-0.7,0-1
			c0-0.4,0-0.7,0-1.1c0-0.3,0-0.7,0-1s0-0.5,0-0.7h-0.1c0,0.1-0.1,0.2-0.2,0.4c-0.1,0.1-0.1,0.3-0.2,0.4s-0.1,0.3-0.2,0.4
			s-0.1,0.2-0.2,0.3l-3.6,5.3H540.3z"/>
		<path class="st5" d="M556.4,57.3v-6.2c0-0.8-0.2-1.4-0.5-1.8c-0.3-0.4-0.9-0.6-1.6-0.6c-1,0-1.7,0.3-2.1,0.8s-0.7,1.4-0.7,2.7v5
			h-1.6V43.6h1.6v4c0,0.5,0,1-0.1,1.4h0.1c0.3-0.5,0.7-0.8,1.2-1.1s1.1-0.4,1.8-0.4c1.2,0,2.1,0.3,2.6,0.8s0.9,1.5,0.9,2.7v6.3
			H556.4z"/>
		<path class="st5" d="M569.1,52.4c0,1.6-0.4,2.8-1.2,3.7s-1.9,1.3-3.3,1.3c-0.9,0-1.6-0.2-2.3-0.6c-0.7-0.4-1.2-1-1.6-1.8
			s-0.5-1.6-0.5-2.7c0-1.6,0.4-2.8,1.2-3.7s1.9-1.3,3.3-1.3c1.4,0,2.4,0.4,3.2,1.3C568.7,49.7,569.1,50.9,569.1,52.4z M561.9,52.4
			c0,1.2,0.2,2.1,0.7,2.8s1.2,0.9,2.1,0.9c0.9,0,1.6-0.3,2.1-0.9s0.7-1.6,0.7-2.8s-0.2-2.1-0.7-2.7s-1.2-0.9-2.1-0.9
			C562.8,48.8,561.9,50,561.9,52.4z"/>
		<path class="st5" d="M572.9,47.6v6.2c0,0.8,0.2,1.4,0.5,1.7c0.3,0.4,0.9,0.6,1.6,0.6c1,0,1.7-0.3,2.2-0.8s0.7-1.4,0.7-2.7v-5h1.6
			v9.7h-1.3L578,56h-0.1c-0.3,0.5-0.7,0.8-1.2,1.1s-1.1,0.4-1.8,0.4c-1.2,0-2-0.3-2.6-0.8s-0.9-1.4-0.9-2.7v-6.3H572.9z"/>
		<path class="st5" d="M586.8,47.4c0.4,0,0.8,0,1.1,0.1l-0.2,1.5c-0.4-0.1-0.7-0.1-1-0.1c-0.5,0-1,0.1-1.4,0.4s-0.8,0.7-1,1.2
			c-0.2,0.5-0.4,1-0.4,1.6v5.2h-1.6v-9.7h1.3l0.2,1.8h0.1c0.4-0.6,0.8-1.1,1.3-1.5S586.2,47.4,586.8,47.4z"/>
		<path class="st5" d="M595.8,54.6c0,0.9-0.3,1.6-1,2.1s-1.6,0.7-2.8,0.7c-1.3,0-2.3-0.2-3-0.6v-1.4c1.1,0.5,2.1,0.8,3.1,0.8
			c0.8,0,1.4-0.1,1.7-0.4s0.5-0.6,0.5-1c0-0.4-0.2-0.7-0.5-1s-1-0.6-1.9-0.9c-0.9-0.4-1.5-0.7-1.9-0.9s-0.6-0.5-0.8-0.8
			s-0.3-0.7-0.3-1.1c0-0.8,0.3-1.4,1-1.9s1.5-0.7,2.7-0.7c1.1,0,2.1,0.2,3.1,0.7l-0.5,1.3c-1-0.4-1.9-0.6-2.6-0.6
			c-0.7,0-1.2,0.1-1.5,0.3c-0.3,0.2-0.5,0.5-0.5,0.9c0,0.4,0.1,0.6,0.4,0.9s1,0.6,2,1c0.8,0.3,1.4,0.6,1.8,0.8s0.7,0.5,0.8,0.9
			S595.8,54.2,595.8,54.6z"/>
		<path class="st5" d="M597.7,56.3c0-0.2,0-0.4,0.1-0.6c0.1-0.2,0.1-0.3,0.2-0.4c0.1-0.1,0.2-0.2,0.4-0.2c0.1,0,0.3-0.1,0.4-0.1
			c0.2,0,0.3,0,0.4,0.1c0.1,0,0.3,0.1,0.4,0.2c0.1,0.1,0.2,0.2,0.2,0.4c0.1,0.2,0.1,0.3,0.1,0.6c0,0.2,0,0.4-0.1,0.6
			c-0.1,0.2-0.1,0.3-0.2,0.4s-0.2,0.2-0.4,0.2s-0.3,0.1-0.4,0.1c-0.2,0-0.3,0-0.4-0.1s-0.3-0.1-0.4-0.2s-0.2-0.2-0.2-0.4
			C597.7,56.7,597.7,56.5,597.7,56.3z"/>
	</g>
</g>
<g>
	<g>
		<g>
			<path class="st5" d="M1059.5,21.4c1.1,0,2,0.9,2,2v34c0,1.1-0.9,2-2,2H915.9c-1.1,0-2-0.9-2-2v-34c0-1.1,0.9-2,2-2H1059.5
				 M1059.5,20.4H915.9c-1.7,0-3,1.3-3,3v34c0,1.7,1.3,3,3,3h143.5c1.7,0,3-1.3,3-3v-34C1062.5,21.8,1061.1,20.4,1059.5,20.4
				L1059.5,20.4z"/>
		</g>
	</g>
</g>
<g>
	<path class="st6" d="M55.8,23.9v12.4c0,6.8,9.2,11.4,9.2,11.4s9.2-4.6,9.2-11.4V23.9H55.8z"/>
	<line class="st6" x1="64.9" y1="47.7" x2="64.9" y2="52.8"/>
	<g>
		<g>
			<path class="st6" d="M55.8,25.8h-7.5v4.3c0,3.5,2.8,6.3,6.3,6.3h1.3"/>
		</g>
		<g>
			<path class="st6" d="M74.1,25.8h7.5v4.3c0,3.5-2.8,6.3-6.3,6.3H74"/>
		</g>
	</g>
	<rect x="58.6" y="52.8" class="st6" width="12.7" height="4.2"/>
</g>
<g>
	<g>
		<g>
			<g>
				<g class="st4">
					<path class="st5" d="M929.3,44.7h-1.3v-8.9h-3.1v-1.1h7.5v1.1h-3.1V44.7z"/>
					<path class="st5" d="M938.4,44.7l-0.2-1.1h-0.1c-0.4,0.5-0.7,0.8-1.1,1c-0.4,0.2-0.8,0.2-1.4,0.2c-0.7,0-1.3-0.2-1.7-0.6
						c-0.4-0.4-0.6-0.9-0.6-1.6c0-1.5,1.2-2.3,3.6-2.4l1.3,0v-0.4c0-0.6-0.1-1-0.4-1.3c-0.2-0.3-0.6-0.4-1.2-0.4
						c-0.4,0-0.8,0.1-1.1,0.2s-0.7,0.3-1,0.4l-0.4-0.9c0.4-0.2,0.8-0.4,1.2-0.5c0.4-0.1,0.9-0.2,1.3-0.2c0.9,0,1.6,0.2,2,0.6
						c0.4,0.4,0.7,1,0.7,1.9v5.1H938.4z M935.9,43.8c0.7,0,1.2-0.2,1.6-0.6c0.4-0.4,0.6-0.9,0.6-1.6V41l-1.1,0
						c-0.9,0-1.5,0.2-1.9,0.4s-0.6,0.6-0.6,1.1c0,0.4,0.1,0.7,0.4,0.9S935.4,43.8,935.9,43.8z"/>
					<path class="st5" d="M942.9,40.8l0.4-0.5l0.5-0.6l2.4-2.5h1.4l-3,3.2l3.2,4.3h-1.5l-2.6-3.5l-0.9,0.7v2.8h-1.2V34h1.2v5.6V40.8
						L942.9,40.8z"/>
					<path class="st5" d="M952.3,44.8c-1.1,0-2-0.3-2.6-1c-0.6-0.7-1-1.6-1-2.8c0-1.2,0.3-2.2,0.9-2.9c0.6-0.7,1.4-1.1,2.4-1.1
						c0.9,0,1.7,0.3,2.3,0.9c0.6,0.6,0.8,1.4,0.8,2.5v0.7H950c0,0.9,0.2,1.5,0.7,1.9s1,0.7,1.7,0.7c0.4,0,0.8,0,1.1-0.1
						c0.4-0.1,0.8-0.2,1.3-0.4v1.1c-0.4,0.2-0.8,0.3-1.2,0.4C953.2,44.8,952.8,44.8,952.3,44.8z M952,38c-0.6,0-1.1,0.2-1.4,0.6
						s-0.5,0.9-0.6,1.6h3.8c0-0.7-0.2-1.2-0.5-1.6S952.6,38,952,38z"/>
					<path class="st5" d="M963.2,43.8c0.2,0,0.3,0,0.6,0c0.2,0,0.4-0.1,0.5-0.1v0.9c-0.1,0-0.3,0.1-0.5,0.1c-0.2,0-0.5,0.1-0.7,0.1
						c-1.5,0-2.2-0.8-2.2-2.3v-4.4h-1.1v-0.6l1.1-0.5l0.5-1.6h0.7v1.7h2.2v1H962v4.3c0,0.4,0.1,0.8,0.3,1S962.8,43.8,963.2,43.8z"/>
					<path class="st5" d="M970.8,44.7v-4.8c0-0.6-0.1-1.1-0.4-1.4c-0.3-0.3-0.7-0.4-1.3-0.4c-0.8,0-1.3,0.2-1.7,0.6
						s-0.5,1.1-0.5,2.1v3.9h-1.2V34h1.2v3.1c0,0.4,0,0.8-0.1,1.1h0.1c0.2-0.4,0.5-0.6,0.9-0.9s0.9-0.3,1.4-0.3
						c0.9,0,1.6,0.2,2.1,0.7c0.5,0.4,0.7,1.1,0.7,2.1v4.9H970.8z"/>
					<path class="st5" d="M974.3,35.1c0-0.3,0.1-0.5,0.2-0.6s0.3-0.2,0.5-0.2c0.2,0,0.4,0.1,0.5,0.2s0.2,0.3,0.2,0.6
						c0,0.3-0.1,0.5-0.2,0.6s-0.3,0.2-0.5,0.2c-0.2,0-0.4-0.1-0.5-0.2S974.3,35.4,974.3,35.1z M975.6,44.7h-1.2v-7.5h1.2V44.7z"/>
					<path class="st5" d="M982.8,42.6c0,0.7-0.3,1.2-0.8,1.6c-0.5,0.4-1.3,0.6-2.2,0.6c-1,0-1.8-0.2-2.4-0.5v-1.1
						c0.8,0.4,1.6,0.6,2.4,0.6c0.6,0,1.1-0.1,1.4-0.3c0.3-0.2,0.4-0.5,0.4-0.8c0-0.3-0.1-0.5-0.4-0.8s-0.8-0.4-1.4-0.7
						c-0.7-0.3-1.2-0.5-1.5-0.7c-0.3-0.2-0.5-0.4-0.6-0.7s-0.2-0.5-0.2-0.9c0-0.6,0.2-1.1,0.8-1.5c0.5-0.4,1.2-0.5,2.1-0.5
						c0.9,0,1.6,0.2,2.4,0.5l-0.4,1c-0.8-0.3-1.4-0.5-2.1-0.5c-0.5,0-0.9,0.1-1.2,0.2c-0.3,0.2-0.4,0.4-0.4,0.7
						c0,0.3,0.1,0.5,0.3,0.7c0.2,0.2,0.8,0.4,1.6,0.7c0.6,0.2,1.1,0.4,1.4,0.6s0.5,0.4,0.7,0.7C982.8,42,982.8,42.3,982.8,42.6z"/>
					<path class="st5" d="M991.3,44.8c-1.1,0-1.9-0.3-2.5-1c-0.6-0.7-0.9-1.6-0.9-2.9c0-1.3,0.3-2.2,0.9-2.9c0.6-0.7,1.5-1,2.6-1
						c0.4,0,0.7,0,1.1,0.1c0.4,0.1,0.7,0.2,0.9,0.3l-0.4,1c-0.6-0.2-1.2-0.4-1.6-0.4c-0.8,0-1.3,0.2-1.7,0.7
						c-0.4,0.5-0.5,1.2-0.5,2.1c0,0.9,0.2,1.6,0.5,2.1c0.4,0.5,0.9,0.7,1.6,0.7c0.7,0,1.3-0.1,1.9-0.4v1.1
						C992.7,44.7,992.1,44.8,991.3,44.8z"/>
					<path class="st5" d="M1000.1,44.7v-4.8c0-0.6-0.1-1.1-0.4-1.4c-0.3-0.3-0.7-0.4-1.3-0.4c-0.8,0-1.3,0.2-1.7,0.6
						s-0.5,1.1-0.5,2.1v3.9H995V34h1.2v3.1c0,0.4,0,0.8-0.1,1.1h0.1c0.2-0.4,0.5-0.6,0.9-0.9s0.9-0.3,1.4-0.3c0.9,0,1.6,0.2,2.1,0.7
						c0.5,0.4,0.7,1.1,0.7,2.1v4.9H1000.1z"/>
					<path class="st5" d="M1008.3,44.7l-0.2-1.1h-0.1c-0.4,0.5-0.7,0.8-1.1,1c-0.4,0.2-0.8,0.2-1.4,0.2c-0.7,0-1.3-0.2-1.7-0.6
						c-0.4-0.4-0.6-0.9-0.6-1.6c0-1.5,1.2-2.3,3.6-2.4l1.3,0v-0.4c0-0.6-0.1-1-0.4-1.3c-0.2-0.3-0.6-0.4-1.2-0.4
						c-0.4,0-0.8,0.1-1.1,0.2s-0.7,0.3-1,0.4l-0.4-0.9c0.4-0.2,0.8-0.4,1.2-0.5c0.4-0.1,0.9-0.2,1.3-0.2c0.9,0,1.6,0.2,2,0.6
						c0.4,0.4,0.7,1,0.7,1.9v5.1H1008.3z M1005.8,43.8c0.7,0,1.2-0.2,1.6-0.6c0.4-0.4,0.6-0.9,0.6-1.6V41l-1.1,0
						c-0.9,0-1.5,0.2-1.9,0.4s-0.6,0.6-0.6,1.1c0,0.4,0.1,0.7,0.4,0.9S1005.3,43.8,1005.8,43.8z"/>
					<path class="st5" d="M1012.8,44.7h-1.2V34h1.2V44.7z"/>
					<path class="st5" d="M1016.4,44.7h-1.2V34h1.2V44.7z"/>
					<path class="st5" d="M1021.9,44.8c-1.1,0-2-0.3-2.6-1c-0.6-0.7-1-1.6-1-2.8c0-1.2,0.3-2.2,0.9-2.9c0.6-0.7,1.4-1.1,2.4-1.1
						c0.9,0,1.7,0.3,2.3,0.9c0.6,0.6,0.8,1.4,0.8,2.5v0.7h-5.1c0,0.9,0.2,1.5,0.6,1.9s1,0.7,1.7,0.7c0.4,0,0.8,0,1.1-0.1
						c0.4-0.1,0.8-0.2,1.3-0.4v1.1c-0.4,0.2-0.8,0.3-1.2,0.4C1022.9,44.8,1022.4,44.8,1021.9,44.8z M1021.6,38
						c-0.6,0-1.1,0.2-1.4,0.6s-0.5,0.9-0.6,1.6h3.8c0-0.7-0.2-1.2-0.5-1.6S1022.2,38,1021.6,38z"/>
					<path class="st5" d="M1031.8,44.7v-4.8c0-0.6-0.1-1.1-0.4-1.4c-0.3-0.3-0.7-0.4-1.3-0.4c-0.8,0-1.3,0.2-1.7,0.6
						c-0.3,0.4-0.5,1.1-0.5,2.1v3.9h-1.2v-7.5h1l0.2,1h0.1c0.2-0.4,0.6-0.7,1-0.9c0.4-0.2,0.9-0.3,1.4-0.3c0.9,0,1.6,0.2,2.1,0.7
						c0.4,0.4,0.7,1.1,0.7,2.1v4.9H1031.8z"/>
					<path class="st5" d="M1040.3,44.6l0-0.9h-0.1c-0.5,0.8-1.3,1.1-2.3,1.1c-1,0-1.7-0.3-2.3-1c-0.5-0.7-0.8-1.6-0.8-2.9
						c0-1.2,0.3-2.2,0.8-2.9s1.3-1,2.3-1c1,0,1.8,0.4,2.4,1.1h0.1l0.2-1h1v7.6c0,1.1-0.3,1.9-0.8,2.4s-1.4,0.8-2.5,0.8
						c-1.1,0-2-0.2-2.7-0.5v-1.1c0.7,0.4,1.7,0.6,2.8,0.6c0.6,0,1.1-0.2,1.5-0.6s0.6-0.9,0.6-1.6V44.6z M1038.2,43.8
						c0.8,0,1.3-0.2,1.7-0.6c0.3-0.4,0.5-1.1,0.5-2v-0.3c0-1-0.2-1.7-0.5-2.2c-0.3-0.5-0.9-0.7-1.7-0.7c-0.6,0-1.1,0.2-1.5,0.7
						c-0.3,0.5-0.5,1.2-0.5,2.1c0,0.9,0.2,1.6,0.5,2.1S1037.5,43.8,1038.2,43.8z"/>
					<path class="st5" d="M1047.1,44.8c-1.1,0-2-0.3-2.6-1c-0.6-0.7-1-1.6-1-2.8c0-1.2,0.3-2.2,0.9-2.9c0.6-0.7,1.4-1.1,2.4-1.1
						c0.9,0,1.7,0.3,2.3,0.9c0.6,0.6,0.8,1.4,0.8,2.5v0.7h-5.1c0,0.9,0.2,1.5,0.7,1.9s1,0.7,1.7,0.7c0.4,0,0.8,0,1.1-0.1
						c0.4-0.1,0.8-0.2,1.3-0.4v1.1c-0.4,0.2-0.8,0.3-1.2,0.4C1048,44.8,1047.6,44.8,1047.1,44.8z M1046.8,38c-0.6,0-1.1,0.2-1.4,0.6
						s-0.5,0.9-0.6,1.6h3.8c0-0.7-0.2-1.2-0.5-1.6S1047.4,38,1046.8,38z"/>
				</g>
			</g>
		</g>
	</g>
</g>
</svg>
