<?xml version="1.0" encoding="utf-8"?>
<svg version="1.1" id="challenges-alert--mobile" xmlns="http://www.w3.org/2000/svg" xmlns:xlink="http://www.w3.org/1999/xlink" x="0px" y="0px"
	 viewBox="-145 376.7 320.3 40.3" style="enable-background:new -145 376.7 320.3 40.3;" xml:space="preserve">
	<g>
		<g>
			<g class="challenges-mobile-st1">
				<path class="challenges-mobile-st2" d="M-91.7,391l1.5-2.8h0.8l-1.9,3.5v2.2H-92v-2.2l-1.9-3.5h0.8L-91.7,391z"/>
				<path class="challenges-mobile-st2" d="M-85.1,391.8c0,0.7-0.2,1.2-0.5,1.6c-0.4,0.4-0.8,0.6-1.5,0.6c-0.4,0-0.7-0.1-1-0.3
					c-0.3-0.2-0.5-0.4-0.7-0.8c-0.2-0.3-0.2-0.7-0.2-1.2c0-0.7,0.2-1.2,0.5-1.6s0.8-0.6,1.5-0.6c0.6,0,1.1,0.2,1.4,0.6
					C-85.3,390.5-85.1,391.1-85.1,391.8z M-88.3,391.8c0,0.5,0.1,0.9,0.3,1.2c0.2,0.3,0.5,0.4,0.9,0.4s0.7-0.1,0.9-0.4
					c0.2-0.3,0.3-0.7,0.3-1.2s-0.1-0.9-0.3-1.2s-0.5-0.4-0.9-0.4C-87.9,390.1-88.3,390.7-88.3,391.8z"/>
				<path class="challenges-mobile-st2" d="M-83.4,389.6v2.8c0,0.3,0.1,0.6,0.2,0.8s0.4,0.3,0.7,0.3c0.4,0,0.8-0.1,1-0.4c0.2-0.2,0.3-0.6,0.3-1.2v-2.2
					h0.7v4.3h-0.6l-0.1-0.6l0,0c-0.1,0.2-0.3,0.4-0.5,0.5s-0.5,0.2-0.8,0.2c-0.5,0-0.9-0.1-1.2-0.4s-0.4-0.6-0.4-1.2v-2.8
					L-83.4,389.6L-83.4,389.6z"/>
				<path class="challenges-mobile-st2" d="M-78.1,388.1L-78.1,388.1c0,0.2,0,0.4-0.1,0.5c-0.1,0.2-0.1,0.3-0.2,0.5s-0.1,0.3-0.2,0.5s-0.1,0.3-0.2,0.5
					h-0.5c0-0.2,0.1-0.3,0.1-0.5s0.1-0.3,0.1-0.5s0.1-0.3,0.1-0.5s0.1-0.3,0.1-0.4L-78.1,388.1L-78.1,388.1z"/>
				<path class="challenges-mobile-st2" d="M-75.9,393.9l-1.6-4.3h0.8l0.9,2.5c0.2,0.5,0.3,0.9,0.3,1.1l0,0v-0.1V393c0,0,0.1-0.3,0.3-0.9l0.9-2.5h0.8
					l-1.6,4.3H-75.9z"/>
				<path class="challenges-mobile-st2" d="M-71.1,394c-0.6,0-1.1-0.2-1.5-0.6s-0.5-0.9-0.5-1.6s0.2-1.2,0.5-1.6s0.8-0.6,1.4-0.6c0.5,0,1,0.2,1.3,0.5
					s0.5,0.8,0.5,1.4v0.4h-2.9c0,0.5,0.1,0.9,0.4,1.1s0.6,0.4,1,0.4c0.2,0,0.4,0,0.7-0.1s0.4-0.1,0.7-0.2v0.6
					c-0.2,0.1-0.5,0.2-0.7,0.2S-70.8,394-71.1,394z M-71.2,390.1c-0.3,0-0.6,0.1-0.8,0.3s-0.3,0.5-0.3,0.9h2.2c0-0.4-0.1-0.7-0.3-0.9
					S-70.9,390.1-71.2,390.1z"/>
				<path class="challenges-mobile-st2" d="M-64.5,389.6c0.6,0,1,0.2,1.3,0.6s0.5,0.9,0.5,1.6s-0.2,1.3-0.5,1.6c-0.3,0.4-0.7,0.6-1.3,0.6
					c-0.3,0-0.5-0.1-0.8-0.2s-0.4-0.3-0.6-0.5H-66c-0.1,0.3-0.1,0.5-0.1,0.5h-0.5v-6.1h0.7v1.5c0,0.3,0,0.6,0,0.9l0,0
					C-65.5,389.8-65.1,389.6-64.5,389.6z M-64.6,390.1c-0.4,0-0.7,0.1-0.9,0.4c-0.2,0.2-0.3,0.7-0.3,1.2l0,0c0,0.6,0.1,1,0.3,1.3
					s0.5,0.4,0.9,0.4s0.7-0.1,0.9-0.4s0.3-0.7,0.3-1.2s-0.1-0.9-0.3-1.2S-64.2,390.1-64.6,390.1z"/>
				<path class="challenges-mobile-st2" d="M-59.9,394c-0.6,0-1.1-0.2-1.5-0.6s-0.5-0.9-0.5-1.6s0.2-1.2,0.5-1.6s0.8-0.6,1.4-0.6c0.5,0,1,0.2,1.3,0.5
					s0.5,0.8,0.5,1.4v0.4h-2.9c0,0.5,0.1,0.9,0.4,1.1s0.6,0.4,1,0.4c0.2,0,0.4,0,0.7-0.1s0.4-0.1,0.7-0.2v0.6
					c-0.2,0.1-0.5,0.2-0.7,0.2S-59.6,394-59.9,394z M-60,390.1c-0.3,0-0.6,0.1-0.8,0.3s-0.3,0.5-0.3,0.9h2.2c0-0.4-0.1-0.7-0.3-0.9
					S-59.7,390.1-60,390.1z"/>
				<path class="challenges-mobile-st2" d="M-55.5,394c-0.6,0-1.1-0.2-1.5-0.6s-0.5-0.9-0.5-1.6s0.2-1.2,0.5-1.6s0.8-0.6,1.4-0.6c0.5,0,1,0.2,1.3,0.5
					s0.5,0.8,0.5,1.4v0.4h-2.9c0,0.5,0.1,0.9,0.4,1.1s0.6,0.4,1,0.4c0.2,0,0.4,0,0.7-0.1s0.4-0.1,0.7-0.2v0.6
					c-0.2,0.1-0.5,0.2-0.7,0.2S-55.2,394-55.5,394z M-55.6,390.1c-0.3,0-0.6,0.1-0.8,0.3s-0.3,0.5-0.3,0.9h2.2c0-0.4-0.1-0.7-0.3-0.9
					S-55.3,390.1-55.6,390.1z"/>
				<path class="challenges-mobile-st2" d="M-50,393.9v-2.7c0-0.3-0.1-0.6-0.2-0.8c-0.2-0.2-0.4-0.3-0.7-0.3c-0.4,0-0.8,0.1-1,0.4s-0.3,0.6-0.3,1.2v2.2
					h-0.7v-4.3h0.6l0.1,0.6l0,0c0.1-0.2,0.3-0.4,0.6-0.5s0.5-0.2,0.8-0.2c0.5,0,0.9,0.1,1.2,0.4s0.4,0.7,0.4,1.2v2.8
					C-49.3,393.9-50,393.9-50,393.9z"/>
				<path class="challenges-mobile-st2" d="M-43.3,392.7c0,0.4-0.1,0.7-0.4,0.9s-0.7,0.3-1.3,0.3s-1-0.1-1.3-0.3V393c0.5,0.2,0.9,0.3,1.4,0.3
					c0.4,0,0.6-0.1,0.8-0.2s0.2-0.3,0.2-0.5s-0.1-0.3-0.2-0.4s-0.4-0.3-0.8-0.4c-0.4-0.2-0.7-0.3-0.9-0.4s-0.3-0.2-0.4-0.4
					s-0.1-0.3-0.1-0.5c0-0.4,0.1-0.6,0.4-0.8s0.7-0.3,1.2-0.3s0.9,0.1,1.4,0.3l-0.2,0.6c-0.4-0.2-0.8-0.3-1.2-0.3
					c-0.3,0-0.5,0-0.7,0.1s-0.2,0.2-0.2,0.4c0,0.2,0.1,0.3,0.2,0.4s0.4,0.2,0.9,0.4c0.4,0.1,0.6,0.3,0.8,0.4s0.3,0.2,0.4,0.4
					S-43.3,392.5-43.3,392.7z"/>
				<path class="challenges-mobile-st2" d="M-40.3,394c-0.6,0-1-0.2-1.3-0.6l0,0v0.2c0,0.2,0,0.4,0,0.5v1.8h-0.7v-6.2h0.6l0.1,0.6l0,0
					c0.2-0.2,0.4-0.4,0.6-0.5c0.2-0.1,0.5-0.2,0.8-0.2c0.6,0,1,0.2,1.3,0.6s0.5,0.9,0.5,1.6s-0.2,1.2-0.5,1.6
					C-39.3,393.8-39.7,394-40.3,394z M-40.4,390.1c-0.4,0-0.7,0.1-0.9,0.4c-0.2,0.2-0.3,0.6-0.3,1.1v0.1c0,0.6,0.1,1,0.3,1.3
					s0.5,0.4,0.9,0.4s0.6-0.1,0.8-0.4s0.3-0.7,0.3-1.2s-0.1-0.9-0.3-1.2S-40.1,390.1-40.4,390.1z"/>
				<path class="challenges-mobile-st2" d="M-35.7,394c-0.6,0-1.1-0.2-1.5-0.6s-0.5-0.9-0.5-1.6s0.2-1.2,0.5-1.6s0.8-0.6,1.4-0.6c0.5,0,1,0.2,1.3,0.5
					s0.5,0.8,0.5,1.4v0.4h-3c0,0.5,0.1,0.9,0.4,1.1s0.6,0.4,1,0.4c0.2,0,0.4,0,0.7-0.1s0.4-0.1,0.7-0.2v0.6c-0.2,0.1-0.5,0.2-0.7,0.2
					S-35.4,394-35.7,394z M-35.9,390.1c-0.3,0-0.6,0.1-0.8,0.3s-0.3,0.5-0.3,0.9h2.2c0-0.4-0.1-0.7-0.3-0.9S-35.5,390.1-35.9,390.1z"
					/>
				<path class="challenges-mobile-st2" d="M-30.2,393.9v-2.7c0-0.3-0.1-0.6-0.2-0.8c-0.2-0.2-0.4-0.3-0.7-0.3c-0.4,0-0.8,0.1-1,0.4s-0.3,0.6-0.3,1.2
					v2.2h-0.7v-4.3h0.6l0.1,0.6l0,0c0.1-0.2,0.3-0.4,0.6-0.5s0.5-0.2,0.8-0.2c0.5,0,0.9,0.1,1.2,0.4s0.4,0.7,0.4,1.2v2.8
					C-29.5,393.9-30.2,393.9-30.2,393.9z"/>
				<path class="challenges-mobile-st2" d="M-26.8,394c-0.6,0-1-0.2-1.3-0.6s-0.5-0.9-0.5-1.6s0.2-1.2,0.5-1.6s0.7-0.6,1.3-0.6c0.6,0,1,0.2,1.3,0.6h0.1
					c0-0.1,0-0.2,0-0.3c0-0.2,0-0.3,0-0.3v-1.7h0.7v6.1h-0.6l-0.1-0.6l0,0C-25.7,393.8-26.2,394-26.8,394z M-26.6,393.4
					c0.4,0,0.7-0.1,0.9-0.3c0.2-0.2,0.3-0.6,0.3-1.1v-0.1c0-0.6-0.1-1-0.3-1.3s-0.5-0.4-0.9-0.4s-0.6,0.1-0.8,0.4
					c-0.2,0.3-0.3,0.7-0.3,1.2s0.1,0.9,0.3,1.2C-27.3,393.2-27,393.4-26.6,393.4z"/>
				<path class="challenges-mobile-st2" d="M-23.5,388.5c0-0.2,0-0.3,0.1-0.3c0.1-0.1,0.2-0.1,0.3-0.1c0.1,0,0.2,0,0.3,0.1c0.1,0.1,0.1,0.2,0.1,0.3
					c0,0.2,0,0.3-0.1,0.3s-0.2,0.1-0.3,0.1c-0.1,0-0.2,0-0.3-0.1S-23.5,388.6-23.5,388.5z M-22.7,393.9h-0.7v-4.3h0.7V393.9z"/>
				<path class="challenges-mobile-st2" d="M-18.6,393.9v-2.7c0-0.3-0.1-0.6-0.2-0.8c-0.2-0.2-0.4-0.3-0.7-0.3c-0.4,0-0.8,0.1-1,0.4s-0.3,0.6-0.3,1.2
					v2.2h-0.7v-4.3h0.6l0.1,0.6l0,0c0.1-0.2,0.3-0.4,0.6-0.5s0.5-0.2,0.8-0.2c0.5,0,0.9,0.1,1.2,0.4s0.4,0.7,0.4,1.2v2.8
					C-17.9,393.9-18.6,393.9-18.6,393.9z"/>
				<path class="challenges-mobile-st2" d="M-13.8,393.9v-0.5l0,0c-0.3,0.4-0.7,0.6-1.3,0.6s-1-0.2-1.3-0.6s-0.5-0.9-0.5-1.6s0.2-1.2,0.5-1.6
					s0.7-0.6,1.3-0.6s1,0.2,1.3,0.6l0,0l0.1-0.6h0.6v4.4c0,0.6-0.2,1.1-0.5,1.4s-0.8,0.5-1.5,0.5c-0.6,0-1.1-0.1-1.5-0.3v-0.6
					c0.4,0.2,0.9,0.3,1.6,0.3c0.4,0,0.7-0.1,0.9-0.3c0.2-0.2,0.3-0.5,0.3-0.9L-13.8,393.9L-13.8,393.9z M-15,393.4
					c0.4,0,0.7-0.1,0.9-0.4c0.2-0.2,0.3-0.6,0.3-1.1v-0.2c0-0.6-0.1-1-0.3-1.2c-0.2-0.3-0.5-0.4-1-0.4c-0.4,0-0.6,0.1-0.8,0.4
					s-0.3,0.7-0.3,1.2s0.1,0.9,0.3,1.2C-15.7,393.2-15.4,393.4-15,393.4z"/>
				<path class="challenges-mobile-st2" d="M-7.2,393.9l-0.1-0.6l0,0c-0.2,0.3-0.4,0.4-0.6,0.5s-0.5,0.1-0.8,0.1c-0.4,0-0.8-0.1-1-0.3
					c-0.2-0.2-0.4-0.5-0.4-0.9c0-0.9,0.7-1.3,2.1-1.4h0.7V391c0-0.3-0.1-0.6-0.2-0.7c-0.1-0.2-0.4-0.2-0.7-0.2c-0.2,0-0.4,0-0.6,0.1
					c-0.2,0.1-0.4,0.1-0.6,0.2l-0.2-0.5c0.2-0.1,0.5-0.2,0.7-0.3c0.3-0.1,0.5-0.1,0.8-0.1c0.5,0,0.9,0.1,1.2,0.3
					c0.3,0.2,0.4,0.6,0.4,1.1v2.9L-7.2,393.9L-7.2,393.9z M-8.7,393.4c0.4,0,0.7-0.1,0.9-0.3c0.2-0.2,0.3-0.5,0.3-0.9v-0.4h-0.6
					c-0.5,0-0.9,0.1-1.1,0.2c-0.2,0.1-0.3,0.4-0.3,0.7c0,0.2,0.1,0.4,0.2,0.5C-9.1,393.4-8.9,393.4-8.7,393.4z"/>
				<path class="challenges-mobile-st2" d="M-2.8,393.9h-0.7v-6.1h0.7V393.9z"/>
				<path class="challenges-mobile-st2" d="M2.2,391.8c0,0.7-0.2,1.2-0.5,1.6S0.8,394,0.2,394c-0.4,0-0.7-0.1-1-0.3s-0.5-0.4-0.7-0.8
					c-0.2-0.3-0.2-0.7-0.2-1.2c0-0.7,0.2-1.2,0.5-1.6s0.8-0.6,1.5-0.6c0.6,0,1.1,0.2,1.4,0.6S2.2,391.1,2.2,391.8z M-1.1,391.8
					c0,0.5,0.1,0.9,0.3,1.2c0.2,0.3,0.5,0.4,0.9,0.4s0.7-0.1,0.9-0.4s0.3-0.7,0.3-1.2s-0.1-0.9-0.3-1.2s-0.5-0.4-0.9-0.4
					C-0.6,390.1-1.1,390.7-1.1,391.8z"/>
				<path class="challenges-mobile-st2" d="M4.6,393.4c0.1,0,0.2,0,0.3,0s0.2,0,0.3-0.1v0.5c-0.1,0-0.2,0.1-0.3,0.1c-0.1,0-0.3,0-0.4,0
					c-0.8,0-1.3-0.4-1.3-1.3v-2.5H2.6v-0.3l0.6-0.3l0.3-0.9H4v1h1.2v0.5H4v2.5c0,0.2,0.1,0.4,0.2,0.6C4.2,393.4,4.4,393.4,4.6,393.4z
					"/>
				<path class="challenges-mobile-st2" d="M11.7,391.8c0,0.7-0.2,1.2-0.5,1.6s-0.8,0.6-1.5,0.6c-0.4,0-0.7-0.1-1-0.3s-0.5-0.4-0.7-0.8
					c-0.2-0.3-0.2-0.7-0.2-1.2c0-0.7,0.2-1.2,0.5-1.6s0.8-0.6,1.5-0.6c0.6,0,1.1,0.2,1.4,0.6S11.7,391.1,11.7,391.8z M8.4,391.8
					c0,0.5,0.1,0.9,0.3,1.2c0.2,0.3,0.5,0.4,0.9,0.4s0.7-0.1,0.9-0.4s0.3-0.7,0.3-1.2s-0.1-0.9-0.3-1.2s-0.5-0.4-0.9-0.4
					C8.9,390.1,8.4,390.7,8.4,391.8z"/>
				<path class="challenges-mobile-st2" d="M14.7,390.2h-1.1v3.7h-0.7v-3.7h-0.8v-0.3l0.8-0.2v-0.2c0-0.5,0.1-0.9,0.3-1.2c0.2-0.3,0.6-0.4,1.1-0.4
					c0.3,0,0.6,0,0.8,0.1l-0.2,0.6c-0.2-0.1-0.5-0.1-0.6-0.1c-0.2,0-0.4,0.1-0.5,0.2s-0.2,0.4-0.2,0.7v0.3h1.1
					C14.7,389.7,14.7,390.2,14.7,390.2z"/>
				<path class="challenges-mobile-st2" d="M18.7,393.4c0.1,0,0.2,0,0.3,0s0.2,0,0.3-0.1v0.5c-0.1,0-0.2,0.1-0.3,0.1c-0.1,0-0.3,0-0.4,0
					c-0.8,0-1.3-0.4-1.3-1.3v-2.5h-0.6v-0.3l0.6-0.3l0.3-0.9H18v1h1.2v0.5H18v2.5c0,0.2,0.1,0.4,0.2,0.6
					C18.4,393.4,18.5,393.4,18.7,393.4z"/>
				<path class="challenges-mobile-st2" d="M20,388.5c0-0.2,0-0.3,0.1-0.3c0.1-0.1,0.2-0.1,0.3-0.1c0.1,0,0.2,0,0.3,0.1c0.1,0.1,0.1,0.2,0.1,0.3
					c0,0.2,0,0.3-0.1,0.3s-0.2,0.1-0.3,0.1c-0.1,0-0.2,0-0.3-0.1S20,388.6,20,388.5z M20.8,393.9h-0.7v-4.3h0.7V393.9z"/>
				<path class="challenges-mobile-st2" d="M27.5,393.9v-2.8c0-0.7-0.3-1-0.9-1c-0.4,0-0.7,0.1-0.9,0.3s-0.3,0.6-0.3,1.1v2.4h-0.7v-2.8
					c0-0.3-0.1-0.6-0.2-0.8s-0.4-0.3-0.7-0.3c-0.4,0-0.7,0.1-0.9,0.4s-0.3,0.6-0.3,1.2v2.2h-0.7v-4.3h0.6l0.1,0.6l0,0
					c0.1-0.2,0.3-0.4,0.5-0.5s0.5-0.2,0.7-0.2c0.7,0,1.1,0.2,1.3,0.7l0,0c0.1-0.2,0.3-0.4,0.6-0.5s0.5-0.2,0.8-0.2
					c0.5,0,0.8,0.1,1.1,0.4s0.4,0.6,0.4,1.2v2.8L27.5,393.9L27.5,393.9z"/>
				<path class="challenges-mobile-st2" d="M31.3,394c-0.6,0-1.1-0.2-1.5-0.6s-0.5-0.9-0.5-1.6s0.2-1.2,0.5-1.6s0.8-0.6,1.4-0.6c0.5,0,1,0.2,1.3,0.5
					c0.3,0.3,0.5,0.8,0.5,1.4v0.4h-2.9c0,0.5,0.1,0.9,0.4,1.1s0.6,0.4,1,0.4c0.2,0,0.4,0,0.7-0.1c0.3-0.1,0.4-0.1,0.7-0.2v0.6
					c-0.2,0.1-0.5,0.2-0.7,0.2S31.5,394,31.3,394z M31.1,390.1c-0.3,0-0.6,0.1-0.8,0.3s-0.3,0.5-0.3,0.9h2.2c0-0.4-0.1-0.7-0.3-0.9
					S31.4,390.1,31.1,390.1z"/>
				<path class="challenges-mobile-st2" d="M39.5,391.8c0,0.7-0.2,1.2-0.5,1.6s-0.8,0.6-1.5,0.6c-0.4,0-0.7-0.1-1-0.3s-0.5-0.4-0.7-0.8
					c-0.2-0.3-0.2-0.7-0.2-1.2c0-0.7,0.2-1.2,0.5-1.6s0.8-0.6,1.5-0.6c0.6,0,1.1,0.2,1.4,0.6S39.5,391.1,39.5,391.8z M36.3,391.8
					c0,0.5,0.1,0.9,0.3,1.2c0.2,0.3,0.5,0.4,0.9,0.4s0.7-0.1,0.9-0.4s0.3-0.7,0.3-1.2s-0.1-0.9-0.3-1.2s-0.5-0.4-0.9-0.4
					C36.7,390.1,36.3,390.7,36.3,391.8z"/>
				<path class="challenges-mobile-st2" d="M43.5,393.9v-2.7c0-0.3-0.1-0.6-0.2-0.8c-0.2-0.2-0.4-0.3-0.7-0.3c-0.4,0-0.8,0.1-1,0.4s-0.3,0.6-0.3,1.2
					v2.2h-0.7v-4.3h0.6l0.1,0.6l0,0c0.1-0.2,0.3-0.4,0.6-0.5s0.5-0.2,0.8-0.2c0.5,0,0.9,0.1,1.2,0.4s0.4,0.7,0.4,1.2v2.8
					C44.2,393.9,43.5,393.9,43.5,393.9z"/>
				<path class="challenges-mobile-st2" d="M48.2,393.9h-0.7v-5.7h3.2v0.6h-2.5v2h2.3v0.6h-2.3V393.9L48.2,393.9z"/>
				<path class="challenges-mobile-st2" d="M54.1,393.9l-0.1-0.6l0,0c-0.2,0.3-0.4,0.4-0.6,0.5s-0.5,0.1-0.8,0.1c-0.4,0-0.8-0.1-1-0.3
					c-0.2-0.2-0.4-0.5-0.4-0.9c0-0.9,0.7-1.3,2.1-1.4H54V391c0-0.3-0.1-0.6-0.2-0.7c-0.1-0.2-0.4-0.2-0.7-0.2c-0.2,0-0.4,0-0.6,0.1
					c-0.2,0.1-0.4,0.1-0.6,0.2l-0.2-0.5c0.2-0.1,0.5-0.2,0.7-0.3c0.3-0.1,0.5-0.1,0.8-0.1c0.5,0,0.9,0.1,1.2,0.3
					c0.3,0.2,0.4,0.6,0.4,1.1v2.9L54.1,393.9L54.1,393.9z M52.6,393.4c0.4,0,0.7-0.1,0.9-0.3c0.2-0.2,0.3-0.5,0.3-0.9v-0.4h-0.6
					c-0.5,0-0.9,0.1-1.1,0.2c-0.2,0.1-0.3,0.4-0.3,0.7c0,0.2,0.1,0.4,0.2,0.5C52.2,393.4,52.4,393.4,52.6,393.4z"/>
				<path class="challenges-mobile-st2" d="M57.5,394c-0.6,0-1.1-0.2-1.4-0.6s-0.5-0.9-0.5-1.6s0.2-1.3,0.5-1.7c0.3-0.4,0.8-0.6,1.5-0.6
					c0.2,0,0.4,0,0.6,0.1s0.4,0.1,0.5,0.2l-0.2,0.6c-0.4-0.1-0.7-0.2-0.9-0.2c-0.4,0-0.8,0.1-1,0.4s-0.3,0.7-0.3,1.2s0.1,0.9,0.3,1.2
					c0.2,0.3,0.5,0.4,0.9,0.4s0.7-0.1,1.1-0.2v0.6C58.3,393.9,58,394,57.5,394z"/>
				<path class="challenges-mobile-st2" d="M61.4,394c-0.6,0-1.1-0.2-1.5-0.6s-0.5-0.9-0.5-1.6s0.2-1.2,0.5-1.6s0.8-0.6,1.4-0.6c0.5,0,1,0.2,1.3,0.5
					s0.5,0.8,0.5,1.4v0.4H60c0,0.5,0.1,0.9,0.4,1.1s0.6,0.4,1,0.4c0.2,0,0.4,0,0.7-0.1s0.4-0.1,0.7-0.2v0.6c-0.2,0.1-0.5,0.2-0.7,0.2
					S61.6,394,61.4,394z M61.2,390.1c-0.3,0-0.6,0.1-0.8,0.3s-0.3,0.5-0.3,0.9h2.2c0-0.4-0.1-0.7-0.3-0.9S61.5,390.1,61.2,390.1z"/>
				<path class="challenges-mobile-st2" d="M66,389.6c0.6,0,1,0.2,1.3,0.6s0.5,0.9,0.5,1.6s-0.2,1.3-0.5,1.6c-0.3,0.4-0.7,0.6-1.3,0.6
					c-0.3,0-0.5-0.1-0.8-0.2s-0.4-0.3-0.6-0.5h-0.1c-0.1,0.3-0.1,0.5-0.1,0.5h-0.5v-6.1h0.7v1.5c0,0.3,0,0.6,0,0.9l0,0
					C64.9,389.8,65.4,389.6,66,389.6z M65.9,390.1c-0.4,0-0.7,0.1-0.9,0.4c-0.2,0.2-0.3,0.7-0.3,1.2l0,0c0,0.6,0.1,1,0.3,1.3
					s0.5,0.4,0.9,0.4s0.7-0.1,0.9-0.4c0.2-0.3,0.3-0.7,0.3-1.2s-0.1-0.9-0.3-1.2S66.2,390.1,65.9,390.1z"/>
				<path class="challenges-mobile-st2" d="M72.5,391.8c0,0.7-0.2,1.2-0.5,1.6s-0.8,0.6-1.5,0.6c-0.4,0-0.7-0.1-1-0.3s-0.5-0.4-0.7-0.8
					c-0.2-0.3-0.2-0.7-0.2-1.2c0-0.7,0.2-1.2,0.5-1.6s0.8-0.6,1.5-0.6c0.6,0,1.1,0.2,1.4,0.6S72.5,391.1,72.5,391.8z M69.2,391.8
					c0,0.5,0.1,0.9,0.3,1.2c0.2,0.3,0.5,0.4,0.9,0.4s0.7-0.1,0.9-0.4c0.2-0.3,0.3-0.7,0.3-1.2s-0.1-0.9-0.3-1.2s-0.5-0.4-0.9-0.4
					C69.7,390.1,69.2,390.7,69.2,391.8z"/>
				<path class="challenges-mobile-st2" d="M77.2,391.8c0,0.7-0.2,1.2-0.5,1.6s-0.8,0.6-1.5,0.6c-0.4,0-0.7-0.1-1-0.3s-0.5-0.4-0.7-0.8
					c-0.2-0.3-0.2-0.7-0.2-1.2c0-0.7,0.2-1.2,0.5-1.6s0.8-0.6,1.5-0.6c0.6,0,1.1,0.2,1.4,0.6S77.2,391.1,77.2,391.8z M74,391.8
					c0,0.5,0.1,0.9,0.3,1.2c0.2,0.3,0.5,0.4,0.9,0.4s0.7-0.1,0.9-0.4c0.2-0.3,0.3-0.7,0.3-1.2s-0.1-0.9-0.3-1.2s-0.5-0.4-0.9-0.4
					C74.4,390.1,74,390.7,74,391.8z"/>
				<path class="challenges-mobile-st2" d="M78.9,391.7l0.2-0.3l0.3-0.3l1.4-1.4h0.8l-1.7,1.8l1.9,2.5H81l-1.5-2l-0.5,0.4v1.6h-0.7v-6.1H79v3.2
					L78.9,391.7L78.9,391.7z"/>
				<path class="challenges-mobile-st2" d="M82.3,393.5c0-0.1,0-0.2,0-0.3s0.1-0.1,0.1-0.2s0.1-0.1,0.2-0.1s0.1,0,0.2,0s0.1,0,0.2,0s0.1,0.1,0.2,0.1
					s0.1,0.1,0.1,0.2s0,0.2,0,0.3c0,0.1,0,0.2,0,0.2s-0.1,0.1-0.1,0.2S83,394,83,394s-0.1,0-0.2,0s-0.1,0-0.2,0s-0.1-0.1-0.2-0.1
					s-0.1-0.1-0.1-0.2S82.3,393.6,82.3,393.5z"/>
				<path class="challenges-mobile-st2" d="M-91.5,403.5h-2.1v-0.4l0.7-0.2v-4.6l-0.7-0.2v-0.4h2.1v0.4l-0.7,0.2v4.6l0.7,0.2V403.5z"/>
				<path class="challenges-mobile-st2" d="M-86.9,403.6c-0.6,0-1.1-0.2-1.4-0.6s-0.5-0.9-0.5-1.6s0.2-1.3,0.5-1.7c0.3-0.4,0.8-0.6,1.5-0.6
					c0.2,0,0.4,0,0.6,0.1c0.2,0,0.4,0.1,0.5,0.2L-86,400c-0.4-0.1-0.7-0.2-0.9-0.2c-0.4,0-0.8,0.1-1,0.4s-0.3,0.7-0.3,1.2
					s0.1,0.9,0.3,1.2c0.2,0.3,0.5,0.4,0.9,0.4s0.7-0.1,1.1-0.2v0.6C-86.1,403.5-86.5,403.6-86.9,403.6z"/>
				<path class="challenges-mobile-st2" d="M-82,403.5v-2.7c0-0.3-0.1-0.6-0.2-0.8s-0.4-0.3-0.7-0.3c-0.4,0-0.8,0.1-1,0.4c-0.2,0.2-0.3,0.6-0.3,1.2v2.2
					h-0.7v-6.1h0.7v1.8c0,0.2,0,0.4,0,0.6l0,0c0.1-0.2,0.3-0.4,0.5-0.5s0.5-0.2,0.8-0.2c0.5,0,0.9,0.1,1.2,0.4s0.4,0.6,0.4,1.2v2.8
					C-81.3,403.5-82,403.5-82,403.5z"/>
				<path class="challenges-mobile-st2" d="M-77.4,403.5l-0.1-0.6l0,0c-0.2,0.3-0.4,0.4-0.6,0.5s-0.5,0.1-0.8,0.1c-0.4,0-0.8-0.1-1-0.3
					c-0.2-0.2-0.4-0.5-0.4-0.9c0-0.9,0.7-1.3,2.1-1.4h0.7v-0.3c0-0.3-0.1-0.6-0.2-0.7s-0.4-0.2-0.7-0.2c-0.2,0-0.4,0-0.6,0.1
					s-0.4,0.1-0.6,0.2l-0.2-0.5c0.2-0.1,0.5-0.2,0.7-0.3c0.3-0.1,0.5-0.1,0.8-0.1c0.5,0,0.9,0.1,1.2,0.3c0.3,0.2,0.4,0.6,0.4,1.1v2.9
					L-77.4,403.5L-77.4,403.5z M-78.9,403c0.4,0,0.7-0.1,0.9-0.3s0.3-0.5,0.3-0.9v-0.4h-0.6c-0.5,0-0.9,0.1-1.1,0.2s-0.3,0.4-0.3,0.7
					c0,0.2,0.1,0.4,0.2,0.5S-79.1,403-78.9,403z"/>
				<path class="challenges-mobile-st2" d="M-75,403.5h-0.7v-6.1h0.7V403.5z"/>
				<path class="challenges-mobile-st2" d="M-73,403.5h-0.7v-6.1h0.7V403.5z"/>
				<path class="challenges-mobile-st2" d="M-70,403.6c-0.6,0-1.1-0.2-1.5-0.6s-0.5-0.9-0.5-1.6s0.2-1.2,0.5-1.6s0.8-0.6,1.4-0.6c0.5,0,1,0.2,1.3,0.5
					s0.5,0.8,0.5,1.4v0.4h-2.9c0,0.5,0.1,0.9,0.4,1.1s0.6,0.4,1,0.4c0.2,0,0.4,0,0.7-0.1s0.4-0.1,0.7-0.2v0.6
					c-0.2,0.1-0.5,0.2-0.7,0.2C-69.4,403.6-69.7,403.6-70,403.6z M-70.1,399.7c-0.3,0-0.6,0.1-0.8,0.3s-0.3,0.5-0.3,0.9h2.2
					c0-0.4-0.1-0.7-0.3-0.9S-69.8,399.7-70.1,399.7z"/>
				<path class="challenges-mobile-st2" d="M-64.5,403.5v-2.7c0-0.3-0.1-0.6-0.2-0.8s-0.4-0.3-0.7-0.3c-0.4,0-0.8,0.1-1,0.4c-0.2,0.2-0.3,0.6-0.3,1.2
					v2.2h-0.7v-4.3h0.6l0.1,0.6l0,0c0.1-0.2,0.3-0.4,0.6-0.5s0.5-0.2,0.8-0.2c0.5,0,0.9,0.1,1.2,0.4c0.3,0.3,0.4,0.7,0.4,1.2v2.8
					C-63.8,403.5-64.5,403.5-64.5,403.5z"/>
				<path class="challenges-mobile-st2" d="M-59.7,403.5V403l0,0c-0.3,0.4-0.7,0.6-1.3,0.6s-1-0.2-1.3-0.6s-0.5-0.9-0.5-1.6s0.2-1.2,0.5-1.6
					s0.7-0.6,1.3-0.6s1,0.2,1.3,0.6l0,0l0.1-0.6h0.6v4.4c0,0.6-0.2,1.1-0.5,1.4s-0.8,0.5-1.5,0.5c-0.6,0-1.1-0.1-1.5-0.3v-0.6
					c0.4,0.2,0.9,0.3,1.6,0.3c0.4,0,0.7-0.1,0.9-0.3c0.2-0.2,0.3-0.5,0.3-0.9C-59.7,403.6-59.7,403.5-59.7,403.5z M-60.9,403
					c0.4,0,0.7-0.1,0.9-0.3c0.2-0.2,0.3-0.6,0.3-1.1v-0.2c0-0.6-0.1-1-0.3-1.2s-0.5-0.4-1-0.4c-0.4,0-0.6,0.1-0.8,0.4
					s-0.3,0.7-0.3,1.2s0.1,0.9,0.3,1.2C-61.6,402.9-61.3,403-60.9,403z"/>
				<path class="challenges-mobile-st2" d="M-55.9,403.6c-0.6,0-1.1-0.2-1.5-0.6s-0.5-0.9-0.5-1.6s0.2-1.2,0.5-1.6s0.8-0.6,1.4-0.6c0.5,0,1,0.2,1.3,0.5
					s0.5,0.8,0.5,1.4v0.4h-2.9c0,0.5,0.1,0.9,0.4,1.1s0.6,0.4,1,0.4c0.2,0,0.4,0,0.7-0.1s0.4-0.1,0.7-0.2v0.6
					c-0.2,0.1-0.5,0.2-0.7,0.2C-55.4,403.6-55.6,403.6-55.9,403.6z M-56.1,399.7c-0.3,0-0.6,0.1-0.8,0.3s-0.3,0.5-0.3,0.9h2.2
					c0-0.4-0.1-0.7-0.3-0.9S-55.7,399.7-56.1,399.7z"/>
				<path class="challenges-mobile-st2" d="M-52,399.2h0.8l0.9,2.4c0.2,0.5,0.3,0.9,0.4,1.2l0,0c0-0.1,0.1-0.3,0.2-0.5c0.1-0.3,0.2-0.5,0.2-0.6l0.9-2.4
					h0.8l-1.8,4.9c-0.2,0.5-0.4,0.8-0.6,1s-0.6,0.3-0.9,0.3c-0.2,0-0.4,0-0.6-0.1v-0.6c0.1,0,0.3,0,0.5,0s0.4-0.1,0.6-0.2
					c0.2-0.1,0.3-0.3,0.4-0.6l0.2-0.6L-52,399.2z"/>
				<path class="challenges-mobile-st2" d="M-43.6,401.4c0,0.7-0.2,1.2-0.5,1.6s-0.8,0.6-1.5,0.6c-0.4,0-0.7-0.1-1-0.3s-0.5-0.4-0.7-0.8
					c-0.2-0.3-0.2-0.7-0.2-1.2c0-0.7,0.2-1.2,0.5-1.6s0.8-0.6,1.5-0.6c0.6,0,1.1,0.2,1.4,0.6C-43.8,400.1-43.6,400.7-43.6,401.4z
					 M-46.9,401.4c0,0.5,0.1,0.9,0.3,1.2c0.2,0.3,0.5,0.4,0.9,0.4s0.7-0.1,0.9-0.4s0.3-0.7,0.3-1.2s-0.1-0.9-0.3-1.2
					c-0.2-0.3-0.5-0.4-0.9-0.4C-46.5,399.7-46.9,400.2-46.9,401.4z"/>
				<path class="challenges-mobile-st2" d="M-42,399.2v2.8c0,0.3,0.1,0.6,0.2,0.8c0.2,0.2,0.4,0.3,0.7,0.3c0.4,0,0.8-0.1,1-0.4s0.3-0.6,0.3-1.2v-2.2
					h0.7v4.3h-0.6l-0.1-0.6l0,0c-0.1,0.2-0.3,0.4-0.5,0.5s-0.5,0.2-0.8,0.2c-0.5,0-0.9-0.1-1.2-0.4s-0.4-0.6-0.4-1.2v-2.8L-42,399.2
					L-42,399.2z"/>
				<path class="challenges-mobile-st2" d="M-32.9,403.5v-2.7c0-0.3-0.1-0.6-0.2-0.8s-0.4-0.3-0.7-0.3c-0.4,0-0.8,0.1-1,0.4c-0.2,0.2-0.3,0.6-0.3,1.2
					v2.2h-0.7v-4.3h0.6l0.1,0.6l0,0c0.1-0.2,0.3-0.4,0.6-0.5s0.5-0.2,0.8-0.2c0.5,0,0.9,0.1,1.2,0.4s0.4,0.7,0.4,1.2v2.8
					C-32.2,403.5-32.9,403.5-32.9,403.5z"/>
				<path class="challenges-mobile-st2" d="M-27.2,401.4c0,0.7-0.2,1.2-0.5,1.6s-0.8,0.6-1.5,0.6c-0.4,0-0.7-0.1-1-0.3s-0.5-0.4-0.7-0.8
					c-0.2-0.3-0.2-0.7-0.2-1.2c0-0.7,0.2-1.2,0.5-1.6s0.8-0.6,1.5-0.6c0.6,0,1.1,0.2,1.4,0.6C-27.4,400.1-27.2,400.7-27.2,401.4z
					 M-30.5,401.4c0,0.5,0.1,0.9,0.3,1.2c0.2,0.3,0.5,0.4,0.9,0.4s0.7-0.1,0.9-0.4s0.3-0.7,0.3-1.2s-0.1-0.9-0.3-1.2
					c-0.2-0.3-0.5-0.4-0.9-0.4C-30.1,399.7-30.5,400.2-30.5,401.4z"/>
				<path class="challenges-mobile-st2" d="M-24.8,403c0.1,0,0.2,0,0.3,0c0.1,0,0.2,0,0.3-0.1v0.5c-0.1,0-0.2,0.1-0.3,0.1c-0.1,0-0.3,0-0.4,0
					c-0.8,0-1.3-0.4-1.3-1.3v-2.5h-0.6v-0.3l0.6-0.3l0.3-0.9h0.4v1h1.2v0.5h-1.2v2.5c0,0.2,0.1,0.4,0.2,0.6
					C-25.2,403-25,403-24.8,403z"/>
				<path class="challenges-mobile-st2" d="M-20,403c0.1,0,0.2,0,0.3,0c0.1,0,0.2,0,0.3-0.1v0.5c-0.1,0-0.2,0.1-0.3,0.1c-0.1,0-0.3,0-0.4,0
					c-0.8,0-1.3-0.4-1.3-1.3v-2.5H-22v-0.3l0.6-0.3l0.3-0.9h0.4v1h1.2v0.5h-1.2v2.5c0,0.2,0.1,0.4,0.2,0.6C-20.4,403-20.3,403-20,403
					z"/>
				<path class="challenges-mobile-st2" d="M-15,401.4c0,0.7-0.2,1.2-0.5,1.6s-0.8,0.6-1.5,0.6c-0.4,0-0.7-0.1-1-0.3s-0.5-0.4-0.7-0.8
					c-0.2-0.3-0.2-0.7-0.2-1.2c0-0.7,0.2-1.2,0.5-1.6s0.8-0.6,1.5-0.6c0.6,0,1.1,0.2,1.4,0.6C-15.1,400.1-15,400.7-15,401.4z
					 M-18.2,401.4c0,0.5,0.1,0.9,0.3,1.2c0.2,0.3,0.5,0.4,0.9,0.4s0.7-0.1,0.9-0.4s0.3-0.7,0.3-1.2s-0.1-0.9-0.3-1.2
					c-0.2-0.3-0.5-0.4-0.9-0.4C-17.8,399.7-18.2,400.2-18.2,401.4z"/>
				<path class="challenges-mobile-st2" d="M-11,403.5l-1.6-4.3h0.8l0.9,2.5c0.2,0.5,0.3,0.9,0.3,1.1l0,0v-0.1v-0.1c0-0.1,0.1-0.3,0.3-0.9l0.9-2.5h0.8
					l-1.6,4.3C-10.2,403.5-11,403.5-11,403.5z"/>
				<path class="challenges-mobile-st2" d="M-8.1,398.1c0-0.2,0-0.3,0.1-0.3c0.1-0.1,0.2-0.1,0.3-0.1c0.1,0,0.2,0,0.3,0.1c0.1,0.1,0.1,0.2,0.1,0.3
					c0,0.2,0,0.3-0.1,0.3c-0.1,0.1-0.2,0.1-0.3,0.1c-0.1,0-0.2,0-0.3-0.1C-8,398.2-8.1,398.2-8.1,398.1z M-7.3,403.5H-8v-4.3h0.7
					V403.5z"/>
				<path class="challenges-mobile-st2" d="M-3.3,402.2c0,0.4-0.1,0.7-0.4,0.9s-0.7,0.3-1.3,0.3s-1-0.1-1.3-0.3v-0.6c0.5,0.2,0.9,0.3,1.4,0.3
					c0.4,0,0.6-0.1,0.8-0.2c0.2-0.1,0.2-0.3,0.2-0.5s-0.1-0.3-0.2-0.4c-0.2-0.1-0.4-0.3-0.8-0.4c-0.4-0.2-0.7-0.3-0.9-0.4
					c-0.2-0.1-0.3-0.2-0.4-0.4s-0.1-0.3-0.1-0.5c0-0.4,0.1-0.6,0.4-0.8s0.7-0.3,1.2-0.3s0.9,0.1,1.4,0.3l-0.2,0.6
					c-0.4-0.2-0.8-0.3-1.2-0.3c-0.3,0-0.5,0-0.7,0.1s-0.2,0.2-0.2,0.4c0,0.2,0.1,0.3,0.2,0.4s0.4,0.2,0.9,0.4
					c0.4,0.1,0.6,0.3,0.8,0.4s0.3,0.2,0.4,0.4S-3.3,402.1-3.3,402.2z"/>
				<path class="challenges-mobile-st2" d="M-2.4,398.1c0-0.2,0-0.3,0.1-0.3c0.1-0.1,0.2-0.1,0.3-0.1c0.1,0,0.2,0,0.3,0.1c0.1,0.1,0.1,0.2,0.1,0.3
					c0,0.2,0,0.3-0.1,0.3c-0.1,0.1-0.2,0.1-0.3,0.1s-0.2,0-0.3-0.1S-2.4,398.2-2.4,398.1z M-1.6,403.5h-0.7v-4.3h0.7
					C-1.6,399.2-1.6,403.5-1.6,403.5z"/>
				<path class="challenges-mobile-st2" d="M1.1,403c0.1,0,0.2,0,0.3,0s0.2,0,0.3-0.1v0.5c-0.1,0-0.2,0.1-0.3,0.1c-0.1,0-0.3,0-0.4,0
					c-0.8,0-1.3-0.4-1.3-1.3v-2.5h-0.6v-0.3l0.6-0.3l0.3-0.9h0.4v1h1.2v0.5H0.4v2.5c0,0.2,0.1,0.4,0.2,0.6C0.7,403,0.8,403,1.1,403z"
					/>
				<path class="challenges-mobile-st2" d="M5.2,403.5H4.5v-5.7h3.2v0.6H5.2v2h2.3v0.6H5.2V403.5L5.2,403.5z"/>
				<path class="challenges-mobile-st2" d="M11.1,403.5l-0.1-0.6l0,0c-0.2,0.3-0.4,0.4-0.6,0.5s-0.5,0.1-0.8,0.1c-0.4,0-0.8-0.1-1-0.3
					c-0.2-0.2-0.4-0.5-0.4-0.9c0-0.9,0.7-1.3,2.1-1.4H11v-0.3c0-0.3-0.1-0.6-0.2-0.7s-0.4-0.2-0.7-0.2c-0.2,0-0.4,0-0.6,0.1
					S9,400,8.8,400.1l-0.2-0.5c0.2-0.1,0.5-0.2,0.7-0.3c0.3-0.1,0.5-0.1,0.8-0.1c0.5,0,0.9,0.1,1.2,0.3c0.3,0.2,0.4,0.6,0.4,1.1v2.9
					H11.1L11.1,403.5z M9.6,403c0.4,0,0.7-0.1,0.9-0.3s0.3-0.5,0.3-0.9v-0.4h-0.6c-0.5,0-0.9,0.1-1.1,0.2s-0.3,0.4-0.3,0.7
					c0,0.2,0.1,0.4,0.2,0.5S9.4,403,9.6,403z"/>
				<path class="challenges-mobile-st2" d="M14.5,403.6c-0.6,0-1.1-0.2-1.4-0.6s-0.5-0.9-0.5-1.6s0.2-1.3,0.5-1.7c0.3-0.4,0.8-0.6,1.5-0.6
					c0.2,0,0.4,0,0.6,0.1s0.4,0.1,0.5,0.2l-0.2,0.6c-0.4-0.1-0.7-0.2-0.9-0.2c-0.4,0-0.8,0.1-1,0.4s-0.3,0.7-0.3,1.2s0.1,0.9,0.3,1.2
					c0.2,0.3,0.5,0.4,0.9,0.4s0.7-0.1,1.1-0.2v0.6C15.3,403.5,15,403.6,14.5,403.6z"/>
				<path class="challenges-mobile-st2" d="M18.4,403.6c-0.6,0-1.1-0.2-1.5-0.6s-0.5-0.9-0.5-1.6s0.2-1.2,0.5-1.6s0.8-0.6,1.4-0.6c0.5,0,1,0.2,1.3,0.5
					s0.5,0.8,0.5,1.4v0.4H17c0,0.5,0.1,0.9,0.4,1.1s0.6,0.4,1,0.4c0.2,0,0.4,0,0.7-0.1s0.4-0.1,0.7-0.2v0.6c-0.2,0.1-0.5,0.2-0.7,0.2
					C18.9,403.6,18.7,403.6,18.4,403.6z M18.2,399.7c-0.3,0-0.6,0.1-0.8,0.3s-0.3,0.5-0.3,0.9h2.2c0-0.4-0.1-0.7-0.3-0.9
					S18.5,399.7,18.2,399.7z"/>
				<path class="challenges-mobile-st2" d="M23,399.2c0.6,0,1,0.2,1.3,0.6s0.5,0.9,0.5,1.6s-0.2,1.3-0.5,1.6c-0.3,0.4-0.7,0.6-1.3,0.6
					c-0.3,0-0.5-0.1-0.8-0.2s-0.4-0.3-0.6-0.5h-0.1c-0.1,0.3-0.1,0.5-0.1,0.5H21v-6.1h0.7v1.5c0,0.3,0,0.6,0,0.9l0,0
					C21.9,399.4,22.4,399.2,23,399.2z M22.9,399.7c-0.4,0-0.7,0.1-0.9,0.4c-0.2,0.2-0.3,0.7-0.3,1.2l0,0c0,0.6,0.1,1,0.3,1.3
					s0.5,0.4,0.9,0.4s0.7-0.1,0.9-0.4c0.2-0.3,0.3-0.7,0.3-1.2s-0.1-0.9-0.3-1.2S23.3,399.7,22.9,399.7z"/>
				<path class="challenges-mobile-st2" d="M29.5,401.4c0,0.7-0.2,1.2-0.5,1.6s-0.8,0.6-1.5,0.6c-0.4,0-0.7-0.1-1-0.3s-0.5-0.4-0.7-0.8
					c-0.2-0.3-0.2-0.7-0.2-1.2c0-0.7,0.2-1.2,0.5-1.6s0.8-0.6,1.5-0.6c0.6,0,1.1,0.2,1.4,0.6C29.3,400.1,29.5,400.7,29.5,401.4z
					 M26.3,401.4c0,0.5,0.1,0.9,0.3,1.2c0.2,0.3,0.5,0.4,0.9,0.4s0.7-0.1,0.9-0.4s0.3-0.7,0.3-1.2s-0.1-0.9-0.3-1.2
					c-0.2-0.3-0.5-0.4-0.9-0.4C26.7,399.7,26.3,400.2,26.3,401.4z"/>
				<path class="challenges-mobile-st2" d="M34.2,401.4c0,0.7-0.2,1.2-0.5,1.6s-0.8,0.6-1.5,0.6c-0.4,0-0.7-0.1-1-0.3s-0.5-0.4-0.7-0.8
					c-0.2-0.3-0.2-0.7-0.2-1.2c0-0.7,0.2-1.2,0.5-1.6s0.8-0.6,1.5-0.6c0.6,0,1.1,0.2,1.4,0.6C34.1,400.1,34.2,400.7,34.2,401.4z
					 M31,401.4c0,0.5,0.1,0.9,0.3,1.2c0.2,0.3,0.5,0.4,0.9,0.4s0.7-0.1,0.9-0.4s0.3-0.7,0.3-1.2s-0.1-0.9-0.3-1.2
					c-0.2-0.3-0.5-0.4-0.9-0.4C31.4,399.7,31,400.2,31,401.4z"/>
				<path class="challenges-mobile-st2" d="M35.9,401.2l0.2-0.3l0.3-0.3l1.4-1.4h0.8l-1.7,1.8l1.9,2.5H38l-1.5-2L36,402v1.6h-0.7v-6.1H36v3.2
					L35.9,401.2L35.9,401.2z"/>
				<path class="challenges-mobile-st2" d="M43.4,399.8h-1.1v3.7h-0.7v-3.7h-0.8v-0.3l0.8-0.2V399c0-0.5,0.1-0.9,0.3-1.2c0.2-0.3,0.6-0.4,1.1-0.4
					c0.3,0,0.6,0,0.8,0.1l-0.2,0.6c-0.2-0.1-0.5-0.1-0.6-0.1c-0.2,0-0.4,0.1-0.5,0.2c-0.1,0.2-0.2,0.4-0.2,0.7v0.3h1.1
					C43.4,399.2,43.4,399.8,43.4,399.8z"/>
				<path class="challenges-mobile-st2" d="M47.8,401.4c0,0.7-0.2,1.2-0.5,1.6s-0.8,0.6-1.5,0.6c-0.4,0-0.7-0.1-1-0.3s-0.5-0.4-0.7-0.8
					c-0.2-0.3-0.2-0.7-0.2-1.2c0-0.7,0.2-1.2,0.5-1.6s0.8-0.6,1.5-0.6c0.6,0,1.1,0.2,1.4,0.6C47.6,400.1,47.8,400.7,47.8,401.4z
					 M44.5,401.4c0,0.5,0.1,0.9,0.3,1.2c0.2,0.3,0.5,0.4,0.9,0.4s0.7-0.1,0.9-0.4s0.3-0.7,0.3-1.2s-0.1-0.9-0.3-1.2
					c-0.2-0.3-0.5-0.4-0.9-0.4C44.9,399.7,44.5,400.2,44.5,401.4z"/>
				<path class="challenges-mobile-st2" d="M50.8,399.2c0.2,0,0.4,0,0.5,0l-0.1,0.6c-0.2,0-0.3-0.1-0.5-0.1s-0.4,0.1-0.6,0.2c-0.2,0.1-0.3,0.3-0.5,0.5
					s-0.2,0.5-0.2,0.7v2.3h-0.7v-4.3h0.6l0.1,0.8l0,0c0.2-0.3,0.4-0.5,0.6-0.6S50.5,399.2,50.8,399.2z"/>
				<path class="challenges-mobile-st2" d="M55.4,403c0.1,0,0.2,0,0.3,0s0.2,0,0.3-0.1v0.5c-0.1,0-0.2,0.1-0.3,0.1s-0.3,0-0.4,0c-0.8,0-1.3-0.4-1.3-1.3
					v-2.5h-0.6v-0.3l0.6-0.3l0.3-0.9h0.4v1h1.2v0.5h-1.2v2.5c0,0.2,0.1,0.4,0.2,0.6C55,403,55.2,403,55.4,403z"/>
				<path class="challenges-mobile-st2" d="M59.7,403.5v-2.7c0-0.3-0.1-0.6-0.2-0.8s-0.4-0.3-0.7-0.3c-0.4,0-0.8,0.1-1,0.4s-0.3,0.6-0.3,1.2v2.2h-0.7
					v-6.1h0.7v1.8c0,0.2,0,0.4,0,0.6l0,0c0.1-0.2,0.3-0.4,0.5-0.5s0.5-0.2,0.8-0.2c0.5,0,0.9,0.1,1.2,0.4s0.4,0.6,0.4,1.2v2.8
					C60.3,403.5,59.7,403.5,59.7,403.5z"/>
				<path class="challenges-mobile-st2" d="M63.4,403.6c-0.6,0-1.1-0.2-1.5-0.6s-0.5-0.9-0.5-1.6s0.2-1.2,0.5-1.6s0.8-0.6,1.4-0.6c0.5,0,1,0.2,1.3,0.5
					s0.5,0.8,0.5,1.4v0.4h-2.9c0,0.5,0.1,0.9,0.4,1.1s0.6,0.4,1,0.4c0.2,0,0.4,0,0.7-0.1s0.4-0.1,0.7-0.2v0.6
					c-0.2,0.1-0.5,0.2-0.7,0.2C63.9,403.6,63.7,403.6,63.4,403.6z M63.2,399.7c-0.3,0-0.6,0.1-0.8,0.3s-0.3,0.5-0.3,0.9h2.2
					c0-0.4-0.1-0.7-0.3-0.9S63.5,399.7,63.2,399.7z"/>
				<path class="challenges-mobile-st2" d="M70.9,403.5v-2.7c0-0.3-0.1-0.6-0.2-0.8s-0.4-0.3-0.7-0.3c-0.4,0-0.8,0.1-1,0.4c-0.2,0.2-0.3,0.6-0.3,1.2
					v2.2H68v-4.3h0.6l0.1,0.6l0,0c0.1-0.2,0.3-0.4,0.6-0.5s0.5-0.2,0.8-0.2c0.5,0,0.9,0.1,1.2,0.4c0.3,0.3,0.4,0.7,0.4,1.2v2.8
					C71.6,403.5,70.9,403.5,70.9,403.5z"/>
				<path class="challenges-mobile-st2" d="M74.6,403.6c-0.6,0-1.1-0.2-1.5-0.6s-0.5-0.9-0.5-1.6s0.2-1.2,0.5-1.6s0.8-0.6,1.4-0.6c0.5,0,1,0.2,1.3,0.5
					s0.5,0.8,0.5,1.4v0.4h-2.9c0,0.5,0.1,0.9,0.4,1.1s0.6,0.4,1,0.4c0.2,0,0.4,0,0.7-0.1s0.4-0.1,0.7-0.2v0.6
					c-0.2,0.1-0.5,0.2-0.7,0.2C75.1,403.6,74.9,403.6,74.6,403.6z M74.4,399.7c-0.3,0-0.6,0.1-0.8,0.3s-0.3,0.5-0.3,0.9h2.2
					c0-0.4-0.1-0.7-0.3-0.9S74.8,399.7,74.4,399.7z"/>
				<path class="challenges-mobile-st2" d="M78.2,401.2l-1.5-2.1h0.8l1.1,1.6l1.1-1.6h0.8l-1.5,2.1l1.6,2.2h-0.8l-1.2-1.7l-1.2,1.7h-0.8L78.2,401.2z"/>
				<path class="challenges-mobile-st2" d="M82.8,403c0.1,0,0.2,0,0.3,0c0.1,0,0.2,0,0.3-0.1v0.5c-0.1,0-0.2,0.1-0.3,0.1c-0.1,0-0.3,0-0.4,0
					c-0.8,0-1.3-0.4-1.3-1.3v-2.5h-0.6v-0.3l0.6-0.3l0.3-0.9h0.4v1h1.2v0.5h-1.2v2.5c0,0.2,0.1,0.4,0.2,0.6
					C82.4,403,82.6,403,82.8,403z"/>
				<path class="challenges-mobile-st2" d="M89.3,403.5h-3.6v-0.6l1.4-1.5c0.2-0.2,0.4-0.4,0.5-0.6c0.2-0.2,0.3-0.3,0.4-0.5s0.2-0.3,0.2-0.5
					s0.1-0.4,0.1-0.5c0-0.2,0-0.3-0.1-0.4s-0.1-0.2-0.2-0.3s-0.2-0.1-0.3-0.2s-0.2-0.1-0.4-0.1c-0.2,0-0.5,0-0.7,0.1
					s-0.4,0.2-0.6,0.4l-0.4-0.5c0.1-0.1,0.2-0.2,0.3-0.3s0.2-0.2,0.4-0.2s0.3-0.1,0.4-0.1c0.2,0,0.3-0.1,0.5-0.1s0.5,0,0.7,0.1
					s0.4,0.2,0.5,0.3c0.1,0.1,0.2,0.3,0.3,0.5c0.1,0.2,0.1,0.4,0.1,0.6s0,0.4-0.1,0.6s-0.2,0.4-0.3,0.6s-0.3,0.4-0.4,0.6
					c-0.2,0.2-0.4,0.4-0.5,0.6l-1.1,1.2l0,0h2.7L89.3,403.5L89.3,403.5z"/>
				<path class="challenges-mobile-st2" d="M94,402.2h-0.8v1.3h-0.7v-1.3h-2.6v-0.6l2.6-3.8h0.7v3.8H94V402.2L94,402.2z M92.4,401.6v-1.4
					c0-0.1,0-0.3,0-0.5s0-0.3,0-0.5s0-0.3,0-0.4s0-0.2,0-0.3l0,0c0,0.1,0,0.1-0.1,0.2s-0.1,0.1-0.1,0.2s-0.1,0.1-0.1,0.2
					s-0.1,0.1-0.1,0.2l-1.6,2.4L92.4,401.6L92.4,401.6z"/>
				<path class="challenges-mobile-st2" d="M99.6,403.5v-2.7c0-0.3-0.1-0.6-0.2-0.8s-0.4-0.3-0.7-0.3c-0.4,0-0.8,0.1-1,0.4s-0.3,0.6-0.3,1.2v2.2h-0.7
					v-6.1h0.7v1.8c0,0.2,0,0.4,0,0.6l0,0c0.1-0.2,0.3-0.4,0.5-0.5s0.5-0.2,0.8-0.2c0.5,0,0.9,0.1,1.2,0.4s0.4,0.6,0.4,1.2v2.8H99.6z"
					/>
				<path class="challenges-mobile-st2" d="M105.2,401.4c0,0.7-0.2,1.2-0.5,1.6s-0.8,0.6-1.5,0.6c-0.4,0-0.7-0.1-1-0.3s-0.5-0.4-0.7-0.8
					c-0.2-0.3-0.2-0.7-0.2-1.2c0-0.7,0.2-1.2,0.5-1.6s0.8-0.6,1.5-0.6c0.6,0,1.1,0.2,1.4,0.6C105.1,400.1,105.2,400.7,105.2,401.4z
					 M102,401.4c0,0.5,0.1,0.9,0.3,1.2c0.2,0.3,0.5,0.4,0.9,0.4s0.7-0.1,0.9-0.4s0.3-0.7,0.3-1.2s-0.1-0.9-0.3-1.2
					c-0.2-0.3-0.5-0.4-0.9-0.4C102.4,399.7,102,400.2,102,401.4z"/>
				<path class="challenges-mobile-st2" d="M106.9,399.2v2.8c0,0.3,0.1,0.6,0.2,0.8c0.2,0.2,0.4,0.3,0.7,0.3c0.4,0,0.8-0.1,1-0.4s0.3-0.6,0.3-1.2v-2.2
					h0.7v4.3h-0.6l-0.1-0.6l0,0c-0.1,0.2-0.3,0.4-0.5,0.5s-0.5,0.2-0.8,0.2c-0.5,0-0.9-0.1-1.2-0.4s-0.4-0.6-0.4-1.2v-2.8
					L106.9,399.2L106.9,399.2z"/>
				<path class="challenges-mobile-st2" d="M113.1,399.2c0.2,0,0.4,0,0.5,0l-0.1,0.6c-0.2,0-0.3-0.1-0.5-0.1s-0.4,0.1-0.6,0.2s-0.3,0.3-0.5,0.5
					s-0.2,0.5-0.2,0.7v2.3H111v-4.3h0.6l0.1,0.8l0,0c0.2-0.3,0.4-0.5,0.6-0.6S112.8,399.2,113.1,399.2z"/>
				<path class="challenges-mobile-st2" d="M117.1,402.2c0,0.4-0.1,0.7-0.4,0.9s-0.7,0.3-1.3,0.3c-0.6,0-1-0.1-1.3-0.3v-0.6c0.5,0.2,0.9,0.3,1.4,0.3
					c0.4,0,0.6-0.1,0.8-0.2c0.2-0.1,0.2-0.3,0.2-0.5s-0.1-0.3-0.2-0.4c-0.2-0.1-0.4-0.3-0.8-0.4c-0.4-0.2-0.7-0.3-0.9-0.4
					c-0.2-0.1-0.3-0.2-0.4-0.4s-0.1-0.3-0.1-0.5c0-0.4,0.1-0.6,0.4-0.8s0.7-0.3,1.2-0.3s0.9,0.1,1.4,0.3l-0.2,0.6
					c-0.4-0.2-0.8-0.3-1.2-0.3c-0.3,0-0.5,0-0.7,0.1s-0.2,0.2-0.2,0.4c0,0.2,0.1,0.3,0.2,0.4s0.4,0.2,0.9,0.4
					c0.4,0.1,0.6,0.3,0.8,0.4c0.2,0.1,0.3,0.2,0.4,0.4S117.1,402.1,117.1,402.2z"/>
				<path class="challenges-mobile-st2" d="M117.9,403.1c0-0.1,0-0.2,0-0.3s0.1-0.1,0.1-0.2s0.1-0.1,0.2-0.1s0.1,0,0.2,0s0.1,0,0.2,0s0.1,0.1,0.2,0.1
					s0.1,0.1,0.1,0.2s0,0.2,0,0.3c0,0.1,0,0.2,0,0.2s-0.1,0.1-0.1,0.2s-0.1,0.1-0.2,0.1s-0.1,0-0.2,0s-0.1,0-0.2,0s-0.1-0.1-0.2-0.1
					s-0.1-0.1-0.1-0.2S117.9,403.2,117.9,403.1z"/>
			</g>
		</g>
		<g>
			<path class="challenges-mobile-st3" d="M-120.6,388v6.6c0,3.6,4.9,6.1,4.9,6.1s4.9-2.5,4.9-6.1V388H-120.6z"/>
			<line class="challenges-mobile-st3" x1="-115.8" y1="400.7" x2="-115.8" y2="403.5"/>
			<g>
				<g>
					<path class="challenges-mobile-st3" d="M-120.6,389.1h-4v2.3c0,1.9,1.5,3.4,3.4,3.4h0.7"/>
				</g>
				<g>
					<path class="challenges-mobile-st3" d="M-110.9,389.1h4v2.3c0,1.9-1.5,3.4-3.4,3.4h-0.7"/>
				</g>
			</g>
			<rect x="-119.2" y="403.5" class="challenges-mobile-st3" width="6.8" height="2.2"/>
		</g>
	</g>
</svg>
