<?xml version="1.0" encoding="utf-8"?>
<svg version="1.1" id="default-browser" xmlns="http://www.w3.org/2000/svg" xmlns:xlink="http://www.w3.org/1999/xlink" x="0px" y="0px"
	 viewBox="126.4675 159.409 878.4 475.2" style="enable-background:new 126.4675 159.409 878.4 475.2;" xml:space="preserve">
<g>
	<g>
		<g>
			<g>
				<path class="challenges-browser-st0" d="M994.835,633.5H136.5c-3.3,0-6-2.7-6-6V166.518c0-3.3,2.7-6,6-6h858.335c3.3,0,6,2.7,6,6V627.5
					C1000.835,630.8,998.135,633.5,994.835,633.5z"/>
			</g>
			<line class="challenges-browser-st0" x1="130.5" y1="190.517" x2="1000.835" y2="190.517"/>
			<g>
				<circle class="challenges-browser-st0" cx="148.79" cy="175.517" r="8.29"/>
				<circle class="challenges-browser-st0" cx="169.37" cy="175.517" r="8.29"/>
				<circle class="challenges-browser-st0" cx="189.95" cy="175.517" r="8.29"/>
			</g>
		</g>
	</g>
	<g class="challenges-browser-part">
		<path class="challenges-browser-st0" d="M970.835,190.517V504.09c0,3.3-2.7,6-6,6H699.804c-3.3,0-6-2.7-6-6V190.517"/>
	</g>
	<g>
		<line class="challenges-browser-st0 challenges-browser-part" x1="673.804" y1="190.517" x2="673.804" y2="633.5"/>
		<line class="challenges-browser-st0 challenges-browser-part" x1="160.5" y1="633.5" x2="160.5" y2="190.517"/>
	</g>
	<g class="challenges-browser-part">
		<g class="facebook-like--1">
			<rect x="201.524" y="250.751" class="challenges-browser-st0" width="6.65" height="16.749"/>
			<path class="challenges-browser-st0" d="M228.131,254.938c1.157,0,2.093-0.937,2.093-2.094s-0.937-2.094-2.093-2.094h-12.998v-4.372
				c0-2.21-1.793-4.002-4.003-4.002v4.002v-0.43v4.803l0,0V267.5h13.794v-0.001c1.156,0,2.093-0.937,2.093-2.093
				c0-0.883-0.548-1.634-1.321-1.942l0.034-0.178c0.087,0.011,0.172,0.027,0.262,0.027c1.156,0,2.093-0.937,2.093-2.094
				c0-0.975-0.67-1.788-1.572-2.021l0.027-0.146c0.167,0.043,0.34,0.073,0.521,0.073c1.156,0,2.093-0.937,2.093-2.093
				c0-1.067-0.8-1.937-1.831-2.067l0.034-0.178C227.598,254.882,227.857,254.938,228.131,254.938z"/>
		</g>
		<g>
			<g>
				<path class="challenges-browser-st1" d="M241.648,266.296h-1.582V252.62h1.582V266.296z"/>
				<path class="challenges-browser-st1" d="M244.35,254.035c0-0.352,0.089-0.606,0.268-0.765s0.4-0.237,0.664-0.237c0.246,0,0.461,0.079,0.646,0.237
					c0.184,0.158,0.276,0.413,0.276,0.765c0,0.346-0.093,0.601-0.276,0.765c-0.186,0.164-0.4,0.246-0.646,0.246
					c-0.264,0-0.485-0.082-0.664-0.246S244.35,254.381,244.35,254.035z M246.055,266.296h-1.582v-9.65h1.582V266.296z"/>
				<path class="challenges-browser-st1" d="M250.444,261.33l0.536-0.686l0.615-0.738l3.085-3.261h1.846l-3.902,4.122l4.175,5.528h-1.907l-3.349-4.5
					l-1.099,0.958v3.542h-1.564V252.62h1.564v7.146l-0.07,1.564C250.374,261.33,250.444,261.33,250.444,261.33z"/>
				<path class="challenges-browser-st1" d="M262.365,266.472c-1.447,0-2.583-0.438-3.405-1.313c-0.824-0.876-1.235-2.082-1.235-3.617
					c0-1.547,0.384-2.778,1.151-3.695s1.805-1.376,3.111-1.376c1.213,0,2.18,0.392,2.9,1.174s1.081,1.841,1.081,3.177v0.958h-6.609
					c0.029,1.096,0.308,1.928,0.835,2.496c0.527,0.568,1.274,0.853,2.241,0.853c0.516,0,1.005-0.045,1.468-0.136
					c0.463-0.091,1.005-0.269,1.626-0.532v1.389c-0.533,0.229-1.034,0.39-1.503,0.483
					C263.557,266.426,263.004,266.472,262.365,266.472z M261.97,257.762c-0.756,0-1.354,0.243-1.793,0.729s-0.7,1.163-0.782,2.03
					h4.913c-0.012-0.902-0.22-1.588-0.624-2.057S262.708,257.762,261.97,257.762z"/>
				<path class="challenges-browser-st1" d="M284.898,266.296v-6.214c0-1.523-0.653-2.285-1.96-2.285c-0.896,0-1.556,0.261-1.978,0.782
					s-0.633,1.318-0.633,2.391v5.326h-1.573v-6.214c0-0.762-0.16-1.333-0.479-1.714c-0.32-0.381-0.819-0.571-1.499-0.571
					c-0.891,0-1.542,0.272-1.956,0.817c-0.412,0.545-0.619,1.438-0.619,2.681v5.001h-1.582v-9.65h1.274l0.237,1.318h0.088
					c0.275-0.469,0.664-0.835,1.164-1.099c0.502-0.264,1.062-0.396,1.684-0.396c1.512,0,2.496,0.539,2.953,1.617h0.088
					c0.311-0.516,0.734-0.914,1.27-1.195c0.537-0.281,1.145-0.422,1.824-0.422c1.09,0,1.905,0.281,2.447,0.844
					s0.813,1.462,0.813,2.698v6.284h-1.563L284.898,266.296L284.898,266.296z"/>
				<path class="challenges-browser-st1" d="M293.321,266.472c-1.447,0-2.583-0.438-3.405-1.313c-0.824-0.876-1.235-2.082-1.235-3.617
					c0-1.547,0.384-2.778,1.151-3.695s1.805-1.376,3.111-1.376c1.213,0,2.18,0.392,2.9,1.174s1.081,1.841,1.081,3.177v0.958h-6.609
					c0.029,1.096,0.308,1.928,0.835,2.496c0.527,0.568,1.274,0.853,2.241,0.853c0.516,0,1.005-0.045,1.468-0.136
					c0.463-0.091,1.005-0.269,1.626-0.532v1.389c-0.533,0.229-1.034,0.39-1.503,0.483S293.96,266.472,293.321,266.472z
					 M292.926,257.762c-0.756,0-1.354,0.243-1.793,0.729s-0.7,1.163-0.782,2.03h4.913c-0.012-0.902-0.22-1.588-0.624-2.057
					S293.664,257.762,292.926,257.762z"/>
				<path class="challenges-browser-st1" d="M300.233,265.32c0-0.223,0.029-0.411,0.088-0.566c0.059-0.155,0.138-0.281,0.237-0.378
					s0.217-0.167,0.352-0.211s0.281-0.066,0.439-0.066c0.152,0,0.297,0.022,0.436,0.066c0.137,0.044,0.256,0.114,0.355,0.211
					s0.179,0.223,0.237,0.378s0.088,0.344,0.088,0.566c0,0.217-0.029,0.403-0.088,0.559c-0.059,0.156-0.138,0.282-0.237,0.382
					s-0.219,0.173-0.355,0.22c-0.139,0.047-0.283,0.07-0.436,0.07c-0.158,0-0.305-0.023-0.439-0.07s-0.252-0.12-0.352-0.22
					c-0.1-0.1-0.179-0.227-0.237-0.382S300.233,265.537,300.233,265.32z M301.895,262.657h-1.063l-0.448-9.211h1.96L301.895,262.657
					z"/>
			</g>
		</g>
	</g>
	<line class="challenges-browser-st0 challenges-browser-part" x1="161.524" y1="297.5" x2="673.804" y2="297.5"/>
	<line class="challenges-browser-st0 challenges-browser-part" x1="161.524" y1="220.517" x2="673.804" y2="220.517"/>
	<g class="challenges-browser-part">
		<g class="facebook-like--2">
			<rect x="201.524" y="335.751" class="challenges-browser-st0" width="6.65" height="16.749"/>
			<path class="challenges-browser-st0" d="M228.131,339.938c1.157,0,2.093-0.937,2.093-2.094c0-1.157-0.937-2.094-2.093-2.094h-12.998v-4.372
				c0-2.21-1.793-4.002-4.003-4.002v4.002v-0.431v4.803l0,0v16.749h13.794v-0.001c1.156,0,2.093-0.937,2.093-2.093
				c0-0.883-0.548-1.634-1.321-1.942l0.034-0.178c0.087,0.011,0.172,0.027,0.262,0.027c1.156,0,2.093-0.937,2.093-2.094
				c0-0.975-0.67-1.788-1.572-2.021l0.027-0.146c0.167,0.043,0.34,0.073,0.521,0.073c1.156,0,2.093-0.937,2.093-2.093
				c0-1.067-0.8-1.937-1.831-2.067l0.034-0.178C227.598,339.882,227.857,339.938,228.131,339.938z"/>
		</g>
		<g>
			<g>
				<path class="challenges-browser-st1" d="M241.648,351.296h-1.582V337.62h1.582V351.296z"/>
				<path class="challenges-browser-st1" d="M244.35,339.035c0-0.352,0.089-0.606,0.268-0.765s0.4-0.237,0.664-0.237c0.246,0,0.461,0.079,0.646,0.237
					c0.184,0.158,0.276,0.413,0.276,0.765c0,0.346-0.093,0.601-0.276,0.765c-0.186,0.164-0.4,0.246-0.646,0.246
					c-0.264,0-0.485-0.082-0.664-0.246S244.35,339.381,244.35,339.035z M246.055,351.296h-1.582v-9.65h1.582V351.296z"/>
				<path class="challenges-browser-st1" d="M250.444,346.33l0.536-0.686l0.615-0.738l3.085-3.261h1.846l-3.902,4.122l4.175,5.528h-1.907l-3.349-4.5
					l-1.099,0.958v3.542h-1.564v-13.676h1.564v7.146l-0.07,1.564h0.07L250.444,346.33L250.444,346.33z"/>
				<path class="challenges-browser-st1" d="M262.365,351.472c-1.447,0-2.583-0.438-3.405-1.313c-0.824-0.876-1.235-2.082-1.235-3.617
					c0-1.547,0.384-2.778,1.151-3.695s1.805-1.376,3.111-1.376c1.213,0,2.18,0.392,2.9,1.174s1.081,1.841,1.081,3.177v0.958h-6.609
					c0.029,1.096,0.308,1.928,0.835,2.496s1.274,0.853,2.241,0.853c0.516,0,1.005-0.045,1.468-0.136
					c0.463-0.091,1.005-0.269,1.626-0.532v1.389c-0.533,0.229-1.034,0.39-1.503,0.483S263.004,351.472,262.365,351.472z
					 M261.97,342.762c-0.756,0-1.354,0.243-1.793,0.729s-0.7,1.163-0.782,2.03h4.913c-0.012-0.902-0.22-1.588-0.624-2.057
					S262.708,342.762,261.97,342.762z"/>
				<path class="challenges-browser-st1" d="M284.898,351.296v-6.214c0-1.523-0.653-2.285-1.96-2.285c-0.896,0-1.556,0.261-1.978,0.782
					s-0.633,1.318-0.633,2.391v5.326h-1.573v-6.214c0-0.762-0.16-1.333-0.479-1.714c-0.32-0.381-0.819-0.571-1.499-0.571
					c-0.891,0-1.542,0.272-1.956,0.817c-0.412,0.545-0.619,1.438-0.619,2.681v5.001h-1.582v-9.65h1.274l0.237,1.318h0.088
					c0.275-0.469,0.664-0.835,1.164-1.099c0.502-0.264,1.062-0.396,1.684-0.396c1.512,0,2.496,0.539,2.953,1.617h0.088
					c0.311-0.516,0.734-0.914,1.27-1.195c0.537-0.281,1.145-0.422,1.824-0.422c1.09,0,1.905,0.281,2.447,0.844
					s0.813,1.462,0.813,2.698v6.284h-1.563L284.898,351.296L284.898,351.296z"/>
				<path class="challenges-browser-st1" d="M293.321,351.472c-1.447,0-2.583-0.438-3.405-1.313c-0.824-0.876-1.235-2.082-1.235-3.617
					c0-1.547,0.384-2.778,1.151-3.695s1.805-1.376,3.111-1.376c1.213,0,2.18,0.392,2.9,1.174s1.081,1.841,1.081,3.177v0.958h-6.609
					c0.029,1.096,0.308,1.928,0.835,2.496s1.274,0.853,2.241,0.853c0.516,0,1.005-0.045,1.468-0.136
					c0.463-0.091,1.005-0.269,1.626-0.532v1.389c-0.533,0.229-1.034,0.39-1.503,0.483S293.96,351.472,293.321,351.472z
					 M292.926,342.762c-0.756,0-1.354,0.243-1.793,0.729s-0.7,1.163-0.782,2.03h4.913c-0.012-0.902-0.22-1.588-0.624-2.057
					S293.664,342.762,292.926,342.762z"/>
				<path class="challenges-browser-st1" d="M300.233,350.32c0-0.223,0.029-0.411,0.088-0.566c0.059-0.155,0.138-0.281,0.237-0.378
					s0.217-0.167,0.352-0.211s0.281-0.066,0.439-0.066c0.152,0,0.297,0.022,0.436,0.066c0.137,0.044,0.256,0.114,0.355,0.211
					s0.179,0.223,0.237,0.378s0.088,0.344,0.088,0.566c0,0.217-0.029,0.403-0.088,0.559c-0.059,0.156-0.138,0.282-0.237,0.382
					s-0.219,0.173-0.355,0.22c-0.139,0.047-0.283,0.07-0.436,0.07c-0.158,0-0.305-0.023-0.439-0.07s-0.252-0.12-0.352-0.22
					c-0.1-0.1-0.179-0.227-0.237-0.382S300.233,350.537,300.233,350.32z M301.895,347.657h-1.063l-0.448-9.211h1.96L301.895,347.657
					z"/>
			</g>
		</g>
	</g>
	<line class="challenges-browser-st0 challenges-browser-part" x1="161.524" y1="382.5" x2="673.804" y2="382.5"/>
	<g class="challenges-browser-part">
		<g class="facebook-like--3">
			<rect x="201.524" y="420.875" class="challenges-browser-st0" width="6.65" height="16.749"/>
			<path class="challenges-browser-st0" d="M228.131,425.062c1.157,0,2.093-0.937,2.093-2.094s-0.937-2.094-2.093-2.094h-12.998v-4.372
				c0-2.21-1.793-4.002-4.003-4.002v4.002v-0.431v4.803l0,0v16.749h13.794v-0.001c1.156,0,2.093-0.937,2.093-2.093
				c0-0.883-0.548-1.634-1.321-1.942l0.034-0.178c0.087,0.011,0.172,0.027,0.262,0.027c1.156,0,2.093-0.937,2.093-2.094
				c0-0.975-0.67-1.788-1.572-2.021l0.027-0.146c0.167,0.043,0.34,0.073,0.521,0.073c1.156,0,2.093-0.937,2.093-2.093
				c0-1.067-0.8-1.937-1.831-2.067l0.034-0.178C227.598,425.006,227.857,425.062,228.131,425.062z"/>
		</g>
		<g>
			<g>
				<path class="challenges-browser-st1" d="M241.648,436.42h-1.582v-13.676h1.582V436.42z"/>
				<path class="challenges-browser-st1" d="M244.35,424.159c0-0.352,0.089-0.606,0.268-0.765s0.4-0.237,0.664-0.237c0.246,0,0.461,0.079,0.646,0.237
					c0.184,0.158,0.276,0.413,0.276,0.765c0,0.346-0.093,0.601-0.276,0.765c-0.186,0.164-0.4,0.246-0.646,0.246
					c-0.264,0-0.485-0.082-0.664-0.246S244.35,424.505,244.35,424.159z M246.055,436.42h-1.582v-9.65h1.582V436.42z"/>
				<path class="challenges-browser-st1" d="M250.444,431.454l0.536-0.686l0.615-0.738l3.085-3.261h1.846l-3.902,4.122l4.175,5.528h-1.907l-3.349-4.5
					l-1.099,0.958v3.542h-1.564v-13.676h1.564v7.146l-0.07,1.564h0.07L250.444,431.454L250.444,431.454z"/>
				<path class="challenges-browser-st1" d="M262.365,436.596c-1.447,0-2.583-0.438-3.405-1.314c-0.824-0.875-1.235-2.081-1.235-3.616
					c0-1.547,0.384-2.778,1.151-3.696c0.768-0.916,1.805-1.375,3.111-1.375c1.213,0,2.18,0.391,2.9,1.174
					c0.721,0.781,1.081,1.841,1.081,3.177v0.958h-6.609c0.029,1.096,0.308,1.928,0.835,2.496s1.274,0.853,2.241,0.853
					c0.516,0,1.005-0.046,1.468-0.136c0.463-0.092,1.005-0.269,1.626-0.532v1.389c-0.533,0.229-1.034,0.39-1.503,0.483
					S263.004,436.596,262.365,436.596z M261.97,427.886c-0.756,0-1.354,0.243-1.793,0.729s-0.7,1.163-0.782,2.03h4.913
					c-0.012-0.902-0.22-1.588-0.624-2.057S262.708,427.886,261.97,427.886z"/>
				<path class="challenges-browser-st1" d="M284.898,436.42v-6.214c0-1.523-0.653-2.285-1.96-2.285c-0.896,0-1.556,0.261-1.978,0.782
					s-0.633,1.318-0.633,2.391v5.326h-1.573v-6.214c0-0.762-0.16-1.333-0.479-1.714c-0.32-0.381-0.819-0.571-1.499-0.571
					c-0.891,0-1.542,0.272-1.956,0.817c-0.412,0.545-0.619,1.438-0.619,2.681v5.001h-1.582v-9.65h1.274l0.237,1.318h0.088
					c0.275-0.469,0.664-0.835,1.164-1.099c0.502-0.264,1.062-0.396,1.684-0.396c1.512,0,2.496,0.539,2.953,1.617h0.088
					c0.311-0.516,0.734-0.914,1.27-1.195c0.537-0.281,1.145-0.422,1.824-0.422c1.09,0,1.905,0.281,2.447,0.844
					s0.813,1.462,0.813,2.698v6.284h-1.563L284.898,436.42L284.898,436.42z"/>
				<path class="challenges-browser-st1" d="M293.321,436.596c-1.447,0-2.583-0.438-3.405-1.314c-0.824-0.875-1.235-2.081-1.235-3.616
					c0-1.547,0.384-2.778,1.151-3.696c0.768-0.916,1.805-1.375,3.111-1.375c1.213,0,2.18,0.391,2.9,1.174
					c0.721,0.781,1.081,1.841,1.081,3.177v0.958h-6.609c0.029,1.096,0.308,1.928,0.835,2.496s1.274,0.853,2.241,0.853
					c0.516,0,1.005-0.046,1.468-0.136c0.463-0.092,1.005-0.269,1.626-0.532v1.389c-0.533,0.229-1.034,0.39-1.503,0.483
					S293.96,436.596,293.321,436.596z M292.926,427.886c-0.756,0-1.354,0.243-1.793,0.729s-0.7,1.163-0.782,2.03h4.913
					c-0.012-0.902-0.22-1.588-0.624-2.057S293.664,427.886,292.926,427.886z"/>
				<path class="challenges-browser-st1" d="M300.233,435.444c0-0.223,0.029-0.411,0.088-0.567c0.059-0.154,0.138-0.281,0.237-0.377
					c0.1-0.098,0.217-0.168,0.352-0.211c0.135-0.045,0.281-0.066,0.439-0.066c0.152,0,0.297,0.021,0.436,0.066
					c0.137,0.043,0.256,0.113,0.355,0.211c0.1,0.096,0.179,0.223,0.237,0.377c0.059,0.156,0.088,0.345,0.088,0.567
					c0,0.217-0.029,0.403-0.088,0.558c-0.059,0.156-0.138,0.283-0.237,0.383s-0.219,0.173-0.355,0.22
					c-0.139,0.047-0.283,0.07-0.436,0.07c-0.158,0-0.305-0.023-0.439-0.07s-0.252-0.12-0.352-0.22c-0.1-0.1-0.179-0.227-0.237-0.383
					C300.263,435.848,300.233,435.661,300.233,435.444z M301.895,432.781h-1.063l-0.448-9.211h1.96L301.895,432.781z"/>
			</g>
		</g>
	</g>
	<line class="challenges-browser-st0 challenges-browser-part" x1="161.524" y1="467.624" x2="673.804" y2="467.624"/>
	<g class="challenges-browser-part">
		<g class="facebook-like--4">
			<rect x="201.524" y="505.998" class="challenges-browser-st0" width="6.65" height="16.749"/>
			<path class="challenges-browser-st0" d="M228.131,510.186c1.157,0,2.093-0.937,2.093-2.094c0-1.156-0.937-2.094-2.093-2.094h-12.998v-4.372
				c0-2.21-1.793-4.002-4.003-4.002v4.002v-0.431v4.803l0,0v16.749h13.794v-0.001c1.156,0,2.093-0.937,2.093-2.093
				c0-0.883-0.548-1.634-1.321-1.942l0.034-0.178c0.087,0.011,0.172,0.027,0.262,0.027c1.156,0,2.093-0.937,2.093-2.094
				c0-0.975-0.67-1.788-1.572-2.021l0.027-0.146c0.167,0.043,0.34,0.073,0.521,0.073c1.156,0,2.093-0.937,2.093-2.093
				c0-1.067-0.8-1.937-1.831-2.067l0.034-0.178C227.598,510.13,227.857,510.186,228.131,510.186z"/>
		</g>
		<g>
			<g>
				<path class="challenges-browser-st1" d="M241.648,521.544h-1.582v-13.676h1.582V521.544z"/>
				<path class="challenges-browser-st1" d="M244.35,509.283c0-0.352,0.089-0.606,0.268-0.765s0.4-0.237,0.664-0.237c0.246,0,0.461,0.079,0.646,0.237
					c0.184,0.158,0.276,0.413,0.276,0.765c0,0.346-0.093,0.601-0.276,0.765c-0.186,0.164-0.4,0.246-0.646,0.246
					c-0.264,0-0.485-0.082-0.664-0.246S244.35,509.629,244.35,509.283z M246.055,521.544h-1.582v-9.65h1.582V521.544z"/>
				<path class="challenges-browser-st1" d="M250.444,516.578l0.536-0.686l0.615-0.738l3.085-3.261h1.846l-3.902,4.122l4.175,5.528h-1.907l-3.349-4.5
					l-1.099,0.958v3.542h-1.564v-13.675h1.564v7.146l-0.07,1.564h0.07V516.578z"/>
				<path class="challenges-browser-st1" d="M262.365,521.72c-1.447,0-2.583-0.438-3.405-1.314c-0.824-0.876-1.235-2.081-1.235-3.616
					c0-1.547,0.384-2.779,1.151-3.696s1.805-1.375,3.111-1.375c1.213,0,2.18,0.391,2.9,1.173s1.081,1.842,1.081,3.178v0.958h-6.609
					c0.029,1.096,0.308,1.928,0.835,2.496s1.274,0.853,2.241,0.853c0.516,0,1.005-0.046,1.468-0.137
					c0.463-0.091,1.005-0.268,1.626-0.531v1.389c-0.533,0.229-1.034,0.39-1.503,0.483
					C263.557,521.674,263.004,521.72,262.365,521.72z M261.97,513.01c-0.756,0-1.354,0.243-1.793,0.729s-0.7,1.163-0.782,2.03h4.913
					c-0.012-0.902-0.22-1.588-0.624-2.057S262.708,513.01,261.97,513.01z"/>
				<path class="challenges-browser-st1" d="M284.898,521.544v-6.214c0-1.523-0.653-2.285-1.96-2.285c-0.896,0-1.556,0.261-1.978,0.782
					s-0.633,1.318-0.633,2.391v5.326h-1.573v-6.214c0-0.762-0.16-1.333-0.479-1.714c-0.32-0.381-0.819-0.571-1.499-0.571
					c-0.891,0-1.542,0.272-1.956,0.817c-0.412,0.545-0.619,1.438-0.619,2.681v5.001h-1.582v-9.65h1.274l0.237,1.318h0.088
					c0.275-0.469,0.664-0.835,1.164-1.099c0.502-0.264,1.062-0.396,1.684-0.396c1.512,0,2.496,0.539,2.953,1.617h0.088
					c0.311-0.516,0.734-0.914,1.27-1.195c0.537-0.281,1.145-0.422,1.824-0.422c1.09,0,1.905,0.281,2.447,0.844
					s0.813,1.462,0.813,2.698v6.284h-1.563L284.898,521.544L284.898,521.544z"/>
				<path class="challenges-browser-st1" d="M293.321,521.72c-1.447,0-2.583-0.438-3.405-1.314c-0.824-0.876-1.235-2.081-1.235-3.616
					c0-1.547,0.384-2.779,1.151-3.696s1.805-1.375,3.111-1.375c1.213,0,2.18,0.391,2.9,1.173s1.081,1.842,1.081,3.178v0.958h-6.609
					c0.029,1.096,0.308,1.928,0.835,2.496s1.274,0.853,2.241,0.853c0.516,0,1.005-0.046,1.468-0.137
					c0.463-0.091,1.005-0.268,1.626-0.531v1.389c-0.533,0.229-1.034,0.39-1.503,0.483C294.513,521.674,293.96,521.72,293.321,521.72
					z M292.926,513.01c-0.756,0-1.354,0.243-1.793,0.729s-0.7,1.163-0.782,2.03h4.913c-0.012-0.902-0.22-1.588-0.624-2.057
					S293.664,513.01,292.926,513.01z"/>
				<path class="challenges-browser-st1" d="M300.233,520.568c0-0.223,0.029-0.412,0.088-0.567c0.059-0.155,0.138-0.281,0.237-0.378
					s0.217-0.167,0.352-0.211c0.135-0.044,0.281-0.065,0.439-0.065c0.152,0,0.297,0.021,0.436,0.065
					c0.137,0.044,0.256,0.114,0.355,0.211s0.179,0.223,0.237,0.378c0.058,0.155,0.088,0.345,0.088,0.567
					c0,0.217-0.029,0.402-0.088,0.558c-0.059,0.156-0.138,0.283-0.237,0.383s-0.219,0.173-0.355,0.22
					c-0.139,0.047-0.283,0.07-0.436,0.07c-0.158,0-0.305-0.023-0.439-0.07s-0.252-0.12-0.352-0.22c-0.1-0.1-0.179-0.228-0.237-0.383
					S300.233,520.785,300.233,520.568z M301.895,517.905h-1.063l-0.448-9.211h1.96L301.895,517.905z"/>
			</g>
		</g>
	</g>
	<line class="challenges-browser-st0 challenges-browser-part" x1="161.524" y1="552.748" x2="673.804" y2="552.748"/>
	<g class="challenges-browser-part">
		<g class="facebook-like--5">
			<rect x="201.524" y="591.122" class="challenges-browser-st0" width="6.65" height="16.749"/>
			<path class="challenges-browser-st0" d="M228.131,595.31c1.157,0,2.093-0.937,2.093-2.094c0-1.156-0.937-2.094-2.093-2.094h-12.998v-4.372
				c0-2.21-1.793-4.002-4.003-4.002v4.002v-0.431v4.803l0,0v16.749h13.794v-0.001c1.156,0,2.093-0.937,2.093-2.093
				c0-0.883-0.548-1.634-1.321-1.942l0.034-0.178c0.087,0.011,0.172,0.027,0.262,0.027c1.156,0,2.093-0.937,2.093-2.094
				c0-0.975-0.67-1.788-1.572-2.021l0.027-0.146c0.167,0.043,0.34,0.073,0.521,0.073c1.156,0,2.093-0.937,2.093-2.093
				c0-1.067-0.8-1.937-1.831-2.067l0.034-0.178C227.598,595.254,227.857,595.31,228.131,595.31z"/>
		</g>
		<g>
			<g>
				<path class="challenges-browser-st1" d="M241.648,606.668h-1.582v-13.676h1.582V606.668z"/>
				<path class="challenges-browser-st1" d="M244.35,594.406c0-0.352,0.089-0.605,0.268-0.764s0.4-0.238,0.664-0.238c0.246,0,0.461,0.08,0.646,0.238
					c0.184,0.158,0.276,0.412,0.276,0.764c0,0.346-0.093,0.602-0.276,0.766c-0.186,0.164-0.4,0.246-0.646,0.246
					c-0.264,0-0.485-0.082-0.664-0.246S244.35,594.752,244.35,594.406z M246.055,606.668h-1.582v-9.65h1.582V606.668z"/>
				<path class="challenges-browser-st1" d="M250.444,601.701l0.536-0.686l0.615-0.738l3.085-3.26h1.846l-3.902,4.121l4.175,5.529h-1.907l-3.349-4.5
					l-1.099,0.957v3.543h-1.564v-13.676h1.564v7.145l-0.07,1.564h0.07L250.444,601.701L250.444,601.701z"/>
				<path class="challenges-browser-st1" d="M262.365,606.844c-1.447,0-2.583-0.438-3.405-1.314c-0.824-0.876-1.235-2.082-1.235-3.617
					c0-1.547,0.384-2.778,1.151-3.695s1.805-1.375,3.111-1.375c1.213,0,2.18,0.391,2.9,1.173s1.081,1.841,1.081,3.177v0.959h-6.609
					c0.029,1.096,0.308,1.928,0.835,2.496s1.274,0.852,2.241,0.852c0.516,0,1.005-0.045,1.468-0.136
					c0.463-0.091,1.005-0.269,1.626-0.532v1.389c-0.533,0.229-1.034,0.391-1.503,0.484S263.004,606.844,262.365,606.844z
					 M261.97,598.133c-0.756,0-1.354,0.244-1.793,0.73c-0.439,0.486-0.7,1.162-0.782,2.029h4.913
					c-0.012-0.902-0.22-1.588-0.624-2.057S262.708,598.133,261.97,598.133z"/>
				<path class="challenges-browser-st1" d="M284.898,606.668v-6.215c0-1.523-0.653-2.285-1.96-2.285c-0.896,0-1.556,0.262-1.978,0.783
					s-0.633,1.318-0.633,2.391v5.326h-1.573v-6.215c0-0.762-0.16-1.332-0.479-1.713c-0.32-0.381-0.819-0.572-1.499-0.572
					c-0.891,0-1.542,0.273-1.956,0.818c-0.412,0.545-0.619,1.438-0.619,2.68v5.002h-1.582v-9.65h1.274l0.237,1.318h0.088
					c0.275-0.469,0.664-0.836,1.164-1.1c0.502-0.264,1.062-0.395,1.684-0.395c1.512,0,2.496,0.539,2.953,1.617h0.088
					c0.311-0.516,0.734-0.914,1.27-1.195c0.537-0.281,1.145-0.422,1.824-0.422c1.09,0,1.905,0.281,2.447,0.844
					s0.813,1.461,0.813,2.697v6.285L284.898,606.668L284.898,606.668z"/>
				<path class="challenges-browser-st1" d="M293.321,606.844c-1.447,0-2.583-0.438-3.405-1.314c-0.824-0.876-1.235-2.082-1.235-3.617
					c0-1.547,0.384-2.778,1.151-3.695s1.805-1.375,3.111-1.375c1.213,0,2.18,0.391,2.9,1.173s1.081,1.841,1.081,3.177v0.959h-6.609
					c0.029,1.096,0.308,1.928,0.835,2.496s1.274,0.852,2.241,0.852c0.516,0,1.005-0.045,1.468-0.136
					c0.463-0.091,1.005-0.269,1.626-0.532v1.389c-0.533,0.229-1.034,0.391-1.503,0.484S293.96,606.844,293.321,606.844z
					 M292.926,598.133c-0.756,0-1.354,0.244-1.793,0.73c-0.439,0.486-0.7,1.162-0.782,2.029h4.913
					c-0.012-0.902-0.22-1.588-0.624-2.057S293.664,598.133,292.926,598.133z"/>
				<path class="challenges-browser-st1" d="M300.233,605.691c0-0.223,0.029-0.411,0.088-0.566c0.059-0.155,0.138-0.281,0.237-0.378
					s0.217-0.167,0.352-0.211s0.281-0.065,0.439-0.065c0.152,0,0.297,0.021,0.436,0.065c0.137,0.044,0.256,0.114,0.355,0.211
					s0.179,0.223,0.237,0.378c0.058,0.155,0.088,0.344,0.088,0.566c0,0.217-0.029,0.403-0.088,0.559
					c-0.059,0.156-0.138,0.283-0.237,0.383s-0.219,0.172-0.355,0.219c-0.139,0.047-0.283,0.07-0.436,0.07
					c-0.158,0-0.305-0.023-0.439-0.07s-0.252-0.119-0.352-0.219c-0.1-0.1-0.179-0.228-0.237-0.383
					C300.263,606.095,300.233,605.908,300.233,605.691z M301.895,603.029h-1.063l-0.448-9.211h1.96L301.895,603.029z"/>
			</g>
		</g>
	</g>
</g>
</svg>
