<?xml version="1.0" encoding="utf-8"?>
<!-- Generator: Adobe Illustrator 19.1.0, SVG Export Plug-In . SVG Version: 6.00 Build 0)  -->
<svg version="1.1" id="Layer_1" xmlns="http://www.w3.org/2000/svg" xmlns:xlink="http://www.w3.org/1999/xlink" x="0px" y="0px"
	 viewBox="0 0 418.4 364" style="enable-background:new 0 0 418.4 364;" xml:space="preserve">
<style type="text/css">
	.st0{fill:none;stroke:#FFFFFF;stroke-miterlimit:10;}
	.st1{fill:none;stroke:#504D50;stroke-width:0.9903;stroke-miterlimit:10;}
	.st2{fill:#FFFFFF;}
	.st3{fill:#F272AA;stroke:#FFFFFF;stroke-miterlimit:10;}
	.st4{opacity:0.97;}
	.st5{fill:#F2F0F0;}
	.st6{fill:none;stroke:#F2F0F0;stroke-miterlimit:10;}
	.st7{fill:#7AC442;stroke:#FFFFFF;stroke-miterlimit:10;}
	.st8{fill:#F6F4F4;}
	.st9{fill:#E8212D;stroke:#FFFFFF;stroke-miterlimit:10;}
	.st10{opacity:0.85;fill:#F9F7F7;stroke:#FFFFFF;stroke-miterlimit:10;}
	.st11{fill:#504D50;}
	.st12{fill:#4F4C4F;stroke:#FFFFFF;stroke-miterlimit:10;}
	.st13{fill:#7AC743;}
	.st14{fill:#EA4130;}
	.st15{fill:none;stroke:#4F4C4F;stroke-linecap:square;stroke-linejoin:bevel;stroke-miterlimit:10;}
	.st16{fill-rule:evenodd;clip-rule:evenodd;fill:none;stroke:#14ABE1;stroke-width:3;stroke-linecap:round;stroke-miterlimit:10;}
	.st17{opacity:0;}
	.st18{fill:#FF1D25;stroke:#FFFFFF;stroke-miterlimit:10;}
	.st19{clip-path:url(#SVGID_4_);}
	.st20{fill:#7AC743;stroke:#FFFFFF;stroke-miterlimit:10;}
	.st21{fill:url(#);}
	.st22{fill:#7AC743;stroke:#FFFFFF;stroke-linecap:round;stroke-linejoin:round;stroke-miterlimit:10;}
	.st23{fill:#7AC743;stroke:#FFFFFF;stroke-width:0.9071;stroke-miterlimit:10;}
	.st24{fill:none;stroke:#FFFFFF;stroke-linecap:round;stroke-linejoin:round;}
	.st25{fill:#7AC743;stroke:#FFFFFF;stroke-linecap:round;stroke-linejoin:round;}
</style>
<g>
	<g>
		<path class="st0" d="M411.9,363.5H6.5c-3.3,0-6-2.7-6-6V6.5c0-3.3,2.7-6,6-6h405.4c3.3,0,6,2.7,6,6v351
			C417.9,360.8,415.2,363.5,411.9,363.5z"/>
		<path class="st0" d="M189.2,110.9H26.5c-3.3,0-6-2.7-6-6V68.2c0-3.3,2.7-6,6-6h162.7c3.3,0,6,2.7,6,6v36.7
			C195.2,108.2,192.5,110.9,189.2,110.9z"/>
		<path class="st0" d="M391.9,179.5H229.2c-3.3,0-6-2.7-6-6v-36.7c0-3.3,2.7-6,6-6h162.7c3.3,0,6,2.7,6,6v36.7
			C397.9,176.8,395.2,179.5,391.9,179.5z"/>
	</g>
	<line class="st0" x1="0.5" y1="30.5" x2="417.9" y2="30.5"/>
	<g>
		<circle class="st0" cx="18.8" cy="15.5" r="8.3"/>
		<circle class="st0" cx="39.4" cy="15.5" r="8.3"/>
		<circle class="st0" cx="60" cy="15.5" r="8.3"/>
	</g>
</g>
</svg>
