<?xml version="1.0" encoding="utf-8"?>
<svg version="1.1" id="download-laptop" xmlns="http://www.w3.org/2000/svg" xmlns:xlink="http://www.w3.org/1999/xlink" x="0px" y="0px"
	 viewBox="-34.229 206.598 547.2 381.6" style="enable-background:new -34.229 206.598 547.2 381.6;" xml:space="preserve">
<g>
	<path class="download-st2" d="M471.246,515.136H7.495V216.291c0-3.3,2.7-6,6-6h451.751c3.3,0,6,2.7,6,6V515.136z"/>
	<path class="download-st2" d="M445.246,495.136H33.495c-3.3,0-6-2.7-6-6V236.291c0-3.3,2.7-6,6-6h411.751c3.3,0,6,2.7,6,6v252.845
		C451.246,492.436,448.546,495.136,445.246,495.136z"/>
	<path class="download-st2" d="M7.495,515.136h463.751l40,46.832c0,1.396-2.7,2.537-6,2.537H-26.505c-3.3,0-6-1.142-6-2.537L7.495,515.136z"
		/>
	<path class="download-st2" d="M505.246,564.506H-26.505c-3.3,0-6-1.142-6-2.537v16.537c0,3.314,2.686,6,6,6h531.751c3.314,0,6-2.686,6-6
		v-16.537C511.246,563.364,508.546,564.506,505.246,564.506z"/>
</g>
</svg>
