<?xml version="1.0" encoding="utf-8"?>
<svg version="1.1" id="life-scene" xmlns="http://www.w3.org/2000/svg" xmlns:xlink="http://www.w3.org/1999/xlink" x="0px" y="0px"
	 viewBox="237 50.949 1085 693.051" style="enable-background:new 237 50.949 1085 693.051;" xml:space="preserve">
<style type="text/css">
	.life-st0{clip-path:url(#SVGID_2_);}
	.life-st1{fill:none;}
	.life-st2{fill:none;stroke:#FFFFFF;stroke-miterlimit:10;}
	.life-st3{fill:none;stroke:#FFFFFF;stroke-linecap:round;stroke-linejoin:round;stroke-miterlimit:10;}
	.life-st4{fill:none;stroke:#FFFFFF;stroke-width:0.9071;stroke-miterlimit:10;}
	.life-st5{fill:none;stroke:#FFFFFF;stroke-linecap:round;stroke-linejoin:round;}
</style>
<g>
	<g>
		<defs>
			<rect id="SVGID_1_" x="237" y="50.949" width="1085" height="693.051"/>
		</defs>
		<clipPath id="SVGID_2_">
			<use xlink:href="#SVGID_1_"  style="overflow:visible;"/>
		</clipPath>
		<g class="life-st0">
			<rect x="237.377" y="50.949" class="life-st1" width="1086.604" height="696.052"/>
			<path class="life-st2" d="M458.381,197.838c-3.27,0-6.406,0.563-9.326,1.587c-4.71-8.978-14.116-15.107-24.958-15.107
				c-12.784,0-23.573,8.518-27.017,20.186c-1.629-0.383-3.325-0.592-5.071-0.592c-9.798,0-18.098,6.381-20.992,15.211
				c-0.135-0.003-0.268-0.01-0.404-0.01c-9.684,0-17.535,7.85-17.535,17.535c0,9.684,7.85,17.535,17.535,17.535h35.606h52.163
				c15.559,0,28.173-12.613,28.173-28.173S473.94,197.838,458.381,197.838z"/>
			<g>
				<circle class="life-st2" cx="1144.464" cy="218.762" r="39.561"/>
				<line class="life-st2" x1="1144.464" y1="157.523" x2="1144.464" y2="170.49"/>
				<line class="life-st2" x1="1113.845" y1="165.728" x2="1120.328" y2="176.958"/>
				<line class="life-st2" x1="1091.43" y1="188.143" x2="1102.659" y2="194.626"/>
				<line class="life-st2" x1="1083.225" y1="218.762" x2="1096.192" y2="218.762"/>
				<line class="life-st2" x1="1091.43" y1="249.382" x2="1102.659" y2="242.898"/>
				<line class="life-st2" x1="1113.845" y1="271.797" x2="1120.328" y2="260.567"/>
				<line class="life-st2" x1="1144.464" y1="280.001" x2="1144.464" y2="267.034"/>
				<line class="life-st2" x1="1175.084" y1="271.797" x2="1168.6" y2="260.567"/>
				<line class="life-st2" x1="1197.499" y1="249.382" x2="1186.269" y2="242.898"/>
				<line class="life-st2" x1="1205.703" y1="218.762" x2="1192.736" y2="218.762"/>
				<line class="life-st2" x1="1197.499" y1="188.143" x2="1186.269" y2="194.626"/>
				<line class="life-st2" x1="1175.084" y1="165.728" x2="1168.6" y2="176.958"/>
			</g>
			<path class="life-st2" d="M301.072,420.716c42.1,12.547,113.941,16.233,144.526-32.861c9.182-14.739,17.095-31.658,27.084-44.909
				c9.989-13.251,22.861-22.745,35.507-19.04c16.215,4.75,30.392,30.221,46.333,23.418c11.314-4.828,19.093-25.11,30.767-26.141
				c12.389-1.095,21.591,22.763,33.998,22.763c41.841,0,69.224-27.656,120.632-27.656c81.361,0,128.294,115.928,186.382,113.17"/>
			<g>
				<path class="life-st2" d="M944.045,202.352c-2.211,0-4.333,0.381-6.307,1.074c-3.186-6.072-9.547-10.217-16.881-10.217
					c-8.647,0-15.944,5.761-18.273,13.653c-1.102-0.259-2.249-0.4-3.43-0.4c-6.627,0-12.241,4.316-14.198,10.288
					c-0.091-0.002-0.181-0.007-0.273-0.007c-6.55,0-11.86,5.31-11.86,11.86s5.31,11.86,11.86,11.86h24.082h35.281
					c10.524,0,19.055-8.531,19.055-19.055S954.569,202.352,944.045,202.352z"/>
				<path class="life-st2" d="M892.871,222.124c-1.505,0-2.948,0.259-4.292,0.731c-2.168-4.132-6.497-6.953-11.487-6.953
					c-5.884,0-10.85,3.921-12.435,9.291c-0.75-0.176-1.531-0.272-2.334-0.272c-4.51,0-8.33,2.937-9.662,7.001
					c-0.062-0.001-0.123-0.005-0.186-0.005c-4.457,0-8.07,3.613-8.07,8.07c0,4.457,3.613,8.07,8.07,8.07h16.388h24.008
					c7.161,0,12.967-5.805,12.967-12.967C905.838,227.93,900.032,222.124,892.871,222.124z"/>
			</g>
			<g>
				<path class="life-st2" d="M709.649,174.801c-1.505,0-2.948,0.259-4.292,0.731c-2.168-4.132-6.497-6.953-11.487-6.953
					c-5.884,0-10.85,3.921-12.435,9.291c-0.75-0.176-1.531-0.272-2.334-0.272c-4.51,0-8.33,2.937-9.662,7.001
					c-0.062-0.001-0.123-0.005-0.186-0.005c-4.457,0-8.07,3.613-8.07,8.07s3.613,8.07,8.07,8.07h16.388h24.008
					c7.161,0,12.967-5.805,12.967-12.967C722.615,180.606,716.81,174.801,709.649,174.801z"/>
			</g>
			<g>
				<path class="life-st2" d="M346.143,315.105c-1.505,0-2.948,0.259-4.292,0.731c-2.168-4.132-6.497-6.953-11.487-6.953
					c-5.884,0-10.85,3.921-12.435,9.291c-0.75-0.176-1.531-0.272-2.334-0.272c-4.51,0-8.33,2.937-9.662,7.001
					c-0.062-0.001-0.123-0.005-0.186-0.005c-4.457,0-8.07,3.613-8.07,8.07s3.613,8.07,8.07,8.07h16.388h24.008
					c7.161,0,12.967-5.805,12.967-12.967S353.304,315.105,346.143,315.105z"/>
			</g>
			<rect x="181.575" y="417.35" class="life-st2" width="1217.154" height="207.01"/>
			<rect x="181.575" y="591.008" class="life-st2" width="1217.154" height="26.335"/>
			<g>
				<path class="life-st3" d="M1201.902,527.186c-21.882-45.628-2.632-100.355,42.995-122.237
					c45.628-21.882,100.355-2.632,122.237,42.996l-11.016,5.283l-27.089-14.107l7.812,23.352l-22.031,10.565l-28.297-23.689
					l6.266,34.255l-30.293,14.527l-22.902-19.502l3.625,28.747L1201.902,527.186z"/>
				<path class="life-st3" d="M1197.535,516.957c21.112-45.989,0.945-100.385-45.043-121.497
					c-45.989-21.112-100.385-0.945-121.497,45.044l16.654,7.645l19.276-12.707l-2.622,20.352l33.308,15.291l23.808-21.692
					l-1.603,31.886l13.878,6.371l23.025-6.233l-0.82,16.427L1197.535,516.957z"/>
				<path class="life-st3" d="M1199.641,519.633c9.618-49.681,57.689-82.158,107.37-72.54s82.158,57.689,72.54,107.37l-14.993-2.902
					l-3.094-16.154l-14.896,12.671l-14.993-2.902l-11.025-39.465l-12.963,34.821l-32.984-6.385l-7.35-26.31l-22.635,20.505
					L1199.641,519.633z"/>
				<path class="life-st3" d="M1201.762,515.617c-10.101-49.585-58.486-81.593-108.071-71.492
					c-49.585,10.101-81.593,58.486-71.492,108.071l17.956-3.658l8.923-17.402l9.034,13.744l35.913-7.316l0.499-28.154l23.443,23.276
					l14.964-3.048l14.908-18.622l9.034,13.744L1201.762,515.617z"/>
				<path class="life-st3" d="M1185.299,522.612v83.669c0,33.736,27.348,61.084,61.084,61.084h274.876v-30.542h-274.876
					c-16.868,0-30.542-13.674-30.542-30.542v-83.669H1185.299L1185.299,522.612z"/>
				<g>
					<circle class="life-st4" cx="1188.884" cy="528.5" r="14.661"/>
					<circle class="life-st4" cx="1212.256" cy="529.052" r="14.661"/>
					<circle class="life-st4" cx="1201.371" cy="507.319" r="14.661"/>
				</g>
			</g>
			<g>
				<path class="life-st5" d="M541.156,494.857c0,0,8.112,0,8.112-8.112c0,8.112,8.112,8.112,8.112,8.112"/>
				<path class="life-st5" d="M524.933,494.857c0,0,8.112,0,8.112-8.112c0,8.112,8.112,8.112,8.112,8.112"/>
				<path class="life-st5" d="M508.709,494.857c0,0,8.112,0,8.112-8.112c0,8.112,8.112,8.112,8.112,8.112"/>
				<path class="life-st5" d="M492.486,494.857c0,0,8.112,0,8.112-8.112c0,8.112,8.112,8.112,8.112,8.112"/>
			</g>
			<g>
				<path class="life-st5" d="M945.406,480.537c0,0,8.112,0,8.112-8.112c0,8.112,8.112,8.112,8.112,8.112"/>
				<path class="life-st5" d="M929.182,480.537c0,0,8.112,0,8.112-8.112c0,8.112,8.112,8.112,8.112,8.112"/>
				<path class="life-st5" d="M912.959,480.537c0,0,8.112,0,8.112-8.112c0,8.112,8.112,8.112,8.112,8.112"/>
				<path class="life-st5" d="M896.736,480.537c0,0,8.112,0,8.112-8.112c0,8.112,8.112,8.112,8.112,8.112"/>
			</g>
			<g>
				<path class="life-st5" d="M706.889,456.484c0,0,8.112,0,8.112-8.112c0,8.112,8.112,8.112,8.112,8.112"/>
				<path class="life-st5" d="M690.666,456.484c0,0,8.112,0,8.112-8.112c0,8.112,8.112,8.112,8.112,8.112"/>
				<path class="life-st5" d="M674.443,456.484c0,0,8.112,0,8.112-8.112c0,8.112,8.112,8.112,8.112,8.112"/>
				<path class="life-st5" d="M658.219,456.484c0,0,8.112,0,8.112-8.112c0,8.112,8.112,8.112,8.112,8.112"/>
			</g>
			<g>
				<path class="life-st5" d="M383.45,456.484c0,0,8.112,0,8.112-8.112c0,8.112,8.112,8.112,8.112,8.112"/>
				<path class="life-st5" d="M367.226,456.484c0,0,8.112,0,8.112-8.112c0,8.112,8.112,8.112,8.112,8.112"/>
			</g>
			<g>
				<path class="life-st5" d="M315.915,516.56c0,0,8.112,0,8.112-8.112c0,8.112,8.112,8.112,8.112,8.112"/>
				<path class="life-st5" d="M299.691,516.56c0,0,8.112,0,8.112-8.112c0,8.112,8.112,8.112,8.112,8.112"/>
				<path class="life-st5" d="M283.468,516.56c0,0,8.112,0,8.112-8.112c0,8.112,8.112,8.112,8.112,8.112"/>
			</g>
			<g>
				<path class="life-st5" d="M815.747,516.56c0,0,8.112,0,8.112-8.112c0,8.112,8.112,8.112,8.112,8.112"/>
				<path class="life-st5" d="M799.523,516.56c0,0,8.112,0,8.112-8.112c0,8.112,8.112,8.112,8.112,8.112"/>
				<path class="life-st5" d="M783.3,516.56c0,0,8.112,0,8.112-8.112c0,8.112,8.112,8.112,8.112,8.112"/>
			</g>
			<g>
				<g>
					<g>
						<g>
							<g>
								<polyline class="life-st5" points="764.306,606.149 764.306,746.988 653.449,746.988 653.449,614.463 								"/>
								<path class="life-st5" d="M711.649,610.661v-22.172c0-6.122-4.963-11.086-11.086-11.086s-11.086,4.963-11.086,11.086v22.172"/>
								<path class="life-st5" d="M689.477,613.432v-19.4c0-5.357-4.343-9.7-9.7-9.7s-9.7,4.343-9.7,9.7v19.4"/>
								<path class="life-st5" d="M670.078,616.204v-16.577c0-4.577-3.711-8.288-8.288-8.288c-4.577,0-8.288,3.711-8.288,8.288v16.577"/>
								<path class="life-st5" d="M736.591,607.535v-24.943c0-6.888-5.584-12.471-12.471-12.471c-6.888,0-12.471,5.584-12.471,12.471
									v24.943"/>
								<path class="life-st5" d="M764.306,606.149v-27.714c0-7.653-6.204-13.857-13.857-13.857s-13.857,6.204-13.857,13.857v27.714"/>
								<path class="life-st5" d="M695.02,588.488c0-3.057,2.486-5.543,5.543-5.543s5.543,2.486,5.543,5.543H695.02z"/>
								<path class="life-st5" d="M675.62,594.032c0-2.292,1.865-4.157,4.157-4.157s4.157,1.865,4.157,4.157H675.62z"/>
								<path class="life-st5" d="M659.044,599.627c0-1.514,1.231-2.746,2.744-2.746c1.514,0,2.746,1.231,2.746,2.746H659.044z"/>
								<path class="life-st5" d="M717.191,582.592c0-3.82,3.108-6.929,6.929-6.929c3.82,0,6.929,3.108,6.929,6.929H717.191z"/>
								<path class="life-st5" d="M742.134,578.435c0-4.585,3.73-8.314,8.314-8.314c4.585,0,8.314,3.729,8.314,8.314H742.134z"/>
							</g>
						</g>
						<path class="life-st3" d="M736.591,609.965v54.478c0,0,90.706,206.475,0,206.475c0,0,38.055-43.492,38.055-130.477
							S736.591,609.965,736.591,609.965v-2.431"/>
						<path class="life-st3" d="M736.591,609.965v54.478c0,0-205.224,206.476,0,206.476c0,0-86.101-43.492-86.101-130.477
							S736.591,609.965,736.591,609.965v-2.431"/>
					</g>
					<g>
						<g>
							<g>
								<polyline class="life-st5" points="797.052,606.149 797.052,746.988 907.909,746.988 907.909,614.463 								"/>
								<path class="life-st5" d="M849.709,610.661v-22.172c0-6.122,4.963-11.086,11.086-11.086s11.086,4.963,11.086,11.086v22.172"/>
								<path class="life-st5" d="M871.881,613.432v-19.4c0-5.357,4.343-9.7,9.7-9.7s9.7,4.343,9.7,9.7v19.4"/>
								<path class="life-st5" d="M891.28,616.204v-16.577c0-4.577,3.711-8.288,8.288-8.288s8.288,3.711,8.288,8.288v16.577"/>
								<path class="life-st5" d="M824.767,607.535v-24.943c0-6.888,5.584-12.471,12.471-12.471s12.471,5.584,12.471,12.471v24.943"/>
								<path class="life-st5" d="M797.052,606.149v-27.714c0-7.653,6.204-13.857,13.857-13.857s13.857,6.204,13.857,13.857v27.714"/>
								<path class="life-st5" d="M866.338,588.488c0-3.057-2.486-5.543-5.543-5.543s-5.543,2.486-5.543,5.543H866.338z"/>
								<path class="life-st5" d="M885.738,594.032c0-2.292-1.865-4.157-4.157-4.157s-4.157,1.865-4.157,4.157H885.738z"/>
								<path class="life-st5" d="M902.314,599.627c0-1.514-1.231-2.746-2.744-2.746c-1.514,0-2.746,1.231-2.746,2.746H902.314z"/>
								<path class="life-st5" d="M844.167,582.592c0-3.82-3.108-6.929-6.929-6.929c-3.82,0-6.929,3.108-6.929,6.929H844.167z"/>
								<path class="life-st5" d="M819.224,578.435c0-4.585-3.729-8.314-8.314-8.314s-8.314,3.729-8.314,8.314H819.224z"/>
							</g>
						</g>
						<path class="life-st3" d="M824.767,609.965v54.478c0,0-90.706,206.475,0,206.475c0,0-38.055-43.492-38.055-130.477
							S824.767,609.965,824.767,609.965v-2.431"/>
						<path class="life-st3" d="M824.767,609.965v54.478c0,0,205.224,206.476,0,206.476c0,0,86.101-43.492,86.101-130.477
							S824.767,609.965,824.767,609.965v-2.431"/>
					</g>
				</g>
				<g>
					<path class="life-st2" d="M534.873,615.876v-23.099c0,0-28.408,1.36-28.408,35.234h28.408V615.876z"/>
					<g>

							<rect x="573.336" y="573.009" transform="matrix(-0.9725 -0.2329 0.2329 -0.9725 999.5522 1269.6157)" class="life-st2" width="2.789" height="5.577"/>
						<g>

								<rect x="538.502" y="621.628" transform="matrix(-0.2329 0.9725 -0.9725 -0.2329 1300.2084 219.3369)" class="life-st2" width="50.194" height="1.673"/>
						</g>
						<path class="life-st2" d="M544.263,583.396c-1.076,4.493,10.194,11.043,25.171,14.629c14.978,3.586,27.991,2.851,29.067-1.643
							l-22.592-18.977c-0.807-0.677-1.885-0.936-2.911-0.697L544.263,583.396z"/>
					</g>
					<path class="life-st2" d="M550.541,610.312c-6.721,0-13.036,0-19.756,0c-4.327,0-10.134-0.467-8.632,4.179
						c2.777,8.586,4.095,18.071,3.651,27.132c-0.438,8.931-5.88,16.683-7.294,25.569c-1.721,10.812-0.311,22.505,6.787,31.231
						c6.766,8.318,18.219,13.706,21.645,24.567c1.494,4.736,0.682,15.439,0.682,15.439s-1.031,8.664-3.105,12.341
						c-2.391,4.238-10.441,7.016-13.381,7.91c-1.345,0.409-2.643,0.957-3.843,1.69c-2.004,1.223-4.218,3.173-3.3,5.486
						c0.95,2.394,7.863,2.855,7.863,2.855s14.989,1.255,22.466,1.325h-0.227c7.477-0.07,22.466-1.325,22.466-1.325
						s6.913-0.461,7.863-2.855c0.918-2.313-1.296-4.263-3.3-5.486c-1.2-0.732-2.498-1.281-3.843-1.69
						c-2.94-0.894-10.99-3.672-13.381-7.91c-2.074-3.677-3.105-12.341-3.105-12.341s-0.812-10.703,0.682-15.439
						c3.426-10.862,14.879-16.25,21.645-24.567c7.098-8.726,8.508-20.419,6.787-31.231c-1.414-8.885-6.856-16.638-7.294-25.569
						c-0.445-9.062,0.874-18.547,3.651-27.132c1.503-4.646-4.305-4.179-8.632-4.179c-6.721,0-13.036,0-19.756,0L550.541,610.312
						L550.541,610.312z"/>
					<line class="life-st2" x1="584.784" y1="619.718" x2="523.635" y2="619.718"/>
					<line class="life-st2" x1="562.476" y1="720.481" x2="545.943" y2="720.481"/>
					<path class="life-st2" d="M534.873,595.686c0,0-25.414,3.351-25.414,32.324"/>
					<path class="life-st2" d="M574.139,629.134c-0.185,1.287-0.369,2.573-0.554,3.86c-0.393,2.735,0.131,6.558,0.975,9.151"/>
					<path class="life-st2" d="M581.029,665.357c5.109,12.664-1.91,28.228-12.376,34.468c-4.527,2.699-8.645,7.042-9.498,12.242"/>
				</g>
			</g>
		</g>
	</g>
</g>
</svg>
