<?xml version="1.0" encoding="utf-8"?>
<!-- Generator: Adobe Illustrator 19.1.0, SVG Export Plug-In . SVG Version: 6.00 Build 0)  -->
<svg version="1.1" id="Layer_1" xmlns="http://www.w3.org/2000/svg" xmlns:xlink="http://www.w3.org/1999/xlink" x="0px" y="0px"
	 viewBox="0 0 1085 693.1" style="enable-background:new 0 0 1085 693.1;" xml:space="preserve">
<style type="text/css">
	.st0{fill:none;}
	.st1{fill:#FFFFFF;}
	.st2{fill:none;stroke:#FFFFFF;stroke-miterlimit:10;}
	.st3{fill:none;stroke:#504D50;stroke-width:0.9903;stroke-miterlimit:10;}
	.st4{fill:#F272AA;stroke:#FFFFFF;stroke-miterlimit:10;}
	.st5{opacity:0.97;}
	.st6{fill:#F2F0F0;}
	.st7{fill:none;stroke:#F2F0F0;stroke-miterlimit:10;}
	.st8{fill:#7AC442;stroke:#FFFFFF;stroke-miterlimit:10;}
	.st9{fill:#F6F4F4;}
	.st10{fill:#E8212D;stroke:#FFFFFF;stroke-miterlimit:10;}
	.st11{opacity:0.85;fill:#F9F7F7;stroke:#FFFFFF;stroke-miterlimit:10;}
	.st12{fill:#504D50;}
	.st13{fill:#4F4C4F;stroke:#FFFFFF;stroke-miterlimit:10;}
	.st14{fill:#7AC743;}
	.st15{fill:#EA4130;}
	.st16{fill:none;stroke:#4F4C4F;stroke-linecap:square;stroke-linejoin:bevel;stroke-miterlimit:10;}
	.st17{fill-rule:evenodd;clip-rule:evenodd;fill:none;stroke:#14ABE1;stroke-width:3;stroke-linecap:round;stroke-miterlimit:10;}
	.st18{opacity:0;}
	.st19{fill:#FF1D25;stroke:#FFFFFF;stroke-miterlimit:10;}
	.st20{clip-path:url(#SVGID_4_);}
	.st21{fill:#7AC743;stroke:#FFFFFF;stroke-miterlimit:10;}
	.st22{fill:url(#SVGID_5_);}
	.st23{fill:#7AC743;stroke:#FFFFFF;stroke-linecap:round;stroke-linejoin:round;stroke-miterlimit:10;}
	.st24{fill:#7AC743;stroke:#FFFFFF;stroke-width:0.9071;stroke-miterlimit:10;}
	.st25{fill:none;stroke:#FFFFFF;stroke-linecap:round;stroke-linejoin:round;}
	.st26{fill:#7AC743;stroke:#FFFFFF;stroke-linecap:round;stroke-linejoin:round;}
</style>
<pattern  x="562.8" y="-3660.6" width="5" height="5" patternUnits="userSpaceOnUse" id="New_Pattern" viewBox="0.5 -5.5 5 5" style="overflow:visible;">
	<g>
		<polygon class="st0" points="0.5,-5.5 5.5,-5.5 5.5,-0.5 0.5,-0.5 		"/>
		<g>
			<path class="st1" d="M6-0.5C6-0.2,5.8,0,5.5,0C5.2,0,5-0.2,5-0.5S5.2-1,5.5-1C5.8-1,6-0.8,6-0.5z"/>
		</g>
		<g>
			<path class="st1" d="M1-0.5C1-0.2,0.8,0,0.5,0S0-0.2,0-0.5S0.2-1,0.5-1S1-0.8,1-0.5z"/>
		</g>
		<g>
			<path class="st1" d="M6-5.5C6-5.2,5.8-5,5.5-5C5.2-5,5-5.2,5-5.5S5.2-6,5.5-6C5.8-6,6-5.8,6-5.5z"/>
		</g>
		<g>
			<path class="st1" d="M3.5-3c0,0.3-0.2,0.5-0.5,0.5S2.5-2.7,2.5-3S2.7-3.5,3-3.5S3.5-3.3,3.5-3z"/>
			<path class="st1" d="M1-5.5C1-5.2,0.8-5,0.5-5S0-5.2,0-5.5S0.2-6,0.5-6S1-5.8,1-5.5z"/>
		</g>
	</g>
</pattern>
<g>
	<defs>
		<rect id="SVGID_3_" width="1085" height="693.1"/>
	</defs>
	<clipPath id="SVGID_2_">
		<use xlink:href="#SVGID_3_"  style="overflow:visible;"/>
	</clipPath>
	<g style="clip-path:url(#SVGID_2_);">
		<rect x="0.4" class="st14" width="1086.6" height="696.1"/>
		<path class="st2" d="M221.4,146.9c-3.3,0-6.4,0.6-9.3,1.6c-4.7-9-14.1-15.1-25-15.1c-12.8,0-23.6,8.5-27,20.2
			c-1.6-0.4-3.3-0.6-5.1-0.6c-9.8,0-18.1,6.4-21,15.2c-0.1,0-0.3,0-0.4,0c-9.7,0-17.5,7.9-17.5,17.5c0,9.7,7.9,17.5,17.5,17.5h35.6
			h52.2c15.6,0,28.2-12.6,28.2-28.2S236.9,146.9,221.4,146.9z"/>
		<g>
			<circle class="st2" cx="907.5" cy="167.8" r="39.6"/>
			<line class="st2" x1="907.5" y1="106.6" x2="907.5" y2="119.5"/>
			<line class="st2" x1="876.8" y1="114.8" x2="883.3" y2="126"/>
			<line class="st2" x1="854.4" y1="137.2" x2="865.7" y2="143.7"/>
			<line class="st2" x1="846.2" y1="167.8" x2="859.2" y2="167.8"/>
			<line class="st2" x1="854.4" y1="198.4" x2="865.7" y2="191.9"/>
			<line class="st2" x1="876.8" y1="220.8" x2="883.3" y2="209.6"/>
			<line class="st2" x1="907.5" y1="229.1" x2="907.5" y2="216.1"/>
			<line class="st2" x1="938.1" y1="220.8" x2="931.6" y2="209.6"/>
			<line class="st2" x1="960.5" y1="198.4" x2="949.3" y2="191.9"/>
			<line class="st2" x1="968.7" y1="167.8" x2="955.7" y2="167.8"/>
			<line class="st2" x1="960.5" y1="137.2" x2="949.3" y2="143.7"/>
			<line class="st2" x1="938.1" y1="114.8" x2="931.6" y2="126"/>
		</g>
		<path class="st21" d="M64.1,369.8c42.1,12.5,113.9,16.2,144.5-32.9c9.2-14.7,17.1-31.7,27.1-44.9s22.9-22.7,35.5-19
			c16.2,4.7,30.4,30.2,46.3,23.4c11.3-4.8,19.1-25.1,30.8-26.1c12.4-1.1,21.6,22.8,34,22.8c41.8,0,69.2-27.7,120.6-27.7
			c81.4,0,128.3,115.9,186.4,113.2"/>
		<g>
			<path class="st2" d="M707,151.4c-2.2,0-4.3,0.4-6.3,1.1c-3.2-6.1-9.5-10.2-16.9-10.2c-8.6,0-15.9,5.8-18.3,13.7
				c-1.1-0.3-2.2-0.4-3.4-0.4c-6.6,0-12.2,4.3-14.2,10.3c-0.1,0-0.2,0-0.3,0c-6.5,0-11.9,5.3-11.9,11.9c0,6.5,5.3,11.9,11.9,11.9
				h24.1H707c10.5,0,19.1-8.5,19.1-19.1S717.6,151.4,707,151.4z"/>
			<path class="st21" d="M655.9,171.2c-1.5,0-2.9,0.3-4.3,0.7c-2.2-4.1-6.5-7-11.5-7c-5.9,0-10.8,3.9-12.4,9.3
				c-0.7-0.2-1.5-0.3-2.3-0.3c-4.5,0-8.3,2.9-9.7,7c-0.1,0-0.1,0-0.2,0c-4.5,0-8.1,3.6-8.1,8.1c0,4.5,3.6,8.1,8.1,8.1h16.4h24
				c7.2,0,13-5.8,13-13C668.8,177,663,171.2,655.9,171.2z"/>
		</g>
		<g>
			<path class="st21" d="M472.6,123.9c-1.5,0-2.9,0.3-4.3,0.7c-2.2-4.1-6.5-7-11.5-7c-5.9,0-10.8,3.9-12.4,9.3
				c-0.7-0.2-1.5-0.3-2.3-0.3c-4.5,0-8.3,2.9-9.7,7c-0.1,0-0.1,0-0.2,0c-4.5,0-8.1,3.6-8.1,8.1c0,4.5,3.6,8.1,8.1,8.1h16.4h24
				c7.2,0,13-5.8,13-13C485.6,129.7,479.8,123.9,472.6,123.9z"/>
		</g>
		<g>
			<path class="st21" d="M109.1,264.2c-1.5,0-2.9,0.3-4.3,0.7c-2.2-4.1-6.5-7-11.5-7c-5.9,0-10.8,3.9-12.4,9.3
				c-0.7-0.2-1.5-0.3-2.3-0.3c-4.5,0-8.3,2.9-9.7,7c-0.1,0-0.1,0-0.2,0c-4.5,0-8.1,3.6-8.1,8.1c0,4.5,3.6,8.1,8.1,8.1h16.4h24
				c7.2,0,13-5.8,13-13S116.3,264.2,109.1,264.2z"/>
		</g>
		<pattern  id="SVGID_4_" xlink:href="#New_Pattern" patternTransform="matrix(1.1319 0 0 1.1319 1107.6931 438.7954)">
		</pattern>
		<rect x="0.4" y="573.4" style="fill:url(#SVGID_4_);" width="1086.6" height="122.6"/>
		<rect x="-55.4" y="366.4" class="st21" width="1217.2" height="207"/>
		<rect x="-55.4" y="540.1" class="st2" width="1217.2" height="26.3"/>
		<g>
			<path class="st23" d="M964.9,476.2c-21.9-45.6-2.6-100.4,43-122.2c45.6-21.9,100.4-2.6,122.2,43l-11,5.3l-27.1-14.1l7.8,23.4
				l-22,10.6l-28.3-23.7l6.3,34.3l-30.3,14.5l-22.9-19.5l3.6,28.7L964.9,476.2z"/>
			<path class="st23" d="M960.5,466c21.1-46,0.9-100.4-45-121.5c-46-21.1-100.4-0.9-121.5,45l16.7,7.6l19.3-12.7l-2.6,20.4
				l33.3,15.3l23.8-21.7l-1.6,31.9l13.9,6.4l23-6.2l-0.8,16.4L960.5,466z"/>
			<path class="st23" d="M962.6,468.7c9.6-49.7,57.7-82.2,107.4-72.5s82.2,57.7,72.5,107.4l-15-2.9l-3.1-16.2l-14.9,12.7l-15-2.9
				l-11-39.5l-13,34.8l-33-6.4l-7.4-26.3l-22.6,20.5L962.6,468.7z"/>
			<path class="st23" d="M964.8,464.7c-10.1-49.6-58.5-81.6-108.1-71.5c-49.6,10.1-81.6,58.5-71.5,108.1l18-3.7l8.9-17.4l9,13.7
				l35.9-7.3l0.5-28.2l23.4,23.3l15-3l14.9-18.6l9,13.7L964.8,464.7z"/>
			<path class="st23" d="M948.3,471.7v83.7c0,33.7,27.3,61.1,61.1,61.1h274.9v-30.5h-274.9c-16.9,0-30.5-13.7-30.5-30.5v-83.7H948.3
				z"/>
			<g>
				<circle class="st24" cx="951.9" cy="477.6" r="14.7"/>
				<circle class="st24" cx="975.3" cy="478.1" r="14.7"/>
				<circle class="st24" cx="964.4" cy="456.4" r="14.7"/>
			</g>
		</g>
		<g>
			<path class="st25" d="M304.2,443.9c0,0,8.1,0,8.1-8.1c0,8.1,8.1,8.1,8.1,8.1"/>
			<path class="st25" d="M287.9,443.9c0,0,8.1,0,8.1-8.1c0,8.1,8.1,8.1,8.1,8.1"/>
			<path class="st25" d="M271.7,443.9c0,0,8.1,0,8.1-8.1c0,8.1,8.1,8.1,8.1,8.1"/>
			<path class="st25" d="M255.5,443.9c0,0,8.1,0,8.1-8.1c0,8.1,8.1,8.1,8.1,8.1"/>
		</g>
		<g>
			<path class="st25" d="M708.4,429.6c0,0,8.1,0,8.1-8.1c0,8.1,8.1,8.1,8.1,8.1"/>
			<path class="st25" d="M692.2,429.6c0,0,8.1,0,8.1-8.1c0,8.1,8.1,8.1,8.1,8.1"/>
			<path class="st25" d="M676,429.6c0,0,8.1,0,8.1-8.1c0,8.1,8.1,8.1,8.1,8.1"/>
			<path class="st25" d="M659.7,429.6c0,0,8.1,0,8.1-8.1c0,8.1,8.1,8.1,8.1,8.1"/>
		</g>
		<g>
			<path class="st25" d="M469.9,405.5c0,0,8.1,0,8.1-8.1c0,8.1,8.1,8.1,8.1,8.1"/>
			<path class="st25" d="M453.7,405.5c0,0,8.1,0,8.1-8.1c0,8.1,8.1,8.1,8.1,8.1"/>
			<path class="st25" d="M437.4,405.5c0,0,8.1,0,8.1-8.1c0,8.1,8.1,8.1,8.1,8.1"/>
			<path class="st25" d="M421.2,405.5c0,0,8.1,0,8.1-8.1c0,8.1,8.1,8.1,8.1,8.1"/>
		</g>
		<g>
			<path class="st25" d="M146.4,405.5c0,0,8.1,0,8.1-8.1c0,8.1,8.1,8.1,8.1,8.1"/>
			<path class="st25" d="M130.2,405.5c0,0,8.1,0,8.1-8.1c0,8.1,8.1,8.1,8.1,8.1"/>
		</g>
		<g>
			<path class="st25" d="M78.9,465.6c0,0,8.1,0,8.1-8.1c0,8.1,8.1,8.1,8.1,8.1"/>
			<path class="st25" d="M62.7,465.6c0,0,8.1,0,8.1-8.1c0,8.1,8.1,8.1,8.1,8.1"/>
			<path class="st25" d="M46.5,465.6c0,0,8.1,0,8.1-8.1c0,8.1,8.1,8.1,8.1,8.1"/>
		</g>
		<g>
			<path class="st25" d="M578.7,465.6c0,0,8.1,0,8.1-8.1c0,8.1,8.1,8.1,8.1,8.1"/>
			<path class="st25" d="M562.5,465.6c0,0,8.1,0,8.1-8.1c0,8.1,8.1,8.1,8.1,8.1"/>
			<path class="st25" d="M546.3,465.6c0,0,8.1,0,8.1-8.1c0,8.1,8.1,8.1,8.1,8.1"/>
		</g>
		<g>
			<g>
				<g>
					<g>
						<g>
							<polyline class="st26" points="527.3,555.2 527.3,696 416.4,696 416.4,563.5 							"/>
							<path class="st26" d="M474.6,559.7v-22.2c0-6.1-5-11.1-11.1-11.1c-6.1,0-11.1,5-11.1,11.1v22.2"/>
							<path class="st26" d="M452.5,562.5v-19.4c0-5.4-4.3-9.7-9.7-9.7s-9.7,4.3-9.7,9.7v19.4"/>
							<path class="st26" d="M433.1,565.3v-16.6c0-4.6-3.7-8.3-8.3-8.3s-8.3,3.7-8.3,8.3v16.6"/>
							<path class="st26" d="M499.6,556.6v-24.9c0-6.9-5.6-12.5-12.5-12.5c-6.9,0-12.5,5.6-12.5,12.5v24.9"/>
							<path class="st26" d="M527.3,555.2v-27.7c0-7.7-6.2-13.9-13.9-13.9s-13.9,6.2-13.9,13.9v27.7"/>
							<path class="st26" d="M458,537.5c0-3.1,2.5-5.5,5.5-5.5s5.5,2.5,5.5,5.5H458z"/>
							<path class="st26" d="M438.6,543.1c0-2.3,1.9-4.2,4.2-4.2c2.3,0,4.2,1.9,4.2,4.2H438.6z"/>
							<path class="st26" d="M422,548.7c0-1.5,1.2-2.7,2.7-2.7c1.5,0,2.7,1.2,2.7,2.7H422z"/>
							<path class="st26" d="M480.2,531.6c0-3.8,3.1-6.9,6.9-6.9c3.8,0,6.9,3.1,6.9,6.9H480.2z"/>
							<path class="st26" d="M505.1,527.5c0-4.6,3.7-8.3,8.3-8.3c4.6,0,8.3,3.7,8.3,8.3H505.1z"/>
						</g>
					</g>
					<path class="st23" d="M499.6,559l0,54.5c0,0,90.7,206.5,0,206.5c0,0,38.1-43.5,38.1-130.5S499.6,559,499.6,559v-2.4"/>
					<path class="st23" d="M499.6,559l0,54.5c0,0-205.2,206.5,0,206.5c0,0-86.1-43.5-86.1-130.5S499.6,559,499.6,559v-2.4"/>
				</g>
				<g>
					<g>
						<g>
							<polyline class="st26" points="560.1,555.2 560.1,696 670.9,696 670.9,563.5 							"/>
							<path class="st26" d="M612.7,559.7v-22.2c0-6.1,5-11.1,11.1-11.1s11.1,5,11.1,11.1v22.2"/>
							<path class="st26" d="M634.9,562.5v-19.4c0-5.4,4.3-9.7,9.7-9.7c5.4,0,9.7,4.3,9.7,9.7v19.4"/>
							<path class="st26" d="M654.3,565.3v-16.6c0-4.6,3.7-8.3,8.3-8.3s8.3,3.7,8.3,8.3v16.6"/>
							<path class="st26" d="M587.8,556.6v-24.9c0-6.9,5.6-12.5,12.5-12.5s12.5,5.6,12.5,12.5v24.9"/>
							<path class="st26" d="M560.1,555.2v-27.7c0-7.7,6.2-13.9,13.9-13.9s13.9,6.2,13.9,13.9v27.7"/>
							<path class="st26" d="M629.3,537.5c0-3.1-2.5-5.5-5.5-5.5s-5.5,2.5-5.5,5.5H629.3z"/>
							<path class="st26" d="M648.7,543.1c0-2.3-1.9-4.2-4.2-4.2s-4.2,1.9-4.2,4.2H648.7z"/>
							<path class="st26" d="M665.3,548.7c0-1.5-1.2-2.7-2.7-2.7c-1.5,0-2.7,1.2-2.7,2.7H665.3z"/>
							<path class="st26" d="M607.2,531.6c0-3.8-3.1-6.9-6.9-6.9c-3.8,0-6.9,3.1-6.9,6.9H607.2z"/>
							<path class="st26" d="M582.2,527.5c0-4.6-3.7-8.3-8.3-8.3c-4.6,0-8.3,3.7-8.3,8.3H582.2z"/>
						</g>
					</g>
					<path class="st23" d="M587.8,559l0,54.5c0,0-90.7,206.5,0,206.5c0,0-38.1-43.5-38.1-130.5S587.8,559,587.8,559v-2.4"/>
					<path class="st23" d="M587.8,559l0,54.5c0,0,205.2,206.5,0,206.5c0,0,86.1-43.5,86.1-130.5S587.8,559,587.8,559v-2.4"/>
				</g>
			</g>
			<g>
				<path class="st21" d="M297.9,564.9v-23.1c0,0-28.4,1.4-28.4,35.2h28.4V564.9z"/>
				<g>
					
						<rect x="336.4" y="522.1" transform="matrix(0.9725 0.2329 -0.2329 0.9725 131.4939 -64.2211)" class="st21" width="2.8" height="5.6"/>
					<g>
						
							<rect x="301.5" y="570.6" transform="matrix(0.2329 -0.9725 0.9725 0.2329 -305.2318 756.0261)" class="st21" width="50.2" height="1.7"/>
					</g>
					<path class="st21" d="M307.3,532.4c-1.1,4.5,10.2,11,25.2,14.6c15,3.6,28,2.9,29.1-1.6l-22.6-19c-0.8-0.7-1.9-0.9-2.9-0.7
						L307.3,532.4z"/>
				</g>
				<path class="st21" d="M313.5,559.4c-6.7,0-13,0-19.8,0c-4.3,0-10.1-0.5-8.6,4.2c2.8,8.6,4.1,18.1,3.7,27.1
					c-0.4,8.9-5.9,16.7-7.3,25.6c-1.7,10.8-0.3,22.5,6.8,31.2c6.8,8.3,18.2,13.7,21.6,24.6c1.5,4.7,0.7,15.4,0.7,15.4
					s-1,8.7-3.1,12.3c-2.4,4.2-10.4,7-13.4,7.9c-1.3,0.4-2.6,1-3.8,1.7c-2,1.2-4.2,3.2-3.3,5.5c1,2.4,7.9,2.9,7.9,2.9
					s15,1.3,22.5,1.3h-0.2c7.5-0.1,22.5-1.3,22.5-1.3s6.9-0.5,7.9-2.9c0.9-2.3-1.3-4.3-3.3-5.5c-1.2-0.7-2.5-1.3-3.8-1.7
					c-2.9-0.9-11-3.7-13.4-7.9c-2.1-3.7-3.1-12.3-3.1-12.3s-0.8-10.7,0.7-15.4c3.4-10.9,14.9-16.2,21.6-24.6
					c7.1-8.7,8.5-20.4,6.8-31.2c-1.4-8.9-6.9-16.6-7.3-25.6c-0.4-9.1,0.9-18.5,3.7-27.1c1.5-4.6-4.3-4.2-8.6-4.2c-6.7,0-13,0-19.8,0
					H313.5z"/>
				<line class="st21" x1="347.8" y1="568.8" x2="286.6" y2="568.8"/>
				<line class="st21" x1="325.5" y1="669.5" x2="308.9" y2="669.5"/>
				<path class="st21" d="M297.9,544.7c0,0-25.4,3.4-25.4,32.3"/>
				<path class="st21" d="M337.1,578.2c-0.2,1.3-0.4,2.6-0.6,3.9c-0.4,2.7,0.1,6.6,1,9.2"/>
				<path class="st21" d="M344,614.4c5.1,12.7-1.9,28.2-12.4,34.5c-4.5,2.7-8.6,7-9.5,12.2"/>
			</g>
		</g>
	</g>
</g>
</svg>
