<?xml version="1.0" encoding="utf-8"?>
<svg id="life-scene" version="1.1" xmlns="http://www.w3.org/2000/svg" xmlns:xlink="http://www.w3.org/1999/xlink" x="0px" y="0px"
	 viewBox="0 0 1086.6 696.1" style="enable-background:new 0 0 1086.6 696.1;" xml:space="preserve">
<style type="text/css">
	.life-st0{fill:none;stroke:#FFFFFF;stroke-miterlimit:10;}
	.life-st1{fill:none;}
	.life-st2{fill:none;stroke:#FFFFFF;stroke-linecap:round;stroke-linejoin:round;}
	.life-st3{stroke:#FFFFFF;stroke-miterlimit:10;}
	.life-st4{stroke:#FFFFFF;stroke-linecap:round;stroke-linejoin:round;stroke-miterlimit:10;}
	.life-st5{stroke:#FFFFFF;stroke-width:0.9071;stroke-miterlimit:10;}
	.life-st6{stroke:#FFFFFF;stroke-linecap:round;stroke-linejoin:round;}
</style>
<g id="water">
	<rect x="-55.8" y="366.4" class="life-st0" width="1217.2" height="207"/>
	<rect x="-55.8" y="540.1" class="life-st0" width="1217.2" height="26.3"/>
</g>
<g id="Layer_1">
	<rect x="-0.4" class="life-st1" width="1085" height="693.1"/>
</g>
<g id="waves">
	<g>
		<path class="life-st2" d="M303.8,443.9c0,0,8.1,0,8.1-8.1c0,8.1,8.1,8.1,8.1,8.1"/>
		<path class="life-st2" d="M287.5,443.9c0,0,8.1,0,8.1-8.1c0,8.1,8.1,8.1,8.1,8.1"/>
		<path class="life-st2" d="M271.3,443.9c0,0,8.1,0,8.1-8.1c0,8.1,8.1,8.1,8.1,8.1"/>
		<path class="life-st2" d="M255.1,443.9c0,0,8.1,0,8.1-8.1c0,8.1,8.1,8.1,8.1,8.1"/>
	</g>
	<g>
		<path class="life-st2" d="M708,429.6c0,0,8.1,0,8.1-8.1c0,8.1,8.1,8.1,8.1,8.1"/>
		<path class="life-st2" d="M691.8,429.6c0,0,8.1,0,8.1-8.1c0,8.1,8.1,8.1,8.1,8.1"/>
		<path class="life-st2" d="M675.6,429.6c0,0,8.1,0,8.1-8.1c0,8.1,8.1,8.1,8.1,8.1"/>
		<path class="life-st2" d="M659.3,429.6c0,0,8.1,0,8.1-8.1c0,8.1,8.1,8.1,8.1,8.1"/>
	</g>
	<g>
		<path class="life-st2" d="M469.5,405.5c0,0,8.1,0,8.1-8.1c0,8.1,8.1,8.1,8.1,8.1"/>
		<path class="life-st2" d="M453.3,405.5c0,0,8.1,0,8.1-8.1c0,8.1,8.1,8.1,8.1,8.1"/>
		<path class="life-st2" d="M437,405.5c0,0,8.1,0,8.1-8.1c0,8.1,8.1,8.1,8.1,8.1"/>
		<path class="life-st2" d="M420.8,405.5c0,0,8.1,0,8.1-8.1c0,8.1,8.1,8.1,8.1,8.1"/>
	</g>
	<g>
		<path class="life-st2" d="M146,405.5c0,0,8.1,0,8.1-8.1c0,8.1,8.1,8.1,8.1,8.1"/>
		<path class="life-st2" d="M129.8,405.5c0,0,8.1,0,8.1-8.1c0,8.1,8.1,8.1,8.1,8.1"/>
	</g>
	<g>
		<path class="life-st2" d="M78.5,465.6c0,0,8.1,0,8.1-8.1c0,8.1,8.1,8.1,8.1,8.1"/>
		<path class="life-st2" d="M62.3,465.6c0,0,8.1,0,8.1-8.1c0,8.1,8.1,8.1,8.1,8.1"/>
		<path class="life-st2" d="M46.1,465.6c0,0,8.1,0,8.1-8.1c0,8.1,8.1,8.1,8.1,8.1"/>
	</g>
	<g>
		<path class="life-st2" d="M578.3,465.6c0,0,8.1,0,8.1-8.1c0,8.1,8.1,8.1,8.1,8.1"/>
		<path class="life-st2" d="M562.1,465.6c0,0,8.1,0,8.1-8.1c0,8.1,8.1,8.1,8.1,8.1"/>
		<path class="life-st2" d="M545.9,465.6c0,0,8.1,0,8.1-8.1c0,8.1,8.1,8.1,8.1,8.1"/>
	</g>
</g>
<g id="sun_1_">
	<path class="life-st0" d="M652.801,366.4c-43.582-29.288-86.267-101-150.301-101c-51.4,0-78.8,27.7-120.6,27.7
		c-12.4,0-21.6-23.9-34-22.8c-11.7,1-19.5,21.3-30.8,26.1c-15.9,6.8-30.1-18.7-46.3-23.4c-12.6-3.7-25.5,5.8-35.5,19
		c-10,13.2-17.9,30.2-27.1,44.9c-8.443,13.547-20.025,23.068-33.251,29.5H652.801z"/>
</g>
<g id="sun">
	<g>
		<circle class="life-st0" cx="907.1" cy="167.8" r="39.6"/>
		<line class="life-st0" x1="907.1" y1="106.6" x2="907.1" y2="119.5"/>
		<line class="life-st0" x1="876.4" y1="114.8" x2="882.9" y2="126"/>
		<line class="life-st0" x1="854" y1="137.2" x2="865.3" y2="143.7"/>
		<line class="life-st0" x1="845.8" y1="167.8" x2="858.8" y2="167.8"/>
		<line class="life-st0" x1="854" y1="198.4" x2="865.3" y2="191.9"/>
		<line class="life-st0" x1="876.4" y1="220.8" x2="882.9" y2="209.6"/>
		<line class="life-st0" x1="907.1" y1="229.1" x2="907.1" y2="216.1"/>
		<line class="life-st0" x1="937.7" y1="220.8" x2="931.2" y2="209.6"/>
		<line class="life-st0" x1="960.1" y1="198.4" x2="948.9" y2="191.9"/>
		<line class="life-st0" x1="968.3" y1="167.8" x2="955.3" y2="167.8"/>
		<line class="life-st0" x1="960.1" y1="137.2" x2="948.9" y2="143.7"/>
		<line class="life-st0" x1="937.7" y1="114.8" x2="931.2" y2="126"/>
	</g>
</g>
<g id="clouds">
	<path class="life-st3 life-fill" d="M706.6,151.4c-2.2,0-4.3,0.4-6.3,1.1c-3.2-6.1-9.5-10.2-16.9-10.2c-8.6,0-15.9,5.8-18.3,13.7
		c-1.1-0.3-2.2-0.4-3.4-0.4c-6.6,0-12.2,4.3-14.2,10.3c-0.1,0-0.2,0-0.3,0c-6.5,0-11.9,5.3-11.9,11.9c0,6.5,5.3,11.9,11.9,11.9h24.1
		h35.3c10.5,0,19.1-8.5,19.1-19.1S717.2,151.4,706.6,151.4z"/>
	<path class="life-st3 life-fill" d="M221,146.9c-3.3,0-6.4,0.6-9.3,1.6c-4.7-9-14.1-15.1-25-15.1c-12.8,0-23.6,8.5-27,20.2
		c-1.6-0.4-3.3-0.6-5.1-0.6c-9.8,0-18.1,6.4-21,15.2c-0.1,0-0.3,0-0.4,0c-9.7,0-17.5,7.9-17.5,17.5c0,9.7,7.9,17.5,17.5,17.5h35.6
		H221c15.6,0,28.2-12.6,28.2-28.2S236.5,146.9,221,146.9z"/>
	<g>
		<path class="life-st3 life-fill" d="M655.5,171.2c-1.5,0-2.9,0.3-4.3,0.7c-2.2-4.1-6.5-7-11.5-7c-5.9,0-10.8,3.9-12.4,9.3
			c-0.7-0.2-1.5-0.3-2.3-0.3c-4.5,0-8.3,2.9-9.7,7c-0.1,0-0.1,0-0.2,0c-4.5,0-8.1,3.6-8.1,8.1s3.6,8.1,8.1,8.1h16.4h24
			c7.2,0,13-5.8,13-13C668.4,177,662.6,171.2,655.5,171.2z"/>
	</g>
	<g>
		<path class="life-st3 life-fill" d="M472.2,123.9c-1.5,0-2.9,0.3-4.3,0.7c-2.2-4.1-6.5-7-11.5-7c-5.9,0-10.8,3.9-12.4,9.3
			c-0.7-0.2-1.5-0.3-2.3-0.3c-4.5,0-8.3,2.9-9.7,7c-0.1,0-0.1,0-0.2,0c-4.5,0-8.1,3.6-8.1,8.1s3.6,8.1,8.1,8.1h16.4h24
			c7.2,0,13-5.8,13-13C485.2,129.7,479.4,123.9,472.2,123.9z"/>
	</g>
	<g>
		<path class="life-st3 life-fill" d="M108.7,264.2c-1.5,0-2.9,0.3-4.3,0.7c-2.2-4.1-6.5-7-11.5-7c-5.9,0-10.8,3.9-12.4,9.3
			c-0.7-0.2-1.5-0.3-2.3-0.3c-4.5,0-8.3,2.9-9.7,7c-0.1,0-0.1,0-0.2,0c-4.5,0-8.1,3.6-8.1,8.1s3.6,8.1,8.1,8.1h16.4h24
			c7.2,0,13-5.8,13-13S115.9,264.2,108.7,264.2z"/>
	</g>
</g>
<g id="palm">
	<g>
		<path class="life-st4 life-fill" d="M964.5,476.2c-21.9-45.6-2.6-100.4,43-122.2c45.6-21.9,100.4-2.6,122.2,43l-11,5.3l-27.1-14.1l7.8,23.4
			l-22,10.6l-28.3-23.7l6.3,34.3l-30.3,14.5l-22.9-19.5l3.6,28.7L964.5,476.2z"/>
		<path class="life-st4 life-fill" d="M960.1,466c21.1-46,0.9-100.4-45-121.5c-46-21.1-100.4-0.9-121.5,45l16.7,7.6l19.3-12.7l-2.6,20.4l33.3,15.3
			l23.8-21.7l-1.6,31.9l13.9,6.4l23-6.2l-0.8,16.4L960.1,466z"/>
		<path class="life-st4 life-fill" d="M962.2,468.7c9.6-49.7,57.7-82.2,107.4-72.5c49.7,9.7,82.2,57.7,72.5,107.4l-15-2.9l-3.1-16.2l-14.9,12.7
			l-15-2.9l-11-39.5l-13,34.8l-33-6.4l-7.4-26.3l-22.6,20.5L962.2,468.7z"/>
		<path class="life-st4 life-fill" d="M964.4,464.7c-10.1-49.6-58.5-81.6-108.1-71.5s-81.6,58.5-71.5,108.1l18-3.7l8.9-17.4l9,13.7l35.9-7.3
			l0.5-28.2l23.4,23.3l15-3l14.9-18.6l9,13.7L964.4,464.7z"/>
		<path class="life-st4 life-fill" d="M947.9,471.7v83.7c0,33.7,27.3,61.1,61.1,61.1h152.4V586H1009c-16.9,0-30.5-13.7-30.5-30.5v-83.7h-30.6V471.7
			z"/>
		<g>
			<circle class="life-st5 life-fill" cx="951.5" cy="477.6" r="14.7"/>
			<circle class="life-st5 life-fill" cx="974.9" cy="478.1" r="14.7"/>
			<circle class="life-st5 life-fill" cx="964" cy="456.4" r="14.7"/>
		</g>
	</g>
</g>
<g id="cup">
	<g>
		<g>
			<path class="life-st3 life-fill" d="M297.5,564.9v-23.1c0,0-28.4,1.4-28.4,35.2h28.4V564.9z"/>
			<g>

					<rect x="335.955" y="522.118" transform="matrix(-0.9725 -0.2329 0.2329 -0.9725 543.1799 1113.9707)" class="life-st3 life-fill" width="2.8" height="5.6"/>
				<g>

						<rect x="301.068" y="570.648" transform="matrix(-0.2329 0.9725 -0.9725 -0.2329 957.9156 387.4013)" class="life-st3 life-fill" width="50.2" height="1.7"/>
				</g>
				<path class="life-st3 life-fill" d="M306.9,532.4c-1.1,4.5,10.2,11,25.2,14.6s28,2.9,29.1-1.6l-22.6-19c-0.8-0.7-1.9-0.9-2.9-0.7L306.9,532.4z"
					/>
			</g>
			<path class="life-st3 life-fill" d="M313.1,559.4c-6.7,0-13,0-19.8,0c-4.3,0-10.1-0.5-8.6,4.2c2.8,8.6,4.1,18.1,3.7,27.1
				c-0.4,8.9-5.9,16.7-7.3,25.6c-1.7,10.8-0.3,22.5,6.8,31.2c6.8,8.3,18.2,13.7,21.6,24.6c1.5,4.7,0.7,15.4,0.7,15.4
				s-1,8.7-3.1,12.3c-2.4,4.2-10.4,7-13.4,7.9c-1.3,0.4-2.6,1-3.8,1.7c-2,1.2-4.2,3.2-3.3,5.5c1,2.4,7.9,2.9,7.9,2.9
				s15,1.3,22.5,1.3h-0.2c7.5-0.1,22.5-1.3,22.5-1.3s6.9-0.5,7.9-2.9c0.9-2.3-1.3-4.3-3.3-5.5c-1.2-0.7-2.5-1.3-3.8-1.7
				c-2.9-0.9-11-3.7-13.4-7.9c-2.1-3.7-3.1-12.3-3.1-12.3s-0.8-10.7,0.7-15.4c3.4-10.9,14.9-16.2,21.6-24.6
				c7.1-8.7,8.5-20.4,6.8-31.2c-1.4-8.9-6.9-16.6-7.3-25.6c-0.4-9.1,0.9-18.5,3.7-27.1c1.5-4.6-4.3-4.2-8.6-4.2c-6.7,0-13,0-19.8,0
				H313.1z"/>
			<line class="life-st0" x1="347.4" y1="568.8" x2="286.2" y2="568.8"/>
			<line class="life-st0" x1="325.1" y1="669.5" x2="308.5" y2="669.5"/>
			<path class="life-st3 life-fill" d="M297.5,544.7c0,0-25.4,3.4-25.4,32.3"/>
			<path class="life-st3 life-fill" d="M336.7,578.2c-0.2,1.3-0.4,2.6-0.6,3.9c-0.4,2.7,0.1,6.6,1,9.2"/>
			<path class="life-st3 life-fill" d="M343.6,614.4c5.1,12.7-1.9,28.2-12.4,34.5c-4.5,2.7-8.6,7-9.5,12.2"/>
		</g>
	</g>
</g>
<g id="feet">
	<g>
		<g>
			<g>
				<polyline class="life-st6 life-fill" points="416.1,563.5 416.1,706 526.9,706 526.9,547.2 				"/>
				<path class="life-st6 life-fill" d="M452.1,559.625v-22.1c0-6.073,4.977-11.05,11.05-11.05s11.05,4.977,11.05,11.05v22.1"/>
				<path class="life-st6 life-fill" d="M432.7,562.5v-19.4c0-5.4,4.3-9.7,9.7-9.7s9.7,4.3,9.7,9.7v19.4"/>
				<path class="life-st6 life-fill" d="M416.1,565.3v-16.6c0-4.6,3.7-8.3,8.3-8.3s8.3,3.7,8.3,8.3v16.6"/>
				<path class="life-st6 life-fill" d="M474.2,556.525v-24.8c0-6.872,5.578-12.45,12.45-12.45s12.45,5.578,12.45,12.45v24.8"/>
				<path class="life-st6 life-fill" d="M499.1,555.2v-27.7c0-7.7,6.2-13.9,13.9-13.9c7.7,0,13.9,6.2,13.9,13.9v27.7"/>
				<path class="life-st6 life-fill" d="M468.65,537.5c0-3-2.5-5.5-5.5-5.5s-5.5,2.4-5.5,5.5H468.65z"/>
				<path class="life-st6 life-fill" d="M446.7,543.1c0-2.3-1.9-4.2-4.2-4.2s-4.2,1.9-4.2,4.2H446.7z"/>
				<path class="life-st6 life-fill" d="M427.1,548.7c0-1.5-1.2-2.7-2.7-2.7s-2.7,1.2-2.7,2.7H427.1z"/>
				<path class="life-st6 life-fill" d="M493.55,531.6c0-3.8-3.1-6.9-6.9-6.9c-3.8,0-6.9,3.1-6.9,6.9H493.55z"/>
				<path class="life-st6 life-fill" d="M521.4,527.5c0-4.6-3.7-8.3-8.3-8.3c-4.6,0-8.3,3.7-8.3,8.3H521.4z"/>
			</g>
		</g>
		<g>
			<path class="life-st4 life-fill" d="M535.012,725.464C524.499,671.104,499.2,613.5,499.2,613.5V559c0,0,38.1,43.5,38.1,130.5
				C537.3,702.455,536.45,714.438,535.012,725.464z"/>
		</g>
		<g>
			<path class="life-st4 life-fill" d="M499.2,559v54.5c0,0-57.149,57.516-80.967,111.839c-3.228-10.992-5.133-22.933-5.133-35.839
				C413.1,602.5,499.2,559,499.2,559z"/>
		</g>
	</g>
	<g>
		<g>
			<g>
				<polyline class="life-st6 life-fill" points="559.7,547.2 559.7,706 670.5,706 670.5,563.5 				"/>
				<path class="life-st6 life-fill" d="M612.4,559.625v-22.1c0-6.073,4.977-11.05,11.05-11.05s11.05,4.977,11.05,11.05v22.1"/>
				<path class="life-st6 life-fill" d="M634.5,562.5v-19.4c0-5.4,4.3-9.7,9.7-9.7s9.7,4.3,9.7,9.7v19.4"/>
				<path class="life-st6 life-fill" d="M653.9,565.3v-16.6c0-4.6,3.7-8.3,8.3-8.3s8.3,3.7,8.3,8.3v16.6"/>
				<path class="life-st6 life-fill" d="M587.5,556.525v-24.8c0-6.872,5.578-12.45,12.45-12.45s12.45,5.578,12.45,12.45v24.8"/>
				<path class="life-st6 life-fill" d="M559.7,555.2v-27.7c0-7.7,6.2-13.9,13.9-13.9s13.9,6.2,13.9,13.9v27.7"/>
				<path class="life-st6 life-fill" d="M628.95,537.5c0-3.1-2.5-5.5-5.5-5.5s-5.5,2.5-5.5,5.5H628.95z"/>
				<path class="life-st6 life-fill" d="M648.3,543.1c0-2.3-1.9-4.2-4.2-4.2s-4.2,1.9-4.2,4.2H648.3z"/>
				<path class="life-st6 life-fill" d="M664.9,548.7c0-1.5-1.2-2.7-2.7-2.7s-2.7,1.2-2.7,2.7H664.9z"/>
				<path class="life-st6 life-fill" d="M606.85,531.6c0-3.8-3.1-6.9-6.9-6.9c-3.8,0-6.9,3.1-6.9,6.9H606.85z"/>
				<path class="life-st6 life-fill" d="M581.8,527.5c0-4.6-3.7-8.3-8.3-8.3s-8.3,3.7-8.3,8.3H581.8z"/>
			</g>
		</g>
		<g>
			<path class="life-st4 life-fill" d="M551.588,725.464C562.101,671.104,587.4,613.5,587.4,613.5V559c0,0-38.1,43.5-38.1,130.5
				C549.3,702.455,550.15,714.438,551.588,725.464z"/>
		</g>
		<g>
			<path class="life-st4 life-fill" d="M587.4,559v54.5c0,0,57.149,57.516,80.967,111.839c3.228-10.992,5.133-22.933,5.133-35.839
				C673.5,602.5,587.4,559,587.4,559z"/>
		</g>
	</g>
</g>
</svg>
